<?xml version="1.0" standalone="no"?>
<!DOCTYPE svg PUBLIC "-//W3C//DTD SVG 20010904//EN"
 "http://www.w3.org/TR/2001/REC-SVG-20010904/DTD/svg10.dtd">
<svg version="1.0" xmlns="http://www.w3.org/2000/svg"
 width="306.000000pt" height="306.000000pt" viewBox="0 0 306.000000 306.000000"
 preserveAspectRatio="xMidYMid meet">
<metadata>
Created by potrace 1.14, written by Peter Selinger 2001-2017
</metadata>
<g transform="translate(0.000000,306.000000) scale(0.100000,-0.100000)"
fill="#000000" stroke="none">
<path d="M1554 2919 c-43 -34 -94 -101 -129 -170 l-24 -46 -68 33 c-116 57
-271 77 -334 43 -28 -15 -23 -55 17 -134 49 -96 105 -169 169 -218 l54 -41
-51 -16 c-64 -19 -85 -46 -61 -79 14 -21 21 -23 78 -19 l62 5 -55 -101 c-82
-149 -261 -520 -331 -685 -172 -400 -228 -701 -172 -916 56 -214 175 -358 376
-455 251 -121 438 -145 670 -85 310 80 511 249 590 497 61 192 61 383 -1 567
-75 224 -420 802 -643 1079 -55 68 -86 114 -79 116 7 2 99 9 203 15 105 7 253
16 330 21 84 6 176 6 230 0 49 -5 222 -12 383 -16 l292 -7 0 42 0 41 -147 0
c-366 1 -544 39 -563 120 -4 17 -25 36 -68 60 -34 19 -62 40 -62 47 0 18 177
151 240 181 46 22 68 26 140 26 76 -1 104 -7 259 -58 96 -32 181 -60 188 -63
9 -4 13 7 13 38 l0 44 -113 33 c-61 19 -129 45 -149 59 -37 25 -41 25 -170 20
-88 -3 -148 -10 -178 -21 -25 -9 -103 -59 -175 -112 -71 -52 -146 -103 -165
-113 -29 -15 -364 -121 -382 -121 -3 0 -8 53 -11 118 -7 142 -34 246 -72 279
-34 30 -45 29 -91 -8z m680 -378 l46 -40 -28 -5 c-47 -10 -271 -44 -432 -66
-85 -11 -168 -23 -185 -26 -25 -5 -28 -4 -17 7 9 10 521 162 564 168 4 1 27
-17 52 -38z m48 -101 c-2 -14 -7 -28 -10 -32 -13 -13 -643 -63 -712 -56 -19 1
84 20 230 41 146 21 310 46 365 56 122 24 131 23 127 -9z m-769 -97 c-7 -2
-21 -2 -30 0 -10 3 -4 5 12 5 17 0 24 -2 18 -5z"/>
<path d="M2123 2542 c-50 -19 -55 -32 -14 -32 40 0 83 18 79 32 -6 17 -18 17
-65 0z"/>
<path d="M2359 2675 c-31 -17 -44 -44 -25 -51 7 -3 32 5 55 17 35 18 51 20 97
14 64 -8 68 8 6 25 -51 14 -102 12 -133 -5z"/>
</g>
</svg>
