<?xml version="1.0" encoding="utf-8"?>
<svg id="Layer_1" data-name="Layer 1" viewBox="143.558 290.105 1113.019 820.411" xmlns="http://www.w3.org/2000/svg">
  <defs>
    <style>.cls-1,.cls-5{fill:#373737;}.cls-1,.cls-6{stroke:#000;stroke-miterlimit:10;}.cls-1{stroke-width:6.62px;}.cls-2{fill:#f2f2f2;}.cls-3{fill:#416d4a;}.cls-4{fill:none;}.cls-6{fill:#f49302;stroke-width:4.42px;}</style>
  </defs>
  <path class="cls-1" d="M1244.8,394.91a21.31,21.31,0,0,0-5.08-2.92,198.24,198.24,0,0,0-50.79-14,30.52,30.52,0,0,1-3.06-.54c1.56-.28,30.9-2.36,44.84-3.27,2.5-.17,5-.21,7.5-.61s5.48-.59,5.87-3.71-2.68-4.26-4.81-4.89c-13.36-4-31.17-8.39-44.85-10.46-22-3.34-39.55-4.85-61.71-6.95-1.12-.1-5.32-.28-5.34-.55,1.3-.49,5.43-2.17,6.75-2.61,8.54-2.79,15.24-6.17,21.77-12.32,1-.94,2.11-3.6,1.6-4.64s-3.12-1.42-4.57-1.24c-3.34.42-46.36,5.84-64.57,7.9-13.11,1.48-26.16,3.5-39.26,5.09-5.34.64-7,.81-12.9,1.54.21-.55,35.15-36.43,36.92-39.15a2.81,2.81,0,0,0-.15-3c-.74-.71-2.2,0-3,.49-2.84,1.82-5.59,3.81-8.31,5.82-19.37,14.37-38.43,29.15-59.48,41.14-24.82,14.12-50.12,27-78,34-25,6.23-50,12.34-75,18.55-14.72,3.66-29.3,7.62-43.16,14.1-19.17,9-37.61,18.84-53.44,33.21-11.88,10.78-24.14,21.17-36.63,31.24-17.65,14.23-37.19,25.5-57.3,36C641.54,522,625,531.93,608.25,541.59c-3.28,1.9-6.39,2.33-9.57.61-9.88-5.32-20.17-10.06-29.37-16.38a655,655,0,0,1-68.25-54c-9.31-8.41-18.84-16.6-27.82-25.34-8.83-8.59-17.5-17.37-24.14-27.95a22.45,22.45,0,0,0-7.46-7.11c-16-9.34-32.23-18.36-48.38-27.48-2.07-1.16-4.18-2.24-7-3.73-.43,2.77.16,9.08-.25,11.71-2.59-9-3.38-13.33-8.84-17.15-1.65-1.16-3.38-2.4-5.73-4.18-15.65-10.88-29.89-23.11-39.31-40.11a15.9,15.9,0,0,0-4.17-4.53c-2.45-2-3.82-1.59-5,1.3-1.08,2.62-2.78,10.11-3.07,10.16-1.32-5.13-3-12.21-4.48-17.3-.36-1.25-.95-3.24-2.34-3.38s-2.46,1.87-3.13,3.11c-.77,1.43-.93,3.2-1.59,5.76-1.07-2.1-1.72-3.31-2.31-4.56-2.32-4.93-4.46-9.95-7-14.76-.73-1.36-2.09-3.75-4-3.11s-2.19,3.12-2.13,4.64c.2,5.76.73,11.52,1.44,17.24.54,4.36,1.54,8.66,2.48,13.81-1.26-1.15-1.92-1.68-2.5-2.29-9-9.5-18-19-27-28.51A13.79,13.79,0,0,0,263,304.6c-3.83-1.57-6.47.59-5.43,4.52.56,2.09,2.09,4,3.49,5.77,6.27,7.84,13.48,15.07,18.82,23.48,10.81,17,20.84,34.55,30.81,52.09,8.63,15.21,17,30.64,29.08,43.41,10.13,10.69,21.08,20.6,31.44,31.07,4.11,4.16,8.69,8.4,11.2,13.51a461.48,461.48,0,0,0,34.8,58.86c11.16,16.16,23.48,31.28,40.73,41.52a6.73,6.73,0,0,1,.92.87c-.3.37-.44.71-.7.84a22.74,22.74,0,0,1-2.08.93c-8.52,3.51-16.62,7.8-23.53,14-2,1.78-3.53,1.79-5.75.66-12.35-6.29-24.75-12.46-37.13-18.69-.32-.16-.54-.5-1-1,1.21-.26,2.05-.42,2.88-.63,3.58-.89,4.5-2.86,2.35-5.82a4.89,4.89,0,0,0-3.58-1.68c-6.2.21-12.4.75-18.6,1.11-15.83.91-26.89,9.34-34.79,22.41a58.13,58.13,0,0,0-8.74,27.82,50.94,50.94,0,0,1-.5,5.53c-1.36,8.73-5.64,16.21-10.08,23.64a220,220,0,0,0-19.72,41.64c-3.18,9.23-3.15,18.9-4.19,28.43-.3,2.71-.74,5.41-.9,8.13a2.84,2.84,0,0,0,1,2.48c.78.49,1.74-.68,2.45-1.24.46-.36.62-1.12.92-1.7,2.64-5.26,4.9-10.75,8-15.72,9.1-14.67,19-28.78,30.87-41.42q15-16,30.12-31.9c4.59-4.81,10.67-7.09,16.8-9.11,1.71-.55,3.84-1,5.45-.47,10.82,3.45,22.14,6.35,30.66,14.21,11.46,10.55,22.2,21.89,33.11,33,2.68,2.75,3.17,3,5.6.2l34.4,27.74c2.75,2.22,3.75,4.86,2.4,8.37a15.24,15.24,0,0,0-.8,5.14C493.59,729,497,740.48,505,749.72c7.51,8.71,16.54,16.1,24.81,24.17a6.94,6.94,0,0,1,2.27,3.9c.88,14.27,1.55,28.54,2.27,42.81.26,5,.51,10,.79,15.31a15.74,15.74,0,0,1-1.92-1.1c-13.1-10.71-26.3-21.3-39.23-32.19-6.34-5.34-12.2-11.25-18.29-16.88a8.48,8.48,0,0,0-9.38-1.81q-12.3,4.5-24.7,8.72a9.34,9.34,0,0,0-6.32,6.52c-1.8,6-3.8,11.85-5.29,17.88a9.42,9.42,0,0,0,.74,6.23,132.77,132.77,0,0,0,8.18,12.63,4.62,4.62,0,0,0,3.21,1.85c5.12,0,10.25-.27,15.34-.77,2.63-.26,3.35-2.25,1.92-4.57a26.88,26.88,0,0,0-3.5-4.74c-3-3-3.1-6.4-2.05-10.27.54-2,1.5-2.75,3.36-2.79,4.36-.08,8.73-.31,13.08-.21,3.58.08,7.23.72,8-4.37l38.48,42c-1.22.47-2.4,1-3.63,1.38-7.38,2.33-14.79,4.58-22.17,7-5.88,1.89-10.34,5.38-12.77,11.3-.86,2.1-2.42,3.91-3.78,6.05-6.53-6.87-14.7-8.84-22.59-11.26-3.58-1.11-4.74,0-5.12,3.71-.65,6.4-1.05,12.83-1.89,19.2-1.45,11,2.75,19.82,11,26.52,4.52,3.65,9.87,6.34,15,9.09,2.15,1.14,3.15,2,2.12,4.45-2.17,5.12-4,10.4-6.4,15.41-9.16,19.08-11.31,39.1-7.77,59.73,3.25,19,20.22,37.66,44.31,39.89,15.23,2.37,26.71-5.3,37.24-14.81,6.16-5.56,8.21-13.45,11-20.93,6.57-17.69,4.7-34.26-7.1-49.08-5.48-6.87-12-12.92-18.2-19.2-5.41-5.49-11-10.78-16.87-16.47a24.23,24.23,0,0,1,2.65-.91,23.92,23.92,0,0,0,16-11.47c1.93-3.15,3.19-6.7,5-9.91,3.29-5.75,6.84-11.35,10.15-17.09.85-1.48,2.09-3.59,1.59-4.75s-2.85-2.12-4.48-2.3c-5.64-.63-11.31-1-17-1.24a31.31,31.31,0,0,0-9.39.69c-3,.83-4.15-.36-5.54-3.05,1.43-.52,2.66-1.07,3.94-1.43,7.14-2,14.31-3.9,21.44-5.94,8.7-2.49,17.36-5.07,26-7.65a5.49,5.49,0,0,0,2.32-1.14c4.06-4,7.64-8.15,6.7-14.49-.59-4-1-8-1.32-12-.58-7.26-1-14.52-1.52-21.82,6.6.56,12.89,1,19.15,1.68,2.7.29,3.7,0,4.72-3.21.54-1.72,1.45-4.91,2.06-6.65a65.58,65.58,0,0,1-.25,6.76c-.24,1.92.17,3.8,2.37,4,6.59.59,13.21,1,19.82,1.3,2.52.11,3.69-1.59,3.79-4,.13-3.33.25-6.65.38-10,.29.46,2,5.42,2.73,7.44,1.87,4.39,2,6,6.16,5.3,16-2.82,37.85-8.66,50.12-13.64,4.71-1.9,5.08-4,2-7.9A107.57,107.57,0,0,1,671.41,779c2.66,2.45,5.8,5.69,8,7.21,6.2,4.3,6.75,4.25,12.28-.74.9-.81,1.82-1.57,2.69-2.4,7.26-6.95,14.57-13.84,21.72-20.88,2.83-2.78,2.37-4.76-.94-6.26-11.33-5.14-22.69-10.22-33.94-15.53a9.82,9.82,0,0,1-4.29-4.17c-8.78-17.61-10.91-36.08-4-54.55a222.73,222.73,0,0,1,27.11-51,11.72,11.72,0,0,1,3.08-2.87c5.19-3.43,10.37-6.9,15.71-10.09,16.86-10.07,34.24-19.35,50.6-30.18C800.26,567,830.7,545.94,861,524.67a73.45,73.45,0,0,1,40.2-13.9c19.42-.78,38.86-1.18,58.27-2,11.21-.45,22.44-.55,33.42-3.72,17.13-4.94,32.63-13.49,48.51-21.18,18.84-9.14,37.4-18.9,56.09-28.35,2-1,4.25-1.75,6.26-2.85,3-1.64,3.36-4.48.75-6.59a46.81,46.81,0,0,0-9.14-5.32c-6.89-3.16-17.67-8.07-24.7-11.33a149.87,149.87,0,0,1,16.25,3.47c10.81,3.42,21.54,7.11,32.35,10.55,1.66.53,3.8.89,5.32.29,8-3.17,16-6.42,23.78-10.13,13.89-6.64,27.61-13.62,41.38-20.5a22.24,22.24,0,0,0,4.13-2.63c2.42-2,2.59-3.54-.24-4.71s-13.77-3.79-15.35-4.29a49.19,49.19,0,0,1,8.27-.87c16.26-.8,32.5-1.36,48.71.95a26.27,26.27,0,0,0,8.44-.08,4.58,4.58,0,0,0,3-3.21C1246.9,397.06,1245.77,395.71,1244.8,394.91Z"/>
  <path class="cls-2" d="M538.37,768.67c-.3-1.13-.53-2.29-.94-3.38-.18-.45-.77-.75-1.16-1.12-11.34-10.63-19.76-22.9-21.92-38.73a3.28,3.28,0,0,0-.89-2c-3.32-2.59-6.72-5.07-10.53-7.9-.88,6.21.94,11.38,2.75,16.46,4,11.34,12,20.16,19.57,29.12,2.61,3.08,6.13,5.44,9.45,7.83C535.46,769.5,537.12,768.8,538.37,768.67Z"/>
  <path class="cls-2" d="M524.59,848.39a5.75,5.75,0,0,0,3.84.88c4.78-1.13,9.46-2.66,14.21-3.89,1.82-.47,2.45-1.38,2.34-3.23-.32-5.23-.55-10.46-.72-15.7q-.9-27.44-1.73-54.88c-5.73.58-6,.59-5.73,5.68.77,13.94,1.89,27.86,2.67,41.79.46,8.08.53,16.18.77,24.27-2.91,1.16-4.17-.5-5.34-1.44-15.18-12.28-30.4-24.52-45.4-37-5.86-4.88-11.22-10.36-16.75-15.63a4.28,4.28,0,0,0-5-1c-5.93,2.21-11.94,4.21-17.88,6.41-10.92,4.05-8.77,1.12-12.5,13.2-3.93,12.7-3.79,12.74,3.82,23.42a4.67,4.67,0,0,0,.77,1,4,4,0,0,0,1.93,1c3.11,0,6.22-.22,10.08-.39a37.49,37.49,0,0,1-3.17-4.18c-1-1.86-2.34-3.83-2.5-5.84a78.07,78.07,0,0,1,.27-11.43c.23-3.32,2.29-5.16,5.51-5.43a52.12,52.12,0,0,1,8.83-.17c4.22.35,7.43-.87,9.63-4.63,1.29-2.2,3.1-2.24,4.87-.49,2.17,2.15,4.26,4.37,6.39,6.55q18.45,18.84,36.9,37.65A21.32,21.32,0,0,0,524.59,848.39Z"/>
  <path class="cls-2" d="M333.3,660.39c-7.46,10.17-15.42,22.88-19.94,33.49,5-7.9,19.49-27.15,24.38-32.51,6.08-6.68,11.79-13.64,18.26-19.93,4.49-4.37,5.24-6.2,2.48-13.28C351.82,637.09,342.07,648.46,333.3,660.39Z"/>
  <path class="cls-3" d="M469,880.36c-5.08-4.59-11.31-6.72-18.16-8.89-.67,6.12-1.31,11.93-1.95,17.74-1.23,11,4.22,18.29,13.15,23.56,2.7,1.59,5.62,2.8,8.8,4.37-6.52-9.5-8.6-20.17-12.86-29.89-.19-.44-.15-1.36.13-1.55.76-.51,2.06-1.32,2.54-1,2.64,1.63,5.1,3.54,7.77,5.46a35.63,35.63,0,0,1,1.77-3.75C471.62,884,471,882.14,469,880.36Z" style="fill: rgb(244, 147, 2);"/>
  <path class="cls-2" d="M330,350.14c8.33,17.57,21.14,31.49,36.83,42.67,15.9,11.33,32.22,22.07,48.24,33.23,4.16,2.91,9.13,5.7,11.57,9.82,7.6,12.87,15.36,25.57,23.57,38.09,12.27,18.68,26.79,35.54,39.94,53.49,3.06,4.16,6.54,5.61,11.46,3.92,3.81-1.3,7.68-2.44,11.58-3.38,1.15-.28,3.13-.71,3.79.58s-.69,2.58-1.67,3.32a12.85,12.85,0,0,1-2.85,1.57c-3.71,1.47-7.44,2.89-11.16,4.32-.12.3,4.5,4.25,6.48,3.83,7.23-1.53,14.24-4,21.39-6,1.25-.34,3.54-.57,4.13.34s-.46,2.28-1.73,3.4a12.73,12.73,0,0,1-2.46,1.3c-5.41,2.56-10.82,5.1-16.61,7.82,1.77,1.74,3.37,3.51,5.19,5a3.24,3.24,0,0,0,2.66.23c8.86-3,17.67-6.22,26.55-9.21,1.11-.38,3.3-.85,3.8.22.62,1.32-.79,2.86-1.72,3.44q-6.65,4.14-13.62,7.74c-3.08,1.58-5.73,2.56-9.45,4.12a15.38,15.38,0,0,1,2.23,2.72c2.49,3,5.39,3.27,9,2.24,15.21-4.29,30.5-8.31,45.72-12.56,1.39-.39,3.69-1.57,3.81-2.5s-2-2.7-3.36-3.53c-8.6-5.38-17.82-9.91-25.84-16-20.06-15.27-40.37-30.35-58.16-48.29-16.9-17.05-33.23-34.67-49.44-52.38-5.64-6.16-11.16-12.26-18.34-16.62q-13.86-8.42-27.77-16.73a15.21,15.21,0,0,1-1.75-1c-.68,2.29-1.41,3.48-2.18,5.51-.24.64-1.16,2.91-1.71,2.76s-1-2.13-1-2.76c-.28-2.49-.4-4.05-.65-6.55-.08-.79-.31-1.91-.86-2.24-2-1.2-4.15-2.13-6.71-3.39a45.48,45.48,0,0,1-.28,5.94c-.24,1.26-.57,3.49-1.57,3.62s-2.44-1.55-3-2.66c-1.83-3.59-3.22-7.4-5-11a10.32,10.32,0,0,0-3.41-4.08c-19.26-11.83-35.92-26.25-47-46.32a12.92,12.92,0,0,0-1.35-1.7.71.71,0,0,0-1,.08c-.36.31-.46,3.08-.11,4.47C327.2,341.46,328.07,346.07,330,350.14Z" style="fill: rgb(255, 255, 255);"/>
  <path class="cls-2" d="M496.6,572.93c9.07-1.44,18.12-3.08,27.69-4.73a15,15,0,0,0-1.16-1.45c-12.77-10.73-26.35-20.63-38.08-32.39-11.9-11.92-22-25.68-32.83-38.63-13.55-16.13-27.2-32-45.07-43.88-15.87-10.58-30.86-22.48-46-34.12a285.24,285.24,0,0,1-40.31-37.29L310.07,368.2c-1.79.78,4.27,9.51,6.59,14.14,12.46,24.84,28.24,47.22,49.53,65.28,18.38,15.58,32.23,34.54,43.54,55.56,10.52,19.55,22.94,37.66,39.46,52.67A105.61,105.61,0,0,0,464,567.56C474,573.76,485.17,574.75,496.6,572.93Z" style="fill: rgb(255, 255, 255);"/>
  <path class="cls-2" d="M348.17,636.34c2.38-3.24,4.25-6.85,6.46-10.21,1.27-1.93.75-3.34-1-4.32A87.13,87.13,0,0,0,344,617c-5.11-2-9,.25-9.67,5.62-1.09,8.38-4.41,15.93-8.42,23.21-4.84,8.76-10,17.37-14.71,26.19a171,171,0,0,0-8.69,18.92c-2.69,6.92-3.85,10.77-4.45,17.91v.67c-.08,1.41-.84,6.52-.87,7.76,1.63-3,5.2-10.1,6.89-13.07,7.23-12.67,14-25.65,21.91-37.89C332.71,655.87,340.82,646.36,348.17,636.34Zm-6.65-12.46a2.13,2.13,0,0,1,2.31-.74c4.62.48,6.16,3.49,3.85,7.41-.88,1.48-1.81,3-2.83,4.35-.4.55-1.39,2.16-2.2,1.72s-.89-2-.76-2.76a8.27,8.27,0,0,1,1.37-2.56c1.3-2,1.31-3.78-.82-5.35C341.91,625.56,341,624.79,341.52,623.88Z"/>
  <path class="cls-3" d="M501.53,896.94c3.68-.32,7.35-.77,11-.87,1.05,0,3,0,3.2,1.53.24,2-3.38,3.56-4.11,3.79-5.3,1.67-10.58,3.44-15.94,4.93-2.41.67-3.25,2-2.8,4.28.49,2.45,1.19,4.87,1.63,7.33s2,3.11,4,2.84c10.74-1.42,19.94-5.27,25.32-15.59,3.37-6.46,7.14-12.71,10.77-19,1.06-1.85,1.09-3.15-1.46-3.33-4.57-.31-9.14-.79-13.71-.8-2.08,0-4.73.32-6.14,1.59-4.33,3.9-8.18,8.32-12.23,12.54Z" style="fill: rgb(244, 147, 2);"/>
  <path class="cls-2" d="M632.52,711.89c-4-7.69-7-15.91-10.51-23.89-.38-.86-.8-1.71-1.43-3a48.05,48.05,0,0,1-3.72,5.06c-.78.83-2.48,2.18-3.14,1.74s-.62-2.79-.13-3.8c2.26-4.59,4.71-9.1,7.28-13.53,17.35-29.93,39.54-56.47,59.46-84.61,13.54-19.13,27.14-38.3,39.33-58.3,12.33-20.24,27.12-37.38,48.47-48.24,8.56-4.36,17.11-8.73,25.76-12.88,20.16-9.69,40-20.13,60.65-28.66,39.62-16.39,77.3-36.05,111.84-61.52,8.24-6.07,16.22-12.49,24.31-18.75-.15-.27-2.75.3-3.89.83-11.09,5.11-21.8,11.43-33.35,15.07-22,6.94-44.35,12.89-66.79,18.28-29,7-58.18,13.05-84.95,26.94-7.92,4.11-16.8,6.86-23.82,12.13-13.07,9.8-25.27,20.78-37.51,31.64-20.4,18.1-42,34.46-65.85,47.8-12.66,7.08-25.44,14-37.92,21.35-15.32,9.06-30.53,18.44-47.54,23.91-16,5.13-32.13,9.76-48.46,13.46-18.7,4.24-37.64,7.44-56.54,10.64-14.52,2.45-28.23,6.6-40.23,15.42-.57.42-1.41.91-2.28,1.66.83.26,1.51.45,2.19.6,10,2.3,18.55,4.92,29,3.34,2-.3,3.93-.06,4.47,2.19.58,2.41-1.1,3.8-3.15,4.18A58.74,58.74,0,0,1,464,612.07c-13.38.13-25.92-3.54-37.78-9.39-15.36-7.57-30.52-15.56-45.76-23.38a5.21,5.21,0,0,1-1.87-1.27c-1.9-2.56-4.35-2.42-7.07-1.82-11.75,2.57-21,9.08-28.13,18.48-3.56,4.66-6.21,9.92-6.78,16.2,7.33-2.95,12.87.76,18.41,4.24,5.82,3.64,9,9.25,10.94,15.94a50,50,0,0,1,20.47-9.93c2-.42,4.35-.66,6.09.08,10.72,4.56,21.87,8.51,31.8,14.46,8.3,5,15.47,12.06,22.54,18.82,7.56,7.21,16.57,10.88,26.49,12.51,3.95.65,8.54.66,12.16-.76,5-2,9.59-5.19,13.87-8.5,5.25-4,10-8.78,15-13.13.82-.71,2-2,3-1.49,1.61.82.23,4.83,0,5.46-3.56,12.83-7.18,25.64-10.63,38.49-.51,1.91-.93,4.32-.22,6,2.67,6.39,5.84,12.58,8.8,18.86,1.66,3.52,4.07,6.91,4.78,10.62,2.52,13.28,9.33,24,18.38,33.64,2,2.13,5.16,3.49,6.49,5.91,3.4,6.2,8.51,7.22,14.84,6.87,3-.17,5.37-.15,7.58-2.82,4.73-5.69,10.34-10.68,14.85-16.53,7.93-10.27,10.2-22.47,10.48-35.16,0-1.57.26-3.13.39-4.7,3-1.23,6.93,8.64,8.42,13.56,4.41,14.48,7.59,29.29,15.32,42.63,6.17,10.63,11.59,21.69,17.29,32.6,1.61,3.08,3.84,4.67,7.27,3.91,3.05-.68,24.83-6.44,32.94-11.81-1.29-1.83-2.55-3.35-3.52-5-2.8-4.92-5.57-9.86-8.14-14.91-.47-.92-.56-3,.18-3.57s2.46.55,3.36,1.25c5.52,4.27,10.89,8.72,16.41,13,3.44,2.65,4.37,2.45,7.42-.49,4.87-4.69,9.83-9.29,14.69-14,2.17-2.1,4.21-4.33,6.59-6.79-1.38-.71-2.3-1.23-3.25-1.68C691.5,750.63,674.74,743,658.11,735,647.35,729.84,638.13,722.62,632.52,711.89ZM378,594.31a2.14,2.14,0,0,1-.94.22c-4.91.44-7.42,3.44-8.62,7.93A12.09,12.09,0,0,1,367,606.1c-.63,1-1.83,2.44-2.67,2.39s-1.75-1.21-1.92-3.32c0-.59,0-1.28.06-2.57.21-1.63.06-4.08.92-6.09a8.43,8.43,0,0,1,4.1-4.44,40.81,40.81,0,0,1,9.89-1.79c.91-.09,2.84.35,2.91,1.47S379.1,593.49,378,594.31Z" style="fill: rgb(255, 255, 255);"/>
  <path class="cls-2" d="M1131.58,401.73a412.29,412.29,0,0,0-70.9-3.94c-16.85.47-33.19,4.62-49,10.92-21.67,8.65-43.58,16.74-65.26,25.37-15.8,6.3-31.39,13.1-47.09,19.66-29.17,12.2-58.2,24.76-87.56,36.47-23.17,9.25-45.93,19.06-66.06,34.07-10.33,7.7-21.13,14.62-28.2,26.26-16.51,27.21-37,51.56-56.61,76.57-3.13,4-4.81,8-4.41,12.87.56,6.73,1.56,13.41,2.28,20.12.16,1.44.34,4-.14,4.38s-.87,0-1.34-.58c-4.51-6.81-5.41-13.88-7.27-22.14-4.57,4.93-4.86,6-4,10.54,1.69,9.46,4.55,18.1,7.64,27.67.35,1.07.6,3.36-.34,3.92s-2.8-1.78-3.39-3.06c-3.1-6.71-5.95-13.53-8.88-20.32-.43-1-.79-2.06-1.18-3.09-.4,0-5.24,3.36-4.17,6.53,3.69,10.91,11.71,34.5,10.49,35.46-3.8,3-12-18.17-16.49-28.16-3,3-5.38,6.13-3.46,10.12.56,1.14.87,2.36,1.47,3.53,6.64,20.71,18.51,38.49,39.79,47.13.06-.28-.45-1.09-.49-1.28-.16-.75-.35-1.49-.58-2.21-6.85-21.43-4.3-42.22,5.32-62,6-12.35,13.21-24.11,20.2-36A23.22,23.22,0,0,1,699,623c17.27-11.27,34.47-22.7,52.19-33.25,31.09-18.5,60.15-40,90.06-60.26,8.76-5.93,17.28-12.26,26.35-17.68,12.08-7.23,25.81-8.37,39.51-8.93,19.53-.8,39.07-1.2,58.59-2.18a139.83,139.83,0,0,0,23-3c15-3.31,28.55-10.67,42.39-17.11,13.21-6.14,41.49-19.72,42.41-20.29-.66-.56-20.27-11-29.41-16.06-1.7-.95-4.8-3-4.35-4.05s4.31,0,6.08.87c10.55,5,21,10.27,31.52,15.24a7.64,7.64,0,0,0,5.41.37c4.66-1.82,9.13-4.16,13.66-6.32,1.08-.52,2.13-1.12,3.56-1.88-14.22-7.76-26.64-14.42-41.09-21.49,1.64-3,4-2.69,6.23-2.49,18.16,1.6,35.48,6.75,52.7,12.4a13.29,13.29,0,0,0,6.36.33,32.79,32.79,0,0,0,8-2.66c15.16-7.21,30.27-14.55,45.38-21.88.51-.25,1.92-.95,1.86-1.86s-5.55-2.06-8.15-2.51C1158.08,406,1144.86,403.66,1131.58,401.73Z"/>
  <path class="cls-2" d="M561.41,788.6c-.21-5.18-.36-10.36-.56-16-1.84-.07-3.56-.19-5.28-.19-4.08,0-4.34.45-4.05,4.62.42,6.09.81,12.19,1,18.29.41,14.06.61,28.13,1,42.2.27,8.72-.09,9.41-8.49,11.92-14.21,4.25-28.46,8.38-42.63,12.77a120.53,120.53,0,0,0-12.37,5.1,5.69,5.69,0,0,0-2.55,2q-7.58,12.81-14.9,25.74a3.76,3.76,0,0,0-.2,3c3.18,6.44,6.34,12.91,9.92,19.14,1.08,1.9,3.43,3.06,5.21,4.57l1.14-1c-1.06-2.79-2.35-5.52-3.13-8.38-.93-3.45-1.09-6.89,1.93-9.7,5.83-5.41,11.53-11,17.4-16.33,1.43-1.3,1.56-2.31.67-3.9a72.38,72.38,0,0,1-4-7.87c-1.39-3.43,0-5.88,3.45-6.93,2.51-.75,5-1.66,7.49-2.36q21.15-5.82,42.31-11.57c3.06-.84,8.5-6.53,8.53-9.18q.09-6.21-.16-12.43C562.64,817.58,562,803.1,561.41,788.6Z"/>
  <path class="cls-4" d="M538.37,768.67c-.3-1.13-.53-2.29-.94-3.38-.18-.45-.77-.75-1.16-1.12-11.34-10.63-19.76-22.9-21.92-38.73a3.28,3.28,0,0,0-.89-2c-3.32-2.59-6.72-5.07-10.53-7.9-.88,6.21.94,11.38,2.75,16.46,4,11.34,12,20.16,19.57,29.12,2.61,3.08,6.13,5.44,9.45,7.83C535.46,769.5,537.12,768.8,538.37,768.67Z"/>
  <path class="cls-4" d="M333.3,660.39c-7.46,10.17-15.42,22.88-19.94,33.49,5-7.9,19.49-27.15,24.38-32.51,6.08-6.68,11.79-13.64,18.26-19.93,4.49-4.37,5.24-6.2,2.48-13.28C351.82,637.09,342.07,648.46,333.3,660.39Z"/>
  <path class="cls-4" d="M524.59,848.39a5.75,5.75,0,0,0,3.84.88c4.78-1.13,9.46-2.66,14.21-3.89,1.82-.47,2.45-1.38,2.34-3.23-.32-5.23-.55-10.46-.72-15.7q-.9-27.44-1.73-54.88c-5.73.58-6,.59-5.73,5.68.77,13.94,1.89,27.86,2.67,41.79.46,8.08.53,16.18.77,24.27-2.91,1.16-4.17-.5-5.34-1.44-15.18-12.28-30.4-24.52-45.4-37-5.86-4.88-11.22-10.36-16.75-15.63a4.28,4.28,0,0,0-5-1c-5.93,2.21-11.94,4.21-17.88,6.41-10.92,4.05-8.77,1.12-12.5,13.2-3.93,12.7-3.79,12.74,3.82,23.42a4.67,4.67,0,0,0,.77,1,4,4,0,0,0,1.93,1c3.11,0,6.22-.22,10.08-.39a37.49,37.49,0,0,1-3.17-4.18c-1-1.86-2.34-3.83-2.5-5.84a78.07,78.07,0,0,1,.27-11.43c.23-3.32,2.29-5.16,5.51-5.43a52.12,52.12,0,0,1,8.83-.17c4.22.35,7.43-.87,9.63-4.63,1.29-2.2,3.1-2.24,4.87-.49,2.17,2.15,4.26,4.37,6.39,6.55q18.45,18.84,36.9,37.65A21.32,21.32,0,0,0,524.59,848.39Z"/>
  <path class="cls-4" d="M469,880.36c-5.08-4.59-11.31-6.72-18.16-8.89-.67,6.12-1.31,11.93-1.95,17.74-1.23,11,4.22,18.29,13.15,23.56,2.7,1.59,5.62,2.8,8.8,4.37-6.52-9.5-8.6-20.17-12.86-29.89-.19-.44-.15-1.36.13-1.55.76-.51,2.06-1.32,2.54-1,2.64,1.63,5.1,3.54,7.77,5.46a35.63,35.63,0,0,1,1.77-3.75C471.62,884,471,882.14,469,880.36Z"/>
  <path class="cls-4" d="M496.6,572.93c9.07-1.44,18.12-3.08,27.69-4.73a15,15,0,0,0-1.16-1.45c-12.77-10.73-26.35-20.63-38.08-32.39-11.9-11.92-22-25.68-32.83-38.63-13.55-16.13-27.2-32-45.07-43.88-15.87-10.58-30.86-22.48-46-34.12a285.24,285.24,0,0,1-40.31-37.29L310.07,368.2c-1.79.78,4.27,9.51,6.59,14.14,12.46,24.84,28.24,47.22,49.53,65.28,18.38,15.58,32.23,34.54,43.54,55.56,10.52,19.55,22.94,37.66,39.46,52.67A105.61,105.61,0,0,0,464,567.56C474,573.76,485.17,574.75,496.6,572.93Z"/>
  <path class="cls-4" d="M330,350.14c8.33,17.57,21.14,31.49,36.83,42.67,15.9,11.33,32.22,22.07,48.24,33.23,4.16,2.91,9.13,5.7,11.57,9.82,7.6,12.87,15.36,25.57,23.57,38.09,12.27,18.68,26.79,35.54,39.94,53.49,3.06,4.16,6.54,5.61,11.46,3.92,3.81-1.3,7.68-2.44,11.58-3.38,1.15-.28,3.13-.71,3.79.58s-.69,2.58-1.67,3.32a12.85,12.85,0,0,1-2.85,1.57c-3.71,1.47-7.44,2.89-11.16,4.32-.12.3,4.5,4.25,6.48,3.83,7.23-1.53,14.24-4,21.39-6,1.25-.34,3.54-.57,4.13.34s-.46,2.28-1.73,3.4a12.73,12.73,0,0,1-2.46,1.3c-5.41,2.56-10.82,5.1-16.61,7.82,1.77,1.74,3.37,3.51,5.19,5a3.24,3.24,0,0,0,2.66.23c8.86-3,17.67-6.22,26.55-9.21,1.11-.38,3.3-.85,3.8.22.62,1.32-.79,2.86-1.72,3.44q-6.65,4.14-13.62,7.74c-3.08,1.58-5.73,2.56-9.45,4.12a15.38,15.38,0,0,1,2.23,2.72c2.49,3,5.39,3.27,9,2.24,15.21-4.29,30.5-8.31,45.72-12.56,1.39-.39,3.69-1.57,3.81-2.5s-2-2.7-3.36-3.53c-8.6-5.38-17.82-9.91-25.84-16-20.06-15.27-40.37-30.35-58.16-48.29-16.9-17.05-33.23-34.67-49.44-52.38-5.64-6.16-11.16-12.26-18.34-16.62q-13.86-8.42-27.77-16.73a15.21,15.21,0,0,1-1.75-1c-.68,2.29-1.41,3.48-2.18,5.51-.24.64-1.16,2.91-1.71,2.76s-1-2.13-1-2.76c-.28-2.49-.4-4.05-.65-6.55-.08-.79-.31-1.91-.86-2.24-2-1.2-4.15-2.13-6.71-3.39a45.48,45.48,0,0,1-.28,5.94c-.24,1.26-.57,3.49-1.57,3.62s-2.44-1.55-3-2.66c-1.83-3.59-3.22-7.4-5-11a10.32,10.32,0,0,0-3.41-4.08c-19.26-11.83-35.92-26.25-47-46.32a12.92,12.92,0,0,0-1.35-1.7.71.71,0,0,0-1,.08c-.36.31-.46,3.08-.11,4.47C327.2,341.46,328.07,346.07,330,350.14Z"/>
  <path class="cls-4" d="M348.17,636.34c2.38-3.24,4.25-6.85,6.46-10.21,1.27-1.93.75-3.34-1-4.32A87.13,87.13,0,0,0,344,617c-5.11-2-9,.25-9.67,5.62-1.09,8.38-4.41,15.93-8.42,23.21-4.84,8.76-10,17.37-14.71,26.19a171,171,0,0,0-8.69,18.92c-2.69,6.92-3.85,10.77-4.45,17.91v.67c-.08,1.41-.84,6.52-.87,7.76,1.63-3,5.2-10.1,6.89-13.07,7.23-12.67,14-25.65,21.91-37.89C332.71,655.87,340.82,646.36,348.17,636.34Z"/>
  <path class="cls-4" d="M632.52,711.89c-4-7.69-7-15.91-10.51-23.89-.38-.86-.8-1.71-1.43-3a48.05,48.05,0,0,1-3.72,5.06c-.78.83-2.48,2.18-3.14,1.74s-.62-2.79-.13-3.8c2.26-4.59,4.71-9.1,7.28-13.53,17.35-29.93,39.54-56.47,59.46-84.61,13.54-19.13,27.14-38.3,39.33-58.3,12.33-20.24,27.12-37.38,48.47-48.24,8.56-4.36,17.11-8.73,25.76-12.88,20.16-9.69,40-20.13,60.65-28.66,39.62-16.39,77.3-36.05,111.84-61.52,8.24-6.07,16.22-12.49,24.31-18.75-.15-.27-2.75.3-3.89.83-11.09,5.11-21.8,11.43-33.35,15.07-22,6.94-44.35,12.89-66.79,18.28-29,7-58.18,13.05-84.95,26.94-7.92,4.11-16.8,6.86-23.82,12.13-13.07,9.8-25.27,20.78-37.51,31.64-20.4,18.1-42,34.46-65.85,47.8-12.66,7.08-25.44,14-37.92,21.35-15.32,9.06-30.53,18.44-47.54,23.91-16,5.13-32.13,9.76-48.46,13.46-18.7,4.24-37.64,7.44-56.54,10.64-14.52,2.45-28.23,6.6-40.23,15.42-.57.42-1.41.91-2.28,1.66.83.26,1.51.45,2.19.6,10,2.3,18.55,4.92,29,3.34,2-.3,3.93-.06,4.47,2.19.58,2.41-1.1,3.8-3.15,4.18A58.74,58.74,0,0,1,464,612.07c-13.38.13-25.92-3.54-37.78-9.39-15.36-7.57-30.52-15.56-45.76-23.38a5.21,5.21,0,0,1-1.87-1.27c-1.9-2.56-4.35-2.42-7.07-1.82-11.75,2.57-21,9.08-28.13,18.48-3.56,4.66-6.21,9.92-6.78,16.2,7.33-2.95,12.87.76,18.41,4.24,5.82,3.64,9,9.25,10.94,15.94a50,50,0,0,1,20.47-9.93c2-.42,4.35-.66,6.09.08,10.72,4.56,21.87,8.51,31.8,14.46,8.3,5,15.47,12.06,22.54,18.82,7.56,7.21,16.57,10.88,26.49,12.51,3.95.65,8.54.66,12.16-.76,5-2,9.59-5.19,13.87-8.5,5.25-4,10-8.78,15-13.13.82-.71,2-2,3-1.49,1.61.82.23,4.83,0,5.46-3.56,12.83-7.18,25.64-10.63,38.49-.51,1.91-.93,4.32-.22,6,2.67,6.39,5.84,12.58,8.8,18.86,1.66,3.52,4.07,6.91,4.78,10.62,2.52,13.28,9.33,24,18.38,33.64,2,2.13,5.16,3.49,6.49,5.91,3.4,6.2,8.51,7.22,14.84,6.87,3-.17,5.37-.15,7.58-2.82,4.73-5.69,10.34-10.68,14.85-16.53,7.93-10.27,10.2-22.47,10.48-35.16,0-1.57.26-3.13.39-4.7,3-1.23,6.93,8.64,8.42,13.56,4.41,14.48,7.59,29.29,15.32,42.63,6.17,10.63,11.59,21.69,17.29,32.6,1.61,3.08,3.84,4.67,7.27,3.91,3.05-.68,24.83-6.44,32.94-11.81-1.29-1.83-2.55-3.35-3.52-5-2.8-4.92-5.57-9.86-8.14-14.91-.47-.92-.56-3,.18-3.57s2.46.55,3.36,1.25c5.52,4.27,10.89,8.72,16.41,13,3.44,2.65,4.37,2.45,7.42-.49,4.87-4.69,9.83-9.29,14.69-14,2.17-2.1,4.21-4.33,6.59-6.79-1.38-.71-2.3-1.23-3.25-1.68C691.5,750.63,674.74,743,658.11,735,647.35,729.84,638.13,722.62,632.52,711.89Z"/>
  <path class="cls-4" d="M1131.58,401.73a412.29,412.29,0,0,0-70.9-3.94c-16.85.47-33.19,4.62-49,10.92-21.67,8.65-43.58,16.74-65.26,25.37-15.8,6.3-31.39,13.1-47.09,19.66-29.17,12.2-58.2,24.76-87.56,36.47-23.17,9.25-45.93,19.06-66.06,34.07-10.33,7.7-21.13,14.62-28.2,26.26-16.51,27.21-37,51.56-56.61,76.57-3.13,4-4.81,8-4.41,12.87.56,6.73,1.56,13.41,2.28,20.12.16,1.44.34,4-.14,4.38s-.87,0-1.34-.58c-4.51-6.81-5.41-13.88-7.27-22.14-4.57,4.93-4.86,6-4,10.54,1.69,9.46,4.55,18.1,7.64,27.67.35,1.07.6,3.36-.34,3.92s-2.8-1.78-3.39-3.06c-3.1-6.71-5.95-13.53-8.88-20.32-.43-1-.79-2.06-1.18-3.09-.4,0-5.24,3.36-4.17,6.53,3.69,10.91,11.71,34.5,10.49,35.46-3.8,3-12-18.17-16.49-28.16-3,3-5.38,6.13-3.46,10.12.56,1.14.87,2.36,1.47,3.53,6.64,20.71,18.51,38.49,39.79,47.13.06-.28-.45-1.09-.49-1.28-.16-.75-.35-1.49-.58-2.21-6.85-21.43-4.3-42.22,5.32-62,6-12.35,13.21-24.11,20.2-36A23.22,23.22,0,0,1,699,623c17.27-11.27,34.47-22.7,52.19-33.25,31.09-18.5,60.15-40,90.06-60.26,8.76-5.93,17.28-12.26,26.35-17.68,12.08-7.23,25.81-8.37,39.51-8.93,19.53-.8,39.07-1.2,58.59-2.18a139.83,139.83,0,0,0,23-3c15-3.31,28.55-10.67,42.39-17.11,13.21-6.14,41.49-19.72,42.41-20.29-.66-.56-20.27-11-29.41-16.06-1.7-.95-4.8-3-4.35-4.05s4.31,0,6.08.87c10.55,5,21,10.27,31.52,15.24a7.64,7.64,0,0,0,5.41.37c4.66-1.82,9.13-4.16,13.66-6.32,1.08-.52,2.13-1.12,3.56-1.88-14.22-7.76-26.64-14.42-41.09-21.49,1.64-3,4-2.69,6.23-2.49,18.16,1.6,35.48,6.75,52.7,12.4a13.29,13.29,0,0,0,6.36.33,32.79,32.79,0,0,0,8-2.66c15.16-7.21,30.27-14.55,45.38-21.88.51-.25,1.92-.95,1.86-1.86s-5.55-2.06-8.15-2.51C1158.08,406,1144.86,403.66,1131.58,401.73Z"/>
  <path class="cls-4" d="M487.5,927.1c-1.9.65-3.69,1.61-5.53,2.45-.25-.2-3.71,13.9-4.8,21.2-2.74,18.59-3.57,38,.72,56,3.94,16.58,16.35,21.81,32.64,24.56,2.41.4,8.38-.88,10.63-2.23,5.58-3.34,7.68-9.32,9.67-15.09,1.49-4.3,1.54-8.67,2.81-13.45,1.05,0,3.09,0,4.26,0,5.41-.16,7.86-2.63,8.76-7.85,1.17-6.84.76-18.54-7.66-26.48-8.65-8.15-18.87-14.46-28.2-21.82-7-5.52-13.85-11.26-20.83-16.83A3.06,3.06,0,0,0,487.5,927.1Z"/>
  <path class="cls-4" d="M566.58,776.42c-.62,8.32-.71,16.68-1,25l1.16.24c.88-2.65,1.9-5.25,2.63-7.94,2-7.54,4-15.09,5.83-22.69.37-1.57-.3-3.38-.52-5.35C569.07,768.85,567,771.21,566.58,776.42Z"/>
  <path class="cls-4" d="M501.53,896.94c3.68-.32,7.35-.77,11-.87,1.05,0,3,0,3.2,1.53.24,2-3.38,3.56-4.11,3.79-5.3,1.67-10.58,3.44-15.94,4.93-2.41.67-3.25,2-2.8,4.28.49,2.45,1.19,4.87,1.63,7.33s2,3.11,4,2.84c10.74-1.42,19.94-5.27,25.32-15.59,3.37-6.46,7.14-12.71,10.77-19,1.06-1.85,1.09-3.15-1.46-3.33-4.57-.31-9.14-.79-13.71-.8-2.08,0-4.73.32-6.14,1.59-4.33,3.9-8.18,8.32-12.23,12.54Z"/>
  <path class="cls-4" d="M561.41,788.6c-.21-5.18-.36-10.36-.56-16-1.84-.07-3.56-.19-5.28-.19-4.08,0-4.34.45-4.05,4.62.42,6.09.81,12.19,1,18.29.41,14.06.61,28.13,1,42.2.27,8.72-.09,9.41-8.49,11.92-14.21,4.25-28.46,8.38-42.63,12.77a120.53,120.53,0,0,0-12.37,5.1,5.69,5.69,0,0,0-2.55,2q-7.58,12.81-14.9,25.74a3.76,3.76,0,0,0-.2,3c3.18,6.44,6.34,12.91,9.92,19.14,1.08,1.9,3.43,3.06,5.21,4.57l1.14-1c-1.06-2.79-2.35-5.52-3.13-8.38-.93-3.45-1.09-6.89,1.93-9.7,5.83-5.41,11.53-11,17.4-16.33,1.43-1.3,1.56-2.31.67-3.9a72.38,72.38,0,0,1-4-7.87c-1.39-3.43,0-5.88,3.45-6.93,2.51-.75,5-1.66,7.49-2.36q21.15-5.82,42.31-11.57c3.06-.84,8.5-6.53,8.53-9.18q.09-6.21-.16-12.43C562.64,817.58,562,803.1,561.41,788.6Z"/>
  <path class="cls-5" d="M1244.8,394.91a21.31,21.31,0,0,0-5.08-2.92,198.24,198.24,0,0,0-50.79-14,30.52,30.52,0,0,1-3.06-.54c1.56-.28,30.9-2.36,44.84-3.27,2.5-.17,5-.21,7.5-.61s5.48-.59,5.87-3.71-2.68-4.26-4.81-4.89c-13.36-4-31.17-8.39-44.85-10.46-22-3.34-39.55-4.85-61.71-6.95-1.12-.1-5.32-.28-5.34-.55,1.3-.49,5.43-2.17,6.75-2.61,8.54-2.79,15.24-6.17,21.77-12.32,1-.94,2.11-3.6,1.6-4.64s-3.12-1.42-4.57-1.24c-3.34.42-46.36,5.84-64.57,7.9-13.11,1.48-26.16,3.5-39.26,5.09-5.34.64-7,.81-12.9,1.54.21-.55,35.15-36.43,36.92-39.15a2.81,2.81,0,0,0-.15-3c-.74-.71-2.2,0-3,.49-2.84,1.82-5.59,3.81-8.31,5.82-19.37,14.37-38.43,29.15-59.48,41.14-24.82,14.12-50.12,27-78,34-25,6.23-50,12.34-75,18.55-14.72,3.66-29.3,7.62-43.16,14.1-19.17,9-37.61,18.84-53.44,33.21-11.88,10.78-24.14,21.17-36.63,31.24-17.65,14.23-37.19,25.5-57.3,36C641.54,522,625,531.93,608.25,541.59c-3.28,1.9-6.39,2.33-9.57.61-9.88-5.32-20.17-10.06-29.37-16.38a655,655,0,0,1-68.25-54c-9.31-8.41-18.84-16.6-27.82-25.34-8.83-8.59-17.5-17.37-24.14-27.95a22.45,22.45,0,0,0-7.46-7.11c-16-9.34-32.23-18.36-48.38-27.48-2.07-1.16-4.18-2.24-7-3.73-.43,2.77.16,9.08-.25,11.71-2.59-9-3.38-13.33-8.84-17.15-1.65-1.16-3.38-2.4-5.73-4.18-15.65-10.88-29.89-23.11-39.31-40.11a15.9,15.9,0,0,0-4.17-4.53c-2.45-2-3.82-1.59-5,1.3-1.08,2.62-2.78,10.11-3.07,10.16-1.32-5.13-3-12.21-4.48-17.3-.36-1.25-.95-3.24-2.34-3.38s-2.46,1.87-3.13,3.11c-.77,1.43-.93,3.2-1.59,5.76-1.07-2.1-1.72-3.31-2.31-4.56-2.32-4.93-4.46-9.95-7-14.76-.73-1.36-2.09-3.75-4-3.11s-2.19,3.12-2.13,4.64c.2,5.76.73,11.52,1.44,17.24.54,4.36,1.54,8.66,2.48,13.81-1.26-1.15-1.92-1.68-2.5-2.29-9-9.5-18-19-27-28.51A13.79,13.79,0,0,0,263,304.6c-3.83-1.57-6.47.59-5.43,4.52.56,2.09,2.09,4,3.49,5.77,6.27,7.84,13.48,15.07,18.82,23.48,10.81,17,20.84,34.55,30.81,52.09,8.63,15.21,17,30.64,29.08,43.41,10.13,10.69,21.08,20.6,31.44,31.07,4.11,4.16,8.69,8.4,11.2,13.51a461.48,461.48,0,0,0,34.8,58.86c11.16,16.16,23.48,31.28,40.73,41.52a6.73,6.73,0,0,1,.92.87c-.3.37-.44.71-.7.84a22.74,22.74,0,0,1-2.08.93c-8.52,3.51-16.62,7.8-23.53,14-2,1.78-3.53,1.79-5.75.66-12.35-6.29-24.75-12.46-37.13-18.69-.32-.16-.54-.5-1-1,1.21-.26,2.05-.42,2.88-.63,3.58-.89,4.5-2.86,2.35-5.82a4.89,4.89,0,0,0-3.58-1.68c-6.2.21-12.4.75-18.6,1.11-15.83.91-26.89,9.34-34.79,22.41a58.13,58.13,0,0,0-8.74,27.82,50.94,50.94,0,0,1-.5,5.53c-1.36,8.73-5.64,16.21-10.08,23.64a220,220,0,0,0-19.72,41.64c-3.18,9.23-3.15,18.9-4.19,28.43-.3,2.71-.74,5.41-.9,8.13a2.84,2.84,0,0,0,1,2.48c.78.49,1.74-.68,2.45-1.24.46-.36.62-1.12.92-1.7,2.64-5.26,4.9-10.75,8-15.72,9.1-14.67,19-28.78,30.87-41.42q15-16,30.12-31.9c4.59-4.81,10.67-7.09,16.8-9.11,1.71-.55,3.84-1,5.45-.47,10.82,3.45,22.14,6.35,30.66,14.21,11.46,10.55,22.2,21.89,33.11,33,2.68,2.75,3.17,3,5.6.2l34.4,27.74c2.75,2.22,3.75,4.86,2.4,8.37a15.24,15.24,0,0,0-.8,5.14C493.59,729,497,740.48,505,749.72c7.51,8.71,16.54,16.1,24.81,24.17a6.94,6.94,0,0,1,2.27,3.9c.88,14.27,1.55,28.54,2.27,42.81.26,5,.51,10,.79,15.31a15.74,15.74,0,0,1-1.92-1.1c-13.1-10.71-26.3-21.3-39.23-32.19-6.34-5.34-12.2-11.25-18.29-16.88a8.48,8.48,0,0,0-9.38-1.81q-12.3,4.5-24.7,8.72a9.34,9.34,0,0,0-6.32,6.52c-1.8,6-3.8,11.85-5.29,17.88a9.42,9.42,0,0,0,.74,6.23,132.77,132.77,0,0,0,8.18,12.63,4.62,4.62,0,0,0,3.21,1.85c5.12,0,10.25-.27,15.34-.77,2.63-.26,3.35-2.25,1.92-4.57a26.88,26.88,0,0,0-3.5-4.74c-3-3-3.1-6.4-2.05-10.27.54-2,1.5-2.75,3.36-2.79,4.36-.08,8.73-.31,13.08-.21,3.58.08,7.23.72,8-4.37l38.48,42c-1.22.47-2.4,1-3.63,1.38-7.38,2.33-14.79,4.58-22.17,7-5.88,1.89-10.34,5.38-12.77,11.3-.86,2.1-2.42,3.91-3.78,6.05-6.53-6.87-14.7-8.84-22.59-11.26-3.58-1.11-4.74,0-5.12,3.71-.65,6.4-1.05,12.83-1.89,19.2-1.45,11,2.75,19.82,11,26.52,4.52,3.65,9.87,6.34,15,9.09,2.15,1.14,3.15,2,2.12,4.45-2.17,5.12-4,10.4-6.4,15.41-9.16,19.08-11.31,39.1-7.77,59.73,3.25,19,20.22,37.66,44.31,39.89,15.23,2.37,26.71-5.3,37.24-14.81,6.16-5.56,8.21-13.45,11-20.93,6.57-17.69,4.7-34.26-7.1-49.08-5.48-6.87-12-12.92-18.2-19.2-5.41-5.49-11-10.78-16.87-16.47a24.23,24.23,0,0,1,2.65-.91,23.92,23.92,0,0,0,16-11.47c1.93-3.15,3.19-6.7,5-9.91,3.29-5.75,6.84-11.35,10.15-17.09.85-1.48,2.09-3.59,1.59-4.75s-2.85-2.12-4.48-2.3c-5.64-.63-11.31-1-17-1.24a31.31,31.31,0,0,0-9.39.69c-3,.83-4.15-.36-5.54-3.05,1.43-.52,2.66-1.07,3.94-1.43,7.14-2,14.31-3.9,21.44-5.94,8.7-2.49,17.36-5.07,26-7.65a5.49,5.49,0,0,0,2.32-1.14c4.06-4,7.64-8.15,6.7-14.49-.59-4-1-8-1.32-12-.58-7.26-1-14.52-1.52-21.82,6.6.56,12.89,1,19.15,1.68,2.7.29,3.7,0,4.72-3.21.54-1.72,1.45-4.91,2.06-6.65a65.58,65.58,0,0,1-.25,6.76c-.24,1.92.17,3.8,2.37,4,6.59.59,13.21,1,19.82,1.3,2.52.11,3.69-1.59,3.79-4,.13-3.33.25-6.65.38-10,.29.46,2,5.42,2.73,7.44,1.87,4.39,2,6,6.16,5.3,16-2.82,37.85-8.66,50.12-13.64,4.71-1.9,5.08-4,2-7.9A107.57,107.57,0,0,1,671.41,779c2.66,2.45,5.8,5.69,8,7.21,6.2,4.3,6.75,4.25,12.28-.74.9-.81,1.82-1.57,2.69-2.4,7.26-6.95,14.57-13.84,21.72-20.88,2.83-2.78,2.37-4.76-.94-6.26-11.33-5.14-22.69-10.22-33.94-15.53a9.82,9.82,0,0,1-4.29-4.17c-8.78-17.61-10.91-36.08-4-54.55a222.73,222.73,0,0,1,27.11-51,11.72,11.72,0,0,1,3.08-2.87c5.19-3.43,10.37-6.9,15.71-10.09,16.86-10.07,34.24-19.35,50.6-30.18C800.26,567,830.7,545.94,861,524.67a73.45,73.45,0,0,1,40.2-13.9c19.42-.78,38.86-1.18,58.27-2,11.21-.45,22.44-.55,33.42-3.72,17.13-4.94,32.63-13.49,48.51-21.18,18.84-9.14,37.4-18.9,56.09-28.35,2-1,4.25-1.75,6.26-2.85,3-1.64,3.36-4.48.75-6.59a46.81,46.81,0,0,0-9.14-5.32c-6.89-3.16-17.67-8.07-24.7-11.33a149.87,149.87,0,0,1,16.25,3.47c10.81,3.42,21.54,7.11,32.35,10.55,1.66.53,3.8.89,5.32.29,8-3.17,16-6.42,23.78-10.13,13.89-6.64,27.61-13.62,41.38-20.5a22.24,22.24,0,0,0,4.13-2.63c2.42-2,2.59-3.54-.24-4.71s-13.77-3.79-15.35-4.29a49.19,49.19,0,0,1,8.27-.87c16.26-.8,32.5-1.36,48.71.95a26.27,26.27,0,0,0,8.44-.08,4.58,4.58,0,0,0,3-3.21C1246.9,397.06,1245.77,395.71,1244.8,394.91ZM326.19,332.57a.71.71,0,0,1,1-.08,12.92,12.92,0,0,1,1.35,1.7c11.13,20.07,27.79,34.49,47,46.32a10.32,10.32,0,0,1,3.41,4.08c1.82,3.59,3.21,7.4,5,11,.57,1.11,2,2.79,3,2.66s1.33-2.36,1.57-3.62a45.48,45.48,0,0,0,.28-5.94c2.56,1.26,4.72,2.19,6.71,3.39.55.33.78,1.45.86,2.24.25,2.5.37,4.06.65,6.55.07.63.49,2.62,1,2.76s1.47-2.12,1.71-2.76c.77-2,1.5-3.22,2.18-5.51a15.21,15.21,0,0,0,1.75,1q13.9,8.34,27.77,16.73c7.18,4.36,12.7,10.46,18.34,16.62,16.21,17.71,32.54,35.33,49.44,52.38,17.79,17.94,38.1,33,58.16,48.29,8,6.11,17.24,10.64,25.84,16,1.34.83,3.48,2.59,3.36,3.53s-2.42,2.11-3.81,2.5c-15.22,4.25-30.51,8.27-45.72,12.56-3.65,1-6.55.74-9-2.24a15.38,15.38,0,0,0-2.23-2.72c3.72-1.56,6.37-2.54,9.45-4.12q7-3.58,13.62-7.74c.93-.58,2.34-2.12,1.72-3.44-.5-1.07-2.69-.6-3.8-.22-8.88,3-17.69,6.17-26.55,9.21a3.24,3.24,0,0,1-2.66-.23c-1.82-1.49-3.42-3.26-5.19-5,5.79-2.72,11.2-5.26,16.61-7.82a12.73,12.73,0,0,0,2.46-1.3c1.27-1.12,2.31-2.48,1.73-3.4s-2.88-.68-4.13-.34c-7.15,2-14.16,4.47-21.39,6-2,.42-6.6-3.53-6.48-3.83,3.72-1.43,7.45-2.85,11.16-4.32a12.85,12.85,0,0,0,2.85-1.57c1-.74,2.34-2,1.67-3.32s-2.64-.86-3.79-.58c-3.9.94-7.77,2.08-11.58,3.38-4.92,1.69-8.4.24-11.46-3.92-13.15-18-27.67-34.81-39.94-53.49-8.21-12.52-16-25.22-23.57-38.09-2.44-4.12-7.41-6.91-11.57-9.82-16-11.16-32.34-21.9-48.24-33.23-15.69-11.18-28.5-25.1-36.83-42.67-1.93-4.07-2.8-8.68-3.92-13.1C325.73,335.65,325.83,332.88,326.19,332.57Zm123,223.28c-16.52-15-28.94-33.12-39.46-52.67-11.31-21-25.16-40-43.54-55.56-21.29-18.06-37.07-40.44-49.53-65.28-2.32-4.63-8.38-13.36-6.59-14.14l10.78,12.24a285.24,285.24,0,0,0,40.31,37.29c15.13,11.64,30.12,23.54,46,34.12,17.87,11.91,31.52,27.75,45.07,43.88,10.87,12.95,20.93,26.71,32.83,38.63,11.73,11.76,25.31,21.66,38.08,32.39a15,15,0,0,1,1.16,1.45c-9.57,1.65-18.62,3.29-27.69,4.73-11.43,1.82-22.58.83-32.56-5.37A105.61,105.61,0,0,1,449.19,555.85ZM304.08,704.18c-1.69,3-5.26,10.06-6.89,13.07,0-1.24.79-6.35.87-7.76v-.67c.6-7.14,1.76-11,4.45-17.91A171,171,0,0,1,311.19,672c4.74-8.82,9.87-17.43,14.71-26.19,4-7.28,7.33-14.83,8.42-23.21.69-5.37,4.56-7.64,9.67-5.62a87.13,87.13,0,0,1,9.6,4.84c1.79,1,2.31,2.39,1,4.32-2.21,3.36-4.08,7-6.46,10.21-7.35,10-15.46,19.53-22.18,29.95C318.08,678.53,311.31,691.51,304.08,704.18ZM356,641.44c-6.47,6.29-12.18,13.25-18.26,19.93-4.89,5.36-19.41,24.61-24.38,32.51,4.52-10.61,12.48-23.32,19.94-33.49,8.77-11.93,18.52-23.3,25.18-32.23C361.24,635.24,360.49,637.07,356,641.44ZM534.7,769c-3.32-2.39-6.84-4.75-9.45-7.83-7.6-9-15.54-17.78-19.57-29.12-1.81-5.08-3.63-10.25-2.75-16.46,3.81,2.83,7.21,5.31,10.53,7.9a3.28,3.28,0,0,1,.89,2c2.16,15.83,10.58,28.1,21.92,38.73.39.37,1,.67,1.16,1.12.41,1.09.64,2.25.94,3.38C537.12,768.8,535.46,769.5,534.7,769Zm-50.92,38.32c-2.13-2.18-4.22-4.4-6.39-6.55-1.77-1.75-3.58-1.71-4.87.49-2.2,3.76-5.41,5-9.63,4.63a52.12,52.12,0,0,0-8.83.17c-3.22.27-5.28,2.11-5.51,5.43a78.07,78.07,0,0,0-.27,11.43c.16,2,1.48,4,2.5,5.84A37.49,37.49,0,0,0,454,832.9c-3.86.17-7,.37-10.08.39a4,4,0,0,1-1.93-1,4.67,4.67,0,0,1-.77-1c-7.61-10.68-7.75-10.72-3.82-23.42,3.73-12.08,1.58-9.15,12.5-13.2,5.94-2.2,11.95-4.2,17.88-6.41a4.28,4.28,0,0,1,5,1c5.53,5.27,10.89,10.75,16.75,15.63,15,12.51,30.22,24.75,45.4,37,1.17.94,2.43,2.6,5.34,1.44-.24-8.09-.31-16.19-.77-24.27-.78-13.93-1.9-27.85-2.67-41.79-.28-5.09,0-5.1,5.73-5.68q.86,27.46,1.73,54.88c.17,5.24.4,10.47.72,15.7.11,1.85-.52,2.76-2.34,3.23-4.75,1.23-9.43,2.76-14.21,3.89a5.75,5.75,0,0,1-3.84-.88,21.32,21.32,0,0,1-3.91-3.46Q502.22,826.12,483.78,807.28Zm-13.6,79.1a35.63,35.63,0,0,0-1.77,3.75c-2.67-1.92-5.13-3.83-7.77-5.46-.48-.29-1.78.52-2.54,1-.28.19-.32,1.11-.13,1.55,4.26,9.72,6.34,20.39,12.86,29.89-3.18-1.57-6.1-2.78-8.8-4.37-8.93-5.27-14.38-12.58-13.15-23.56.64-5.81,1.28-11.62,1.95-17.74,6.85,2.17,13.08,4.3,18.16,8.89C471,882.14,471.62,884,470.18,886.38Zm40.62,58c9.33,7.36,19.55,13.67,28.2,21.82,8.42,7.94,8.83,19.64,7.66,26.48-.9,5.22-3.35,7.69-8.76,7.85-1.17,0-3.21.07-4.26,0-1.27,4.78-1.32,9.15-2.81,13.45-2,5.77-4.09,11.75-9.67,15.09-2.25,1.35-8.22,2.63-10.63,2.23-16.29-2.75-28.7-8-32.64-24.56-4.29-18.08-3.46-37.44-.72-56,1.09-7.3,4.55-21.4,4.8-21.2,1.84-.84,3.63-1.8,5.53-2.45a3.06,3.06,0,0,1,2.47.46C497,933.13,503.79,938.87,510.8,944.39Zm2.53-60.79c1.41-1.27,4.06-1.59,6.14-1.59,4.57,0,9.14.49,13.71.8,2.55.18,2.52,1.48,1.46,3.33-3.63,6.33-7.4,12.58-10.77,19-5.38,10.32-14.58,14.17-25.32,15.59-2,.27-3.59-.47-4-2.84s-1.14-4.88-1.63-7.33c-.45-2.29.39-3.61,2.8-4.28,5.36-1.49,10.64-3.26,15.94-4.93.73-.23,4.35-1.83,4.11-3.79-.19-1.49-2.15-1.56-3.2-1.53-3.68.1-7.35.55-11,.87l-.43-.8C505.15,891.92,509,887.5,513.33,883.6Zm41.5-29.91q-21.17,5.77-42.31,11.57c-2.52.7-5,1.61-7.49,2.36-3.47,1-4.84,3.5-3.45,6.93a72.38,72.38,0,0,0,4,7.87c.89,1.59.76,2.6-.67,3.9-5.87,5.36-11.57,10.92-17.4,16.33-3,2.81-2.86,6.25-1.93,9.7.78,2.86,2.07,5.59,3.13,8.38l-1.14,1c-1.78-1.51-4.13-2.67-5.21-4.57-3.58-6.23-6.74-12.7-9.92-19.14a3.76,3.76,0,0,1,.2-3q7.32-12.94,14.9-25.74a5.69,5.69,0,0,1,2.55-2,120.53,120.53,0,0,1,12.37-5.1c14.17-4.39,28.42-8.52,42.63-12.77,8.4-2.51,8.76-3.2,8.49-11.92-.43-14.07-.63-28.14-1-42.2-.17-6.1-.56-12.2-1-18.29-.29-4.17,0-4.6,4.05-4.62,1.72,0,3.44.12,5.28.19.2,5.63.35,10.81.56,16,.59,14.5,1.23,29,1.79,43.48q.24,6.21.16,12.43C563.33,847.16,557.89,852.85,554.83,853.69Zm20.34-82.63c-1.78,7.6-3.79,15.15-5.83,22.69-.73,2.69-1.75,5.29-2.63,7.94l-1.16-.24c.32-8.35.41-16.71,1-25,.39-5.21,2.49-7.57,8.07-10.71C574.87,767.68,575.54,769.49,575.17,771.06Zm133-12.62c.95.45,1.87,1,3.25,1.68-2.38,2.46-4.42,4.69-6.59,6.79-4.86,4.7-9.82,9.3-14.69,14-3,2.94-4,3.14-7.42.49-5.52-4.27-10.89-8.72-16.41-13-.9-.7-2.62-1.87-3.36-1.25s-.65,2.65-.18,3.57c2.57,5,5.34,10,8.14,14.91,1,1.69,2.23,3.21,3.52,5-8.11,5.37-29.89,11.13-32.94,11.81-3.43.76-5.66-.83-7.27-3.91-5.7-10.91-11.12-22-17.29-32.6-7.73-13.34-10.91-28.15-15.32-42.63-1.49-4.92-5.39-14.79-8.42-13.56-.13,1.57-.35,3.13-.39,4.7-.28,12.69-2.55,24.89-10.48,35.16-4.51,5.85-10.12,10.84-14.85,16.53-2.21,2.67-4.58,2.65-7.58,2.82-6.33.35-11.44-.67-14.84-6.87-1.33-2.42-4.48-3.78-6.49-5.91-9.05-9.59-15.86-20.36-18.38-33.64-.71-3.71-3.12-7.1-4.78-10.62-3-6.28-6.13-12.47-8.8-18.86-.71-1.69-.29-4.1.22-6,3.45-12.85,7.07-25.66,10.63-38.49.18-.63,1.56-4.64,0-5.46-1.05-.52-2.21.78-3,1.49-5,4.35-9.75,9.08-15,13.13-4.28,3.31-8.89,6.55-13.87,8.5-3.62,1.42-8.21,1.41-12.16.76-9.92-1.63-18.93-5.3-26.49-12.51-7.07-6.76-14.24-13.85-22.54-18.82-9.93-5.95-21.08-9.9-31.8-14.46-1.74-.74-4.14-.5-6.09-.08A50,50,0,0,0,366,631.07c-1.92-6.69-5.12-12.3-10.94-15.94-5.54-3.48-11.08-7.19-18.41-4.24.57-6.28,3.22-11.54,6.78-16.2,7.16-9.4,16.38-15.91,28.13-18.48,2.72-.6,5.17-.74,7.07,1.82a5.21,5.21,0,0,0,1.87,1.27c15.24,7.82,30.4,15.81,45.76,23.38,11.86,5.85,24.4,9.52,37.78,9.39a58.74,58.74,0,0,0,10.05-1.16c2.05-.38,3.73-1.77,3.15-4.18-.54-2.25-2.46-2.49-4.47-2.19-10.46,1.58-19-1-29-3.34-.68-.15-1.36-.34-2.19-.6.87-.75,1.71-1.24,2.28-1.66,12-8.82,25.71-13,40.23-15.42,18.9-3.2,37.84-6.4,56.54-10.64,16.33-3.7,32.51-8.33,48.46-13.46,17-5.47,32.22-14.85,47.54-23.91,12.48-7.39,25.26-14.27,37.92-21.35,23.84-13.34,45.45-29.7,65.85-47.8,12.24-10.86,24.44-21.84,37.51-31.64,7-5.27,15.9-8,23.82-12.13,26.77-13.89,56-20,84.95-26.94,22.44-5.39,44.79-11.34,66.79-18.28,11.55-3.64,22.26-10,33.35-15.07,1.14-.53,3.74-1.1,3.89-.83-8.09,6.26-16.07,12.68-24.31,18.75-34.54,25.47-72.22,45.13-111.84,61.52-20.64,8.53-40.49,19-60.65,28.66-8.65,4.15-17.2,8.52-25.76,12.88-21.35,10.86-36.14,28-48.47,48.24-12.19,20-25.79,39.17-39.33,58.3-19.92,28.14-42.11,54.68-59.46,84.61-2.57,4.43-5,8.94-7.28,13.53-.49,1-.53,3.36.13,3.8s2.36-.91,3.14-1.74a48.05,48.05,0,0,0,3.72-5.06c.63,1.33,1,2.18,1.43,3,3.47,8,6.49,16.2,10.51,23.89,5.61,10.73,14.83,18,25.59,23.1C674.74,743,691.5,750.63,708.21,758.44Zm471.25-347.6c.06.91-1.35,1.61-1.86,1.86-15.11,7.33-30.22,14.67-45.38,21.88a32.79,32.79,0,0,1-8,2.66,13.29,13.29,0,0,1-6.36-.33c-17.22-5.65-34.54-10.8-52.7-12.4-2.26-.2-4.59-.48-6.23,2.49,14.45,7.07,26.87,13.73,41.09,21.49-1.43.76-2.48,1.36-3.56,1.88-4.53,2.16-9,4.5-13.66,6.32a7.64,7.64,0,0,1-5.41-.37c-10.56-5-21-10.27-31.52-15.24-1.77-.83-5.63-1.94-6.08-.87s2.65,3.1,4.35,4.05c9.14,5.1,28.75,15.5,29.41,16.06-.92.57-29.2,14.15-42.41,20.29-13.84,6.44-27.35,13.8-42.39,17.11a139.83,139.83,0,0,1-23,3c-19.52,1-39.06,1.38-58.59,2.18-13.7.56-27.43,1.7-39.51,8.93-9.07,5.42-17.59,11.75-26.35,17.68-29.91,20.25-59,41.76-90.06,60.26-17.72,10.55-34.92,22-52.19,33.25a23.22,23.22,0,0,0-7.08,7.51c-7,11.84-14.22,23.6-20.2,36-9.62,19.83-12.17,40.62-5.32,62,.23.72.42,1.46.58,2.21,0,.19.55,1,.49,1.28-21.28-8.64-33.15-26.42-39.79-47.13-.6-1.17-.91-2.39-1.47-3.53-1.92-4,.42-7.12,3.46-10.12,4.52,10,12.69,31.15,16.49,28.16,1.22-1-6.8-24.55-10.49-35.46-1.07-3.17,3.77-6.58,4.17-6.53.39,1,.75,2.08,1.18,3.09,2.93,6.79,5.78,13.61,8.88,20.32.59,1.28,2.44,3.61,3.39,3.06s.69-2.85.34-3.92c-3.09-9.57-5.95-18.21-7.64-27.67-.82-4.58-.53-5.61,4-10.54,1.86,8.26,2.76,15.33,7.27,22.14.47.55.87.94,1.34.58s.3-2.94.14-4.38c-.72-6.71-1.72-13.39-2.28-20.12-.4-4.82,1.28-8.88,4.41-12.87,19.57-25,40.1-49.36,56.61-76.57,7.07-11.64,17.87-18.56,28.2-26.26,20.13-15,42.89-24.82,66.06-34.07,29.36-11.71,58.39-24.27,87.56-36.47,15.7-6.56,31.29-13.36,47.09-19.66,21.68-8.63,43.59-16.72,65.26-25.37,15.78-6.3,32.12-10.45,49-10.92a412.29,412.29,0,0,1,70.9,3.94c13.28,1.93,26.5,4.29,39.73,6.6C1173.91,408.78,1179.4,410,1179.46,410.84Z"/>
  <path class="cls-5" d="M377.39,590.28a40.81,40.81,0,0,0-9.89,1.79,8.43,8.43,0,0,0-4.1,4.44c-.86,2-.71,4.46-.92,6.09-.05,1.29-.1,2-.06,2.57.17,2.11,1.09,3.28,1.92,3.32s2-1.42,2.67-2.39a12.09,12.09,0,0,0,1.38-3.64c1.2-4.49,3.71-7.49,8.62-7.93a2.14,2.14,0,0,0,.94-.22c1.15-.82,2.43-1.44,2.35-2.56S378.3,590.19,377.39,590.28Z"/>
  <path class="cls-5" d="M342.44,626c2.13,1.57,2.12,3.31.82,5.35a8.27,8.27,0,0,0-1.37,2.56c-.13.71-.05,2.32.76,2.76s1.8-1.17,2.2-1.72c1-1.4,1.95-2.87,2.83-4.35,2.31-3.92.77-6.93-3.85-7.41a2.13,2.13,0,0,0-2.31.74C341,624.79,341.91,625.56,342.44,626Z"/>
  <path d="M623.81,941.22l0-.09,0,0Z"/>
  <path class="cls-6" d="M974.11,858.8a16,16,0,0,1-2.74,7.07,19.5,19.5,0,0,1-5.49,5.52,17.07,17.07,0,0,1-6.75,2.68,7.76,7.76,0,0,1-6.22-1.47q-7.85-5.48-9.12-11.65A18.17,18.17,0,0,1,945,849.36a25.83,25.83,0,0,1,6.93-9.13q4.43-3.72,8-4.31a7.93,7.93,0,0,1,6.41,1.64,17.77,17.77,0,0,1,4.72,5.74,28.06,28.06,0,0,1,2.71,7.86A23,23,0,0,1,974.11,858.8Z"/>
  <path class="cls-6" d="M1202.2,943.54c15.25-17.1,12.63-36.69-12.45-33.3-13.42,5.27-32.14,24-23.18,38.8,7.14,8.38-2.31,14.73-5.53,23.61-28.22,55.54-82.75,109-107.22,41.23,105.9-58.92,50.73-141-11.8-67.7-18.17,20.78-21.45,47.88-42.26,67.33-63.23,68.63-43.4-30.23-35-68,5.53-26.79,5.6-25.21-20.08-20-14.9,6.11-12.34,30.52-14.6,45.84-14.7,13.13-49.71,92.62-72.54,58.08.91-15.81,8.38-38.33-11.86-46.72,70.29-55-13.75-102-51.7-22.07,5.33-42.93,18.64-87.72,19.57-131.47,2.34-21.78-26.34-15.82-37.09-8.29,9.7,40.69-.39,95.41-2.5,136.5-7.92,13.16-12.81,23.18-21.4,36.35-10.61,16-44.11,64.3-60.17,33.34C688.89,1000.41,725,978.72,710,952c-10.46-27.9-25.21-13.79-44.33-20.74,10.94-17.2-6.15-54.4-28-37.13-9.57,9.75-19.66,31.21-9.47,42.75-14.88,12.41-32.47,26.85-51.37,34.95a29.56,29.56,0,0,0-2.17,8c-.52,3.68-.58,8.06,1.71,10.71,19.8-8.38,39.23-25,53.11-39.74-1.08,12.13-48.1,107.33-23.07,98.4,19.13-27,32.39-69.2,47.89-99,7.65,3.55,16.41,4.21,24.82,3.21,21.84,12.62-16.53,51.41-12.89,72.05,19.87,75.16,88.58,6.17,104.58-34.74,1.86,22.22-24.24,78.22,16.8,62.34,1.28-22.89,2.16-45.69,3.92-67.61,40.6-68.37,78.39-42.1,40.13-7.73-42.81-13.81-27.25,48.25.91,18.94,5,5.38,6.05,13.64,3.65,20.48-6.41,17.75.93,44.79,23.73,44.84,35.13-1.92,55.31-41.41,70.2-69.3,0,85.9,57.21,79.26,94.12,15.55,3.64,45.18,50.91,67.63,90.24,51.71,33.1-11.12,54-68.73,69.52-98.25,10,24.77,35.9,49.86,35.57,77.45-11,29.07-31.54-4.06-38.95-21.44-40.68,8.18-11,50.89,16.18,53.12,24.65.11,52.59-31.22,43.82-55.11C1228.83,991.18,1209.19,970.92,1202.2,943.54Zm-146.87,26.08c26.38-72.3,60.73-10.87-3.2,24.65A95.84,95.84,0,0,1,1055.33,969.62Z" style="fill: rgb(255, 255, 255);"/>
  <path class="cls-6" d="M161.7,878.6c13.85,40.66,54.14,60.45,78.34,93.27,27.77,41.59,22.86,131-31.9,101.29-16.48-13.87-28.65-41.55-15.24-60.88-102-3.25,12.28,148,75.61,66.28,43.37-67.28-.11-124.92-59.77-181.46-76.27-84.6,99.45-154.41,51.77-13.14,12.75,3.52,32.91-5.32,34.76-13.94s2.91-13.14,3.57-18.61C304.41,744.18,127.66,778,161.7,878.6Z" style="fill: rgb(255, 255, 255);"/>
  <path class="cls-6" d="M431.25,1000.79c-14.13,17.15-51.63,47.5-62.05,11.65-14.26-49.09,10.58-79.36,18.14-137.75,1.78,0,32.67-4.54,36.48-4.66,4.51-.14,7.76-23.28,2.52-23.28-1.69,0-27.07,4.51-36.44,4.3.43-22,3.79-53.5-24.75-42.86-12.09,8.45-9.56,30.38-13.3,46.66-12.4,2-33.77,1.79-38.58,1.59-3.92,3.11-5.08,14.73-3.53,19.11s26.46,2.47,39.76.82c-1.85,46.35-26,104.44-11.63,147.9,16.12,48.8,70,27.37,98-3.53a30.26,30.26,0,0,0,.28-9C435.68,1007.77,434,1003.5,431.25,1000.79Z" style="fill: rgb(255, 255, 255);"/>
  <path class="cls-3" d="M487.5,927.1c-1.9.65-3.69,1.61-5.53,2.45-.25-.2-3.71,13.9-4.8,21.2-2.74,18.59-3.57,38,.72,56,3.94,16.58,16.35,21.81,32.64,24.56,2.41.4,8.38-.88,10.63-2.23,5.58-3.34,7.68-9.32,9.67-15.09,1.49-4.3,1.54-8.67,2.81-13.45,1.05,0,3.09,0,4.26,0,5.41-.16,7.86-2.63,8.76-7.85,1.17-6.84.76-18.54-7.66-26.48-8.65-8.15-18.87-14.46-28.2-21.82-7-5.52-13.85-11.26-20.83-16.83A3.06,3.06,0,0,0,487.5,927.1Zm10.15,26.72a37.41,37.41,0,0,0,13,10.89c3.61,1.83,7.53,3.07,10.9,5.31s6.23,5.82,6.15,9.86-3.73,8.16-7.54,6.8a7.57,7.57,0,0,1-1.4-.93,9.39,9.39,0,0,0-.23,1.55c-.22,3.72-.59,7.55-2.41,10.79s-5.47,5.75-9.13,5.1c-3.81-.67-6.35-4.4-7.4-8.12-1.76-6.3-2.8-11.31-2.74-17.71C496.91,969,497.37,961.89,497.65,953.82Z" style="fill: rgb(244, 147, 2);"/>
  <path class="cls-2" d="M566.58,776.42c-.62,8.32-.71,16.68-1,25l1.16.24c.88-2.65,1.9-5.25,2.63-7.94,2-7.54,4-15.09,5.83-22.69.37-1.57-.3-3.38-.52-5.35C569.07,768.85,567,771.21,566.58,776.42Z"/>
  <path class="cls-5" d="M507,1003.19c3.66.65,7.31-1.85,9.13-5.1s2.19-7.07,2.41-10.79a9.39,9.39,0,0,1,.23-1.55,7.57,7.57,0,0,0,1.4.93c3.81,1.36,7.45-2.75,7.54-6.8s-2.78-7.62-6.15-9.86-7.29-3.48-10.9-5.31a37.41,37.41,0,0,1-13-10.89c-.28,8.07-.74,15.22-.82,23.54-.06,6.4,1,11.41,2.74,17.71C500.62,998.79,503.16,1002.52,507,1003.19Z"/>
</svg>