<svg id="Layer_1" data-name="Layer 1" xmlns="http://www.w3.org/2000/svg" viewBox="0 0 2845.08 1400"><defs><style>.cls-1{fill:#fff;}.cls-2{fill:#373737;}</style></defs><path class="cls-1" d="M2626.51,1017.09c-21.18-6.53-42.12-7.39-62.64,2.41-5,2.38-9.85,5-14.8,7.46-14.23,7.07-25.49,2.54-26.62-13.1-1.08-14.93.7-30.32,3.09-45.2,11.09-68.95-10.08-125.6-64.3-169.31-44-35.48-93.51-37.35-145-20.31-12.25,4-22.09,13.34-34.93,21.13,2.57,9.67,3.87,12.74,5.32,20.75,1.34,7.41,2.47,15.14,1.73,22.54-.39,3.93-4.68,10.23-7.65,10.49-4.42.4-10.11-2.67-13.63-6-3.28-3.09-4.78-8.32-6.45-12.83-12.36-33.28-35.73-56.44-65.26-75.28-19-12.15-36.57-10-54.41-.49-24.64,13.18-24,13.14-47.37-4A306.62,306.62,0,0,0,2053,730.62c-23.1-12-47.6-13.24-72.61-6.45-5.34,1.44-10.7,2.77-16,4.25-23.16,6.42-30,1.92-31.33-22.81-1.26-23.46-1.7-47-1.53-70.49.47-66.08-15-129-39.81-189.45-25.39-61.86-71-106.42-129.32-138-52.24-28.28-108.69-44.39-166.92-53.69-15.87-2.53-33.12.65-49.31,3.59-91,16.54-172,55.38-244,112.82-45.38,36.18-74.27,83.37-86.12,140.28-7,33.47,9,110.68-20.65,123.44s-156.1-122.41-266.25-121.34c-49.68-5.59-90.85,11-125.75,48.85-29,31.52-38.64,67.69-39.67,107.85-.59,23.42,1,46.92,2.23,70.35,1,18.41-4.66,24-23.46,20.2-15.56-3.18-30.79-8-46.36-11-7.93-1.54-16.56-2.24-24.43-.84-71.42,12.64-106.82,51.8-117.95,127.2-2.28,15.44.54,31.64,1.19,47.48.33,8.16,1,16.32,1.67,26.09-16.08-7.43-74.37-23.89-88.05-27.79-51.43-14.64-123.76-25-249.93,46.95-66.57,51.84-58.36,139.07-22.08,154.41,17.62,10.82,35.77,15.74,56.73,16.06,47,.71,93.88,4.6,140.85,5.84,49.72,1.31,99.49,2.25,149.2,1.18,85-1.83,170-4.21,254.86-8.55,60-3.07,119.8-10.26,179.75-14.72,53-3.94,106.14-8.9,159.27-9.52q297.63-3.46,595.07,9.91c90.46,3.93,181,7.24,271.35,12.6q181.22,10.74,362.68,11.24c62.21.27,124.43,1,186.64,1,27.54,0,55.12-.64,82.61-2.15,16.62-.92,22.27-5.17,23.6-20.16a467.56,467.56,0,0,0,1.44-68.18C2659.38,1036.36,2646.34,1023.2,2626.51,1017.09Z"/><path class="cls-2" d="M2627.75,981c-5.37-.75-10.74-1.56-18.07-2.62,8.82-92-24.1-164.81-101.27-214.83-78-50.54-156.41-47-233.29,5-6.23-6.64-11.61-12.93-17.57-18.62-31.11-29.73-52.16-49.91-111-37.55-7.31,1.45-17.24,8.61-17.24,8.61s-10-54.83-114.86-64.57c.17-11.43.1-22.33.53-33.21,2-52.26-.79-104.29-21.13-153-61.54-147.24-170.17-237-328.82-262.83-92-14.95-178.53,6.94-262.14,43.51-43.88,19.19-84.36,44.55-122.47,73.44C1220.22,370,1186.82,426,1171.92,500.48c-1,4.71-7.25,44-8.85,50.7-7.32-4.52-44.27-30.47-50.7-34.2C1028,468.15,969.89,445.42,875.69,474.2Q789.11,500.66,752.6,583.25c-17,38.4-29.41,77.65-22.76,120.53.29,1.89-.46,3.94-1,8-50.44-8.56-97.54-1.18-138.39,31.48-40.17,32.11-56.85,76.9-66.22,126.6-24-1.65-47.26-3.53-70.56-4.79C360,860,275.8,885.36,203.81,946.21c-29.13,24.63-48,57.6-58.72,93.79-21,71.14,24.94,139.62,98.87,147.1,44.65,4.52,89.71,4.75,134.53,7.69,87.09,5.73,174.11.21,261.16-1,130.06-1.8,259.45-12.91,388.74-26.13a840,840,0,0,1,91.08-4.71c165.21,1.13,330.45,1.65,495.62,5.23,111.91,2.43,223.73,9.44,335.59,14.62,140.86,6.52,281.68,13.73,422.78,12.78,73.27-.5,146.56,1.36,219.83,1,17.75-.08,35.84-3.26,53.14-7.55,28.49-7.07,48-24.91,52.32-55,3.43-23.8,7.31-48.06,6.12-71.88C2702.63,1017.18,2672.42,987.25,2627.75,981Zm31.39,144.16c-1.33,15-7,19.24-23.6,20.16-27.49,1.51-55.07,2.16-82.61,2.15-62.21,0-124.43-.71-186.64-1q-181.48-.81-362.68-11.24c-90.39-5.36-180.89-8.67-271.35-12.6q-297.4-12.95-595.07-9.91c-53.13.62-106.23,5.58-159.27,9.52-59.95,4.46-119.74,11.65-179.75,14.72-84.88,4.34-169.88,6.72-254.86,8.55-49.71,1.07-99.48.13-149.2-1.18-47-1.24-93.88-5.13-140.85-5.84-21-.32-39.11-5.24-56.73-16.06-36.28-15.34-44.49-102.57,22.08-154.41,126.17-72,198.5-61.59,249.93-46.95,13.68,3.9,72,20.36,88.05,27.79-.64-9.77-1.34-17.93-1.67-26.09-.65-15.84-3.47-32-1.19-47.48,11.13-75.4,46.53-114.56,117.95-127.2,7.87-1.4,16.5-.7,24.43.84,15.57,3,30.8,7.86,46.36,11,18.8,3.83,24.45-1.79,23.46-20.2-1.27-23.43-2.82-46.93-2.23-70.35,1-40.16,10.63-76.33,39.67-107.85,34.9-37.88,76.07-54.44,125.75-48.85,110.15-1.07,236.64,134.1,266.25,121.34s13.68-90,20.65-123.44c11.85-56.91,40.74-104.1,86.12-140.28,72-57.44,153-96.28,244-112.82,16.19-2.94,33.44-6.12,49.31-3.59,58.23,9.3,114.68,25.41,166.92,53.69,58.37,31.6,103.93,76.16,129.32,138C1916.5,506.1,1932,569,1931.5,635.12c-.17,23.5.27,47,1.53,70.49,1.32,24.73,8.17,29.23,31.33,22.81,5.33-1.48,10.69-2.81,16-4.25,25-6.79,49.51-5.5,72.61,6.45a306.62,306.62,0,0,1,40.57,24.73c23.34,17.14,22.73,17.18,47.37,4,17.84-9.54,35.36-11.66,54.41.49,29.53,18.84,52.9,42,65.26,75.28,1.67,4.51,3.17,9.74,6.45,12.83,3.52,3.33,9.21,6.4,13.63,6,3-.26,7.26-6.56,7.65-10.49.74-7.4-.39-15.13-1.73-22.54-1.45-8-2.75-11.08-5.32-20.75,12.84-7.79,22.68-17.09,34.93-21.13,51.51-17,101-15.17,145,20.31,54.22,43.71,75.39,100.36,64.3,169.31-2.39,14.88-4.17,30.27-3.09,45.2,1.13,15.64,12.39,20.17,26.62,13.1,4.95-2.46,9.81-5.08,14.8-7.46,20.52-9.8,41.46-8.94,62.64-2.41,19.83,6.11,32.87,19.27,34.07,39.9A467.56,467.56,0,0,1,2659.14,1125.17Z"/></svg>