<svg id="Layer_1" data-name="Layer 1" xmlns="http://www.w3.org/2000/svg" viewBox="0 0 2862.02 1400"><defs><style>.cls-1{fill:#fff;}.cls-2{fill:#373737;}</style></defs><path class="cls-1" d="M2734.51,987C2599.4,910,2522,921.09,2466.88,936.76c-14.66,4.17-77.07,21.8-94.29,29.76.68-10.47,1.44-19.2,1.79-27.94.69-17,3.72-34.32,1.28-50.84-11.93-80.74-49.83-122.67-126.31-136.21-8.43-1.5-17.67-.76-26.16.9-16.68,3.26-33,8.42-49.64,11.82-20.14,4.1-26.19-1.92-25.12-21.63,1.36-25.09,3-50.25,2.38-75.33-1.1-43-11.38-81.74-42.47-115.49-37.38-40.56-81.47-58.29-134.66-52.31-118-1.15-253.4,143.6-285.1,129.94s-14.66-96.35-22.12-132.19c-12.69-60.93-43.63-111.47-92.22-150.22-77.12-61.5-163.86-103.09-261.28-120.8-17.33-3.15-35.81-6.56-52.8-3.85-62.35,10-122.8,27.21-178.74,57.49-62.51,33.84-111.29,81.56-138.48,147.8-26.57,64.71-43.13,132.1-42.62,202.87.18,25.16-.3,50.36-1.64,75.48-1.42,26.48-8.76,31.3-33.55,24.42-5.71-1.58-11.46-3-17.17-4.55-26.77-7.26-53-5.89-77.76,6.91a329.14,329.14,0,0,0-43.43,26.48c-25,18.35-24.35,18.4-50.72,4.29-19.11-10.23-37.88-12.49-58.27.52-31.62,20.17-56.65,45-69.88,80.61-1.8,4.83-3.4,10.42-6.91,13.74-3.76,3.56-9.86,6.85-14.59,6.42-3.19-.28-7.78-7-8.2-11.23-.79-7.92.42-16.2,1.86-24.14,1.55-8.57,2.94-11.87,5.69-22.21-13.75-8.35-24.29-18.3-37.4-22.64-55.16-18.24-108.17-16.24-155.29,21.76C275,853.19,252.33,913.85,264.2,987.68c2.57,15.94,4.47,32.42,3.31,48.41-1.2,16.74-13.27,21.59-28.5,14-5.3-2.64-10.51-5.45-15.84-8-22-10.48-44.41-9.56-67.09-2.57-21.23,6.54-35.19,20.63-36.48,42.72a500,500,0,0,0,1.55,73c1.42,16,7.47,20.6,25.26,21.58,29.45,1.62,59,2.31,88.47,2.31,66.62,0,133.23-.76,199.85-1.06q194.35-.85,388.37-12c96.78-5.74,193.7-9.28,290.57-13.49q318.45-13.86,637.21-10.61c56.88.66,113.75,6,170.54,10.2,64.2,4.77,128.22,12.46,192.48,15.75,90.89,4.66,181.91,7.2,272.91,9.16,53.23,1.15,106.53.14,159.76-1.26,50.3-1.33,100.53-5.5,150.83-6.26,22.45-.34,41.88-5.6,60.75-17.19C2797,1136,2805.79,1042.54,2734.51,987Z"/><path class="cls-2" d="M2750.35,963.65c-77.09-65.17-167.23-92.34-267.55-86.91-25,1.35-49.87,3.37-75.56,5.13-10-53.22-27.9-101.18-70.91-135.57-43.74-35-94.17-42.88-148.19-33.71-.58-4.32-1.38-6.52-1.07-8.55,7.12-45.91-6.22-87.94-24.37-129.06q-39.12-88.62-131.8-116.77C1930,427.4,1867.75,451.73,1777.45,504c-6.89,4-46.45,31.79-54.29,36.62-1.71-7.21-8.46-49.25-9.47-54.29-16-79.78-51.72-139.69-116.22-188.59-40.81-30.94-84.16-58.09-131.14-78.64-89.54-39.16-182.24-62.6-280.71-46.6C1015.74,200.13,899.41,296.3,833.51,454c-21.77,52.1-24.81,107.82-22.62,163.78.46,11.65.39,23.33.57,35.56-112.27,10.43-123,69.14-123,69.14s-10.63-7.66-18.46-9.21c-63-13.24-85.51,8.37-118.83,40.2-6.38,6.1-12.13,12.84-18.81,19.95-82.33-55.68-166.31-59.45-249.81-5.33-82.63,53.56-117.88,131.52-108.44,230-7.86,1.14-13.6,2-19.35,2.81-47.84,6.68-80.18,38.73-82.59,86.91-1.27,25.5,2.89,51.49,6.56,77,4.64,32.21,25.52,51.31,56,58.88,18.53,4.6,37.9,8,56.91,8.09,78.46.37,156.93-1.62,235.39-1.09,151.1,1,301.89-6.69,452.73-13.68,119.77-5.54,239.51-13,359.36-15.65,176.86-3.84,353.8-4.4,530.71-5.6a897.84,897.84,0,0,1,97.53,5c138.44,14.15,277,26,416.27,28,93.22,1.29,186.39,7.2,279.66,1.07,48-3.15,96.24-3.4,144.05-8.23,79.17-8,128.37-81.34,105.87-157.52C2801.78,1025.32,2781.55,990,2750.35,963.65Zm7.8,188.73c-18.87,11.59-38.3,16.85-60.75,17.19-50.3.76-100.53,4.93-150.83,6.26-53.23,1.4-106.53,2.41-159.76,1.26-91-2-182-4.5-272.91-9.16-64.26-3.29-128.28-11-192.48-15.75-56.79-4.23-113.66-9.54-170.54-10.2q-318.72-3.72-637.21,10.61c-96.87,4.21-193.79,7.75-290.57,13.49q-194.05,11.51-388.37,12c-66.62.3-133.23,1.06-199.85,1.06-29.49,0-59-.69-88.47-2.31-17.79-1-23.84-5.53-25.26-21.58a500,500,0,0,1-1.55-73c1.29-22.09,15.25-36.18,36.48-42.72,22.68-7,45.11-7.91,67.09,2.57,5.33,2.55,10.54,5.36,15.84,8,15.23,7.56,27.3,2.71,28.5-14,1.16-16-.74-32.47-3.31-48.41-11.87-73.83,10.8-134.49,68.86-181.29,47.12-38,100.13-40,155.29-21.76,13.11,4.34,23.65,14.29,37.4,22.64-2.75,10.34-4.14,13.64-5.69,22.21-1.44,7.94-2.65,16.22-1.86,24.14.42,4.21,5,11,8.2,11.23,4.73.43,10.83-2.86,14.59-6.42,3.51-3.32,5.11-8.91,6.91-13.74,13.23-35.64,38.26-60.44,69.88-80.61,20.39-13,39.16-10.75,58.27-.52,26.37,14.11,25.72,14.06,50.72-4.29a329.14,329.14,0,0,1,43.43-26.48c24.74-12.8,51-14.17,77.76-6.91,5.71,1.55,11.46,3,17.17,4.55,24.79,6.88,32.13,2.06,33.55-24.42,1.34-25.12,1.82-50.32,1.64-75.48-.51-70.77,16-138.16,42.62-202.87,27.19-66.24,76-114,138.48-147.8,55.94-30.28,116.39-47.53,178.74-57.49,17-2.71,35.47.7,52.8,3.85,97.42,17.71,184.16,59.3,261.28,120.8,48.59,38.75,79.53,89.29,92.22,150.22,7.46,35.84-9.59,118.52,22.12,132.19s167.15-131.09,285.1-129.94c53.19-6,97.28,11.75,134.66,52.31,31.09,33.75,41.37,72.49,42.47,115.49.64,25.08-1,50.24-2.38,75.33-1.07,19.71,5,25.73,25.12,21.63,16.66-3.4,33-8.56,49.64-11.82,8.49-1.66,17.73-2.4,26.16-.9,76.48,13.54,114.38,55.47,126.31,136.21,2.44,16.52-.59,33.87-1.28,50.84-.35,8.74-1.11,17.47-1.79,27.94,17.22-8,79.63-25.59,94.29-29.76C2522,921.09,2599.4,910,2734.51,987,2805.79,1042.54,2797,1136,2758.15,1152.38Z"/></svg>