<svg id="Layer_1" data-name="Layer 1" xmlns="http://www.w3.org/2000/svg" viewBox="0 0 2862.02 1400"><defs><style>.cls-1{fill:#fff;}.cls-2{fill:#373737;}</style></defs><path class="cls-1" d="M2689.34,957.29c-24.57-32.29-56.21-49.7-96.33-52.57-6.35-.45-12.69-1.09-16.46-1.41,2.28-26.19,6.94-50.5,5.86-74.56-1.39-30.79-18.71-54-45.23-69.84-40.08-24-82.2-20.71-125-9.61-5.92,1.54-14.88,3.55-17.95.63-3.34-3.19.6-25.15,1.55-28.73,18.2-68,55.54-334.16-252.44-437.25-175.84-45.21-404.54-56.12-555.92,245.34,36.9,17.57,88.6,82.79,87.15,115.34-.31,7.07-.93,14.1-9.22,15.49s-12.15-4.67-13.18-11.82c-2.27-15.7-11.08-27.74-22.29-37.56-18.91-16.55-41-27.83-66.74-25.77-15.25,1.23-24.52-3.22-33.12-15.84C1523.05,559,1512.51,551,1502.79,543c-23.32-19.17-49.74-26-79.2-17.31-16.3,4.84-32.37,10.46-50.51,16.37-2.65-2.14-5-3.86-7.19-5.84-28.7-26.41-81.19-25.75-109.11,1.77-6,5.9-19.59,16.77-23,23.9.12,8.47,3.24,10.53,3.77,19.45,2,33.27,3.79,66.55,5.67,99.83.42,7.39-2.45,34.63-10,34s-12-21.79-12.6-27.69c-13-133.19-107.46-233-240-252-49-7-180,54-198.46,69.9-71.3,61.38-119.53,139.38-157,224.44-13.25,30.08-42.35,106.69-42.35,106.69s-22.33-15.93-37.4-20.8c-67.24-18.51-101.75,32.13-115.81,30.63-27.15-2.89-74.89-6.94-102.24-6.59-22.69.28-40.48,10.61-54.54,29.48-32.36,43.43-52.79,90.86-55.09,145.53-.89,21.18-2.33,21-24.44,26.14-19.37,4.48-39.07,9.5-56.92,17.91-16,7.54-25.46,22.46-24.55,41.7.89,18.83,14.3,27.66,29.43,32.32,16.83,5.17,34.64,9.65,52.09,9.91,47.49.69,95.06-2.73,142.51-1.4,115.07,3.23,230.06,6,345.19,1.1,158.95-6.75,317.78,1.12,476.58,7,95,3.49,189.7,12,284.91,8.51,40.76-1.48,81.65-.21,122.46.59,60.18,1.18,120.28,1,180.21-5.48,61.23-6.61,122.39-14,183.69-19.71,59.23-5.58,118.51-6.56,177.71,2.18,31.54,4.65,63.25,9.71,95,10.79,54.11,1.84,108.33,0,162.48,1,90.69,1.66,181.09.6,270.81-15.36,30.18-5.37,53.32-21.37,73.9-42.31,19.68-20,23.94-43.78,14.25-69.92C2714.71,997.34,2704,976.54,2689.34,957.29ZM691.09,952.43c-60.94-.27-102.57,35-121.06,75.78-11.52-1.36,2.7-55,31.24-75.25C634.5,929.4,702.24,944.74,691.09,952.43Zm1749.62,123.75c-1.49,7.41-4.21,17.2-9.72,20.55-8,4.86-12.09-4.75-16.21-10.83-8-11.87-16.32-22.79-33.71-19.78-7.18,1.24-10.94-5.06-9.77-11.64,1.13-6.39,4.07-12.58,6.9-18.54,27.51-58,20.86-112.86-17.65-163.16-45-58.77-105.12-90.15-179.44-93-28-1.07-50.21,4.51-73.75,21.17-4.75,3.36-4.94,12.7-15.82,14s-15.29-14.91-20.35-19c-30.91-25-72.1-22-99.1,7.45-5.07,5.53-17.59,12-11.44-7.34s28.29-36.95,54.9-40.61c31.69-4.35,59.22,12.64,78.63,27.43,55.34-48.32,153.94-22.2,210.15,9.76,31.34,17.82,57.34,42.26,78.15,71.71,32.69,46.27,43.47,96.79,27.54,152-1.42,4.91-2.44,9.92-2.95,12,10.6,12.37,19.95,22.59,28.41,33.51C2438.5,1065.91,2441.57,1071.92,2440.71,1076.18Z"/><path class="cls-2" d="M2632.41,875.63c-6.2-2-12.41-3.94-19.69-6.25,1-9.67,2.16-18.44,2.87-27.24,2-24.46-2.74-47.23-17-67.69-34.24-49-80.23-73.63-140.76-68.59-7,.58-14,.59-22.85.95,3.07-16.28,5.67-29.33,8-42.43,5.05-28.58,7.51-57.11,5.29-86.38-3.87-51.12-18.41-98.81-38.48-145.63-21-48.89-92.87-182.35-364.08-221-116.44-18-415.22-13.53-529.09,292.69-14-17.57-66.91-23.7-87.42-21.91C1413.93,483.46,1373,498,1373,498s-20-15.5-32.7-24.45c-31.62-22.31-66.23-28.65-103.69-17.51-25.68,7.65-50.56,16.93-70.86,34.21-21-18.14-40.65-36.19-61.4-52.9-52.58-42.36-114.94-58.63-179.72-50.71C804,401.39,703.74,456.7,628.79,554.52c-47.43,61.91-72.52,134.08-96.06,207-2.21,6.86-4.34,13.75-6.53,20.69-31.11-5.31-58.37,1.61-82.65,17.22-7.5,4.83-14.87,11.33-21.53,14-9.25-4.63-13.14-4.91-20-7.31-4.15-1.44-8.73-1.72-13.14-2.34-71.9-10.09-133.88,6.92-181.19,65.42-30.52,37.74-51.86,79.44-57.32,128.52-5.4,2.26-10,4.51-14.84,6.16-39.65,13.53-61.75,42.23-70.23,82.17-6.3,29.63,5.26,54.72,31.12,70,21.48,12.72,44.73,20.42,69.58,21.35,31.89,1.19,63.84,1.27,95.76,1.16,57.16-.22,114.34-2.18,171.46-1.12,73.49,1.36,146.93,6.49,220.41,7.12,55.62.49,111.29-3.12,166.9-5.62,111.59-5,487.72,15.15,560.52,15.61,5-.94,10-2.69,15.06-2.72,54.21-.38,108.48-2,162.63-.35a1781.43,1781.43,0,0,0,315.3-18.28c46.15-6.78,92.65-12,139.78-7.3,79.77,7.9,159.44,17.44,239.86,17,62.39-.35,124.8,1.94,187.16.72,55.62-1.09,111.36-3.44,166.67-9,34.73-3.47,69.93-5.5,101.62-27.45,37.16-25.74,52.71-61.06,58.34-102.54,1.92-14.15.48-30.47-4.83-43.61C2738,940.23,2696.36,896.06,2632.41,875.63Zm76.33,214c-20.58,20.94-43.72,36.94-73.9,42.31-89.72,16-180.12,17-270.81,15.36-54.15-1-108.37.87-162.48-1-31.77-1.08-63.48-6.14-95-10.79-59.2-8.74-118.48-7.76-177.71-2.18-61.3,5.76-122.46,13.1-183.69,19.71-59.93,6.47-120,6.66-180.21,5.48-40.81-.8-81.7-2.07-122.46-.59-95.21,3.46-190-5-284.91-8.51-158.8-5.83-317.63-13.7-476.58-7-115.13,4.88-230.12,2.13-345.19-1.1-47.45-1.33-95,2.09-142.51,1.4-17.45-.26-35.26-4.74-52.09-9.91-15.13-4.66-28.54-13.49-29.43-32.32-.91-19.24,8.54-34.16,24.55-41.7,17.85-8.41,37.55-13.43,56.92-17.91,22.11-5.11,23.55-5,24.44-26.14,2.3-54.67,22.73-102.1,55.09-145.53,14.06-18.87,31.85-29.2,54.54-29.48,27.35-.35,75.09,3.7,102.24,6.59,14.06,1.5,48.57-49.14,115.81-30.63,15.07,4.87,37.4,20.8,37.4,20.8s29.1-76.61,42.35-106.69c37.5-85.06,85.73-163.06,157-224.44,18.48-15.91,149.43-76.92,198.46-69.9,132.55,19,227,118.8,240,252,.57,5.9,5.05,27,12.6,27.69s10.41-26.6,10-34c-1.88-33.28-3.71-66.56-5.67-99.83-.53-8.92-3.65-11-3.77-19.45,3.45-7.13,17.07-18,23-23.9,27.92-27.52,80.41-28.18,109.11-1.77,2.15,2,4.54,3.7,7.19,5.84,18.14-5.91,34.21-11.53,50.51-16.37,29.46-8.74,55.88-1.86,79.2,17.31,9.72,8,20.26,15.94,27.19,26.11,8.6,12.62,17.87,17.07,33.12,15.84,25.78-2.06,47.83,9.22,66.74,25.77,11.21,9.82,20,21.86,22.29,37.56,1,7.15,4.81,13.21,13.18,11.82s8.91-8.42,9.22-15.49c1.45-32.55-50.25-97.77-87.15-115.34C1738.76,227.83,1967.46,238.74,2143.3,284c308,103.09,270.64,369.26,252.44,437.25-.95,3.58-4.89,25.54-1.55,28.73,3.07,2.92,12,.91,17.95-.63,42.84-11.1,85-14.36,125,9.61,26.52,15.87,43.84,39.05,45.23,69.84,1.08,24.06-3.58,48.37-5.86,74.56,3.77.32,10.11,1,16.46,1.41,40.12,2.87,71.76,20.28,96.33,52.57,14.65,19.25,25.37,40.05,33.65,62.38C2732.68,1045.81,2728.42,1069.56,2708.74,1089.59Z"/><path class="cls-2" d="M2407.07,1028.5c.51-2.12,1.53-7.13,2.95-12,15.93-55.24,5.15-105.76-27.54-152-20.81-29.45-46.81-53.89-78.15-71.71-56.21-32-154.81-58.08-210.15-9.76-19.41-14.79-46.94-31.78-78.63-27.43-26.61,3.66-48.75,21.28-54.9,40.61s6.37,12.87,11.44,7.34c27-29.44,68.19-32.43,99.1-7.45,5.06,4.08,9.47,20.35,20.35,19s11.07-10.69,15.82-14c23.54-16.66,45.74-22.24,73.75-21.17,74.32,2.83,134.45,34.21,179.44,93,38.51,50.3,45.16,105.12,17.65,163.16-2.83,6-5.77,12.15-6.9,18.54-1.17,6.58,2.59,12.88,9.77,11.64,17.39-3,25.68,7.91,33.71,19.78,4.12,6.08,8.23,15.69,16.21,10.83,5.51-3.35,8.23-13.14,9.72-20.55.86-4.26-2.21-10.27-5.23-14.17C2427,1051.09,2417.67,1040.87,2407.07,1028.5Z"/><path class="cls-2" d="M601.27,953c-28.54,20.23-42.76,73.89-31.24,75.25,18.49-40.78,60.12-76.05,121.06-75.78C702.24,944.74,634.5,929.4,601.27,953Z"/></svg>