<?xml version="1.0" encoding="utf-8"?>
<svg viewBox="-125.018 -100 2400 300" xmlns="http://www.w3.org/2000/svg">
  <path class="cls-1" d="M 2179.635 133.917 C 2178.526 132.46 2177.099 131.675 2175.289 131.545 C 2175.003 131.525 2174.717 131.496 2174.546 131.482 C 2174.649 130.3 2174.86 129.203 2174.811 128.118 C 2174.748 126.729 2173.967 125.682 2172.77 124.967 C 2170.962 123.885 2169.062 124.033 2167.131 124.534 C 2166.864 124.603 2166.46 124.694 2166.322 124.562 C 2166.171 124.418 2166.349 123.428 2166.392 123.266 C 2167.213 120.199 2168.897 108.192 2155.004 103.541 C 2147.071 101.502 2136.754 101.009 2129.925 114.609 C 2131.59 115.401 2133.922 118.344 2133.856 119.812 C 2133.842 120.131 2133.814 120.448 2133.441 120.511 C 2133.067 120.574 2132.892 120.3 2132.846 119.978 C 2132.744 119.269 2132.346 118.726 2131.84 118.283 C 2130.987 117.537 2129.991 117.028 2128.83 117.121 C 2128.142 117.176 2127.723 116.975 2127.336 116.406 C 2127.021 115.949 2126.546 115.588 2126.107 115.227 C 2125.055 114.363 2123.863 114.054 2122.534 114.446 C 2121.799 114.665 2121.074 114.918 2120.256 115.185 C 2120.136 115.088 2120.03 115.011 2119.931 114.921 C 2118.637 113.73 2116.269 113.76 2115.009 115.001 C 2114.738 115.267 2114.125 115.758 2113.972 116.08 C 2113.977 116.462 2114.118 116.555 2114.142 116.957 C 2114.232 118.458 2114.313 119.959 2114.397 121.46 C 2114.416 121.794 2114.287 123.023 2113.946 122.994 C 2113.606 122.966 2113.405 122.011 2113.378 121.745 C 2112.791 115.737 2108.53 111.234 2102.551 110.377 C 2100.341 110.061 2094.431 112.813 2093.598 113.53 C 2090.382 116.299 2088.206 119.818 2086.516 123.655 C 2085.918 125.012 2084.605 128.468 2084.605 128.468 C 2084.605 128.468 2083.598 127.749 2082.918 127.53 C 2079.885 126.695 2078.328 128.979 2077.694 128.912 C 2076.469 128.781 2074.315 128.598 2073.081 128.614 C 2072.058 128.627 2071.255 129.093 2070.621 129.944 C 2069.161 131.903 2068.239 134.043 2068.136 136.509 C 2068.096 137.465 2068.031 137.457 2067.033 137.689 C 2066.159 137.891 2065.271 138.117 2064.465 138.496 C 2063.744 138.837 2063.317 139.51 2063.358 140.378 C 2063.398 141.227 2064.003 141.625 2064.686 141.836 C 2065.445 142.069 2066.248 142.271 2067.035 142.283 C 2069.178 142.314 2071.324 142.16 2073.464 142.22 C 2078.655 142.365 2083.843 142.49 2089.036 142.269 C 2096.207 141.965 2103.372 142.32 2110.536 142.585 C 2114.822 142.742 2119.094 143.126 2123.389 142.969 C 2125.227 142.902 2127.072 142.959 2128.913 142.995 C 2131.628 143.049 2134.339 143.041 2137.043 142.748 C 2139.805 142.45 2142.564 142.117 2145.329 141.859 C 2148.001 141.607 2150.675 141.563 2153.346 141.957 C 2154.769 142.167 2156.199 142.396 2157.632 142.444 C 2160.073 142.527 2162.519 142.444 2164.962 142.489 C 2169.053 142.564 2173.131 142.516 2177.178 141.796 C 2178.54 141.554 2179.584 140.832 2180.512 139.888 C 2181.4 138.985 2181.592 137.913 2181.155 136.734 C 2180.779 135.723 2180.296 134.785 2179.635 133.917 Z M 2089.49 133.697 C 2086.741 133.685 2084.863 135.276 2084.029 137.116 C 2083.509 137.055 2084.15 134.635 2085.438 133.721 C 2086.937 132.659 2089.993 133.351 2089.49 133.697 Z M 2168.418 139.28 C 2168.351 139.614 2168.229 140.056 2167.98 140.207 C 2167.619 140.426 2167.435 139.993 2167.249 139.719 C 2166.888 139.183 2166.512 138.69 2165.728 138.826 C 2165.404 138.882 2165.234 138.598 2165.287 138.301 C 2165.338 138.013 2165.471 137.734 2165.598 137.465 C 2166.84 134.848 2166.54 132.373 2164.802 130.104 C 2162.772 127.453 2160.06 126.037 2156.707 125.909 C 2155.444 125.861 2154.442 126.112 2153.38 126.864 C 2153.166 127.016 2153.158 127.437 2152.667 127.496 C 2152.176 127.554 2151.977 126.823 2151.749 126.638 C 2150.354 125.511 2148.496 125.646 2147.278 126.974 C 2147.049 127.224 2146.485 127.516 2146.762 126.643 C 2147.039 125.771 2148.038 124.976 2149.239 124.811 C 2150.668 124.615 2151.91 125.382 2152.786 126.049 C 2155.282 123.869 2159.73 125.047 2162.266 126.489 C 2163.68 127.293 2164.853 128.395 2165.792 129.724 C 2167.266 131.811 2167.753 134.09 2167.034 136.581 C 2166.97 136.803 2166.924 137.029 2166.901 137.122 C 2167.379 137.68 2167.801 138.141 2168.183 138.634 C 2168.319 138.817 2168.457 139.088 2168.418 139.28 Z" style="fill: rgb(255, 255, 255);"/>
  <path class="cls-2" d="M 2177.066 130.233 C 2176.787 130.143 2176.507 130.055 2176.178 129.951 C 2176.223 129.515 2176.276 129.119 2176.308 128.722 C 2176.398 127.619 2176.184 126.591 2175.541 125.668 C 2173.996 123.458 2171.921 122.347 2169.191 122.574 C 2168.875 122.6 2168.559 122.601 2168.16 122.617 C 2168.298 121.883 2168.416 121.294 2168.521 120.703 C 2168.749 119.414 2168.86 118.127 2168.759 116.806 C 2168.585 114.5 2167.929 112.349 2167.024 110.237 C 2166.076 108.031 2162.834 102.01 2150.599 100.267 C 2145.346 99.455 2131.868 99.657 2126.731 113.471 C 2126.099 112.678 2123.713 112.402 2122.787 112.482 C 2122.098 112.541 2120.252 113.197 2120.252 113.197 C 2120.252 113.197 2119.35 112.498 2118.777 112.094 C 2117.35 111.088 2115.789 110.802 2114.099 111.304 C 2112.941 111.65 2111.818 112.068 2110.903 112.848 C 2109.955 112.029 2109.069 111.215 2108.133 110.461 C 2105.761 108.55 2102.948 107.816 2100.025 108.174 C 2094.583 108.839 2090.061 111.334 2086.679 115.747 C 2084.54 118.54 2083.408 121.796 2082.346 125.085 C 2082.246 125.395 2082.15 125.705 2082.051 126.019 C 2080.648 125.779 2079.418 126.091 2078.323 126.795 C 2077.985 127.013 2077.652 127.306 2077.352 127.427 C 2076.934 127.218 2076.759 127.205 2076.449 127.097 C 2076.262 127.032 2076.056 127.02 2075.857 126.992 C 2072.613 126.536 2069.817 127.304 2067.683 129.943 C 2066.306 131.645 2065.343 133.527 2065.097 135.741 C 2064.853 135.843 2064.646 135.944 2064.428 136.018 C 2062.639 136.629 2061.642 137.924 2061.259 139.725 C 2060.975 141.062 2061.497 142.194 2062.663 142.883 C 2063.632 143.457 2064.681 143.804 2065.802 143.846 C 2067.241 143.9 2068.682 143.904 2070.122 143.899 C 2072.701 143.889 2075.28 143.8 2077.857 143.848 C 2081.172 143.909 2084.485 144.141 2087.8 144.169 C 2090.309 144.191 2092.82 144.029 2095.329 143.916 C 2100.363 143.69 2117.331 144.599 2120.615 144.62 C 2120.841 144.578 2121.066 144.499 2121.295 144.497 C 2123.74 144.48 2126.188 144.407 2128.631 144.481 C 2133.387 144.628 2138.147 144.352 2142.855 143.657 C 2144.937 143.351 2147.035 143.115 2149.161 143.328 C 2152.759 143.684 2156.353 144.114 2159.981 144.094 C 2162.796 144.079 2165.611 144.182 2168.424 144.127 C 2170.933 144.078 2173.448 143.972 2175.943 143.721 C 2177.51 143.564 2179.098 143.473 2180.527 142.483 C 2182.204 141.321 2182.905 139.728 2183.159 137.857 C 2183.246 137.218 2183.181 136.482 2182.941 135.889 C 2181.83 133.147 2179.951 131.155 2177.066 130.233 Z M 2180.51 139.887 C 2179.581 140.831 2178.537 141.553 2177.176 141.796 C 2173.129 142.517 2169.05 142.562 2164.959 142.488 C 2162.516 142.443 2160.07 142.528 2157.629 142.443 C 2156.196 142.395 2154.766 142.166 2153.344 141.957 C 2150.673 141.562 2147.999 141.606 2145.327 141.858 C 2142.562 142.118 2139.803 142.449 2137.04 142.747 C 2134.337 143.039 2131.627 143.048 2128.911 142.995 C 2127.07 142.958 2125.225 142.901 2123.386 142.968 C 2119.091 143.124 2114.815 142.742 2110.534 142.584 C 2103.37 142.321 2096.205 141.966 2089.034 142.268 C 2083.84 142.488 2078.653 142.364 2073.462 142.219 C 2071.321 142.159 2069.176 142.313 2067.033 142.282 C 2066.246 142.27 2065.443 142.068 2064.683 141.835 C 2064.001 141.625 2063.396 141.226 2063.356 140.377 C 2063.315 139.509 2063.741 138.836 2064.463 138.496 C 2065.268 138.116 2066.157 137.89 2067.031 137.688 C 2068.028 137.457 2068.093 137.462 2068.133 136.508 C 2068.237 134.042 2069.159 131.902 2070.619 129.943 C 2071.253 129.092 2072.055 128.626 2073.079 128.613 C 2074.313 128.598 2076.467 128.78 2077.691 128.911 C 2078.326 128.978 2079.882 126.694 2082.916 127.529 C 2083.596 127.749 2084.603 128.467 2084.603 128.467 C 2084.603 128.467 2085.916 125.011 2086.513 123.654 C 2088.205 119.817 2090.381 116.298 2093.596 113.529 C 2094.43 112.812 2100.337 110.059 2102.549 110.376 C 2108.528 111.233 2112.789 115.735 2113.376 121.744 C 2113.401 122.01 2113.603 122.962 2113.944 122.993 C 2114.285 123.024 2114.414 121.793 2114.395 121.46 C 2114.31 119.958 2114.228 118.457 2114.139 116.956 C 2114.116 116.554 2113.975 116.46 2113.969 116.079 C 2114.125 115.757 2114.739 115.267 2115.007 115 C 2116.266 113.759 2118.634 113.729 2119.929 114.921 C 2120.026 115.011 2120.134 115.087 2120.253 115.184 C 2121.072 114.917 2121.797 114.664 2122.532 114.446 C 2123.861 114.051 2125.053 114.362 2126.105 115.226 C 2126.543 115.587 2127.019 115.946 2127.331 116.404 C 2127.719 116.974 2128.138 117.174 2128.826 117.119 C 2129.989 117.026 2130.983 117.535 2131.836 118.281 C 2132.342 118.724 2132.739 119.268 2132.842 119.976 C 2132.887 120.298 2133.059 120.572 2133.436 120.509 C 2133.814 120.446 2133.838 120.129 2133.852 119.81 C 2133.918 118.342 2131.586 115.4 2129.921 114.607 C 2136.752 101.009 2147.069 101.502 2155.002 103.543 C 2168.896 108.194 2167.211 120.201 2166.39 123.269 C 2166.347 123.43 2166.169 124.421 2166.32 124.565 C 2166.458 124.696 2166.861 124.606 2167.13 124.536 C 2169.062 124.035 2170.964 123.888 2172.769 124.97 C 2173.965 125.686 2174.746 126.731 2174.809 128.12 C 2174.858 129.206 2174.647 130.302 2174.545 131.484 C 2174.715 131.498 2175.001 131.529 2175.287 131.547 C 2177.097 131.677 2178.524 132.462 2179.633 133.919 C 2180.294 134.787 2180.777 135.726 2181.151 136.733 C 2181.59 137.91 2181.398 138.981 2180.51 139.885 Z" style="fill: rgb(183, 183, 183);"/>
  <path class="cls-2" d="M 2166.901 137.129 C 2166.924 137.034 2166.97 136.807 2167.034 136.588 C 2167.753 134.096 2167.266 131.817 2165.792 129.731 C 2164.853 128.402 2163.68 127.3 2162.266 126.496 C 2159.73 125.052 2155.282 123.876 2152.786 126.056 C 2151.91 125.388 2150.668 124.622 2149.239 124.818 C 2148.038 124.983 2147.039 125.778 2146.762 126.65 C 2146.485 127.522 2147.049 127.231 2147.278 126.981 C 2148.496 125.653 2150.354 125.518 2151.749 126.645 C 2151.977 126.829 2152.176 127.563 2152.667 127.502 C 2153.158 127.441 2153.166 127.02 2153.38 126.871 C 2154.442 126.119 2155.444 125.867 2156.707 125.916 C 2160.06 126.043 2162.773 127.459 2164.802 130.111 C 2166.54 132.38 2166.84 134.853 2165.598 137.472 C 2165.471 137.742 2165.338 138.02 2165.287 138.308 C 2165.234 138.605 2165.404 138.889 2165.728 138.833 C 2166.512 138.698 2166.886 139.19 2167.249 139.725 C 2167.435 140 2167.62 140.433 2167.98 140.214 C 2168.229 140.063 2168.351 139.621 2168.418 139.287 C 2168.457 139.095 2168.319 138.824 2168.183 138.648 C 2167.8 138.148 2167.379 137.687 2166.901 137.129 Z" style="fill: rgb(183, 183, 183);"/>
  <path class="cls-2" d="M 2085.438 133.723 C 2084.15 134.636 2083.509 137.057 2084.029 137.118 C 2084.863 135.278 2086.741 133.687 2089.49 133.699 C 2089.993 133.351 2086.937 132.659 2085.438 133.723 Z" style="fill: rgb(183, 183, 183);"/>
  <path class="cls-1" d="M 949.276 95.175 C 945.267 92.89 942.97 93.219 941.334 93.684 C 940.899 93.808 939.047 94.331 938.536 94.567 C 938.556 94.256 938.578 93.997 938.589 93.738 C 938.609 93.234 938.7 92.72 938.627 92.229 C 938.273 89.833 937.148 88.589 934.878 88.187 C 934.628 88.142 934.354 88.164 934.102 88.214 C 933.607 88.31 933.123 88.463 932.629 88.564 C 932.031 88.686 931.852 88.507 931.883 87.923 C 931.924 87.178 931.973 86.431 931.954 85.687 C 931.922 84.411 931.616 83.261 930.694 82.259 C 929.585 81.056 928.276 80.529 926.697 80.707 C 923.196 80.673 919.177 84.969 918.236 84.564 C 917.296 84.158 917.801 81.704 917.58 80.64 C 917.204 78.832 916.285 77.332 914.843 76.182 C 912.555 74.357 909.98 73.123 907.089 72.597 C 906.575 72.504 906.027 72.403 905.522 72.483 C 903.672 72.78 901.878 73.29 900.218 74.189 C 898.363 75.194 896.915 76.61 896.108 78.575 C 895.32 80.496 894.828 82.496 894.843 84.596 C 894.848 85.343 894.834 86.091 894.794 86.836 C 894.752 87.622 894.535 87.765 893.798 87.561 C 893.629 87.514 893.459 87.472 893.289 87.426 C 892.495 87.21 891.716 87.251 890.981 87.631 C 890.532 87.859 890.101 88.122 889.693 88.416 C 888.951 88.961 888.97 88.962 888.187 88.544 C 887.621 88.24 887.063 88.173 886.458 88.56 C 885.519 89.158 884.777 89.895 884.385 90.952 C 884.331 91.095 884.283 91.261 884.18 91.359 C 884.068 91.465 883.887 91.563 883.746 91.55 C 883.652 91.541 883.515 91.342 883.503 91.217 C 883.48 90.982 883.515 90.736 883.558 90.5 C 883.604 90.246 883.645 90.148 883.727 89.841 C 883.319 89.593 883.006 89.298 882.617 89.169 C 880.98 88.628 879.407 88.687 878.009 89.815 C 876.285 91.204 875.613 93.004 875.965 95.195 C 876.041 95.668 876.098 96.157 876.063 96.632 C 876.028 97.129 875.669 97.272 875.217 97.047 C 875.06 96.969 874.905 96.886 874.747 96.81 C 874.094 96.499 873.429 96.526 872.756 96.733 C 872.126 96.928 871.712 97.346 871.673 98.001 C 871.636 98.723 871.651 99.448 871.72 100.168 C 871.762 100.643 871.941 100.779 872.469 100.809 C 873.343 100.856 874.22 100.877 875.095 100.877 C 877.072 100.877 879.049 100.854 881.025 100.845 C 884.871 100.829 888.713 100.71 892.551 100.489 C 895.424 100.319 898.3 100.214 901.175 100.089 C 907.475 99.814 913.779 99.71 920.086 99.774 C 921.773 99.794 923.461 99.952 925.146 100.076 C 927.052 100.218 928.952 100.447 930.858 100.544 C 933.556 100.683 936.257 100.758 938.958 100.816 C 940.537 100.85 942.119 100.82 943.699 100.779 C 945.192 100.739 946.683 100.615 948.175 100.593 C 948.842 100.583 949.418 100.426 949.978 100.082 C 951.131 99.597 951.392 96.823 949.276 95.175 Z" style="fill: rgb(255, 255, 255);"/>
  <path class="cls-2" d="M 949.746 94.482 C 947.459 92.548 944.784 91.742 941.807 91.903 C 941.065 91.943 940.327 92.003 939.564 92.055 C 939.268 90.475 938.736 89.052 937.46 88.032 C 936.162 86.993 934.665 86.759 933.062 87.031 C 933.045 86.903 933.021 86.838 933.03 86.778 C 933.241 85.415 932.846 84.168 932.307 82.947 C 931.533 81.194 930.229 80.039 928.395 79.482 C 925.401 78.567 923.554 79.289 920.874 80.841 C 920.67 80.96 919.495 81.784 919.263 81.928 C 919.212 81.714 919.012 80.466 918.982 80.316 C 918.507 77.949 917.447 76.171 915.533 74.719 C 914.321 73.801 913.035 72.996 911.641 72.386 C 908.983 71.224 906.232 70.528 903.31 71.003 C 898.269 71.823 894.816 74.677 892.86 79.357 C 892.214 80.903 892.124 82.557 892.189 84.218 C 892.202 84.564 892.201 84.91 892.206 85.273 C 888.874 85.583 888.556 87.325 888.556 87.325 C 888.556 87.325 888.24 87.097 888.008 87.051 C 886.138 86.659 885.47 87.3 884.481 88.245 C 884.292 88.425 884.121 88.626 883.923 88.836 C 881.48 87.184 878.987 87.072 876.509 88.678 C 874.057 90.268 873.011 92.581 873.291 95.504 C 873.058 95.538 872.888 95.563 872.717 95.587 C 871.297 95.786 870.337 96.737 870.266 98.167 C 870.228 98.924 870.352 99.695 870.46 100.452 C 870.598 101.407 871.218 101.974 872.122 102.199 C 872.673 102.336 873.247 102.437 873.811 102.439 C 876.14 102.45 878.469 102.391 880.797 102.407 C 885.281 102.437 889.757 102.208 894.233 102.001 C 897.787 101.836 901.341 101.615 904.898 101.536 C 910.146 101.422 915.397 101.406 920.648 101.37 C 921.614 101.367 922.581 101.417 923.542 101.519 C 927.65 101.939 931.763 102.29 935.896 102.35 C 938.662 102.388 941.428 102.563 944.195 102.381 C 945.62 102.288 947.052 102.28 948.47 102.137 C 950.82 101.899 952.28 99.724 951.612 97.463 C 951.273 96.312 950.673 95.264 949.746 94.482 Z M 949.978 100.083 C 949.418 100.427 948.842 100.583 948.175 100.593 C 946.683 100.615 945.192 100.74 943.699 100.779 C 942.119 100.82 940.537 100.85 938.958 100.816 C 936.257 100.757 933.557 100.683 930.858 100.545 C 928.952 100.447 927.052 100.218 925.146 100.077 C 923.461 99.952 921.773 99.794 920.086 99.774 C 913.779 99.701 907.476 99.806 901.175 100.089 C 898.3 100.214 895.424 100.319 892.551 100.489 C 888.712 100.717 884.871 100.836 881.025 100.845 C 879.049 100.854 877.072 100.877 875.095 100.877 C 874.219 100.877 873.344 100.857 872.469 100.809 C 871.941 100.779 871.762 100.645 871.72 100.168 C 871.651 99.448 871.636 98.724 871.673 98.001 C 871.712 97.346 872.126 96.928 872.756 96.734 C 873.429 96.526 874.095 96.499 874.747 96.81 C 874.905 96.886 875.06 96.969 875.217 97.048 C 875.669 97.272 876.028 97.128 876.063 96.632 C 876.098 96.157 876.041 95.669 875.965 95.196 C 875.613 93.004 876.285 91.204 878.009 89.815 C 879.407 88.687 880.98 88.628 882.617 89.169 C 883.006 89.298 883.319 89.593 883.727 89.841 C 883.645 90.148 883.604 90.246 883.558 90.5 C 883.515 90.736 883.48 90.982 883.503 91.217 C 883.515 91.342 883.651 91.543 883.746 91.55 C 883.887 91.563 884.068 91.465 884.18 91.359 C 884.283 91.261 884.331 91.095 884.385 90.952 C 884.777 89.894 885.519 89.158 886.458 88.56 C 887.063 88.174 887.621 88.24 888.187 88.544 C 888.97 88.963 888.951 88.961 889.693 88.417 C 890.101 88.122 890.532 87.859 890.981 87.631 C 891.716 87.251 892.495 87.211 893.289 87.426 C 893.459 87.472 893.629 87.515 893.798 87.561 C 894.535 87.765 894.752 87.622 894.794 86.836 C 894.834 86.091 894.848 85.343 894.843 84.596 C 894.828 82.496 895.318 80.496 896.108 78.576 C 896.915 76.61 898.363 75.192 900.218 74.189 C 901.878 73.291 903.672 72.779 905.522 72.483 C 906.027 72.403 906.575 72.504 907.089 72.597 C 909.98 73.123 912.555 74.357 914.843 76.182 C 916.285 77.333 917.204 78.832 917.58 80.641 C 917.801 81.704 917.295 84.158 918.236 84.564 C 919.178 84.969 923.197 80.673 926.697 80.707 C 928.276 80.529 929.585 81.056 930.694 82.26 C 931.616 83.261 931.922 84.411 931.954 85.687 C 931.973 86.432 931.924 87.178 931.883 87.923 C 931.852 88.508 932.032 88.686 932.629 88.565 C 933.124 88.464 933.608 88.311 934.102 88.214 C 934.354 88.164 934.628 88.142 934.878 88.187 C 937.148 88.589 938.273 89.834 938.627 92.229 C 938.7 92.72 938.609 93.235 938.589 93.738 C 938.578 93.998 938.556 94.257 938.536 94.568 C 939.047 94.33 940.899 93.808 941.334 93.684 C 942.97 93.219 945.267 92.89 949.276 95.175 C 951.392 96.823 951.131 99.597 949.978 100.083 Z" style="fill: rgb(183, 183, 183);"/>
  <path class="cls-1" d="M 1750.005 217.22 C 1748.555 216.771 1747.118 216.714 1745.713 217.384 C 1745.371 217.547 1745.04 217.728 1744.699 217.896 C 1743.724 218.381 1742.953 218.071 1742.876 216.999 C 1742.8 215.976 1742.923 214.919 1743.088 213.902 C 1743.846 209.179 1742.397 205.295 1738.682 202.302 C 1735.668 199.87 1732.275 199.741 1728.746 200.91 C 1727.906 201.184 1727.233 201.824 1726.354 202.357 C 1726.529 203.02 1726.619 203.23 1726.718 203.778 C 1726.81 204.286 1726.886 204.816 1726.836 205.324 C 1726.81 205.592 1726.515 206.025 1726.312 206.041 C 1726.01 206.07 1725.62 205.859 1725.379 205.631 C 1725.155 205.42 1725.05 205.061 1724.937 204.751 C 1724.089 202.472 1722.487 200.885 1720.465 199.595 C 1719.163 198.763 1717.961 198.909 1716.737 199.562 C 1715.05 200.463 1715.093 200.461 1713.491 199.288 C 1712.61 198.649 1711.679 198.084 1710.71 197.591 C 1709.127 196.771 1707.45 196.687 1705.737 197.149 C 1705.369 197.248 1705.003 197.341 1704.638 197.443 C 1703.053 197.882 1702.584 197.572 1702.493 195.878 C 1702.406 194.272 1702.377 192.658 1702.387 191.05 C 1702.42 186.522 1701.36 182.211 1699.66 178.067 C 1697.92 173.829 1694.796 170.776 1690.799 168.613 C 1687.22 166.676 1683.352 165.571 1679.362 164.934 C 1678.276 164.762 1677.094 164.979 1675.983 165.179 C 1669.749 166.314 1664.2 168.977 1659.266 172.91 C 1656.157 175.387 1654.177 178.622 1653.365 182.522 C 1652.886 184.815 1653.982 190.104 1651.95 190.981 C 1649.919 191.855 1641.255 182.591 1633.708 182.667 C 1630.305 182.282 1627.484 183.419 1625.093 186.013 C 1623.106 188.173 1622.444 190.65 1622.377 193.403 C 1622.334 195.007 1622.443 196.618 1622.528 198.222 C 1622.596 199.483 1622.209 199.866 1620.918 199.606 C 1619.853 199.388 1618.812 199.058 1617.743 198.852 C 1617.199 198.746 1616.609 198.698 1616.068 198.796 C 1611.176 199.661 1608.752 202.344 1607.988 207.51 C 1607.832 208.569 1608.024 209.678 1608.069 210.764 C 1608.093 211.322 1608.138 211.882 1608.185 212.55 C 1607.083 212.042 1603.089 210.913 1602.151 210.646 C 1598.628 209.645 1593.672 208.935 1585.027 213.863 C 1580.465 217.417 1581.028 223.392 1583.515 224.443 C 1584.723 225.184 1585.966 225.523 1587.402 225.544 C 1590.621 225.593 1593.832 225.858 1597.05 225.943 C 1600.459 226.032 1603.868 226.098 1607.275 226.026 C 1613.099 225.9 1618.922 225.738 1624.737 225.44 C 1628.847 225.23 1632.944 224.735 1637.052 224.431 C 1640.684 224.161 1644.324 223.821 1647.965 223.777 C 1661.56 223.621 1675.15 223.846 1688.736 224.457 C 1694.936 224.727 1701.138 224.953 1707.33 225.322 C 1715.605 225.811 1723.891 226.068 1732.179 226.09 C 1736.44 226.108 1740.704 226.158 1744.966 226.158 C 1746.852 226.158 1748.744 226.115 1750.626 226.012 C 1751.765 225.948 1752.15 225.658 1752.243 224.629 C 1752.389 223.078 1752.422 221.516 1752.342 219.959 C 1752.256 218.539 1751.364 217.639 1750.005 217.22 Z" style="fill: rgb(255, 255, 255);"/>
  <path class="cls-2" d="M 1750.091 214.747 C 1749.722 214.695 1749.355 214.641 1748.853 214.568 C 1749.457 208.265 1747.201 203.275 1741.913 199.849 C 1736.57 196.386 1731.198 196.627 1725.929 200.189 C 1725.502 199.736 1725.133 199.305 1724.727 198.914 C 1722.594 196.878 1721.152 195.496 1717.119 196.344 C 1716.618 196.443 1715.938 196.932 1715.938 196.932 C 1715.938 196.932 1715.254 193.176 1708.069 192.506 C 1708.08 191.724 1708.076 190.978 1708.106 190.232 C 1708.244 186.652 1708.053 183.087 1706.658 179.749 C 1702.442 169.661 1695 163.512 1684.128 161.742 C 1677.824 160.717 1671.897 162.217 1666.167 164.723 C 1663.16 166.037 1660.386 167.776 1657.775 169.756 C 1653.651 172.884 1651.364 176.72 1650.344 181.823 C 1650.275 182.147 1649.844 184.838 1649.737 185.298 C 1649.236 184.987 1646.702 183.211 1646.263 182.955 C 1640.483 179.608 1636.499 178.05 1630.045 180.023 C 1626.09 181.231 1623.278 183.723 1621.611 187.493 C 1620.449 190.126 1619.595 192.816 1620.051 195.753 C 1620.073 195.882 1620.021 196.022 1619.984 196.301 C 1616.529 195.715 1613.301 196.221 1610.502 198.457 C 1607.75 200.658 1606.607 203.727 1605.964 207.133 C 1604.321 207.02 1602.727 206.889 1601.13 206.804 C 1594.712 206.457 1588.944 208.193 1584.012 212.364 C 1582.016 214.051 1580.723 216.309 1579.989 218.79 C 1578.55 223.663 1581.696 228.355 1586.762 228.867 C 1589.821 229.177 1592.908 229.194 1595.98 229.395 C 1601.945 229.787 1607.908 229.409 1613.874 229.326 C 1622.786 229.203 1631.649 228.443 1640.509 227.536 C 1642.58 227.316 1644.664 227.21 1646.748 227.214 C 1658.069 227.292 1669.389 227.328 1680.706 227.573 C 1688.375 227.738 1696.036 228.219 1703.7 228.573 C 1713.351 229.019 1723 229.516 1732.667 229.448 C 1737.688 229.415 1742.71 229.543 1747.728 229.517 C 1748.945 229.513 1750.186 229.296 1751.371 229 C 1753.322 228.516 1754.659 227.295 1754.955 225.232 C 1755.189 223.602 1755.456 221.939 1755.372 220.306 C 1755.222 217.226 1753.15 215.176 1750.091 214.747 Z M 1752.24 224.625 C 1752.15 225.652 1751.761 225.943 1750.625 226.005 C 1748.739 226.108 1746.852 226.154 1744.964 226.154 C 1740.702 226.154 1736.437 226.104 1732.176 226.085 C 1723.886 226.048 1715.602 225.79 1707.327 225.315 C 1701.135 224.946 1694.934 224.719 1688.735 224.45 C 1675.15 223.86 1661.558 223.632 1647.962 223.772 C 1644.322 223.814 1640.685 224.154 1637.05 224.424 C 1632.944 224.728 1628.845 225.223 1624.734 225.433 C 1618.919 225.731 1613.094 225.893 1607.273 226.019 C 1603.866 226.092 1600.456 226.028 1597.05 225.939 C 1593.831 225.853 1590.617 225.586 1587.399 225.537 C 1585.96 225.516 1584.718 225.177 1583.511 224.438 C 1581.026 223.387 1580.465 217.41 1585.026 213.857 C 1593.67 208.923 1598.627 209.638 1602.149 210.641 C 1603.086 210.909 1607.083 212.035 1608.182 212.546 C 1608.138 211.875 1608.09 211.318 1608.069 210.757 C 1608.024 209.672 1607.83 208.565 1607.987 207.504 C 1608.749 202.337 1611.176 199.655 1616.068 198.789 C 1616.607 198.694 1617.198 198.741 1617.741 198.846 C 1618.809 199.053 1619.853 199.387 1620.918 199.601 C 1622.206 199.863 1622.594 199.479 1622.525 198.216 C 1622.437 196.611 1622.331 195.001 1622.371 193.394 C 1622.44 190.645 1623.101 188.166 1625.09 186.005 C 1627.482 183.411 1630.302 182.277 1633.707 182.66 C 1641.252 182.587 1649.92 191.848 1651.95 190.974 C 1653.976 190.1 1652.886 184.807 1653.365 182.516 C 1654.176 178.615 1656.155 175.383 1659.264 172.905 C 1664.197 168.97 1669.747 166.31 1675.982 165.175 C 1677.092 164.971 1678.273 164.755 1679.362 164.93 C 1683.35 165.565 1687.22 166.668 1690.796 168.608 C 1694.796 170.772 1697.92 173.826 1699.658 178.063 C 1701.36 182.209 1702.42 186.518 1702.387 191.05 C 1702.373 192.661 1702.403 194.269 1702.491 195.878 C 1702.581 197.572 1703.05 197.882 1704.637 197.443 C 1705.003 197.341 1705.369 197.248 1705.733 197.149 C 1707.447 196.687 1709.125 196.773 1710.707 197.591 C 1711.679 198.084 1712.607 198.649 1713.489 199.288 C 1715.087 200.461 1715.046 200.463 1716.734 199.562 C 1717.955 198.906 1719.156 198.763 1720.463 199.595 C 1722.485 200.885 1724.087 202.472 1724.932 204.751 C 1725.048 205.061 1725.15 205.42 1725.374 205.631 C 1725.615 205.859 1726.007 206.07 1726.31 206.041 C 1726.515 206.025 1726.806 205.592 1726.833 205.324 C 1726.883 204.816 1726.806 204.286 1726.714 203.778 C 1726.615 203.23 1726.526 203.02 1726.35 202.357 C 1727.231 201.824 1727.905 201.186 1728.743 200.91 C 1732.272 199.746 1735.662 199.87 1738.678 202.302 C 1742.394 205.295 1743.844 209.179 1743.084 213.902 C 1742.92 214.919 1742.797 215.976 1742.873 216.999 C 1742.949 218.071 1743.721 218.381 1744.697 217.896 C 1745.035 217.728 1745.368 217.547 1745.711 217.384 C 1747.117 216.714 1748.55 216.771 1750.003 217.22 C 1751.362 217.639 1752.255 218.539 1752.338 219.955 C 1752.418 221.511 1752.387 223.072 1752.24 224.625 Z" style="fill: rgb(183, 183, 183);"/>
  <path class="cls-1" d="M 718.452 14.617 C 717.343 13.16 715.916 12.375 714.106 12.245 C 713.82 12.225 713.534 12.196 713.363 12.182 C 713.466 11 713.677 9.903 713.628 8.818 C 713.565 7.429 712.784 6.382 711.587 5.667 C 709.779 4.585 707.879 4.733 705.948 5.234 C 705.681 5.303 705.277 5.394 705.139 5.262 C 704.988 5.118 705.166 4.128 705.209 3.966 C 706.03 0.899 707.714 -11.108 693.821 -15.759 C 685.888 -17.798 675.571 -18.291 668.742 -4.691 C 670.407 -3.899 672.739 -0.956 672.673 0.512 C 672.659 0.831 672.631 1.148 672.258 1.211 C 671.884 1.274 671.709 1 671.663 0.678 C 671.561 -0.031 671.163 -0.574 670.657 -1.017 C 669.804 -1.763 668.808 -2.272 667.647 -2.179 C 666.959 -2.124 666.54 -2.325 666.153 -2.894 C 665.838 -3.351 665.363 -3.712 664.924 -4.073 C 663.872 -4.937 662.68 -5.246 661.351 -4.854 C 660.616 -4.635 659.891 -4.382 659.073 -4.115 C 658.953 -4.212 658.847 -4.289 658.748 -4.379 C 657.454 -5.57 655.086 -5.54 653.826 -4.299 C 653.555 -4.033 652.942 -3.542 652.789 -3.22 C 652.794 -2.838 652.935 -2.745 652.959 -2.343 C 653.049 -0.842 653.13 0.659 653.214 2.16 C 653.233 2.494 653.104 3.723 652.763 3.694 C 652.423 3.666 652.222 2.711 652.195 2.445 C 651.608 -3.563 647.347 -8.066 641.368 -8.923 C 639.158 -9.239 633.248 -6.487 632.415 -5.77 C 629.199 -3.001 627.023 0.518 625.333 4.355 C 624.735 5.712 623.422 9.168 623.422 9.168 C 623.422 9.168 622.415 8.449 621.735 8.23 C 618.702 7.395 617.145 9.679 616.511 9.612 C 615.286 9.481 613.132 9.298 611.898 9.314 C 610.875 9.327 610.072 9.793 609.438 10.644 C 607.978 12.603 607.056 14.743 606.953 17.209 C 606.913 18.165 606.848 18.157 605.85 18.389 C 604.976 18.591 604.088 18.817 603.282 19.196 C 602.561 19.537 602.134 20.21 602.175 21.078 C 602.215 21.927 602.82 22.325 603.503 22.536 C 604.262 22.769 605.065 22.971 605.852 22.983 C 607.995 23.014 610.141 22.86 612.281 22.92 C 617.472 23.065 622.66 23.19 627.853 22.969 C 635.024 22.665 642.189 23.02 649.353 23.285 C 653.639 23.442 657.911 23.826 662.206 23.669 C 664.044 23.602 665.889 23.659 667.73 23.695 C 670.445 23.749 673.156 23.741 675.86 23.448 C 678.622 23.15 681.381 22.817 684.146 22.559 C 686.818 22.307 689.492 22.263 692.163 22.657 C 693.586 22.867 695.016 23.096 696.449 23.144 C 698.89 23.227 701.336 23.144 703.779 23.189 C 707.87 23.264 711.948 23.216 715.995 22.496 C 717.357 22.254 718.401 21.532 719.329 20.588 C 720.217 19.685 720.409 18.613 719.972 17.434 C 719.596 16.423 719.113 15.485 718.452 14.617 Z M 628.307 14.397 C 625.558 14.385 623.68 15.976 622.846 17.816 C 622.326 17.755 622.967 15.335 624.255 14.421 C 625.754 13.359 628.81 14.051 628.307 14.397 Z M 707.235 19.98 C 707.168 20.314 707.046 20.756 706.797 20.907 C 706.436 21.126 706.252 20.693 706.066 20.419 C 705.705 19.883 705.329 19.39 704.545 19.526 C 704.221 19.582 704.051 19.298 704.104 19.001 C 704.155 18.713 704.288 18.434 704.415 18.165 C 705.657 15.548 705.357 13.073 703.619 10.804 C 701.589 8.153 698.877 6.737 695.524 6.609 C 694.261 6.561 693.259 6.812 692.197 7.564 C 691.983 7.716 691.975 8.137 691.484 8.196 C 690.993 8.254 690.794 7.523 690.566 7.338 C 689.171 6.211 687.313 6.346 686.095 7.674 C 685.866 7.924 685.302 8.216 685.579 7.343 C 685.856 6.471 686.855 5.676 688.056 5.511 C 689.485 5.315 690.727 6.082 691.603 6.749 C 694.099 4.569 698.547 5.747 701.083 7.189 C 702.497 7.993 703.67 9.095 704.609 10.424 C 706.083 12.511 706.57 14.79 705.851 17.281 C 705.787 17.503 705.741 17.729 705.718 17.822 C 706.196 18.38 706.618 18.841 707 19.334 C 707.136 19.517 707.274 19.788 707.235 19.98 Z" style="fill: rgb(255, 255, 255);"/>
  <path class="cls-2" d="M 715.883 10.933 C 715.604 10.843 715.324 10.755 714.995 10.651 C 715.04 10.215 715.093 9.819 715.125 9.422 C 715.215 8.319 715.001 7.291 714.358 6.368 C 712.813 4.158 710.738 3.047 708.008 3.274 C 707.692 3.3 707.376 3.301 706.977 3.317 C 707.115 2.583 707.233 1.994 707.338 1.403 C 707.566 0.114 707.677 -1.173 707.576 -2.494 C 707.402 -4.8 706.746 -6.951 705.841 -9.063 C 704.893 -11.269 701.651 -17.29 689.416 -19.033 C 684.163 -19.845 670.685 -19.643 665.548 -5.829 C 664.916 -6.622 662.53 -6.898 661.604 -6.818 C 660.915 -6.759 659.069 -6.103 659.069 -6.103 C 659.069 -6.103 658.167 -6.802 657.594 -7.206 C 656.167 -8.212 654.606 -8.498 652.916 -7.996 C 651.758 -7.65 650.635 -7.232 649.72 -6.452 C 648.772 -7.271 647.886 -8.085 646.95 -8.839 C 644.578 -10.75 641.765 -11.484 638.842 -11.126 C 633.4 -10.461 628.878 -7.966 625.496 -3.553 C 623.357 -0.76 622.225 2.496 621.163 5.785 C 621.063 6.095 620.967 6.405 620.868 6.719 C 619.465 6.479 618.235 6.791 617.14 7.495 C 616.802 7.713 616.469 8.006 616.169 8.127 C 615.751 7.918 615.576 7.905 615.266 7.797 C 615.079 7.732 614.873 7.72 614.674 7.692 C 611.43 7.236 608.634 8.004 606.5 10.643 C 605.123 12.345 604.16 14.227 603.914 16.441 C 603.67 16.543 603.463 16.644 603.245 16.718 C 601.456 17.329 600.459 18.624 600.076 20.425 C 599.792 21.762 600.314 22.894 601.48 23.583 C 602.449 24.157 603.498 24.504 604.619 24.546 C 606.058 24.6 607.499 24.604 608.939 24.599 C 611.518 24.589 614.097 24.5 616.674 24.548 C 619.989 24.609 623.302 24.841 626.617 24.869 C 629.126 24.891 631.637 24.729 634.146 24.616 C 639.18 24.39 656.148 25.299 659.432 25.32 C 659.658 25.278 659.883 25.199 660.112 25.197 C 662.557 25.18 665.005 25.107 667.448 25.181 C 672.204 25.328 676.964 25.052 681.672 24.357 C 683.754 24.051 685.852 23.815 687.978 24.028 C 691.576 24.384 695.17 24.814 698.798 24.794 C 701.613 24.779 704.428 24.882 707.241 24.827 C 709.75 24.778 712.265 24.672 714.76 24.421 C 716.327 24.264 717.915 24.173 719.344 23.183 C 721.021 22.021 721.722 20.428 721.976 18.557 C 722.063 17.918 721.998 17.182 721.758 16.589 C 720.647 13.847 718.768 11.855 715.883 10.933 Z M 719.327 20.587 C 718.398 21.531 717.354 22.253 715.993 22.496 C 711.946 23.217 707.867 23.262 703.776 23.188 C 701.333 23.143 698.887 23.228 696.446 23.143 C 695.013 23.095 693.583 22.866 692.161 22.657 C 689.49 22.262 686.816 22.306 684.144 22.558 C 681.379 22.818 678.62 23.149 675.857 23.447 C 673.154 23.739 670.444 23.748 667.728 23.695 C 665.887 23.658 664.042 23.601 662.203 23.668 C 657.908 23.824 653.632 23.442 649.351 23.284 C 642.187 23.021 635.022 22.666 627.851 22.968 C 622.657 23.188 617.47 23.064 612.279 22.919 C 610.138 22.859 607.993 23.013 605.85 22.982 C 605.063 22.97 604.26 22.768 603.5 22.535 C 602.818 22.325 602.213 21.926 602.173 21.077 C 602.132 20.209 602.558 19.536 603.28 19.196 C 604.085 18.816 604.974 18.59 605.848 18.388 C 606.845 18.157 606.91 18.162 606.95 17.208 C 607.054 14.742 607.976 12.602 609.436 10.643 C 610.07 9.792 610.872 9.326 611.896 9.313 C 613.13 9.298 615.284 9.48 616.508 9.611 C 617.143 9.678 618.699 7.394 621.733 8.229 C 622.413 8.449 623.42 9.167 623.42 9.167 C 623.42 9.167 624.733 5.711 625.33 4.354 C 627.022 0.517 629.198 -3.002 632.413 -5.771 C 633.247 -6.488 639.154 -9.241 641.366 -8.924 C 647.345 -8.067 651.606 -3.565 652.193 2.444 C 652.218 2.71 652.42 3.662 652.761 3.693 C 653.102 3.724 653.231 2.493 653.212 2.16 C 653.127 0.658 653.045 -0.843 652.956 -2.344 C 652.933 -2.746 652.792 -2.84 652.786 -3.221 C 652.942 -3.543 653.556 -4.033 653.824 -4.3 C 655.083 -5.541 657.451 -5.571 658.746 -4.379 C 658.843 -4.289 658.951 -4.213 659.07 -4.116 C 659.889 -4.383 660.614 -4.636 661.349 -4.854 C 662.678 -5.249 663.87 -4.938 664.922 -4.074 C 665.36 -3.713 665.836 -3.354 666.148 -2.896 C 666.536 -2.326 666.955 -2.126 667.643 -2.181 C 668.806 -2.274 669.8 -1.765 670.653 -1.019 C 671.159 -0.576 671.556 -0.032 671.659 0.676 C 671.704 0.998 671.876 1.272 672.253 1.209 C 672.631 1.146 672.655 0.829 672.669 0.51 C 672.735 -0.958 670.403 -3.9 668.738 -4.693 C 675.569 -18.291 685.886 -17.798 693.819 -15.757 C 707.713 -11.106 706.028 0.901 705.207 3.969 C 705.164 4.13 704.986 5.121 705.137 5.265 C 705.275 5.396 705.678 5.306 705.947 5.236 C 707.879 4.735 709.781 4.588 711.586 5.67 C 712.782 6.386 713.563 7.431 713.626 8.82 C 713.675 9.906 713.464 11.002 713.362 12.184 C 713.532 12.198 713.818 12.229 714.104 12.247 C 715.914 12.377 717.341 13.162 718.45 14.619 C 719.111 15.487 719.594 16.426 719.968 17.433 C 720.407 18.61 720.215 19.681 719.327 20.585 Z" style="fill: rgb(183, 183, 183);"/>
  <path class="cls-2" d="M 705.718 17.829 C 705.741 17.734 705.787 17.507 705.851 17.288 C 706.57 14.796 706.083 12.517 704.609 10.431 C 703.67 9.102 702.497 8 701.083 7.196 C 698.547 5.752 694.099 4.576 691.603 6.756 C 690.727 6.088 689.485 5.322 688.056 5.518 C 686.855 5.683 685.856 6.478 685.579 7.35 C 685.302 8.222 685.866 7.931 686.095 7.681 C 687.313 6.353 689.171 6.218 690.566 7.345 C 690.794 7.529 690.993 8.263 691.484 8.202 C 691.975 8.141 691.983 7.72 692.197 7.571 C 693.259 6.819 694.261 6.567 695.524 6.616 C 698.877 6.743 701.59 8.159 703.619 10.811 C 705.357 13.08 705.657 15.553 704.415 18.172 C 704.288 18.442 704.155 18.72 704.104 19.008 C 704.051 19.305 704.221 19.589 704.545 19.533 C 705.329 19.398 705.703 19.89 706.066 20.425 C 706.252 20.7 706.437 21.133 706.797 20.914 C 707.046 20.763 707.168 20.321 707.235 19.987 C 707.274 19.795 707.136 19.524 707 19.348 C 706.617 18.848 706.196 18.387 705.718 17.829 Z" style="fill: rgb(183, 183, 183);"/>
  <path class="cls-2" d="M 624.255 14.423 C 622.967 15.336 622.326 17.757 622.846 17.818 C 623.68 15.978 625.558 14.387 628.307 14.399 C 628.81 14.051 625.754 13.359 624.255 14.423 Z" style="fill: rgb(183, 183, 183);"/>
  <path class="cls-1" d="M 1323.732 134.052 C 1322.679 133.726 1321.635 133.684 1320.615 134.171 C 1320.366 134.289 1320.126 134.421 1319.878 134.543 C 1319.17 134.895 1318.61 134.67 1318.554 133.891 C 1318.499 133.148 1318.588 132.381 1318.708 131.642 C 1319.259 128.212 1318.206 125.391 1315.508 123.217 C 1313.319 121.451 1310.855 121.357 1308.292 122.206 C 1307.682 122.405 1307.193 122.87 1306.555 123.257 C 1306.682 123.739 1306.747 123.891 1306.819 124.289 C 1306.886 124.658 1306.941 125.043 1306.905 125.412 C 1306.886 125.607 1306.672 125.921 1306.524 125.933 C 1306.305 125.954 1306.022 125.801 1305.847 125.635 C 1305.684 125.482 1305.608 125.221 1305.526 124.996 C 1304.91 123.341 1303.746 122.188 1302.278 121.251 C 1301.332 120.647 1300.459 120.753 1299.57 121.227 C 1298.345 121.882 1298.376 121.88 1297.213 121.028 C 1296.573 120.564 1295.897 120.154 1295.193 119.796 C 1294.043 119.2 1292.825 119.139 1291.581 119.475 C 1291.314 119.547 1291.048 119.614 1290.783 119.688 C 1289.632 120.007 1289.291 119.782 1289.225 118.552 C 1289.162 117.385 1289.141 116.213 1289.148 115.045 C 1289.172 111.757 1288.402 108.626 1287.168 105.616 C 1285.904 102.538 1283.635 100.321 1280.732 98.75 C 1278.133 97.343 1275.324 96.541 1272.426 96.078 C 1271.637 95.953 1270.779 96.111 1269.972 96.256 C 1265.444 97.08 1261.414 99.014 1257.831 101.871 C 1255.573 103.67 1254.135 106.019 1253.545 108.852 C 1253.197 110.517 1253.993 114.358 1252.517 114.995 C 1251.042 115.63 1244.75 108.902 1239.269 108.957 C 1236.797 108.677 1234.748 109.503 1233.012 111.387 C 1231.569 112.956 1231.088 114.755 1231.039 116.754 C 1231.008 117.919 1231.087 119.089 1231.149 120.254 C 1231.198 121.17 1230.917 121.448 1229.98 121.259 C 1229.206 121.101 1228.45 120.861 1227.674 120.712 C 1227.279 120.635 1226.85 120.6 1226.457 120.671 C 1222.904 121.299 1221.144 123.248 1220.589 127 C 1220.476 127.769 1220.615 128.574 1220.648 129.363 C 1220.665 129.768 1220.698 130.175 1220.732 130.66 C 1219.932 130.291 1217.031 129.471 1216.35 129.277 C 1213.791 128.55 1210.192 128.035 1203.913 131.614 C 1200.6 134.195 1201.009 138.534 1202.815 139.298 C 1203.692 139.836 1204.595 140.082 1205.638 140.097 C 1207.976 140.133 1210.308 140.325 1212.645 140.387 C 1215.121 140.452 1217.597 140.5 1220.071 140.447 C 1224.301 140.356 1228.53 140.238 1232.753 140.022 C 1235.738 139.869 1238.714 139.51 1241.697 139.289 C 1244.335 139.093 1246.979 138.846 1249.623 138.814 C 1259.497 138.701 1269.367 138.864 1279.234 139.308 C 1283.737 139.504 1288.241 139.668 1292.738 139.936 C 1298.748 140.291 1304.766 140.478 1310.785 140.494 C 1313.88 140.507 1316.977 140.543 1320.072 140.543 C 1321.442 140.543 1322.816 140.512 1324.183 140.437 C 1325.01 140.391 1325.29 140.18 1325.357 139.433 C 1325.463 138.306 1325.487 137.172 1325.429 136.041 C 1325.367 135.01 1324.719 134.356 1323.732 134.052 Z" style="fill: rgb(255, 255, 255);"/>
  <path class="cls-2" d="M 1323.794 132.256 C 1323.526 132.218 1323.26 132.179 1322.895 132.126 C 1323.334 127.548 1321.695 123.924 1317.855 121.436 C 1313.974 118.921 1310.073 119.096 1306.246 121.683 C 1305.936 121.354 1305.668 121.041 1305.373 120.757 C 1303.824 119.278 1302.777 118.274 1299.848 118.89 C 1299.484 118.962 1298.99 119.317 1298.99 119.317 C 1298.99 119.317 1298.493 116.589 1293.275 116.103 C 1293.283 115.535 1293.28 114.993 1293.302 114.451 C 1293.402 111.851 1293.263 109.262 1292.25 106.838 C 1289.188 99.511 1283.783 95.045 1275.887 93.76 C 1271.309 93.015 1267.004 94.105 1262.843 95.925 C 1260.659 96.879 1258.644 98.142 1256.748 99.58 C 1253.753 101.852 1252.092 104.638 1251.351 108.344 C 1251.301 108.579 1250.988 110.534 1250.91 110.868 C 1250.546 110.642 1248.706 109.352 1248.387 109.166 C 1244.189 106.735 1241.296 105.604 1236.608 107.037 C 1233.736 107.914 1231.694 109.724 1230.483 112.462 C 1229.639 114.374 1229.019 116.328 1229.35 118.461 C 1229.366 118.555 1229.328 118.656 1229.301 118.859 C 1226.792 118.433 1224.448 118.801 1222.415 120.425 C 1220.416 122.023 1219.586 124.252 1219.119 126.726 C 1217.926 126.644 1216.768 126.549 1215.608 126.487 C 1210.947 126.235 1206.758 127.496 1203.176 130.525 C 1201.726 131.75 1200.787 133.39 1200.254 135.192 C 1199.209 138.731 1201.494 142.139 1205.173 142.511 C 1207.395 142.736 1209.637 142.748 1211.868 142.894 C 1216.2 143.179 1220.531 142.904 1224.864 142.844 C 1231.336 142.755 1237.773 142.203 1244.208 141.544 C 1245.712 141.384 1247.226 141.307 1248.739 141.31 C 1256.961 141.367 1265.183 141.393 1273.402 141.571 C 1278.972 141.691 1284.536 142.04 1290.102 142.297 C 1297.111 142.621 1304.119 142.982 1311.14 142.933 C 1314.786 142.909 1318.434 143.002 1322.078 142.983 C 1322.962 142.98 1323.863 142.822 1324.724 142.607 C 1326.141 142.256 1327.112 141.369 1327.327 139.871 C 1327.497 138.687 1327.691 137.479 1327.63 136.293 C 1327.521 134.056 1326.016 132.567 1323.794 132.256 Z M 1325.355 139.43 C 1325.29 140.176 1325.007 140.387 1324.182 140.432 C 1322.812 140.507 1321.442 140.54 1320.071 140.54 C 1316.975 140.54 1313.878 140.504 1310.783 140.49 C 1304.762 140.463 1298.746 140.276 1292.736 139.931 C 1288.239 139.663 1283.735 139.498 1279.233 139.303 C 1269.367 138.874 1259.495 138.709 1249.621 138.81 C 1246.977 138.841 1244.336 139.088 1241.696 139.284 C 1238.714 139.505 1235.737 139.864 1232.751 140.017 C 1228.528 140.233 1224.297 140.351 1220.07 140.442 C 1217.595 140.495 1215.119 140.449 1212.645 140.384 C 1210.307 140.322 1207.973 140.128 1205.636 140.092 C 1204.591 140.077 1203.689 139.831 1202.812 139.294 C 1201.007 138.531 1200.6 134.19 1203.912 131.609 C 1210.19 128.026 1213.79 128.545 1216.348 129.274 C 1217.029 129.468 1219.932 130.286 1220.73 130.657 C 1220.698 130.17 1220.663 129.765 1220.648 129.358 C 1220.615 128.57 1220.474 127.766 1220.588 126.995 C 1221.142 123.243 1222.904 121.295 1226.457 120.666 C 1226.849 120.597 1227.278 120.631 1227.672 120.707 C 1228.448 120.858 1229.206 121.1 1229.98 121.256 C 1230.915 121.446 1231.197 121.167 1231.147 120.25 C 1231.083 119.084 1231.006 117.915 1231.035 116.748 C 1231.085 114.751 1231.565 112.951 1233.01 111.381 C 1234.747 109.497 1236.795 108.674 1239.268 108.952 C 1244.748 108.899 1251.043 115.625 1252.517 114.99 C 1253.989 114.355 1253.197 110.511 1253.545 108.847 C 1254.134 106.014 1255.571 103.667 1257.829 101.867 C 1261.412 99.009 1265.443 97.077 1269.971 96.253 C 1270.777 96.105 1271.635 95.948 1272.426 96.075 C 1275.322 96.536 1278.133 97.337 1280.73 98.746 C 1283.635 100.318 1285.904 102.536 1287.166 105.613 C 1288.402 108.624 1289.172 111.754 1289.148 115.045 C 1289.138 116.215 1289.16 117.383 1289.224 118.552 C 1289.289 119.782 1289.63 120.007 1290.782 119.688 C 1291.048 119.614 1291.314 119.547 1291.578 119.475 C 1292.823 119.139 1294.042 119.202 1295.191 119.796 C 1295.897 120.154 1296.571 120.564 1297.211 121.028 C 1298.372 121.88 1298.342 121.882 1299.568 121.227 C 1300.455 120.751 1301.327 120.647 1302.276 121.251 C 1303.745 122.188 1304.908 123.341 1305.522 124.996 C 1305.606 125.221 1305.68 125.482 1305.843 125.635 C 1306.018 125.801 1306.303 125.954 1306.523 125.933 C 1306.672 125.921 1306.883 125.607 1306.903 125.412 C 1306.939 125.043 1306.883 124.658 1306.816 124.289 C 1306.744 123.891 1306.68 123.739 1306.552 123.257 C 1307.192 122.87 1307.681 122.407 1308.29 122.206 C 1310.853 121.361 1313.315 121.451 1315.505 123.217 C 1318.204 125.391 1319.257 128.212 1318.705 131.642 C 1318.586 132.381 1318.497 133.148 1318.552 133.891 C 1318.607 134.67 1319.168 134.895 1319.877 134.543 C 1320.122 134.421 1320.364 134.289 1320.613 134.171 C 1321.634 133.684 1322.675 133.726 1323.73 134.052 C 1324.717 134.356 1325.366 135.01 1325.426 136.038 C 1325.484 137.168 1325.462 138.302 1325.355 139.43 Z" style="fill: rgb(183, 183, 183);"/>
  <path class="cls-1" d="M 1894.153 -47.081 C 1893.944 -47.044 1893.732 -47.023 1893.519 -47.019 C 1892.927 -47.007 1892.838 -47.172 1893.034 -47.727 C 1893.307 -48.502 1893.595 -49.278 1893.778 -50.077 C 1894.375 -52.681 1893.02 -55.58 1890.206 -56.343 C 1888.642 -56.768 1887.089 -56.984 1885.485 -56.671 C 1885.114 -56.598 1884.465 -56.573 1884.549 -56.874 C 1884.796 -57.857 1885.07 -58.745 1885.236 -59.653 C 1885.48 -60.984 1885.678 -62.322 1885.833 -63.667 C 1885.942 -64.618 1885.9 -65.571 1885.642 -66.514 C 1884.942 -69.06 1883.461 -71.106 1881.556 -72.86 C 1880.336 -73.983 1878.885 -74.791 1877.408 -75.528 C 1872.813 -77.821 1867.996 -78.547 1862.924 -77.602 C 1861.029 -77.249 1859.235 -76.608 1857.435 -75.967 C 1853.621 -74.608 1851.831 -72.766 1850.74 -69.011 C 1850.687 -68.828 1850.398 -67.568 1850.398 -67.568 C 1850.398 -67.568 1849.908 -67.44 1849.713 -67.343 C 1848.555 -66.766 1847.773 -65.672 1847.173 -64.538 C 1847.127 -64.45 1846.894 -63.988 1846.894 -63.988 C 1846.894 -63.988 1846.328 -64.269 1846.232 -64.316 C 1845.473 -64.683 1844.876 -64.677 1844.082 -64.304 C 1844.002 -64.266 1843.745 -64.065 1843.745 -64.065 C 1843.745 -64.065 1843.336 -64.226 1843.185 -64.254 C 1842.261 -64.427 1841.335 -64.472 1840.418 -64.247 C 1838.579 -63.797 1837.235 -62.715 1836.381 -61.02 C 1836.317 -60.895 1836.123 -60.493 1836.123 -60.493 C 1836.123 -60.493 1836.258 -60.291 1836.427 -60.081 C 1836.869 -60.221 1837.326 -60.345 1837.768 -60.508 C 1839.179 -61.029 1840.48 -60.866 1841.671 -59.926 C 1841.9 -59.746 1842.165 -59.609 1842.386 -59.42 C 1842.693 -59.158 1843.007 -59.103 1843.41 -59.171 C 1844.224 -59.308 1844.931 -59.05 1845.494 -58.429 C 1845.69 -58.213 1845.776 -57.998 1845.525 -57.765 C 1844.198 -58.537 1844.204 -58.527 1842.839 -57.825 C 1842.662 -57.734 1842.371 -57.757 1842.177 -57.837 C 1841.913 -57.945 1841.675 -58.138 1841.456 -58.328 C 1841.037 -58.692 1840.556 -58.91 1840.012 -58.932 C 1839.485 -58.957 1838.956 -58.939 1838.432 -58.878 C 1837.542 -58.763 1836.784 -58.315 1836.041 -57.837 C 1835.555 -57.524 1835.504 -57.544 1835.119 -57.99 C 1834.825 -58.331 1834.499 -58.656 1834.26 -59.036 C 1833.052 -60.941 1831.255 -61.759 1829.081 -61.809 C 1827.512 -61.847 1825.979 -61.722 1824.653 -60.637 C 1823.056 -59.329 1821.691 -57.885 1821.178 -55.822 C 1820.948 -54.896 1820.705 -53.955 1820.638 -53.009 C 1820.525 -51.447 1820.551 -49.876 1820.511 -48.309 C 1820.501 -47.919 1820.466 -47.529 1820.441 -47.112 C 1820.012 -46.996 1819.641 -47.143 1819.472 -46.741 C 1819.431 -46.644 1819.197 -46.587 1819.05 -46.585 C 1818.19 -46.572 1817.768 -46.028 1817.492 -45.317 C 1817.044 -44.158 1817.227 -43.023 1817.63 -41.891 C 1817.804 -41.398 1818.072 -41.142 1818.617 -41.176 C 1819.464 -41.228 1820.314 -41.277 1821.163 -41.272 C 1823.608 -41.26 1826.053 -41.165 1828.496 -41.201 C 1831.95 -41.252 1835.414 -41.26 1838.854 -41.53 C 1841.824 -41.763 1844.784 -42.005 1847.766 -41.957 C 1848.879 -41.939 1849.998 -42.021 1851.112 -42.079 C 1854.643 -42.26 1858.168 -42.49 1861.711 -42.352 C 1865.241 -42.213 1868.78 -42.156 1872.313 -42.216 C 1874.606 -42.256 1876.878 -42.119 1879.155 -41.909 C 1880.319 -41.796 1881.487 -41.747 1882.656 -41.761 C 1884.569 -41.795 1886.479 -41.947 1888.39 -41.977 C 1889.956 -42.001 1891.524 -41.943 1893.09 -41.88 C 1894.284 -41.832 1895.474 -41.694 1896.668 -41.647 C 1897.747 -41.605 1898.393 -42.251 1898.445 -43.339 C 1898.554 -45.637 1896.445 -47.476 1894.153 -47.081 Z M 1858.635 -69.551 C 1857.151 -69.646 1856.346 -67.626 1856.216 -67.278 C 1856.087 -66.93 1856.087 -66.93 1855.993 -66.772 C 1855.844 -66.524 1855.622 -66.39 1855.325 -66.494 C 1855.027 -66.597 1854.917 -66.844 1854.962 -67.123 C 1855.006 -67.411 1855.091 -67.69 1855.216 -67.953 C 1855.841 -69.226 1857.001 -70.244 1858.663 -70.013 C 1858.978 -69.93 1858.939 -69.543 1858.635 -69.551 Z M 1885.519 -45.302 C 1885.076 -45.077 1884.471 -46.666 1884.288 -47.193 C 1883.76 -48.718 1883.041 -50.123 1881.824 -51.227 C 1881.608 -51.423 1881.386 -51.612 1881.159 -51.796 C 1880.488 -52.335 1879.75 -52.437 1878.914 -52.234 C 1877.655 -51.929 1876.542 -51.323 1875.436 -50.687 C 1875.13 -50.512 1874.84 -50.246 1874.395 -50.355 C 1874.395 -51.083 1875.007 -51.313 1875.447 -51.742 C 1875.315 -52.104 1875.231 -52.501 1875.038 -52.835 C 1874.438 -53.869 1873.754 -54.841 1872.913 -55.706 C 1872.225 -56.412 1871.468 -56.523 1870.594 -56.188 C 1870.149 -56.016 1869.712 -55.823 1869.267 -55.652 C 1868.441 -55.251 1869.005 -56.197 1869.517 -56.558 C 1870.303 -57.114 1870.976 -57.612 1871.93 -57.545 C 1872.82 -57.482 1873.627 -57.168 1874.358 -56.638 C 1875.372 -55.907 1876.268 -55.025 1877.016 -54.023 C 1877.237 -53.727 1877.474 -53.443 1877.714 -53.14 C 1878.15 -53.245 1878.555 -53.371 1878.97 -53.439 C 1881.383 -53.83 1883.294 -53.044 1884.677 -50.998 C 1885.629 -49.588 1886.037 -48.016 1886.114 -46.343 C 1886.134 -45.887 1885.952 -45.522 1885.52 -45.303 Z" style="fill: rgb(255, 255, 255);"/>
  <path class="cls-2" d="M 1896.049 -48.573 C 1895.755 -48.653 1895.44 -48.65 1895.107 -48.69 C 1895.162 -48.925 1895.204 -49.105 1895.244 -49.285 C 1895.291 -49.492 1895.345 -49.698 1895.379 -49.908 C 1895.836 -52.717 1895.049 -55.086 1892.763 -56.827 C 1891.949 -57.446 1890.979 -57.872 1890.054 -58.333 C 1889.212 -58.752 1888.297 -58.928 1887.356 -58.953 C 1887.182 -58.957 1887.01 -58.987 1886.808 -59.008 C 1886.972 -59.844 1887.652 -63.037 1887.586 -64.882 C 1887.441 -68.923 1885.916 -72.323 1882.73 -74.873 C 1880.234 -76.872 1877.412 -78.272 1874.344 -79.184 C 1871.754 -79.954 1869.138 -80.528 1866.416 -80.241 C 1864.699 -80.059 1862.982 -79.852 1861.28 -79.572 C 1858.407 -79.097 1855.777 -77.985 1853.369 -76.352 C 1853.041 -76.13 1852.713 -75.888 1852.442 -75.601 C 1850.857 -73.917 1849.789 -71.958 1849.394 -69.661 C 1849.326 -69.276 1849.322 -68.879 1849.29 -68.493 C 1847.901 -67.889 1847.004 -66.999 1846.226 -65.615 C 1845.372 -65.834 1845.118 -65.882 1844.32 -65.662 C 1844.002 -65.573 1843.551 -65.207 1843.551 -65.207 C 1843.551 -65.207 1840.331 -66.223 1839.004 -66.013 C 1836.804 -65.664 1834.745 -65.026 1833.402 -63.13 C 1832.351 -63.438 1831.428 -63.836 1830.468 -63.965 C 1826.908 -64.446 1823.671 -63.516 1820.767 -61.438 C 1819.54 -60.561 1818.592 -59.415 1817.893 -58.069 C 1816.782 -55.933 1816.194 -53.655 1816.144 -51.257 C 1816.123 -50.206 1816.274 -49.151 1816.349 -48.053 C 1815.284 -47.224 1814.801 -46.748 1814.485 -45.926 C 1814.269 -45.366 1814.035 -44.738 1814.087 -44.167 C 1814.243 -42.463 1815.986 -40.643 1817.657 -40.283 C 1817.813 -40.251 1817.972 -40.235 1818.131 -40.235 C 1819.965 -40.207 1821.8 -40.134 1823.633 -40.167 C 1828.709 -40.265 1833.786 -40.389 1838.861 -40.541 C 1841.597 -40.622 1844.33 -40.791 1847.066 -40.901 C 1850.677 -41.045 1854.289 -41.227 1857.901 -41.285 C 1861.33 -41.341 1864.76 -41.27 1868.19 -41.232 C 1870.077 -41.212 1871.964 -41.166 1873.85 -41.095 C 1876.985 -40.979 1880.117 -40.817 1883.252 -40.709 C 1886.998 -40.582 1890.744 -40.495 1894.491 -40.382 C 1895.421 -40.354 1896.349 -40.289 1897.279 -40.251 C 1897.79 -40.23 1898.284 -40.274 1898.703 -40.635 C 1899.283 -41.136 1899.732 -41.731 1899.883 -42.485 C 1900.484 -45.452 1898.709 -47.844 1896.049 -48.573 Z M 1898.446 -43.337 C 1898.394 -42.249 1897.749 -41.603 1896.669 -41.645 C 1895.475 -41.692 1894.285 -41.83 1893.091 -41.878 C 1891.525 -41.94 1889.957 -42 1888.391 -41.975 C 1886.479 -41.945 1884.569 -41.791 1882.657 -41.759 C 1881.489 -41.745 1880.32 -41.794 1879.156 -41.907 C 1876.879 -42.117 1874.608 -42.253 1872.314 -42.214 C 1868.781 -42.155 1865.243 -42.212 1861.712 -42.35 C 1858.168 -42.488 1854.644 -42.258 1851.113 -42.077 C 1849.998 -42.019 1848.881 -41.937 1847.767 -41.955 C 1844.785 -42.003 1841.825 -41.761 1838.855 -41.528 C 1835.414 -41.258 1831.951 -41.25 1828.497 -41.199 C 1826.054 -41.163 1823.607 -41.257 1821.164 -41.27 C 1820.315 -41.275 1819.465 -41.226 1818.618 -41.174 C 1818.073 -41.14 1817.805 -41.396 1817.631 -41.889 C 1817.228 -43.022 1817.045 -44.156 1817.493 -45.315 C 1817.769 -46.026 1818.191 -46.57 1819.051 -46.583 C 1819.198 -46.585 1819.432 -46.642 1819.473 -46.739 C 1819.642 -47.143 1820.012 -46.995 1820.442 -47.11 C 1820.467 -47.526 1820.502 -47.917 1820.512 -48.307 C 1820.552 -49.874 1820.526 -51.445 1820.639 -53.007 C 1820.706 -53.953 1820.949 -54.895 1821.179 -55.82 C 1821.692 -57.883 1823.057 -59.327 1824.655 -60.635 C 1825.979 -61.722 1827.512 -61.847 1829.085 -61.811 C 1831.259 -61.761 1833.055 -60.943 1834.264 -59.038 C 1834.503 -58.659 1834.829 -58.335 1835.123 -57.992 C 1835.508 -57.546 1835.559 -57.526 1836.045 -57.839 C 1836.787 -58.317 1837.546 -58.765 1838.436 -58.88 C 1838.96 -58.941 1839.489 -58.959 1840.016 -58.934 C 1840.56 -58.912 1841.041 -58.694 1841.459 -58.33 C 1841.679 -58.14 1841.917 -57.947 1842.181 -57.839 C 1842.374 -57.76 1842.666 -57.738 1842.842 -57.827 C 1844.208 -58.529 1844.203 -58.539 1845.529 -57.767 C 1845.78 -58 1845.693 -58.215 1845.498 -58.431 C 1844.935 -59.051 1844.228 -59.308 1843.414 -59.173 C 1843.009 -59.105 1842.696 -59.16 1842.389 -59.423 C 1842.168 -59.611 1841.904 -59.748 1841.675 -59.928 C 1840.483 -60.868 1839.182 -61.031 1837.771 -60.511 C 1837.329 -60.347 1836.872 -60.223 1836.43 -60.083 C 1836.262 -60.293 1836.127 -60.495 1836.127 -60.495 C 1836.127 -60.495 1836.321 -60.897 1836.385 -61.022 C 1837.238 -62.717 1838.583 -63.799 1840.422 -64.249 C 1841.338 -64.474 1842.264 -64.429 1843.189 -64.256 C 1843.34 -64.228 1843.748 -64.067 1843.748 -64.067 C 1843.748 -64.067 1844.005 -64.268 1844.086 -64.306 C 1844.879 -64.68 1845.477 -64.685 1846.235 -64.318 C 1846.332 -64.271 1846.898 -63.99 1846.898 -63.99 C 1846.898 -63.99 1847.13 -64.452 1847.177 -64.54 C 1847.776 -65.675 1848.56 -66.766 1849.717 -67.345 C 1849.912 -67.442 1850.401 -67.57 1850.401 -67.57 C 1850.401 -67.57 1850.691 -68.83 1850.744 -69.013 C 1851.834 -72.768 1853.626 -74.61 1857.438 -75.969 C 1859.239 -76.61 1861.032 -77.25 1862.927 -77.604 C 1868 -78.548 1872.817 -77.822 1877.412 -75.53 C 1878.889 -74.793 1880.339 -73.985 1881.56 -72.862 C 1883.465 -71.108 1884.946 -69.062 1885.645 -66.516 C 1885.904 -65.573 1885.946 -64.62 1885.836 -63.669 C 1885.682 -62.325 1885.483 -60.987 1885.24 -59.655 C 1885.074 -58.747 1884.801 -57.859 1884.553 -56.875 C 1884.469 -56.575 1885.116 -56.6 1885.488 -56.673 C 1887.093 -56.987 1888.646 -56.77 1890.21 -56.345 C 1893.024 -55.582 1894.378 -52.683 1893.782 -50.079 C 1893.598 -49.281 1893.31 -48.504 1893.038 -47.729 C 1892.842 -47.173 1892.93 -47.009 1893.523 -47.021 C 1893.736 -47.025 1893.948 -47.046 1894.158 -47.083 C 1896.445 -47.476 1898.554 -45.637 1898.446 -43.337 Z" style="fill: rgb(183, 183, 183);"/>
  <path class="cls-2" d="M 1884.677 -50.998 C 1883.294 -53.043 1881.384 -53.83 1878.97 -53.439 C 1878.555 -53.371 1878.15 -53.246 1877.714 -53.14 C 1877.474 -53.443 1877.237 -53.727 1877.016 -54.023 C 1876.268 -55.026 1875.371 -55.908 1874.357 -56.639 C 1873.625 -57.17 1872.818 -57.482 1871.928 -57.547 C 1870.975 -57.614 1870.302 -57.115 1869.515 -56.56 C 1869.003 -56.198 1868.44 -55.253 1869.266 -55.653 C 1869.711 -55.825 1870.148 -56.018 1870.593 -56.189 C 1871.466 -56.526 1872.224 -56.413 1872.912 -55.707 C 1873.755 -54.843 1874.438 -53.871 1875.037 -52.836 C 1875.23 -52.503 1875.314 -52.106 1875.446 -51.744 C 1875.007 -51.314 1874.394 -51.084 1874.394 -50.357 C 1874.839 -50.248 1875.129 -50.513 1875.435 -50.689 C 1876.541 -51.325 1877.654 -51.93 1878.913 -52.236 C 1879.749 -52.438 1880.487 -52.335 1881.157 -51.797 C 1881.384 -51.614 1881.606 -51.425 1881.823 -51.229 C 1883.036 -50.125 1883.759 -48.72 1884.287 -47.195 C 1884.469 -46.667 1885.075 -45.079 1885.517 -45.304 C 1885.95 -45.524 1886.132 -45.888 1886.112 -46.345 C 1886.036 -48.017 1885.629 -49.589 1884.677 -50.998 Z" style="fill: rgb(183, 183, 183);"/>
  <path class="cls-2" d="M 1858.663 -70.014 C 1857.001 -70.245 1855.841 -69.227 1855.216 -67.954 C 1855.091 -67.692 1855.006 -67.412 1854.962 -67.125 C 1854.917 -66.845 1855.03 -66.597 1855.325 -66.495 C 1855.619 -66.392 1855.844 -66.525 1855.993 -66.773 C 1856.087 -66.93 1856.087 -66.93 1856.216 -67.28 C 1856.346 -67.629 1857.151 -69.648 1858.635 -69.552 C 1858.939 -69.543 1858.978 -69.93 1858.663 -70.014 Z" style="fill: rgb(183, 183, 183);"/>
  <path class="cls-1" d="M -19.927 177.855 C -20.136 177.892 -20.348 177.913 -20.561 177.917 C -21.153 177.929 -21.242 177.764 -21.046 177.209 C -20.773 176.434 -20.485 175.658 -20.302 174.859 C -19.705 172.255 -21.06 169.356 -23.874 168.593 C -25.438 168.168 -26.991 167.952 -28.595 168.265 C -28.966 168.338 -29.615 168.363 -29.531 168.062 C -29.284 167.079 -29.01 166.191 -28.844 165.283 C -28.6 163.952 -28.402 162.614 -28.247 161.269 C -28.138 160.318 -28.18 159.365 -28.438 158.422 C -29.138 155.876 -30.619 153.83 -32.524 152.076 C -33.744 150.953 -35.195 150.145 -36.672 149.408 C -41.267 147.115 -46.084 146.389 -51.156 147.334 C -53.051 147.687 -54.845 148.328 -56.645 148.969 C -60.459 150.328 -62.249 152.17 -63.34 155.925 C -63.393 156.108 -63.682 157.368 -63.682 157.368 C -63.682 157.368 -64.172 157.496 -64.367 157.593 C -65.525 158.17 -66.307 159.264 -66.907 160.398 C -66.953 160.486 -67.186 160.948 -67.186 160.948 C -67.186 160.948 -67.752 160.667 -67.848 160.62 C -68.607 160.253 -69.204 160.259 -69.998 160.632 C -70.078 160.67 -70.335 160.871 -70.335 160.871 C -70.335 160.871 -70.744 160.71 -70.895 160.682 C -71.819 160.509 -72.745 160.464 -73.662 160.689 C -75.501 161.139 -76.845 162.221 -77.699 163.916 C -77.763 164.041 -77.957 164.443 -77.957 164.443 C -77.957 164.443 -77.822 164.645 -77.653 164.855 C -77.211 164.715 -76.754 164.591 -76.312 164.428 C -74.901 163.907 -73.6 164.07 -72.409 165.01 C -72.18 165.19 -71.915 165.327 -71.694 165.516 C -71.387 165.778 -71.073 165.833 -70.67 165.765 C -69.856 165.628 -69.149 165.886 -68.586 166.507 C -68.39 166.723 -68.304 166.938 -68.555 167.171 C -69.882 166.399 -69.876 166.409 -71.241 167.111 C -71.418 167.202 -71.709 167.179 -71.903 167.099 C -72.167 166.991 -72.405 166.798 -72.624 166.608 C -73.043 166.244 -73.524 166.026 -74.068 166.004 C -74.595 165.979 -75.124 165.997 -75.648 166.058 C -76.538 166.173 -77.296 166.621 -78.039 167.099 C -78.525 167.412 -78.576 167.392 -78.961 166.946 C -79.255 166.605 -79.581 166.28 -79.82 165.9 C -81.028 163.995 -82.825 163.177 -84.999 163.127 C -86.568 163.089 -88.101 163.214 -89.427 164.299 C -91.024 165.607 -92.389 167.051 -92.902 169.114 C -93.132 170.04 -93.375 170.981 -93.442 171.927 C -93.555 173.489 -93.529 175.06 -93.569 176.627 C -93.579 177.017 -93.614 177.407 -93.639 177.824 C -94.068 177.94 -94.439 177.793 -94.608 178.195 C -94.649 178.292 -94.883 178.349 -95.03 178.351 C -95.89 178.364 -96.312 178.908 -96.588 179.619 C -97.036 180.778 -96.853 181.913 -96.45 183.045 C -96.276 183.538 -96.008 183.794 -95.463 183.76 C -94.616 183.708 -93.766 183.659 -92.917 183.664 C -90.472 183.676 -88.027 183.771 -85.584 183.735 C -82.13 183.684 -78.666 183.676 -75.226 183.406 C -72.256 183.173 -69.296 182.931 -66.314 182.979 C -65.201 182.997 -64.082 182.915 -62.968 182.857 C -59.437 182.676 -55.912 182.446 -52.369 182.584 C -48.839 182.723 -45.3 182.78 -41.767 182.72 C -39.474 182.68 -37.202 182.817 -34.925 183.027 C -33.761 183.14 -32.593 183.189 -31.424 183.175 C -29.511 183.141 -27.601 182.989 -25.69 182.959 C -24.124 182.935 -22.556 182.993 -20.99 183.056 C -19.796 183.104 -18.606 183.242 -17.412 183.289 C -16.333 183.331 -15.687 182.685 -15.635 181.597 C -15.526 179.299 -17.635 177.46 -19.927 177.855 Z M -55.445 155.385 C -56.929 155.29 -57.734 157.31 -57.864 157.658 C -57.993 158.006 -57.993 158.006 -58.087 158.164 C -58.236 158.412 -58.458 158.546 -58.755 158.442 C -59.053 158.339 -59.163 158.092 -59.118 157.813 C -59.074 157.525 -58.989 157.246 -58.864 156.983 C -58.239 155.71 -57.079 154.692 -55.417 154.923 C -55.102 155.006 -55.141 155.393 -55.445 155.385 Z M -28.561 179.634 C -29.004 179.859 -29.609 178.27 -29.792 177.743 C -30.32 176.218 -31.039 174.813 -32.256 173.709 C -32.472 173.513 -32.694 173.324 -32.921 173.14 C -33.592 172.601 -34.33 172.499 -35.166 172.702 C -36.425 173.007 -37.538 173.613 -38.644 174.249 C -38.95 174.424 -39.24 174.69 -39.685 174.581 C -39.685 173.853 -39.073 173.623 -38.633 173.194 C -38.765 172.832 -38.849 172.435 -39.042 172.101 C -39.642 171.067 -40.326 170.095 -41.167 169.23 C -41.855 168.524 -42.612 168.413 -43.486 168.748 C -43.931 168.92 -44.368 169.113 -44.813 169.284 C -45.639 169.685 -45.075 168.739 -44.563 168.378 C -43.777 167.822 -43.104 167.324 -42.15 167.391 C -41.26 167.454 -40.453 167.768 -39.722 168.298 C -38.708 169.029 -37.812 169.911 -37.064 170.913 C -36.843 171.209 -36.606 171.493 -36.366 171.796 C -35.93 171.691 -35.525 171.565 -35.11 171.497 C -32.697 171.106 -30.786 171.892 -29.403 173.938 C -28.451 175.348 -28.043 176.92 -27.966 178.593 C -27.946 179.049 -28.128 179.414 -28.56 179.633 Z" style="fill: rgb(255, 255, 255);"/>
  <path class="cls-2" d="M -18.031 176.363 C -18.325 176.283 -18.64 176.286 -18.973 176.246 C -18.918 176.011 -18.876 175.831 -18.836 175.651 C -18.789 175.444 -18.735 175.238 -18.701 175.028 C -18.244 172.219 -19.031 169.85 -21.317 168.109 C -22.131 167.49 -23.101 167.064 -24.026 166.603 C -24.868 166.184 -25.783 166.008 -26.724 165.983 C -26.898 165.979 -27.07 165.949 -27.272 165.928 C -27.108 165.092 -26.428 161.899 -26.494 160.054 C -26.639 156.013 -28.164 152.613 -31.35 150.063 C -33.846 148.064 -36.668 146.664 -39.736 145.752 C -42.326 144.982 -44.942 144.408 -47.664 144.695 C -49.381 144.877 -51.098 145.084 -52.8 145.364 C -55.673 145.839 -58.303 146.951 -60.711 148.584 C -61.039 148.806 -61.367 149.048 -61.638 149.335 C -63.223 151.019 -64.291 152.978 -64.686 155.275 C -64.754 155.66 -64.758 156.057 -64.79 156.443 C -66.179 157.047 -67.076 157.937 -67.854 159.321 C -68.708 159.102 -68.962 159.054 -69.76 159.274 C -70.078 159.363 -70.529 159.729 -70.529 159.729 C -70.529 159.729 -73.749 158.713 -75.076 158.923 C -77.276 159.272 -79.335 159.91 -80.678 161.806 C -81.729 161.498 -82.652 161.1 -83.612 160.971 C -87.172 160.49 -90.409 161.42 -93.313 163.498 C -94.54 164.375 -95.488 165.521 -96.187 166.867 C -97.298 169.003 -97.886 171.281 -97.936 173.679 C -97.957 174.73 -97.806 175.785 -97.731 176.883 C -98.796 177.712 -99.279 178.188 -99.595 179.01 C -99.811 179.57 -100.045 180.198 -99.993 180.769 C -99.837 182.473 -98.094 184.293 -96.423 184.653 C -96.267 184.685 -96.108 184.701 -95.949 184.701 C -94.115 184.729 -92.28 184.802 -90.447 184.769 C -85.371 184.671 -80.294 184.547 -75.219 184.395 C -72.483 184.314 -69.75 184.145 -67.014 184.035 C -63.403 183.891 -59.791 183.709 -56.179 183.651 C -52.75 183.595 -49.32 183.666 -45.89 183.704 C -44.003 183.724 -42.116 183.77 -40.23 183.841 C -37.095 183.957 -33.963 184.119 -30.828 184.227 C -27.082 184.354 -23.336 184.441 -19.589 184.554 C -18.659 184.582 -17.731 184.647 -16.801 184.685 C -16.29 184.706 -15.796 184.662 -15.377 184.301 C -14.797 183.8 -14.348 183.205 -14.197 182.451 C -13.596 179.484 -15.371 177.092 -18.031 176.363 Z M -15.634 181.599 C -15.686 182.687 -16.331 183.333 -17.411 183.291 C -18.605 183.244 -19.795 183.106 -20.989 183.058 C -22.555 182.996 -24.123 182.936 -25.689 182.961 C -27.601 182.991 -29.511 183.145 -31.423 183.177 C -32.591 183.191 -33.76 183.142 -34.924 183.029 C -37.201 182.819 -39.472 182.683 -41.766 182.722 C -45.299 182.781 -48.837 182.724 -52.368 182.586 C -55.912 182.448 -59.436 182.678 -62.967 182.859 C -64.082 182.917 -65.199 182.999 -66.313 182.981 C -69.295 182.933 -72.255 183.175 -75.225 183.408 C -78.666 183.678 -82.129 183.686 -85.583 183.737 C -88.026 183.773 -90.473 183.679 -92.916 183.666 C -93.765 183.661 -94.615 183.71 -95.462 183.762 C -96.007 183.796 -96.275 183.54 -96.449 183.047 C -96.852 181.914 -97.035 180.78 -96.587 179.621 C -96.311 178.91 -95.889 178.366 -95.029 178.353 C -94.882 178.351 -94.648 178.294 -94.607 178.197 C -94.438 177.793 -94.068 177.941 -93.638 177.826 C -93.613 177.41 -93.578 177.019 -93.568 176.629 C -93.528 175.062 -93.554 173.491 -93.441 171.929 C -93.374 170.983 -93.131 170.041 -92.901 169.116 C -92.388 167.053 -91.023 165.609 -89.425 164.301 C -88.101 163.214 -86.568 163.089 -84.995 163.125 C -82.821 163.175 -81.025 163.993 -79.816 165.898 C -79.577 166.277 -79.251 166.601 -78.957 166.944 C -78.572 167.39 -78.521 167.41 -78.035 167.097 C -77.293 166.619 -76.534 166.171 -75.644 166.056 C -75.12 165.995 -74.591 165.977 -74.064 166.002 C -73.52 166.024 -73.039 166.242 -72.621 166.606 C -72.401 166.796 -72.163 166.989 -71.899 167.097 C -71.706 167.176 -71.414 167.198 -71.238 167.109 C -69.872 166.407 -69.877 166.397 -68.551 167.169 C -68.3 166.936 -68.387 166.721 -68.582 166.505 C -69.145 165.885 -69.852 165.628 -70.666 165.763 C -71.071 165.831 -71.384 165.776 -71.691 165.513 C -71.912 165.325 -72.176 165.188 -72.405 165.008 C -73.597 164.068 -74.898 163.905 -76.309 164.425 C -76.751 164.589 -77.208 164.713 -77.65 164.853 C -77.818 164.643 -77.953 164.441 -77.953 164.441 C -77.953 164.441 -77.759 164.039 -77.695 163.914 C -76.842 162.219 -75.497 161.137 -73.658 160.687 C -72.742 160.462 -71.816 160.507 -70.891 160.68 C -70.74 160.708 -70.332 160.869 -70.332 160.869 C -70.332 160.869 -70.075 160.668 -69.994 160.63 C -69.201 160.256 -68.603 160.251 -67.845 160.618 C -67.748 160.665 -67.182 160.946 -67.182 160.946 C -67.182 160.946 -66.95 160.484 -66.903 160.396 C -66.304 159.261 -65.52 158.17 -64.363 157.591 C -64.168 157.494 -63.679 157.366 -63.679 157.366 C -63.679 157.366 -63.389 156.106 -63.336 155.923 C -62.246 152.168 -60.454 150.326 -56.642 148.967 C -54.841 148.326 -53.048 147.686 -51.153 147.332 C -46.08 146.388 -41.263 147.114 -36.668 149.406 C -35.191 150.143 -33.741 150.951 -32.52 152.074 C -30.615 153.828 -29.134 155.874 -28.435 158.42 C -28.176 159.363 -28.134 160.316 -28.244 161.267 C -28.398 162.611 -28.597 163.949 -28.84 165.281 C -29.006 166.189 -29.279 167.077 -29.527 168.061 C -29.611 168.361 -28.964 168.336 -28.592 168.263 C -26.987 167.949 -25.434 168.166 -23.87 168.591 C -21.056 169.354 -19.702 172.253 -20.298 174.857 C -20.482 175.655 -20.77 176.432 -21.042 177.207 C -21.238 177.763 -21.15 177.927 -20.557 177.915 C -20.344 177.911 -20.132 177.89 -19.922 177.853 C -17.635 177.46 -15.526 179.299 -15.634 181.599 Z" style="fill: rgb(183, 183, 183);"/>
  <path class="cls-2" d="M -29.403 173.938 C -30.786 171.893 -32.696 171.106 -35.11 171.497 C -35.525 171.565 -35.93 171.69 -36.366 171.796 C -36.606 171.493 -36.843 171.209 -37.064 170.913 C -37.812 169.91 -38.709 169.028 -39.723 168.297 C -40.455 167.766 -41.262 167.454 -42.152 167.389 C -43.105 167.322 -43.778 167.821 -44.565 168.376 C -45.077 168.738 -45.64 169.683 -44.814 169.283 C -44.369 169.111 -43.932 168.918 -43.487 168.747 C -42.614 168.41 -41.856 168.523 -41.168 169.229 C -40.325 170.093 -39.642 171.065 -39.043 172.1 C -38.85 172.433 -38.766 172.83 -38.634 173.192 C -39.073 173.622 -39.686 173.852 -39.686 174.579 C -39.241 174.688 -38.951 174.423 -38.645 174.247 C -37.539 173.611 -36.426 173.006 -35.167 172.7 C -34.331 172.498 -33.593 172.601 -32.923 173.139 C -32.696 173.322 -32.474 173.511 -32.257 173.707 C -31.044 174.811 -30.321 176.216 -29.793 177.741 C -29.611 178.269 -29.005 179.857 -28.563 179.632 C -28.13 179.412 -27.948 179.048 -27.968 178.591 C -28.044 176.919 -28.451 175.347 -29.403 173.938 Z" style="fill: rgb(183, 183, 183);"/>
  <path class="cls-2" d="M -55.417 154.922 C -57.079 154.691 -58.239 155.709 -58.864 156.982 C -58.989 157.244 -59.074 157.524 -59.118 157.811 C -59.163 158.091 -59.05 158.339 -58.755 158.441 C -58.461 158.544 -58.236 158.411 -58.087 158.163 C -57.993 158.006 -57.993 158.006 -57.864 157.656 C -57.734 157.307 -56.929 155.288 -55.445 155.384 C -55.141 155.393 -55.102 155.006 -55.417 154.922 Z" style="fill: rgb(183, 183, 183);"/>
  <path class="cls-1" d="M 97.234 -25.151 C 96.373 -26.283 95.264 -26.892 93.858 -26.993 C 93.636 -27.009 93.414 -27.031 93.281 -27.042 C 93.361 -27.96 93.525 -28.812 93.487 -29.655 C 93.438 -30.734 92.832 -31.547 91.902 -32.102 C 90.498 -32.943 89.022 -32.828 87.522 -32.439 C 87.315 -32.385 87.001 -32.314 86.894 -32.417 C 86.776 -32.529 86.915 -33.298 86.948 -33.424 C 87.586 -35.806 88.894 -45.131 78.103 -48.744 C 71.942 -50.328 63.928 -50.71 58.624 -40.147 C 59.918 -39.532 61.729 -37.246 61.678 -36.106 C 61.667 -35.858 61.645 -35.612 61.355 -35.563 C 61.065 -35.514 60.929 -35.727 60.893 -35.977 C 60.814 -36.528 60.505 -36.95 60.112 -37.294 C 59.449 -37.873 58.676 -38.269 57.774 -38.196 C 57.24 -38.154 56.914 -38.31 56.614 -38.752 C 56.369 -39.107 56 -39.387 55.659 -39.667 C 54.842 -40.338 53.916 -40.578 52.884 -40.274 C 52.313 -40.104 51.75 -39.907 51.115 -39.7 C 51.021 -39.775 50.939 -39.835 50.862 -39.905 C 49.857 -40.83 48.018 -40.807 47.039 -39.843 C 46.829 -39.636 46.353 -39.255 46.234 -39.005 C 46.238 -38.708 46.347 -38.636 46.366 -38.324 C 46.436 -37.158 46.499 -35.992 46.564 -34.826 C 46.579 -34.567 46.478 -33.612 46.214 -33.635 C 45.95 -33.657 45.793 -34.398 45.772 -34.605 C 45.317 -39.271 42.007 -42.769 37.363 -43.434 C 35.647 -43.68 31.056 -41.542 30.409 -40.985 C 27.912 -38.835 26.221 -36.102 24.909 -33.121 C 24.444 -32.067 23.425 -29.383 23.425 -29.383 C 23.425 -29.383 22.642 -29.942 22.114 -30.112 C 19.759 -30.76 18.549 -28.986 18.057 -29.038 C 17.105 -29.14 15.432 -29.282 14.474 -29.27 C 13.679 -29.26 13.056 -28.898 12.563 -28.237 C 11.429 -26.715 10.713 -25.053 10.633 -23.138 C 10.602 -22.395 10.552 -22.401 9.777 -22.221 C 9.098 -22.064 8.408 -21.889 7.782 -21.595 C 7.222 -21.33 6.89 -20.807 6.922 -20.133 C 6.953 -19.473 7.423 -19.164 7.954 -19 C 8.543 -18.819 9.167 -18.662 9.778 -18.653 C 11.443 -18.629 13.109 -18.749 14.771 -18.702 C 18.803 -18.589 22.833 -18.492 26.866 -18.664 C 32.436 -18.9 38.001 -18.624 43.565 -18.419 C 46.894 -18.297 50.212 -17.998 53.548 -18.12 C 54.975 -18.172 56.408 -18.128 57.838 -18.1 C 59.947 -18.058 62.053 -18.064 64.153 -18.292 C 66.298 -18.523 68.441 -18.782 70.589 -18.982 C 72.664 -19.178 74.741 -19.212 76.815 -18.906 C 77.921 -18.743 79.031 -18.565 80.144 -18.528 C 82.04 -18.464 83.94 -18.528 85.837 -18.493 C 89.015 -18.435 92.182 -18.472 95.326 -19.031 C 96.383 -19.219 97.194 -19.78 97.915 -20.513 C 98.605 -21.215 98.754 -22.047 98.414 -22.963 C 98.122 -23.748 97.747 -24.477 97.234 -25.151 Z M 27.219 -25.322 C 25.084 -25.331 23.625 -24.095 22.977 -22.666 C 22.573 -22.714 23.071 -24.593 24.072 -25.303 C 25.236 -26.128 27.609 -25.591 27.219 -25.322 Z M 88.522 -20.986 C 88.47 -20.726 88.375 -20.383 88.182 -20.266 C 87.901 -20.095 87.758 -20.432 87.614 -20.645 C 87.333 -21.061 87.041 -21.444 86.432 -21.338 C 86.181 -21.295 86.049 -21.515 86.09 -21.746 C 86.129 -21.97 86.233 -22.186 86.331 -22.395 C 87.296 -24.428 87.063 -26.35 85.713 -28.113 C 84.136 -30.172 82.03 -31.271 79.426 -31.371 C 78.445 -31.408 77.667 -31.213 76.842 -30.629 C 76.676 -30.511 76.669 -30.184 76.288 -30.138 C 75.907 -30.093 75.752 -30.661 75.575 -30.805 C 74.491 -31.68 73.048 -31.575 72.102 -30.544 C 71.925 -30.349 71.486 -30.123 71.702 -30.801 C 71.917 -31.478 72.693 -32.095 73.625 -32.224 C 74.735 -32.376 75.7 -31.78 76.38 -31.262 C 78.319 -32.955 81.774 -32.04 83.743 -30.92 C 84.842 -30.296 85.753 -29.44 86.482 -28.408 C 87.627 -26.787 88.005 -25.017 87.447 -23.082 C 87.397 -22.909 87.361 -22.734 87.343 -22.662 C 87.715 -22.228 88.042 -21.87 88.339 -21.487 C 88.445 -21.345 88.552 -21.135 88.522 -20.986 Z" style="fill: rgb(255, 255, 255);"/>
  <path class="cls-2" d="M 95.239 -28.012 C 95.022 -28.082 94.804 -28.151 94.549 -28.231 C 94.584 -28.57 94.625 -28.878 94.65 -29.186 C 94.72 -30.043 94.554 -30.841 94.054 -31.558 C 92.854 -33.274 91.242 -34.137 89.122 -33.961 C 88.877 -33.941 88.631 -33.94 88.321 -33.928 C 88.428 -34.498 88.52 -34.955 88.602 -35.414 C 88.779 -36.415 88.865 -37.415 88.787 -38.441 C 88.651 -40.232 88.142 -41.903 87.439 -43.543 C 86.703 -45.257 84.185 -49.933 74.682 -51.287 C 70.602 -51.917 60.134 -51.761 56.144 -41.031 C 55.653 -41.647 53.8 -41.862 53.08 -41.799 C 52.545 -41.754 51.111 -41.244 51.111 -41.244 C 51.111 -41.244 50.411 -41.787 49.966 -42.101 C 48.857 -42.882 47.645 -43.104 46.332 -42.714 C 45.433 -42.446 44.561 -42.121 43.85 -41.515 C 43.114 -42.151 42.426 -42.784 41.699 -43.369 C 39.856 -44.853 37.671 -45.423 35.401 -45.145 C 31.174 -44.629 27.662 -42.691 25.035 -39.264 C 23.374 -37.094 22.495 -34.565 21.67 -32.011 C 21.592 -31.77 21.518 -31.529 21.441 -31.285 C 20.351 -31.472 19.396 -31.229 18.545 -30.683 C 18.283 -30.513 18.024 -30.286 17.791 -30.192 C 17.467 -30.354 17.331 -30.364 17.09 -30.448 C 16.945 -30.499 16.785 -30.508 16.63 -30.53 C 14.11 -30.884 11.939 -30.287 10.281 -28.238 C 9.212 -26.916 8.464 -25.454 8.273 -23.734 C 8.083 -23.655 7.923 -23.577 7.753 -23.519 C 6.364 -23.045 5.589 -22.039 5.292 -20.64 C 5.071 -19.602 5.477 -18.722 6.382 -18.187 C 7.135 -17.741 7.95 -17.472 8.82 -17.439 C 9.938 -17.397 11.057 -17.394 12.176 -17.398 C 14.179 -17.406 16.182 -17.475 18.183 -17.438 C 20.758 -17.39 23.331 -17.21 25.906 -17.188 C 27.855 -17.171 29.805 -17.297 31.754 -17.385 C 35.664 -17.56 48.843 -16.854 51.393 -16.838 C 51.569 -16.871 51.744 -16.932 51.922 -16.934 C 53.821 -16.947 55.722 -17.003 57.619 -16.946 C 61.313 -16.832 65.01 -17.046 68.667 -17.586 C 70.284 -17.824 71.914 -18.007 73.565 -17.842 C 76.359 -17.565 79.151 -17.231 81.969 -17.247 C 84.155 -17.258 86.342 -17.178 88.526 -17.221 C 90.475 -17.259 92.428 -17.341 94.366 -17.536 C 95.583 -17.658 96.817 -17.729 97.927 -18.498 C 99.229 -19.4 99.774 -20.638 99.971 -22.091 C 100.039 -22.587 99.988 -23.159 99.802 -23.619 C 98.939 -25.749 97.479 -27.296 95.239 -28.012 Z M 97.913 -20.514 C 97.192 -19.781 96.381 -19.22 95.324 -19.031 C 92.181 -18.471 89.013 -18.436 85.835 -18.494 C 83.938 -18.529 82.038 -18.463 80.142 -18.529 C 79.029 -18.566 77.918 -18.744 76.814 -18.906 C 74.739 -19.213 72.662 -19.179 70.587 -18.983 C 68.439 -18.781 66.297 -18.524 64.151 -18.293 C 62.051 -18.066 59.946 -18.059 57.837 -18.1 C 56.407 -18.129 54.974 -18.173 53.546 -18.121 C 50.21 -18 46.889 -18.297 43.564 -18.419 C 37.999 -18.624 32.434 -18.899 26.865 -18.665 C 22.83 -18.494 18.802 -18.59 14.77 -18.703 C 13.107 -18.749 11.441 -18.63 9.777 -18.654 C 9.165 -18.663 8.542 -18.82 7.951 -19.001 C 7.422 -19.164 6.952 -19.474 6.921 -20.134 C 6.889 -20.808 7.22 -21.33 7.78 -21.595 C 8.406 -21.89 9.096 -22.065 9.775 -22.222 C 10.549 -22.401 10.6 -22.398 10.631 -23.139 C 10.712 -25.054 11.428 -26.716 12.562 -28.238 C 13.054 -28.899 13.677 -29.26 14.472 -29.271 C 15.431 -29.282 17.104 -29.141 18.055 -29.039 C 18.548 -28.987 19.756 -30.761 22.113 -30.113 C 22.641 -29.942 23.423 -29.384 23.423 -29.384 C 23.423 -29.384 24.443 -32.068 24.907 -33.122 C 26.221 -36.102 27.911 -38.836 30.408 -40.986 C 31.056 -41.543 35.644 -43.681 37.362 -43.435 C 42.005 -42.77 45.315 -39.273 45.771 -34.606 C 45.79 -34.399 45.947 -33.66 46.212 -33.636 C 46.477 -33.612 46.577 -34.568 46.562 -34.826 C 46.496 -35.993 46.433 -37.159 46.363 -38.325 C 46.346 -38.637 46.236 -38.71 46.231 -39.006 C 46.353 -39.256 46.83 -39.636 47.038 -39.844 C 48.016 -40.808 49.855 -40.831 50.861 -39.905 C 50.936 -39.835 51.02 -39.776 51.112 -39.701 C 51.748 -39.908 52.311 -40.105 52.882 -40.274 C 53.915 -40.581 54.84 -40.339 55.657 -39.668 C 55.998 -39.388 56.367 -39.109 56.61 -38.753 C 56.911 -38.311 57.236 -38.155 57.771 -38.198 C 58.674 -38.27 59.446 -37.875 60.109 -37.295 C 60.502 -36.951 60.81 -36.529 60.89 -35.979 C 60.925 -35.729 61.059 -35.516 61.351 -35.565 C 61.645 -35.614 61.664 -35.86 61.674 -36.108 C 61.726 -37.248 59.914 -39.533 58.621 -40.149 C 63.927 -50.71 71.94 -50.328 78.102 -48.742 C 88.893 -45.13 87.584 -35.804 86.947 -33.421 C 86.913 -33.296 86.775 -32.526 86.892 -32.415 C 86.999 -32.313 87.312 -32.383 87.521 -32.437 C 89.022 -32.826 90.499 -32.94 91.901 -32.1 C 92.83 -31.544 93.437 -30.732 93.486 -29.653 C 93.524 -28.81 93.36 -27.959 93.281 -27.041 C 93.413 -27.03 93.635 -27.006 93.857 -26.992 C 95.263 -26.891 96.371 -26.281 97.232 -25.149 C 97.746 -24.475 98.121 -23.746 98.411 -22.964 C 98.752 -22.05 98.603 -21.218 97.913 -20.516 Z" style="fill: rgb(183, 183, 183);"/>
  <path class="cls-2" d="M 87.343 -22.656 C 87.361 -22.73 87.397 -22.906 87.447 -23.076 C 88.005 -25.012 87.627 -26.782 86.482 -28.402 C 85.753 -29.434 84.842 -30.29 83.743 -30.915 C 81.774 -32.036 78.319 -32.95 76.38 -31.257 C 75.7 -31.775 74.735 -32.37 73.625 -32.218 C 72.693 -32.09 71.917 -31.473 71.702 -30.795 C 71.486 -30.118 71.925 -30.344 72.102 -30.538 C 73.048 -31.57 74.491 -31.674 75.575 -30.799 C 75.752 -30.656 75.907 -30.086 76.288 -30.133 C 76.669 -30.181 76.676 -30.508 76.842 -30.624 C 77.667 -31.208 78.445 -31.403 79.426 -31.365 C 82.03 -31.267 84.137 -30.167 85.713 -28.107 C 87.063 -26.345 87.296 -24.424 86.331 -22.39 C 86.233 -22.18 86.129 -21.964 86.09 -21.741 C 86.049 -21.51 86.181 -21.289 86.432 -21.333 C 87.041 -21.438 87.332 -21.055 87.614 -20.64 C 87.758 -20.426 87.902 -20.09 88.182 -20.26 C 88.375 -20.377 88.47 -20.721 88.522 -20.98 C 88.552 -21.129 88.445 -21.34 88.339 -21.476 C 88.042 -21.865 87.715 -22.223 87.343 -22.656 Z" style="fill: rgb(183, 183, 183);"/>
  <path class="cls-2" d="M 24.072 -25.302 C 23.071 -24.593 22.573 -22.712 22.977 -22.665 C 23.625 -24.094 25.084 -25.33 27.219 -25.32 C 27.609 -25.591 25.236 -26.128 24.072 -25.302 Z" style="fill: rgb(183, 183, 183);"/>
  <path class="cls-1" d="M 1123.905 -23.921 C 1119.674 -26.332 1117.252 -25.985 1115.526 -25.494 C 1115.067 -25.363 1113.113 -24.811 1112.574 -24.562 C 1112.594 -24.89 1112.618 -25.163 1112.629 -25.437 C 1112.651 -25.969 1112.746 -26.511 1112.67 -27.028 C 1112.296 -29.557 1111.109 -30.869 1108.715 -31.293 C 1108.451 -31.34 1108.162 -31.317 1107.896 -31.265 C 1107.374 -31.163 1106.863 -31.002 1106.342 -30.895 C 1105.711 -30.767 1105.522 -30.955 1105.555 -31.572 C 1105.598 -32.358 1105.649 -33.146 1105.63 -33.931 C 1105.595 -35.277 1105.273 -36.49 1104.3 -37.547 C 1103.13 -38.817 1101.749 -39.372 1100.084 -39.184 C 1096.389 -39.221 1092.15 -34.688 1091.157 -35.116 C 1090.165 -35.544 1090.698 -38.133 1090.465 -39.255 C 1090.068 -41.163 1089.099 -42.745 1087.577 -43.958 C 1085.163 -45.884 1082.447 -47.186 1079.397 -47.741 C 1078.854 -47.839 1078.276 -47.946 1077.744 -47.861 C 1075.792 -47.548 1073.899 -47.009 1072.147 -46.061 C 1070.19 -45.001 1068.663 -43.508 1067.812 -41.434 C 1066.98 -39.408 1066.462 -37.298 1066.477 -35.082 C 1066.483 -34.294 1066.468 -33.505 1066.426 -32.719 C 1066.381 -31.889 1066.152 -31.738 1065.375 -31.954 C 1065.197 -32.003 1065.017 -32.048 1064.838 -32.096 C 1064 -32.324 1063.179 -32.281 1062.403 -31.88 C 1061.929 -31.639 1061.475 -31.362 1061.043 -31.051 C 1060.261 -30.476 1060.281 -30.475 1059.455 -30.916 C 1058.857 -31.237 1058.269 -31.308 1057.631 -30.9 C 1056.641 -30.269 1055.857 -29.492 1055.443 -28.376 C 1055.387 -28.225 1055.337 -28.05 1055.227 -27.946 C 1055.109 -27.835 1054.918 -27.732 1054.77 -27.746 C 1054.67 -27.754 1054.526 -27.964 1054.513 -28.097 C 1054.489 -28.345 1054.526 -28.604 1054.571 -28.853 C 1054.62 -29.121 1054.664 -29.224 1054.749 -29.548 C 1054.319 -29.809 1053.989 -30.121 1053.578 -30.257 C 1051.852 -30.828 1050.192 -30.765 1048.717 -29.576 C 1046.899 -28.11 1046.189 -26.211 1046.56 -23.9 C 1046.641 -23.401 1046.701 -22.885 1046.664 -22.384 C 1046.627 -21.86 1046.249 -21.708 1045.772 -21.946 C 1045.606 -22.028 1045.443 -22.116 1045.276 -22.196 C 1044.587 -22.524 1043.885 -22.495 1043.175 -22.277 C 1042.511 -22.072 1042.074 -21.63 1042.033 -20.939 C 1041.993 -20.177 1042.01 -19.413 1042.082 -18.653 C 1042.126 -18.152 1042.316 -18.008 1042.872 -17.977 C 1043.794 -17.927 1044.72 -17.905 1045.643 -17.905 C 1047.728 -17.905 1049.814 -17.929 1051.9 -17.939 C 1055.957 -17.956 1060.01 -18.082 1064.059 -18.314 C 1067.09 -18.494 1070.124 -18.605 1073.157 -18.737 C 1079.804 -19.026 1086.454 -19.137 1093.108 -19.069 C 1094.888 -19.048 1096.669 -18.881 1098.447 -18.75 C 1100.458 -18.6 1102.462 -18.359 1104.474 -18.256 C 1107.32 -18.11 1110.17 -18.031 1113.019 -17.969 C 1114.685 -17.934 1116.354 -17.965 1118.021 -18.009 C 1119.595 -18.051 1121.168 -18.181 1122.743 -18.205 C 1123.446 -18.216 1124.055 -18.381 1124.645 -18.744 C 1125.861 -19.256 1126.136 -22.182 1123.905 -23.921 Z" style="fill: rgb(255, 255, 255);"/>
  <path class="cls-2" d="M 1124.401 -24.652 C 1121.987 -26.692 1119.165 -27.543 1116.024 -27.373 C 1115.241 -27.331 1114.462 -27.267 1113.658 -27.213 C 1113.345 -28.879 1112.785 -30.38 1111.438 -31.457 C 1110.069 -32.553 1108.489 -32.8 1106.798 -32.513 C 1106.78 -32.648 1106.755 -32.717 1106.765 -32.78 C 1106.987 -34.218 1106.57 -35.533 1106.002 -36.821 C 1105.185 -38.671 1103.81 -39.89 1101.875 -40.477 C 1098.716 -41.442 1096.767 -40.68 1093.94 -39.043 C 1093.724 -38.918 1092.486 -38.048 1092.24 -37.897 C 1092.187 -38.123 1091.975 -39.439 1091.943 -39.597 C 1091.442 -42.095 1090.324 -43.97 1088.305 -45.502 C 1087.027 -46.47 1085.669 -47.32 1084.199 -47.963 C 1081.395 -49.19 1078.493 -49.924 1075.41 -49.423 C 1070.091 -48.558 1066.449 -45.546 1064.385 -40.609 C 1063.704 -38.978 1063.609 -37.233 1063.677 -35.481 C 1063.691 -35.116 1063.689 -34.751 1063.695 -34.367 C 1060.18 -34.041 1059.844 -32.203 1059.844 -32.203 C 1059.844 -32.203 1059.511 -32.443 1059.266 -32.491 C 1057.293 -32.906 1056.589 -32.229 1055.546 -31.232 C 1055.346 -31.042 1055.166 -30.831 1054.956 -30.608 C 1052.379 -32.351 1049.749 -32.469 1047.135 -30.775 C 1044.548 -29.098 1043.444 -26.657 1043.74 -23.574 C 1043.494 -23.538 1043.314 -23.511 1043.134 -23.486 C 1041.636 -23.277 1040.624 -22.273 1040.548 -20.765 C 1040.508 -19.966 1040.639 -19.152 1040.753 -18.354 C 1040.899 -17.346 1041.553 -16.747 1042.507 -16.511 C 1043.087 -16.366 1043.694 -16.26 1044.288 -16.257 C 1046.745 -16.245 1049.202 -16.307 1051.659 -16.291 C 1056.389 -16.26 1061.111 -16.5 1065.833 -16.719 C 1069.583 -16.893 1073.332 -17.126 1077.085 -17.21 C 1082.622 -17.33 1088.162 -17.347 1093.701 -17.385 C 1094.721 -17.388 1095.74 -17.336 1096.755 -17.228 C 1101.089 -16.785 1105.428 -16.414 1109.788 -16.351 C 1112.707 -16.311 1115.624 -16.126 1118.544 -16.318 C 1120.047 -16.416 1121.558 -16.425 1123.054 -16.576 C 1125.533 -16.826 1127.074 -19.122 1126.369 -21.507 C 1126.011 -22.721 1125.378 -23.827 1124.401 -24.652 Z M 1124.645 -18.743 C 1124.055 -18.38 1123.446 -18.216 1122.743 -18.205 C 1121.168 -18.181 1119.595 -18.05 1118.021 -18.009 C 1116.354 -17.965 1114.685 -17.934 1113.019 -17.969 C 1110.17 -18.032 1107.32 -18.11 1104.474 -18.256 C 1102.462 -18.359 1100.458 -18.601 1098.447 -18.749 C 1096.669 -18.881 1094.888 -19.048 1093.108 -19.069 C 1086.455 -19.146 1079.805 -19.036 1073.157 -18.737 C 1070.124 -18.604 1067.09 -18.494 1064.059 -18.314 C 1060.009 -18.074 1055.956 -17.949 1051.9 -17.939 C 1049.814 -17.929 1047.728 -17.905 1045.643 -17.905 C 1044.719 -17.905 1043.795 -17.927 1042.872 -17.977 C 1042.316 -18.009 1042.126 -18.15 1042.082 -18.653 C 1042.01 -19.413 1041.993 -20.177 1042.033 -20.939 C 1042.074 -21.63 1042.511 -22.072 1043.175 -22.276 C 1043.885 -22.495 1044.588 -22.524 1045.276 -22.196 C 1045.443 -22.116 1045.606 -22.028 1045.772 -21.945 C 1046.249 -21.709 1046.627 -21.86 1046.664 -22.384 C 1046.701 -22.885 1046.641 -23.4 1046.56 -23.899 C 1046.189 -26.211 1046.899 -28.11 1048.717 -29.576 C 1050.192 -30.765 1051.852 -30.828 1053.578 -30.257 C 1053.989 -30.121 1054.319 -29.809 1054.749 -29.548 C 1054.664 -29.224 1054.62 -29.121 1054.571 -28.853 C 1054.526 -28.604 1054.489 -28.345 1054.513 -28.097 C 1054.526 -27.965 1054.67 -27.753 1054.77 -27.745 C 1054.918 -27.732 1055.109 -27.835 1055.227 -27.946 C 1055.337 -28.05 1055.387 -28.225 1055.443 -28.376 C 1055.857 -29.492 1056.641 -30.269 1057.631 -30.9 C 1058.269 -31.307 1058.857 -31.237 1059.455 -30.916 C 1060.281 -30.474 1060.261 -30.476 1061.043 -31.051 C 1061.475 -31.362 1061.929 -31.639 1062.403 -31.88 C 1063.178 -32.281 1064 -32.323 1064.838 -32.096 C 1065.017 -32.047 1065.197 -32.002 1065.375 -31.954 C 1066.152 -31.738 1066.381 -31.889 1066.426 -32.718 C 1066.468 -33.505 1066.483 -34.294 1066.477 -35.082 C 1066.462 -37.298 1066.978 -39.407 1067.812 -41.433 C 1068.663 -43.508 1070.191 -45.003 1072.147 -46.061 C 1073.899 -47.009 1075.792 -47.549 1077.744 -47.861 C 1078.276 -47.946 1078.854 -47.839 1079.397 -47.74 C 1082.447 -47.186 1085.163 -45.883 1087.577 -43.958 C 1089.099 -42.745 1090.068 -41.162 1090.465 -39.255 C 1090.698 -38.133 1090.164 -35.544 1091.157 -35.116 C 1092.15 -34.688 1096.391 -39.22 1100.084 -39.184 C 1101.749 -39.372 1103.13 -38.817 1104.3 -37.546 C 1105.273 -36.49 1105.595 -35.277 1105.63 -33.931 C 1105.65 -33.145 1105.598 -32.358 1105.555 -31.572 C 1105.522 -30.955 1105.712 -30.767 1106.342 -30.895 C 1106.863 -31.001 1107.375 -31.163 1107.896 -31.265 C 1108.162 -31.317 1108.451 -31.34 1108.715 -31.293 C 1111.109 -30.869 1112.296 -29.556 1112.67 -27.028 C 1112.746 -26.511 1112.651 -25.968 1112.629 -25.437 C 1112.618 -25.163 1112.594 -24.89 1112.574 -24.562 C 1113.113 -24.812 1115.067 -25.363 1115.526 -25.494 C 1117.252 -25.985 1119.674 -26.332 1123.905 -23.921 C 1126.136 -22.182 1125.861 -19.256 1124.645 -18.743 Z" style="fill: rgb(183, 183, 183);"/>
</svg>