<svg id="Layer_1" data-name="Layer 1" xmlns="http://www.w3.org/2000/svg" viewBox="0 0 2845.08 1400"><defs><style>.cls-1{fill:#fff;}.cls-2{fill:#373737;}</style></defs><path class="cls-1" d="M2523,1090.13a125.08,125.08,0,0,1-18.81,1.84c-17.57.33-20.2-4.54-14.39-21,8.1-23,16.63-46,22.06-69.69,17.7-77.21-22.46-163.16-105.9-185.79-46.38-12.58-92.42-19-140-9.73-11,2.16-30.24,2.9-27.75-6,7.33-29.15,15.46-55.49,20.38-82.42q10.82-59.17,17.69-119c3.25-28.2,2-56.47-5.67-84.42-20.75-75.5-64.64-136.16-121.13-188.17-36.19-33.31-79.2-57.26-123-79.1-136.25-68-279.08-89.51-429.48-61.5-56.19,10.47-109.38,29.46-162.76,48.48-113.06,40.3-166.16,94.9-198.49,206.24-1.58,5.44-10.17,42.78-10.17,42.78s-14.51,3.81-20.28,6.69c-34.35,17.1-57.54,49.53-75.32,83.15-1.38,2.61-8.28,16.31-8.28,16.31s-16.78-8.34-19.64-9.72c-22.5-10.88-40.2-10.71-63.74.36-2.37,1.12-10,7.07-10,7.07s-12.12-4.76-16.58-5.59c-27.42-5.13-54.88-6.46-82.06.2-54.52,13.37-94.39,45.45-119.71,95.69-1.88,3.72-7.64,15.64-7.64,15.64s4,6,9,12.21c13.11-4.14,26.65-7.83,39.76-12.67,41.85-15.44,80.41-10.6,115.75,17.26,6.79,5.35,14.63,9.42,21.18,15,9.1,7.78,18.43,9.41,30.38,7.39,24.14-4.08,45.11,3.58,61.79,22,5.8,6.4,8.37,12.77.93,19.7-39.34-22.9-39.18-22.59-79.67-1.78-5.23,2.69-13.87,2-19.62-.36-7.82-3.2-14.88-8.92-21.39-14.57-12.4-10.79-26.66-17.26-42.79-17.89a284.15,284.15,0,0,0-46.86,1.59c-26.38,3.4-48.86,16.7-70.88,30.86-14.43,9.28-15.93,8.7-27.34-4.53-8.73-10.13-18.39-19.76-25.49-31-35.82-56.49-89.08-80.76-153.56-82.23C547,652.3,501.56,656,462.25,688.16c-47.39,38.8-87.86,81.61-103.07,142.78-6.83,27.47-14,55.36-16,83.42-3.35,46.3-2.59,92.89-3.76,139.35-.29,11.58-1.34,23.14-2.09,35.51-12.7,3.44-23.73-.93-28.73,11-1.2,2.86-8.16,4.55-12.51,4.62-25.49.39-38,16.5-46.18,37.59-13.31,34.36-7.86,68,4.06,101.59,5.18,14.61,13.13,22.19,29.28,21.2,25.13-1.54,50.33-3,75.5-2.87,72.48.39,145,3.18,217.44,2.12,102.42-1.5,205.1-1.75,307.1-9.75,88.08-6.91,175.84-14.09,264.26-12.67,33,.53,66.17-1.9,99.23-3.6,104.68-5.39,209.19-12.2,314.26-8.09,104.69,4.09,209.61,5.79,314.36,4,68-1.15,135.36,2.89,202.88,9.12a954.8,954.8,0,0,0,103.81,4.38c56.7-1,113.34-5.5,170-6.39,46.43-.73,92.94,1,139.37,2.88,35.4,1.41,70.69,5.5,106.09,6.89,32,1.25,51.16-17.92,52.69-50.18C2653.49,1132.94,2590.93,1078.43,2523,1090.13ZM1469.84,423.87c-44-2.83-67.88,57.06-71.72,67.39s-3.85,10.32-6.63,15c-4.41,7.36-11,11.32-19.82,8.26s-12.07-10.38-10.73-18.68a88.14,88.14,0,0,1,7.51-24.59c18.52-37.75,52.94-67.93,102.2-61.07C1480,412.61,1478.84,424.1,1469.84,423.87Zm797.13,719c-13.13,6.67-31.08-40.43-36.49-56.08-15.66-45.22-37-86.88-73.07-119.6q-9.6-8.71-19.73-16.86c-19.87-16-41.75-19-66.54-13-37.34,9.05-70.33,27-103.13,45.86-9.07,5.21-17.68,13.09-30.87,9.86,0-21.58,18.14-28.4,31.19-41.13-3.91-10.74-6.39-22.51-12.13-32.4-17.79-30.67-38.07-59.5-63-85.13-20.4-20.94-42.86-24.25-68.76-14.29-13.21,5.08-26.16,10.8-39.36,15.89-24.48,11.88-7.78-16.15,7.41-26.88,23.32-16.47,43.28-31.26,71.55-29.26,26.4,1.87,50.32,11.18,72,26.91a363.79,363.79,0,0,1,78.81,77.53c6.56,8.78,13.59,17.2,20.71,26.19,12.93-3.13,24.94-6.87,37.23-8.87C2144.34,890,2201,913.32,2242,974c28.25,41.8,40.34,88.4,42.61,138C2285.21,1125.54,2279.8,1136.34,2267,1142.86Z"/><path class="cls-2" d="M2579.19,1045.89c-8.7-2.38-18.06-2.3-27.92-3.46,1.62-7,2.87-12.32,4.07-17.65,1.39-6.15,3-12.26,4-18.47,13.54-83.29-9.79-153.55-77.58-205.16-24.14-18.38-52.89-31-80.32-44.66-24.95-12.43-52.11-17.63-80-18.38-5.14-.14-10.26-1-16.26-1.63,4.88-24.81,25.05-119.47,23.09-174.17-4.3-119.83-49.52-220.63-144-296.26-74-59.26-157.68-100.76-248.66-127.82-76.8-22.84-154.34-39.86-235.06-31.33-50.9,5.38-101.81,11.52-152.3,19.84-85.18,14.06-163.15,47.05-234.55,95.47-9.74,6.6-19.47,13.76-27.49,22.27-47,49.93-78.67,108-90.38,176.11-2,11.44-2.12,23.2-3.09,34.64-41.18,17.91-67.78,44.29-90.83,85.32-25.33-6.47-32.88-7.88-56.52-1.36-9.44,2.61-22.8,13.46-22.8,13.46s-95.51-30.1-134.84-23.87c-65.22,10.33-126.3,29.26-166.11,85.47-31.17-9.12-58.52-20.92-87-24.75C529.08,575.24,433.11,602.8,347,664.41c-36.36,26-64.48,60-85.22,99.9-32.93,63.33-50.38,130.88-51.84,202-.64,31.17,3.83,62.45,6.07,95-31.58,24.57-45.89,38.67-55.28,63.08-6.38,16.58-13.35,35.19-11.8,52.13,4.63,50.53,56.31,104.49,105.86,115.18a72,72,0,0,0,14.06,1.43c54.38.82,108.79,3,163.14,2q225.78-4.33,451.51-11.08c81.13-2.42,162.18-7.43,243.3-10.67,107.08-4.28,214.16-9.67,321.29-11.41,101.65-1.65,203.37.46,305.06,1.58q83.94.91,167.84,4.06c92.94,3.43,185.82,8.26,278.77,11.44,111.06,3.79,222.16,6.36,333.24,9.71,27.57.83,55.1,2.74,82.66,3.88,15.17.62,29.82-.67,42.23-11.39,17.22-14.86,30.5-32.51,35-54.84C2710.71,1138.44,2658.08,1067.5,2579.19,1045.89Zm71.08,155.23c-1.53,32.26-20.65,51.43-52.69,50.18-35.4-1.39-70.69-5.48-106.09-6.89-46.43-1.85-92.94-3.61-139.37-2.88-56.69.89-113.33,5.43-170,6.39a954.8,954.8,0,0,1-103.81-4.38c-67.52-6.23-134.84-10.27-202.88-9.12-104.75,1.76-209.67.06-314.36-4-105.07-4.11-209.58,2.7-314.26,8.09-33.06,1.7-66.18,4.13-99.23,3.6-88.42-1.42-176.18,5.76-264.26,12.67-102,8-204.68,8.25-307.1,9.75-72.45,1.06-145-1.73-217.44-2.12-25.17-.14-50.37,1.33-75.5,2.87-16.15,1-24.1-6.59-29.28-21.2-11.92-33.62-17.37-67.23-4.06-101.59,8.18-21.09,20.69-37.2,46.18-37.59,4.35-.07,11.31-1.76,12.51-4.62,5-12,16-7.59,28.73-11,.75-12.37,1.8-23.93,2.09-35.51,1.17-46.46.41-93.05,3.76-139.35,2-28.06,9.17-56,16-83.42,15.21-61.17,55.68-104,103.07-142.78C501.56,656,547,652.3,593.63,653.37c64.48,1.47,117.74,25.74,153.56,82.23,7.1,11.21,16.76,20.84,25.49,31,11.41,13.23,12.91,13.81,27.34,4.53,22-14.16,44.5-27.46,70.88-30.86a284.15,284.15,0,0,1,46.86-1.59c16.13.63,30.39,7.1,42.79,17.89,6.51,5.65,13.57,11.37,21.39,14.57,5.75,2.34,14.39,3,19.62.36,40.49-20.81,40.33-21.12,79.67,1.78,7.44-6.93,4.87-13.3-.93-19.7-16.68-18.39-37.65-26-61.79-22-12,2-21.28.39-30.38-7.39-6.55-5.6-14.39-9.67-21.18-15-35.34-27.86-73.9-32.7-115.75-17.26-13.11,4.84-26.65,8.53-39.76,12.67-5-6.22-9-12.21-9-12.21s5.76-11.92,7.64-15.64c25.32-50.24,65.19-82.32,119.71-95.69,27.18-6.66,54.64-5.33,82.06-.2,4.46.83,16.58,5.59,16.58,5.59s7.61-5.95,10-7.07c23.54-11.07,41.24-11.24,63.74-.36,2.86,1.38,19.64,9.72,19.64,9.72s6.9-13.7,8.28-16.31c17.78-33.62,41-66,75.32-83.15,5.77-2.88,20.28-6.69,20.28-6.69s8.59-37.34,10.17-42.78c32.33-111.34,85.43-165.94,198.49-206.24,53.38-19,106.57-38,162.76-48.48,150.4-28,293.23-6.49,429.48,61.5,43.78,21.84,86.79,45.79,123,79.1,56.49,52,100.38,112.67,121.13,188.17,7.68,27.95,8.92,56.22,5.67,84.42q-6.87,59.78-17.69,119c-4.92,26.93-13,53.27-20.38,82.42-2.49,8.92,16.72,8.18,27.75,6,47.57-9.31,93.61-2.85,140,9.73,83.44,22.63,123.6,108.58,105.9,185.79-5.43,23.68-14,46.71-22.06,69.69-5.81,16.47-3.18,21.34,14.39,21a125.08,125.08,0,0,0,18.81-1.84C2590.93,1078.43,2653.49,1132.94,2650.27,1201.12Z"/><path class="cls-2" d="M2242,974c-41-60.64-97.64-84-169.22-72.4-12.29,2-24.3,5.74-37.23,8.87-7.12-9-14.15-17.41-20.71-26.19A363.79,363.79,0,0,0,1936,806.71c-21.7-15.73-45.62-25-72-26.91-28.27-2-48.23,12.79-71.55,29.26-15.19,10.73-31.89,38.76-7.41,26.88,13.2-5.09,26.15-10.81,39.36-15.89,25.9-10,48.36-6.65,68.76,14.29,25,25.63,45.26,54.46,63,85.13,5.74,9.89,8.22,21.66,12.13,32.4-13,12.73-31.19,19.55-31.19,41.13,13.19,3.23,21.8-4.65,30.87-9.86,32.8-18.86,65.79-36.81,103.13-45.86,24.79-6,46.67-2.95,66.54,13q10.11,8.14,19.73,16.86c36,32.72,57.41,74.38,73.07,119.6,5.41,15.65,23.36,62.75,36.49,56.08,12.83-6.52,18.24-17.32,17.62-30.87C2282.32,1062.36,2270.23,1015.76,2242,974Z"/><path class="cls-2" d="M1470.65,410.14c-49.26-6.86-83.68,23.32-102.2,61.07a88.14,88.14,0,0,0-7.51,24.59c-1.34,8.3,2,15.65,10.73,18.68s15.41-.9,19.82-8.26c2.78-4.64,2.78-4.64,6.63-15s27.71-70.22,71.72-67.39C1478.84,424.1,1480,412.61,1470.65,410.14Z"/></svg>