<?xml version="1.0" encoding="utf-8"?>
<!DOCTYPE svg PUBLIC "-//W3C//DTD SVG 20010904//EN" "http://www.w3.org/TR/2001/REC-SVG-20010904/DTD/svg10.dtd">
<svg version="1.0" xmlns="http://www.w3.org/2000/svg" width="83px" height="91px" viewBox="0 0 83 91" preserveAspectRatio="xMidYMid meet">
 <g fill="#000000">
  <path d="M25.3 84.2 c-12.3 -4.4 -19.6 -14.4 -20.9 -28.8 -1.2 -12.7 3.5 -24.9 13.8 -36 8.3 -8.8 16 -12.7 26.4 -13.2 14.8 -0.8 25.1 5.2 31 18 2.6 5.8 2.9 7.3 2.9 17.4 0 10.7 -0.1 11.2 -3.8 18.6 -4.8 9.7 -12.3 17.5 -21.3 21.9 -5.8 2.9 -8.1 3.4 -14.9 3.7 -5.8 0.2 -9.4 -0.3 -13.2 -1.6z m23.4 -6.7 c13.3 -6.7 23.7 -26.4 22 -41.7 -1.3 -11 -9.1 -21.5 -17.7 -23.8 -13.6 -3.7 -31.8 9.7 -37.6 27.7 -2.6 8.2 -2.5 20.3 0.3 26.4 2.3 5.1 8.3 10.7 13.4 12.5 5.9 2.2 13.9 1.7 19.6 -1.1z"/>
  <path d="M31.8 69.5 c-1.4 -0.8 -3.7 -3.2 -5 -5.2 -1.9 -3.2 -2.3 -5.2 -2.3 -11.8 0 -7.2 0.3 -8.6 3.4 -14.3 8.3 -15.3 22.9 -22.1 28.8 -13.3 1.6 2.3 2.3 4.9 2.3 8.1 0 4 -0.3 4.8 -2.5 5.8 -3.9 1.8 -6.3 1.4 -7.6 -1 -1 -1.9 -0.9 -2.4 1 -3.6 1.1 -0.8 2.1 -2.5 2.1 -3.8 0 -4 -4.9 -3.2 -9.7 1.5 -10.1 10.1 -13.5 27.8 -5.9 31.2 5 2.3 13.7 -2 17.4 -8.6 1.5 -2.8 2.8 -1 1.4 2 -1.6 3.5 -9 11.4 -12.3 13.1 -3.5 1.8 -7.6 1.7 -11.1 -0.1z"/>
 </g>
 <g fill="#ffffff">
 </g>
</svg>