<?xml version="1.0" encoding="utf-8"?>
<svg id="Layer_1" data-name="Layer 1" viewBox="449.591 805.525 1977.179 333.713" xmlns="http://www.w3.org/2000/svg">
  <defs>
    <style>.cls-1{fill:#373737;}</style>
  </defs>
  <path class="cls-1" d="M1813.69,824.84c-2.14-13.87-13.41-23.13-26.84-23.7a30,30,0,0,0-5.4.29c-.56-.15-4.94.49-6.63,1.79-7.31,3-13.06,9-15.89,17.66a55.79,55.79,0,0,0-3.15,17.13c.18,44,.18,220.23,0,264.27a55.8,55.8,0,0,0,3.15,17.14c2.83,8.64,8.58,14.69,15.89,17.66,1.69,1.29,10.17,2.16,12,2.08,13.43-.58,24.7-9.83,26.84-23.7a158.63,158.63,0,0,0,1.35-29.08C1814,1051.06,1815.17,834.38,1813.69,824.84Z"/>
  <path class="cls-1" d="M2380.3,939.57c0-20.73-.07-40.62,0-60.5.07-17.47.41-34.94.43-52.4,0-9.79,4.37-17.47,12.66-21.73,8.69-4.47,18.38-4,25.52,3.27a26.29,26.29,0,0,1,7,14.91c1.1,12.1.73,24.36.61,36.56-.7,71.24-1.63,142.48-2.15,213.72-.09,11.88,1.28,23.78,2.23,35.65,1.27,16-4.48,24.23-20.38,26.69-12.1,1.88-26.42-7.6-27-23-.84-23.8-1.82-47.6-2.27-71.41-.37-20.15-.07-40.31-.07-61.43l-109.51-4.72c0,4,0,7.24,0,10.46q-.42,63.63-.82,127.25c-.06,10.62-2.08,19.93-13.52,24.2-10,3.75-19.25,2.63-27-5a20.87,20.87,0,0,1-5.75-9.49,72.67,72.67,0,0,1-1.37-16.5c.28-69.58.84-139.16.94-208.75,0-21.33-1-42.67-1.76-64-.37-10.63,2.6-19.24,13.35-23.28,9.93-3.74,19.51-2.78,26.78,5.32a22.74,22.74,0,0,1,5.59,13q2.38,49.41,3.54,98.87c.16,6.93,2.2,8.75,9,8.92,30.6.79,61.19,2.18,91.78,3.32C2371.25,939.67,2374.3,939.57,2380.3,939.57Z"/>
  <path class="cls-1" d="M1599.85,939.57c0-20.73-.07-40.62,0-60.5.07-17.47.41-34.94.44-52.4,0-9.79,4.36-17.47,12.65-21.73,8.69-4.47,18.38-4,25.52,3.27a26.29,26.29,0,0,1,7,14.91c1.1,12.1.73,24.36.61,36.56-.7,71.24-1.63,142.48-2.15,213.72-.09,11.88,1.28,23.78,2.23,35.65,1.27,16-4.48,24.23-20.38,26.69-12.1,1.88-26.42-7.6-27-23-.84-23.8-1.82-47.6-2.27-71.41-.37-20.15-.07-40.31-.07-61.43L1487,975.17c0,4,0,7.24,0,10.46q-.42,63.63-.82,127.25c-.06,10.62-2.08,19.93-13.52,24.2-10,3.75-19.25,2.63-27-5a20.87,20.87,0,0,1-5.75-9.49,72.67,72.67,0,0,1-1.37-16.5c.28-69.58.84-139.16.94-208.75,0-21.33-1-42.67-1.76-64-.37-10.63,2.6-19.24,13.35-23.28,9.93-3.74,19.51-2.78,26.78,5.32a22.74,22.74,0,0,1,5.59,13q2.38,49.41,3.54,98.87c.16,6.93,2.2,8.75,9,8.92,30.6.79,61.19,2.18,91.78,3.32C1590.8,939.67,1593.85,939.57,1599.85,939.57Z"/>
  <path class="cls-1" d="M2061.84,1009.47c-11-2-20.36-3-29.35-5.51-8.29-2.31-12.57-9.36-12.1-17.71.45-8.14,3.86-15.26,12.41-16.62,21.13-3.37,41.52-4.62,61.51,8,13.19,8.36,15.07,18.39,14.18,31.44-1.39,20.45-1.77,41-4,61.34-2.68,24.06-16.41,41.88-37,53.58a139.87,139.87,0,0,1-35.38,13.81c-18.36,4.49-35-3.3-51-11.16-20.23-9.88-31.49-26.8-37.07-48-5.3-20.15-11.75-40.06-15.82-60.45-2.86-14.3-3.57-29.22-3.47-43.86.19-29.33-.24-58.85,3.13-87.89,2.27-19.56,8.36-39.29,20.08-56.17,24.58-35.38,72-46.44,108-24,12.06,7.5,20.85,19.65,26,33.36,3.6,9.55,1,19.19-5.41,23.37-10.06,6.59-22.3,6.56-30-.88a65.33,65.33,0,0,1-10.32-13.62c-10.33-17.38-33.52-18.55-44.31-1.38a124.08,124.08,0,0,0-12.48,27.53c-10.64,32.75-10.16,66.55-7.06,100.22,2.17,23.58,5.8,47.09,10.21,70.37,2.27,12,7.15,23.67,11.79,35.11,5.78,14.25,28.41,20.72,41.72,13.22s21.13-18.21,22.32-33.39C2059.68,1043.34,2060.69,1026.51,2061.84,1009.47Z"/>
  <path class="cls-1" d="M506.76,988c0,28.26-.11,55.67.05,83.08.08,13.57.17,27.18,1.17,40.7a24.84,24.84,0,0,1-23.9,27.18c-12.29.15-25.31-8.7-25.42-26.76-.23-35.53-1.17-71.05-2-106.57-.48-20.79-1.06-41.58-2-62.35-1.44-32.79-2.84-65.6-5-98.35-1.18-18.09,13-29.13,29.79-28.52,14.2.52,28.52-4.27,42.88-5.43,28.61-2.31,57.28-3.8,85.94-5.45a41.36,41.36,0,0,1,10.34,1.15c9.87,2,17.63,10.07,17.91,18.37.29,8.63-6.4,17.68-16.47,19.41-12.21,2.11-24.71,2.71-37.1,3.69-24,1.88-48,3.39-72,5.4-13.17,1.11-13,1.42-12.45,14.19,1,25.68,1.86,51.36,2.82,78.48,8.34,0,16.64.48,24.85-.1,22.27-1.57,44.5-3.75,66.76-5.37,8.77-.64,17.43-.07,24.13,7,11.34,12,7.53,27.29-8.72,31.84-8.27,2.32-17.1,3-25.73,3.59-24.29,1.62-48.61,2.78-72.92,4.18A11.17,11.17,0,0,0,506.76,988Z"/>
  <path class="cls-1" d="M1082.61,929.57c8.43-14.21,16.1-26.14,22.77-38.6,9.58-17.91,18-36.44,27.77-54.26,5.35-9.79,12.07-18.9,18.7-27.93,7.11-9.7,21.52-11.68,32.31-5,7.5,4.61,10.09,15.61,4.76,26.25-5.49,11-12.48,21.2-18.43,32-4.78,8.65-9.1,17.55-13.44,26.43-5.44,11.11-9.89,22.79-16.24,33.35-8.16,13.56-18.09,26.06-26.62,39.43-3.1,4.84-6.17,10.85-6.16,16.32.07,45.74.91,91.48,1.4,137.23.18,16.17-9.84,25.57-25.52,24.34-12.9-1-21.34-9.52-21.52-22.81q-.9-66.13-1.21-132.25c0-5.9-25.78-43.64-29.91-51.69-9.8-19.06-19.4-38.23-29.52-57.13-5.67-10.59-12.77-20.44-18.2-31.13-6.3-12.42-4.6-23.41,3.1-28.74,10.45-7.24,24.64-5.56,33.54,5.23,6.2,7.51,11.32,16,16.15,24.52,9.64,16.94,18.73,34.19,28.07,51.31C1070.1,906.78,1075.82,917.19,1082.61,929.57Z"/>
  <path class="cls-1" d="M799.75,1095.15c22-1.41,41-3.07,60.06-3.6,6.86-.19,13.62-1.71,20.33.27,7.7,2.27,10.41,12.53,10.41,19.66,0,18.73-19.88,21.09-25.33,21.55-25.24,2.17-50.54,3.72-75.81,5.57-24.36,1.77-38.72-9.25-38.66-35.5.08-38-.76-76-2.25-114-2.08-52.7-4.45-105.41-8.06-158-1.63-23.76,14.39-33.47,29.95-30,13.49,3,19.19,10.38,20,24.51,1.06,18.08,2.49,36.13,3.26,54.22,2.16,51.21,4.29,102.42,6,153.65C800.3,1053.54,799.75,1073.69,799.75,1095.15Z"/>
</svg>