<?xml version="1.0" encoding="utf-8"?>
<svg id="Layer_1" data-name="Layer 1" viewBox="77.778 362.374 1239.141 533.838" xmlns="http://www.w3.org/2000/svg">
  <defs>
    <style>.cls-1,.cls-5{fill:#373737;}.cls-1,.cls-3{stroke:#000;stroke-miterlimit:10;}.cls-1{stroke-width:5.65px;}.cls-2,.cls-3{fill:#f2f2f2;}.cls-3{stroke-width:3.77px;}.cls-4{fill:#416d4a;}</style>
  </defs>
  <path class="cls-1" d="M1192.23,651.92c-.74-.58-3.56,1.69-5,2,.4-1.65,2.31-5.08,1.23-5.65s-1.89-.28-2.72.82c-2.3,3.09-5.2,3.55-8.87,3.59-5.32.07-8.77-2.19-10.6-6.78s-5.29-6.34-9.89-6.8c-3.87-.38-7.69-1.23-11.56-1.47-6.51-.4-11.27,2.55-14.45,8.29-9.66.51-71.22-11.4-80.45-16l11.29,1.61a25.52,25.52,0,0,0,.34-3c0-3.9.33-7.87-.31-11.66a16.46,16.46,0,0,0-3.61-7.94c-4.91-5.5-10.25-10.65-15.65-15.68-1-.92-3.16-1-4.7-.81-4.15.51-8.66.8-12.78,1.53-.08-.27,8.78-3.15,13.56-4.77-3.65-3.72-6.65-7.07-10-10a5.92,5.92,0,0,0-4.43-.87c-17.4,3.07-34.78,6.29-52.37,9.16q8.32-4.89,16.64-9.77c1.47-.85,3-1.59,4.47-2.44,4.86-2.82,5.26-3.67,4.48-9.91a35.77,35.77,0,0,0-3.57.83c-1.11.37-2.14.66-3.5,1a44.07,44.07,0,0,0,4.63-4.53,6.38,6.38,0,0,0,1.54-4.06c-2-17.55-4.29-35.08-6.36-52.64a6.27,6.27,0,0,0-2.83-4.88c-17.07-12-34.22-24-51.08-36.3-9.43-6.9-18.34-14.52-27.52-21.76-3-2.35-6-4.6-9.13-6.79-2.4-1.7-4.24-1.48-5.9,1-2.4,3.61-4.52,7.41-7.14,11.13,1.09-3.83,2.25-7.64,3.23-11.49.5-2,1.69-4.8.84-5.87a34.29,34.29,0,0,0-8.34-7.08c-.66-.42-3,1.05-4.08,2.13-5.83,5.86-11.51,11.86-17.85,18.46.54-4.77.8-8.88,1.5-12.91,1.27-7.38,2.79-14.71,4.21-22.07.21-1.08.51-2.15.63-3.23.19-1.75.24-3.87-1.91-4.06a4.59,4.59,0,0,0-3.59,2.26c-2.79,6.29-5.25,12.72-7.83,19.11-.4,1-1.18,2.7-1.82,4.29a7,7,0,0,1-.1-2.15c-1-9-2.17-18-3.06-27.07-.69-6.95-1-13.94-1.59-20.9-.17-2.09.56-5-2.31-5.47s-3.09,2.63-3.75,4.57c-1.75,5.21-3.29,10.48-4.93,15.72-.29.92-.67,1.81-.79,2.14-1.07-1.15-2.11-3.26-3.3-3.34-2.39-.17-2.93,2.23-3.33,4.24-.25,1.28-.46,2.56-.69,3.84a518.75,518.75,0,0,1-15.81,61.37c-1.76,5.6-4.3,10.95-6.54,16.56-3.05-1.3-6.23-2.44-9.19-4-2.2-1.16-3.95-.71-5.9.34-4.84,2.61-9.71,5.15-14.58,7.69-.51.27-2.63,1.17-3.55.8,4.92-3.72,11.39-8.21,16.31-11.93-2.61-3.4-5.58-4.31-9.08-2.62-4.85,2.36-9.61,4.91-14.43,7.33a32.39,32.39,0,0,1-5.29,1.76c4.66-3.39,11-7.84,15.8-11.35a7,7,0,0,0-7.09-2.24c-9.69,2-19.38,4-29,6.22-4.65,1.09-9.15,2.79-14.1,4.33a89.5,89.5,0,0,0-2.17-9.3c-2-5.83-4.11-11.67-6.65-17.28-1.66-3.66-3.32-3.47-6-.38-4.6,5.38-9.17,10.79-14.09,15.87a34.62,34.62,0,0,1-8.51,6.13c-1-3.68-1.84-6.78-2.58-9.92-3.22-13.73-10.77-24.8-21-34.19a28.72,28.72,0,0,0-5-3.77c-1-.57-2.66-.95-3.53-.48s-1.31,2.08-1.36,3.22c-.55,10.95-1.65,34-1.9,35.33-1-1.9-1.64-3.09-2.23-4.31A137.17,137.17,0,0,0,609.11,405a10.79,10.79,0,0,0-2.87-1.07c-.23,1.1-.82,2.28-.62,3.29,2.29,11.46,7.54,37.21,7.86,39.25-5.09-6.18-9.6-12-14.45-17.47-7.67-8.68-15.43-17.3-23.44-25.66-2.93-3.07-6.64-5.44-10.13-7.94a3.85,3.85,0,0,0-3.2-.39c-.52.22-.82,2-.55,2.88,2.27,7.34,4.69,14.62,7.08,21.92a9.75,9.75,0,0,1,.82,3.35,18.29,18.29,0,0,1-1.82-2.25c-4.54-7.75-9.15-15.45-13.5-23.31-4-7.16-7.52-14.55-11.5-21.7-.85-1.53-2.51-4.2-4.16-3.71s-2.12,3.84-2.1,5.76c.08,9.43,3.46,18.2,6.39,27,7.11,21.28,16,41.71,28.42,60.58,10.33,15.75,23.42,28.81,37.88,40.57,15,12.17,30.26,23.92,45.48,35.77a11.7,11.7,0,0,0,4.76,2.19c21.28,4.2,41.42,11.36,60,22.7,3.14,1.92,6.14,4.08,9.07,6-9.31,16.66-21.24,30.55-37.28,40.57-8.68,5.43-17.87,10.1-27.91,12.13-5.14,1-10.75.24-16.08-.35a90.33,90.33,0,0,1-15.56-3.05c-15.6-4.62-31.1-9.58-45.78-14.14-1.08-1.34-1.16-3-2.53-3-13.35-.61-26.92-2.36-38.76,6.27-6.86,5-13.59,10.18-20.51,15.1a30.07,30.07,0,0,1-8.3,4.59c-14.43,4.44-28.91,8.72-43.4,13,7.9-8.64.73-38.19-2.17-42.2-1.28-1.78-2.69-2.9-4.67-1-5.49,3.75-9,9.17-12.32,14.75a74,74,0,0,0-5.07,11.3c-7.21-6.92-16.12-9.46-25.33-11.33a39.92,39.92,0,0,0-11.9-.29c-3.11.31-3.79,1.55-2.54,4.45,6.15,14.24,14.7,26.33,29.2,33a13.16,13.16,0,0,1,2,.9l-15.51,4.47a6.53,6.53,0,0,0-1.94.72,2,2,0,0,0-.73,1.42c0,.31.64.83,1,.88a15.59,15.59,0,0,0,3,0c4.63-.27,8.76-.68,13.39-.94-.13.35-.43,1-1.2,2.54C432.39,673,426.27,683,421.25,693.65c-3.87,8.19-36.77,70.41-41,105.21-.88,7.33-2.4,14.54-1.59,22,2.89,26.62,15.43,46.28,40.62,57,10.11,4.31,20.31,8.34,31.29,9.55,17.73,2,34.44-2.31,50.45-9.51,27.78-12.51,40.13-35.17,41.73-64.71.06-1,.14-2,.21-3a114.27,114.27,0,0,0-1.68-16.71c-4.32-21.59-16.71-39.37-27-58.22a437,437,0,0,0-31.56-49.17c-5.47-7.46-20.56-25.49-21.84-27,12.92-.75,24.66-1.65,37.59-2.42,12-.72,23.92-1.93,35.89-2.25,7-.19,13.93,1.2,20.91,1.41q37.3,1.13,74.63,1.89c11.51.24,23,.48,34.11,4,1.78.57,3.66,1.27,5.24-.66.29-.34,1.1-.32,1.67-.36,12.36-.95,24.71-2,37.08-2.8,14.76-1,29.53-2.25,44.31-2.45,7.39-.09,14.82,1.85,22.21,3,7,1.08,13.95,2.72,21,3.4a107.9,107.9,0,0,0,34.57-2.62c23.36-5.41,46.53-11.61,69.7-17.78,14.11-3.76,28.28-6.2,42.94-5.37,23.64,1.34,47.29,2.5,70.94,3.77,5.59.31,11.16.93,16.74,1.08,7.69.19,15,2.2,22.36,4.09,18.67,4.79,37.28,9.93,56.1,14.09,18.61,4.11,37.44,7.2,56.19,10.68a7.67,7.67,0,0,0,3.78-.21,180.21,180.21,0,0,0,17-6.57C1190.41,660.81,1193,652.49,1192.23,651.92Z"/>
  <path class="cls-2" d="M523.6,633.38c-13.48,3.67-26.92,7.47-40.39,11.17-4.71,1.29-9.44,2.55-14.15,3.83a50,50,0,0,1-3.7,3.73c1.88-.29,3.75-.61,5.63-.88,15.22-2.15,59.27-8,64.89-9.83-2.36-1.75-6.71-6.41-9-7.79A4.71,4.71,0,0,0,523.6,633.38Zm0,5.53c-2.63.85-8.78,1.42-8.47.61s7.53-1.93,9.21-3.95C525.88,636.84,525.44,638.31,523.57,638.91Z"/>
  <path class="cls-2" d="M507.43,648.5q-19.14,2.52-38.26,5.28c-5.23.75-10.44,1.71-15.66,2.58a5.75,5.75,0,0,0-3.11,1.24c7.37-.35,14.75-.48,22.1-1.09,13.64-1.13,27.36-1.56,41-3.12,3.77-.43,20.65-1.32,21.45-2.52s1.34-6.42.53-7C529.87,644.4,512.72,647.81,507.43,648.5Z"/>
  <path class="cls-2" d="M1131.68,651.27c-.17-1.76-3.21-2.73-3.78-2.82-4.91-.76-9.84-1.36-14.77-2,0,.16-5.21-.64-5.24-.49,4.81,1.25,14.76,3.5,19.59,4.67C1128.05,650.76,1131,651.47,1131.68,651.27Z"/>
  <path class="cls-2" d="M900,542.64c.22.33,7.32-2.49,10.65-4.23,2.25,1.65,1.41,3.33.4,5L898.9,564l2.62,1c14.23,5.29,27,12.88,37.59,23.92,1.06,1.12,2.13,2.95,3.34,3.06a37.61,37.61,0,0,0,8.64-.56c.58-.07,1.14-1.05,1.52-1.72a62,62,0,0,0,7.81-38.92c-.23-1.89-.12-11.41-5.45-17.22a114.41,114.41,0,0,0-26.16-21.69c-13.34-7.86-26.74-15.62-40.31-23.07-2.52-1.39-6-1.36-9-1.5a102.05,102.05,0,0,0-10.48.37,11.79,11.79,0,0,1-9.2-3.47c-7.65-7.19-15.49-14.15-23.17-21.3-2.56-2.39-5-2.66-8-.86-3.16,1.91-6.53,3.48-9.67,5.4a5.36,5.36,0,0,0-1.57,2.72c-1.36,3.81-2.62,7.65-4.12,12.1,32.11,15.95,61.07,38.21,94.41,53.61Z" style="fill: rgb(255, 255, 255);"/>
  <path class="cls-2" d="M1007.21,634.79c-9.74.56-19.54.29-29.32.86l47.46,2.82C1019.51,636,1013.68,634.41,1007.21,634.79Z"/>
  <path class="cls-2" d="M1002.51,630.83c-5.47-2-10.89-3.64-17-3.7s-12.2,3-17.75,5l37-.45C1004,631.37,1003.14,631.06,1002.51,630.83Z"/>
  <path class="cls-2" d="M1174.54,659.58a78.12,78.12,0,0,0-8.87-1.47c-3.22-.33-5.27-2-5.89-5-1.16-5.64-4.79-7-10.22-8.85a38.69,38.69,0,0,0-7-1.66c-3.12-.46-5-.06-6.8,2.16s-1.58,6.74-.36,7.28,2.14-1.12,2.71,0c-1.3,3-3.71,3.87-6.64,3.42a28.74,28.74,0,0,1-2.94-.55q-36.94-9.75-73.88-19.55c-10.81-2.88-21.64-5.71-32.33-9-10.51-3.2-20.83-7-31.29-10.31a10.26,10.26,0,0,0-5.83-.18c-12.22,3.91-24.8,4-37.41,3.91-1.4,0-2.8,0-4.2,0-4.23.11-4.68,1-7.36,5.56,3.85.18,7.5.16,10.9.11,13-.16,26-.71,39-.75a33.23,33.23,0,0,1,10.73,1.95c24.8,8.54,50.25,14.68,75.69,20.85,14.17,3.44,28.37,6.8,42.64,9.73,14.66,3,29.48,5.23,44.13,8.29a25.21,25.21,0,0,0,14.59-1.24c3.28-1.22,6.84-2,10.05-3.34,1.47-.62,5-3.76,4.37-5A15.74,15.74,0,0,1,1174.54,659.58Z"/>
  <path class="cls-2" d="M1163.72,652.22c.66,1.67,1.41,3.06,3.27,3.25,4.44.45,8.42,1.28,12.87,1.65,3.2.26,5.63-1.82,6.53-5.54-5.58,6.72-12,3.22-18,2.64a4.25,4.25,0,0,1-2.57-2.11c-1.44-2.5-2.49-5.22-3.93-7.71-.61-1-3.51-1.8-5.45-2C1160.59,644.64,1162.36,648.81,1163.72,652.22Z"/>
  <path class="cls-2" d="M938.85,606.7c.36,4.85,4.13,5.12,8,5.79,11.51,2,23.27,5.15,34.54.5,6-2.49,10.81-1.66,16.21.43,4.94,1.91,10,3.47,15,5.13a6.25,6.25,0,0,0,2.63.34c9-1.09,18-2.27,27.09-3.34,1.67-.2,2-.95,2.13-2.52.35-3.71-6.42-10.35-7.31-11.52-3.25-4.34-6.09-5.54-11.32-5.16-3.58.27-9,.82-12.75.82,2.52-1.58,8.39-4.71,11-6.37-1.87-1.86-3.78-3.34-6.9-2.94-19.64,2.48-39.3,4.76-58.93,7.23-6.15.77-12.23,2-18.37,2.82a3.08,3.08,0,0,1-2.49-1c-3.13-4.64-7.6-7.82-12.35-10.26-10.19-5.24-20.66-9.94-30.95-14.82-4.79,7.48-8.86,14.12-13.23,20.55-2.58,3.8-10.63,15.12-12.16,16.84-1.21,1.34-3.07,2.79-4.73,2.92-7.87.58-15.77.77-23.66,1-6,.17-12,.19-18,.27-.6,0-1.2.05-1.8,0-1.58,0-3-.15-3.25-2.22s1.25-2.38,2.81-2.7c6.36-1.31,12.7-2.68,19.06-4,7-1.49,12.39-5.11,15.74-11.69,2.9-5.7,6.2-11.19,9.28-16.79,1.61-2.94,1.58-5.38-.83-8.34-10.46-12.84-23.72-21.52-39-27.34-6.63-2.52-13.2-5.21-19.89-7.55a111.22,111.22,0,0,0-49.35-5.52c-10.09,1.13-18.31-.89-26.14-6.63L711,507.58c-2.58-1.88-5.12-3.83-7.79-5.6a26.45,26.45,0,0,0-15.84-4.54c-20.65.65-39.71,6.59-57.49,16.93a11.33,11.33,0,0,0-1.18.91c.9.79,18.77,15.39,27,21.83a15.82,15.82,0,0,0,6.34,3c20.58,4.12,40.07,11.17,58,22a108,108,0,0,1,16.8,12.9c6.69,6.16,8.84,14.3,7.82,23.25a74.28,74.28,0,0,1-2,10c-.27,1.09-1.47,2.94-2.63,3s-1.75-2.27-1.9-3.4c-.77-5.94-4.43-10.11-7.83-15.16-7.7,5.33-14.89,10.74-22.51,15.46-10.51,6.52-21.3,12.62-32.08,18.71-8,4.5-16.7,3.86-25.43,3.25-14.87-1-28.67-6-42.58-10.78-10.47-3.58-20.94-7.25-31.61-10.14-11.12-3-21.63-.79-31,6.06-5.32,3.9-10.53,8-15.77,12-1.87,1.43-2,3.06.06,4.3,3.3,2,6.68,4,10.16,5.73,1.45.72,2.29,1.42,2.11,3.07-.33,2.94,1.57,4.14,3.84,5.37,10.28,5.61,21.42,6.35,32.82,6.45q33,.28,65.95,1.24c8.36.25,16.71,2.29,25,2.12,13.07-.26,26.11-1.84,39.17-2.61,16-.94,31.93-2,47.9-2.2,6.49-.09,13.07,1.62,19.5,3,14.79,3.18,29.45,2.78,44.35.46,18.24-2.84,35.16-9.9,52.69-15,8.45-2.45,17-4.64,25.27-7.52,12.43-4.31,23.16-11.19,30.92-22.16a28,28,0,0,1,5.14-5.45c.72-.59,2.31-.29,3.43-.11C938.68,604.18,938.8,606,938.85,606.7ZM560.09,626c-.57.34-2.4.05-3.32-.27a13.2,13.2,0,0,0-13.52,2.38c-.31.25-.69.59-1,.57-.81,0-1.86.14-2.42-.4s.12-2,.63-2.35c2.85-2.15,5.7-4.45,9.72-3.43a48.4,48.4,0,0,1,7.54,1.78C558.64,624.56,560.92,625.53,560.09,626Zm199-19.94c-.37,1.13-.66,2-1.11,3.19-.31.8-1,2.21-2,2s-.85-3.68-.85-4.37c.05-4.48.71-9.06,0-13.43-2.65-16.44-9.71-30.13-25.45-37.9-.72-.35-2.12-1.3-2-1.79s2.1-.14,2.93.14a60.6,60.6,0,0,1,9.42,4C757.35,567.19,765.71,586.09,759.08,606.08Z" style="fill: rgb(255, 255, 255);"/>
  <path class="cls-3" d="M679,776.31c17.79,14.39,23,34.57,24.57,56.28.63,8.65,1.2,17.32,1.66,26a33.18,33.18,0,0,1-.28,8.28c-1.39,6.92-6.86,11.37-14,11.83-6.64.44-12.45-2.77-14.39-9.47-1.72-5.91-2.14-12.24-2.73-18.42-.91-9.66-1.28-19.38-2.27-29a54.13,54.13,0,0,0-2.83-12.13c-4.62-13.34-15.79-19.3-29.4-15.93-2.64.65-5.26,1.43-9,2.45.18,12.17.32,24.21.55,36.25.12,6.59.46,13.18.54,19.78a34,34,0,0,1-.59,8.26,15.07,15.07,0,0,1-14,12c-7.31.3-13.6-4-15.31-11.51a73,73,0,0,1-1.44-15.5c-.37-34.71-.69-69.41-.76-104.12,0-8.29,1.05-16.58,1.52-24.87.73-13.16,10-20.55,20.51-23.33,22.15-5.83,44.3-3.63,64.16,8.85,19.08,12,23.65,35.92,10.67,54.7C691.59,763.39,685.4,769.11,679,776.31Zm-52.32-62.94,3.47,51.76c16.42-1,28.87-8.82,39.56-19.45,9.57-9.52,8.15-18.61-4.1-24.92C653.83,714.69,640.93,712.43,626.69,713.37Z" style="fill: rgb(255, 255, 255);"/>
  <path class="cls-3" d="M816.64,787.63c16,15.83,31,31,46.41,45.8,4.49,4.31,10,7.55,15,11.27,2.37,1.75,5.07,3.16,7.08,5.24A16.73,16.73,0,0,1,887,871.29c-4.43,6.07-12.79,9-19.72,4.51a157.87,157.87,0,0,1-26.55-21.3c-11.41-11.49-21.62-24.16-32.39-36.29-.43-.48-1.3-.57-2.84-1.2a73.93,73.93,0,0,0-1.6,8.14c-.93,10.66-1.63,21.35-2.52,32A56.76,56.76,0,0,1,800,867c-2,7.55-8.53,12.3-15.43,11.65a14.4,14.4,0,0,1-13.09-14.11,102.42,102.42,0,0,1,1.08-18.75c4.78-34.6,2.64-69.25,1.25-103.92a264.56,264.56,0,0,1,1.09-34.24c.75-8.2,4-18.6,10.45-18.6s10.88,9.33,11.52,16.11c1,11,1.94,22.06,3,33.08.38,3.94,1.06,7.86,1.78,13.07,2.72-1.79,4.63-2.68,6.07-4,13.84-13.27,27.66-26.57,38.51-42.57a48.46,48.46,0,0,1,7.18-8.41c6.88-6.35,14.55-3.81,16,5.48a29.37,29.37,0,0,1-.52,12,94.44,94.44,0,0,1-21.55,39.38q-13.49,14.65-26.93,29.35C819.2,783.84,818.26,785.42,816.64,787.63Z" style="fill: rgb(255, 255, 255);"/>
  <path class="cls-3" d="M184.51,732.71c-5.88,1.91-9.77-3.45-12.45-8.19a70.5,70.5,0,0,0-7.17-10.77c-13-15.52-34.33-6.77-40.25,6.59-2.69,6.07-.85,11.53,5.94,15.24,7.88,4.31,16.15,7.93,24.24,11.86,16.24,7.89,30,18.4,38.15,35.15,10.16,21,10.75,42.57,2.25,63.9-9.94,25-34.26,36.66-60.9,30.7-32.7-7.32-52.3-36.34-46.71-69.46a23.45,23.45,0,0,1,3.52-8.91,14.31,14.31,0,0,1,26.18,8.37c0,3.21-.85,6.41-1,9.63-.79,17.12,8.66,29,25.42,32.18,12.72,2.39,22.11-2.49,26.67-14.59,6.73-17.82,4.39-41.62-15.24-55-8-5.46-16.94-9.55-24.92-15a124.26,124.26,0,0,1-19.85-16.31c-10.68-11.23-11.48-24.47-4.59-38,8.26-16.19,21.52-26.42,39.7-28,17.06-1.43,30.73,6.31,40.6,20.22A42.69,42.69,0,0,1,189.63,714C191.86,720.92,190.39,730.81,184.51,732.71Z" style="fill: rgb(255, 255, 255);"/>
  <path class="cls-3" d="M1295.54,738.63c-5.86,2.36-9.37-3.31-12-7.86a67.65,67.65,0,0,0-6.87-10.33c-12.53-14.9-33-6.5-38.63,6.32-2.58,5.82-.81,11.06,5.7,14.62,7.57,4.14,15.5,7.61,23.26,11.38,15.58,7.57,28.83,17.66,36.61,33.73,9.74,20.13,10.31,40.84,2.16,61.31-9.54,23.93-32.88,35.17-58.44,29.45-31.38-7-50.18-34.87-44.81-66.64a22.29,22.29,0,0,1,3.38-8.55,13.72,13.72,0,0,1,25.11,8c0,3.08-.81,6.15-1,9.24-.76,16.43,8.31,27.86,24.4,30.88,12.19,2.29,21.2-2.39,25.59-14,6.45-17.1,4.2-39.94-14.63-52.77-7.68-5.23-16.25-9.16-23.91-14.42a119.06,119.06,0,0,1-19-15.65c-10.24-10.77-11-23.47-4.4-36.44,7.92-15.54,20.65-25.36,38.09-26.82,16.37-1.38,29.49,6,39,19.4a41.12,41.12,0,0,1,5.32,11.14C1302.59,727.31,1301.4,736.28,1295.54,738.63Z" style="fill: rgb(255, 255, 255);"/>
  <path class="cls-3" d="M1079.4,766.54c13.53,0,29,.19,37.55,0s20,2.15,20.34,12.21c.37,9.87-6.76,16.56-18.71,17.12-10.69.5-35.94,1.27-39.18,1.72.62,16.31.48,30.71,1.14,48,10.61-.76,43.85-1.53,49.37-2.09,9.47-1,17.42,2.08,19.07,10.35s-4.62,20.72-13.35,21.29-56.45,3.37-64,3.49c-8.25.13-22.78.74-24.34-12.23-1-7.83-.73-15.85-.46-23.76,1.4-40.4,2.75-80.8,4.72-121.17.38-7.66-.56-16,5.69-22.65,8.43-7,30.79-4.6,42-4.85,14.23-.31,28.42-2.26,42.65-3.24,10.56-.73,18.79,5.23,20.3,14.24s-4.58,17.44-15,19.56a92.75,92.75,0,0,1-18.93,1.4c-16.55-.13-32-1-49.4-1.37C1079.34,738.19,1078.83,751.66,1079.4,766.54Z" style="fill: rgb(255, 255, 255);"/>
  <path class="cls-3" d="M280.83,724.56c-9.74-.67-18.67-1.25-27.61-1.92-2.14-.16-4.27-.62-6.41-.9-4.84-.63-8.45-3.25-8.84-8a9.76,9.76,0,0,1,7.3-10.74c5.5-1.61,11.09-3.4,16.75-3.92,19.71-1.82,39.46-3.25,59.21-4.51a33.63,33.63,0,0,1,12.64,1.41c5.66,1.92,9.18,8.19,8.83,13.57-.37,5.62-4.35,11.3-10.28,12.54-6.64,1.4-13.54,1.62-20.33,2.25-2.79.25-5.61.24-9.07.37.35,9.12.8,18,1,26.85.38,17.27.95,34.55.79,51.82-.17,18.73-1,37.46-1.71,56.18a35.64,35.64,0,0,1-1.71,10.56c-2,5.6-6.52,8.49-12.49,8.65a12.9,12.9,0,0,1-13.11-9.34,33.9,33.9,0,0,1-1.29-10.66c1.37-43.9.16-87.94,6.79-131.57A9.89,9.89,0,0,0,280.83,724.56Z" style="fill: rgb(255, 255, 255);"/>
  <path class="cls-3" d="M980.68,721a87.85,87.85,0,0,0-.75-16.14A15.42,15.42,0,0,0,965,691.66a17.31,17.31,0,0,0-3,.16,4.61,4.61,0,0,0-.92-.17,4.55,4.55,0,0,0-2.84,1.2,15.35,15.35,0,0,0-8.74,9.77,30.78,30.78,0,0,0-1.75,9.5q.15,36.66.39,73.32-.24,36.66-.39,73.32a30.9,30.9,0,0,0,1.75,9.51,15.4,15.4,0,0,0,8.74,9.77,34.19,34.19,0,0,0,7.07.68c7.45-.32,13.38-5,14.57-12.65a87.81,87.81,0,0,0,.75-16.14C980.08,830.34,980.08,740.54,980.68,721Z" style="fill: rgb(255, 255, 255);"/>
  <path class="cls-4" d="M444.83,642.43c-4.51-3-9.14-6.86-13.68-10.47-.47-.37-1-.66-1.43-1.07s-1.22-1-.7-1.73c.31-.43,1.08-.12,1.7.23,2.6,1.46,12.68,8.34,14.83,7a41.73,41.73,0,0,1,1.54-6.63,41.66,41.66,0,0,0-4.35-2.91c-9.52-6.39-30.05-9.85-31.1-8.47s17,27.1,33.91,32.44A77.88,77.88,0,0,1,444.83,642.43Z" style="fill: rgb(244, 147, 2);"/>
  <path class="cls-4" d="M418,714.47c-3.52,7.66-6.68,15.47-10.13,23.16h0l-1.5,3.37h0c-2.76,7.55-6,14.92-8.48,22.56-5.4,16.39-10.33,32.89-11.69,50.2-.9,11.46,2.57,21.4,11.06,29.4a6.83,6.83,0,0,0,6.87,1.66,39.54,39.54,0,0,0,12.9-6.06c3.85-2.63,6.17-2.24,9.37,1.22,5.75,6.24,11.78,12.14,19.19,16.49a36.39,36.39,0,0,0,12,4.29c5.44,1,10.15-1.65,14.6-4.19,12.41-7.1,17.06-18.54,17.45-32.29.43-15.29-2.18-30.18-5.28-45-2.2-10.54-4.08-21.15-6-31.74-4.25-23.24-27.7-80.35-33.31-86C436.73,679.82,426.22,696.55,418,714.47Zm29.68,97.63c-2.1,1.2-4.33,2.46-6.9,2a17.25,17.25,0,0,1-5.68-2,40.75,40.75,0,0,1-9.07-7.79c-1.51-1.64-2.6-1.82-4.42-.58a18.59,18.59,0,0,1-6.09,2.86,3.24,3.24,0,0,1-3.25-.78A16.44,16.44,0,0,1,407,791.88c.65-8.18,23.89-63.27,27.81-71.92,2.65,2.66,21.27,69.67,21.07,76.89C455.7,803.34,453.51,808.75,447.65,812.1Z" style="fill: rgb(244, 147, 2);"/>
  <path class="cls-4" d="M456.11,645.52c1.89-5.56,4.42-13.17,4.55-13.66s.64-2,1.3-1.75.65,1.44.56,2.63c-.2,3.26-2.89,12.35-3.23,13.73,7.83-2.58,11-6.75,11.76-15,.8-8.91-1.17-17.18-3.6-25.51-.58-2-1.32-1.8-2.5-.47-8.19,9.19-14.08,19.34-14.71,32.12-.19,3.92-.65,8.44-.72,12.39C453.85,648.79,455.88,646.42,456.11,645.52Z" style="fill: rgb(244, 147, 2);"/>
  <path class="cls-5" d="M740.1,557.93a60.6,60.6,0,0,0-9.42-4c-.83-.28-2.76-.64-2.93-.14s1.23,1.44,2,1.79c15.74,7.77,22.8,21.46,25.45,37.9.71,4.37.05,9,0,13.43,0,.69-.13,4.2.85,4.37s1.66-1.23,2-2c.45-1.18.74-2.06,1.11-3.19C765.71,586.09,757.35,567.19,740.1,557.93Z"/>
  <path class="cls-5" d="M557.7,624.3a48.4,48.4,0,0,0-7.54-1.78c-4-1-6.87,1.28-9.72,3.43-.51.38-1.18,1.81-.63,2.35s1.61.37,2.42.4c.33,0,.71-.32,1-.57a13.2,13.2,0,0,1,13.52-2.38c.92.32,2.75.61,3.32.27C560.92,625.53,558.64,624.56,557.7,624.3Z"/>
  <path class="cls-5" d="M524.31,635.57c-1.68,2-8.91,3.14-9.21,3.95s5.84.24,8.47-.61C525.44,638.31,525.88,636.84,524.31,635.57Z"/>
  <path class="cls-5" d="M1187.28,653.92c.4-1.65,2.31-5.08,1.23-5.65s-1.89-.28-2.72.82c-2.3,3.09-5.2,3.55-8.87,3.59-5.32.07-8.77-2.19-10.6-6.78s-5.29-6.34-9.89-6.8c-3.87-.38-7.69-1.23-11.56-1.47-6.51-.4-11.27,2.55-14.45,8.29-9.66.51-71.22-11.4-80.45-16l11.29,1.61a25.52,25.52,0,0,0,.34-3c0-3.9.33-7.87-.31-11.66a16.46,16.46,0,0,0-3.61-7.94c-4.91-5.5-10.25-10.65-15.65-15.68-1-.92-3.16-1-4.7-.81-4.15.51-8.66.8-12.78,1.53-.08-.27,8.78-3.15,13.56-4.77-3.65-3.72-6.65-7.07-10-10a5.92,5.92,0,0,0-4.43-.87c-17.4,3.07-34.78,6.29-52.37,9.16q8.32-4.89,16.64-9.77c1.47-.85,3-1.59,4.47-2.44,4.86-2.82,5.26-3.67,4.48-9.91a35.77,35.77,0,0,0-3.57.83c-1.11.37-2.14.66-3.5,1a44.07,44.07,0,0,0,4.63-4.53,6.38,6.38,0,0,0,1.54-4.06c-2-17.55-4.29-35.08-6.36-52.64a6.27,6.27,0,0,0-2.83-4.88c-17.07-12-34.22-24-51.08-36.3-9.43-6.9-18.34-14.52-27.52-21.76-3-2.35-6-4.6-9.13-6.79-2.4-1.7-4.24-1.48-5.9,1-2.4,3.61-4.52,7.41-7.14,11.13,1.09-3.83,2.25-7.64,3.23-11.49.5-2,1.69-4.8.84-5.87a34.29,34.29,0,0,0-8.34-7.08c-.66-.42-3,1.05-4.08,2.13-5.83,5.86-11.51,11.86-17.85,18.46.54-4.77.8-8.88,1.5-12.91,1.27-7.38,2.79-14.71,4.21-22.07.21-1.08.51-2.15.63-3.23.19-1.75.24-3.87-1.91-4.06a4.59,4.59,0,0,0-3.59,2.26c-2.79,6.29-5.25,12.72-7.83,19.11-.4,1-1.18,2.7-1.82,4.29a7,7,0,0,1-.1-2.15c-1-9-2.17-18-3.06-27.07-.69-6.95-1-13.94-1.59-20.9-.17-2.09.56-5-2.31-5.47s-3.09,2.63-3.75,4.57c-1.75,5.21-3.29,10.48-4.93,15.72-.29.92-.67,1.81-.79,2.14-1.07-1.15-2.11-3.26-3.3-3.34-2.39-.17-2.93,2.23-3.33,4.24-.25,1.28-.46,2.56-.69,3.84a518.75,518.75,0,0,1-15.81,61.37c-1.76,5.6-4.3,10.95-6.54,16.56-3.05-1.3-6.23-2.44-9.19-4-2.2-1.16-3.95-.71-5.9.34-4.84,2.61-9.71,5.15-14.58,7.69-.51.27-2.63,1.17-3.55.8,4.92-3.72,11.39-8.21,16.31-11.93-2.61-3.4-5.58-4.31-9.08-2.62-4.85,2.36-9.61,4.91-14.43,7.33a32.39,32.39,0,0,1-5.29,1.76c4.66-3.39,11-7.84,15.8-11.35a7,7,0,0,0-7.09-2.24c-9.69,2-19.38,4-29,6.22-4.65,1.09-9.15,2.79-14.1,4.33a89.5,89.5,0,0,0-2.17-9.3c-2-5.83-4.11-11.67-6.65-17.28-1.66-3.66-3.32-3.47-6-.38-4.6,5.38-9.17,10.79-14.09,15.87a34.62,34.62,0,0,1-8.51,6.13c-1-3.68-1.84-6.78-2.58-9.92-3.22-13.73-10.77-24.8-21-34.19a28.72,28.72,0,0,0-5-3.77c-1-.57-2.66-.95-3.53-.48s-1.31,2.08-1.36,3.22c-.55,10.95-1.65,34-1.9,35.33-1-1.9-1.64-3.09-2.23-4.31A137.17,137.17,0,0,0,609.11,405a10.79,10.79,0,0,0-2.87-1.07c-.23,1.1-.82,2.28-.62,3.29,2.29,11.46,7.54,37.21,7.86,39.25-5.09-6.18-9.6-12-14.45-17.47-7.67-8.68-15.43-17.3-23.44-25.66-2.93-3.07-6.64-5.44-10.13-7.94a3.85,3.85,0,0,0-3.2-.39c-.52.22-.82,2-.55,2.88,2.27,7.34,4.69,14.62,7.08,21.92a9.75,9.75,0,0,1,.82,3.35,18.29,18.29,0,0,1-1.82-2.25c-4.54-7.75-9.15-15.45-13.5-23.31-4-7.16-7.52-14.55-11.5-21.7-.85-1.53-2.51-4.2-4.16-3.71s-2.12,3.84-2.1,5.76c.08,9.43,3.46,18.2,6.39,27,7.11,21.28,16,41.71,28.42,60.58,10.33,15.75,23.42,28.81,37.88,40.57,15,12.17,30.26,23.92,45.48,35.77a11.7,11.7,0,0,0,4.76,2.19c21.28,4.2,41.42,11.36,60,22.7,3.14,1.92,6.14,4.08,9.07,6-9.31,16.66-21.24,30.55-37.28,40.57-8.68,5.43-17.87,10.1-27.91,12.13-5.14,1-10.75.24-16.08-.35a90.33,90.33,0,0,1-15.56-3.05c-15.6-4.62-31.1-9.58-45.78-14.14-1.08-1.34-1.16-3-2.53-3-13.35-.61-26.92-2.36-38.76,6.27-6.86,5-13.59,10.18-20.51,15.1a30.07,30.07,0,0,1-8.3,4.59c-14.43,4.44-28.91,8.72-43.4,13,7.9-8.64.73-38.19-2.17-42.2-1.28-1.78-2.69-2.9-4.67-1-5.49,3.75-9,9.17-12.32,14.75a74,74,0,0,0-5.07,11.3c-7.21-6.92-16.12-9.46-25.33-11.33a39.92,39.92,0,0,0-11.9-.29c-3.11.31-3.79,1.55-2.54,4.45,6.15,14.24,14.7,26.33,29.2,33a13.16,13.16,0,0,1,2,.9l-15.51,4.47a6.53,6.53,0,0,0-1.94.72,2,2,0,0,0-.73,1.42c0,.31.64.83,1,.88a15.59,15.59,0,0,0,3,0c4.63-.27,8.76-.68,13.39-.94-.13.35-.43,1-1.2,2.54C432.39,673,426.27,683,421.25,693.65c-3.87,8.19-36.77,70.41-41,105.21-.88,7.33-2.4,14.54-1.59,22,2.89,26.62,15.43,46.28,40.62,57,10.11,4.31,20.31,8.34,31.29,9.55,17.73,2,34.44-2.31,50.45-9.51,27.78-12.51,40.13-35.17,41.73-64.71.06-1,.14-2,.21-3a114.27,114.27,0,0,0-1.68-16.71c-4.32-21.59-16.71-39.37-27-58.22a437,437,0,0,0-31.56-49.17c-5.47-7.46-20.56-25.49-21.84-27,12.92-.75,24.66-1.65,37.59-2.42,12-.72,23.92-1.93,35.89-2.25,7-.19,13.93,1.2,20.91,1.41q37.3,1.13,74.63,1.89c11.51.24,23,.48,34.11,4,1.78.57,3.66,1.27,5.24-.66.29-.34,1.1-.32,1.67-.36,12.36-.95,24.71-2,37.08-2.8,14.76-1,29.53-2.25,44.31-2.45,7.39-.09,14.82,1.85,22.21,3,7,1.08,13.95,2.72,21,3.4a107.9,107.9,0,0,0,34.57-2.62c23.36-5.41,46.53-11.61,69.7-17.78,14.11-3.76,28.28-6.2,42.94-5.37,23.64,1.34,47.29,2.5,70.94,3.77,5.59.31,11.16.93,16.74,1.08,7.69.19,15,2.2,22.36,4.09,18.67,4.79,37.28,9.93,56.1,14.09,18.61,4.11,37.44,7.2,56.19,10.68a7.67,7.67,0,0,0,3.78-.21,180.21,180.21,0,0,0,17-6.57c4.51-2.16,7.06-10.48,6.33-11.05S1188.67,653.61,1187.28,653.92Zm-25.39-9.52c1.44,2.49,2.49,5.21,3.93,7.71a4.25,4.25,0,0,0,2.57,2.11c6,.58,12.42,4.08,18-2.64-.9,3.72-3.33,5.8-6.53,5.54-4.45-.37-8.43-1.2-12.87-1.65-1.86-.19-2.61-1.58-3.27-3.25-1.36-3.41-3.13-7.58-7.28-9.79C1158.38,642.6,1161.28,643.35,1161.89,644.4Zm-48.76,2.05c4.93.64,9.86,1.24,14.77,2,.57.09,3.61,1.06,3.78,2.82-.65.2-3.63-.51-4.2-.64-4.83-1.17-14.78-3.42-19.59-4.67C1107.92,645.81,1113.1,646.61,1113.13,646.45ZM817.38,470.2a5.36,5.36,0,0,1,1.57-2.72c3.14-1.92,6.51-3.49,9.67-5.4,3-1.8,5.47-1.53,8,.86,7.68,7.15,15.52,14.11,23.17,21.3a11.79,11.79,0,0,0,9.2,3.47,102.05,102.05,0,0,1,10.48-.37c3,.14,6.48.11,9,1.5,13.57,7.45,27,15.21,40.31,23.07A114.41,114.41,0,0,1,955,533.6c5.33,5.81,5.22,15.33,5.45,17.22a62,62,0,0,1-7.81,38.92c-.38.67-.94,1.65-1.52,1.72a37.61,37.61,0,0,1-8.64.56c-1.21-.11-2.28-1.94-3.34-3.06-10.58-11-23.36-18.63-37.59-23.92l-2.62-1L911,543.45c1-1.71,1.85-3.39-.4-5-3.33,1.74-10.43,4.56-10.65,4.23l7.68-6.73c-33.34-15.4-62.3-37.66-94.41-53.61C814.76,477.85,816,474,817.38,470.2ZM450.24,637.64c.63-12.78,6.52-22.93,14.71-32.12,1.18-1.33,1.92-1.52,2.5.47,2.43,8.33,4.4,16.6,3.6,25.51-.74,8.22-3.93,12.39-11.76,15,.34-1.38,3-10.47,3.23-13.73.09-1.19.1-2.43-.56-2.63s-1.17,1.26-1.3,1.75-2.66,8.1-4.55,13.66c-.23.9-2.26,3.27-6.59,4.51C449.59,646.08,450.05,641.56,450.24,637.64Zm-38.6-19.24c1.05-1.38,21.58,2.08,31.1,8.47a41.66,41.66,0,0,1,4.35,2.91,41.73,41.73,0,0,0-1.54,6.63c-2.15,1.32-12.23-5.56-14.83-7-.62-.35-1.39-.66-1.7-.23-.52.72.23,1.27.7,1.73s1,.7,1.43,1.07c4.54,3.61,9.17,7.46,13.68,10.47a77.88,77.88,0,0,0,.72,8.41C428.67,645.5,410.59,619.78,411.64,618.4Zm66.69,129.09c1.94,10.59,3.82,21.2,6,31.74,3.1,14.87,5.71,29.76,5.28,45-.39,13.75-5,25.19-17.45,32.29-4.45,2.54-9.16,5.2-14.6,4.19a36.39,36.39,0,0,1-12-4.29c-7.41-4.35-13.44-10.25-19.19-16.49-3.2-3.46-5.52-3.85-9.37-1.22a39.54,39.54,0,0,1-12.9,6.06,6.83,6.83,0,0,1-6.87-1.66c-8.49-8-12-17.94-11.06-29.4,1.36-17.31,6.29-33.81,11.69-50.2,2.52-7.64,5.72-15,8.48-22.56h0l1.5-3.37h0c3.45-7.69,6.61-15.5,10.13-23.16,8.25-17.92,18.76-34.65,27-53C450.63,667.14,474.08,724.25,478.33,747.49Zm56.57-96.62c-.8,1.2-17.68,2.09-21.45,2.52-13.59,1.56-27.31,2-41,3.12-7.35.61-14.73.74-22.1,1.09a5.75,5.75,0,0,1,3.11-1.24c5.22-.87,10.43-1.83,15.66-2.58q19.13-2.73,38.26-5.28c5.29-.69,22.44-4.1,28-4.66C536.24,644.45,535.7,649.68,534.9,650.87Zm-63.91.36c-1.88.27-3.75.59-5.63.88a50,50,0,0,0,3.7-3.73c4.71-1.28,9.44-2.54,14.15-3.83,13.47-3.7,26.91-7.5,40.39-11.17a4.71,4.71,0,0,1,3.3.23c2.27,1.38,6.62,6,9,7.79C530.26,643.23,486.21,649.08,471,651.23Zm463.39-47.08a28,28,0,0,0-5.14,5.45c-7.76,11-18.49,17.85-30.92,22.16-8.29,2.88-16.82,5.07-25.27,7.52-17.53,5.07-34.45,12.13-52.69,15-14.9,2.32-29.56,2.72-44.35-.46-6.43-1.38-13-3.09-19.5-3-16,.21-31.94,1.26-47.9,2.2-13.06.77-26.1,2.35-39.17,2.61-8.33.17-16.68-1.87-25-2.12q-33-1-65.95-1.24c-11.4-.1-22.54-.84-32.82-6.45-2.27-1.23-4.17-2.43-3.84-5.37.18-1.65-.66-2.35-2.11-3.07-3.48-1.73-6.86-3.68-10.16-5.73-2-1.24-1.93-2.87-.06-4.3,5.24-4,10.45-8.05,15.77-12,9.35-6.85,19.86-9.08,31-6.06,10.67,2.89,21.14,6.56,31.61,10.14,13.91,4.76,27.71,9.76,42.58,10.78,8.73.61,17.45,1.25,25.43-3.25,10.78-6.09,21.57-12.19,32.08-18.71,7.62-4.72,14.81-10.13,22.51-15.46,3.4,5.05,7.06,9.22,7.83,15.16.15,1.13.73,3.49,1.9,3.4s2.36-2,2.63-3a74.28,74.28,0,0,0,2-10c1-8.95-1.13-17.09-7.82-23.25a108,108,0,0,0-16.8-12.9c-17.95-10.86-37.44-17.91-58-22a15.82,15.82,0,0,1-6.34-3c-8.28-6.44-26.15-21-27-21.83a11.33,11.33,0,0,1,1.18-.91c17.78-10.34,36.84-16.28,57.49-16.93A26.45,26.45,0,0,1,703.24,502c2.67,1.77,5.21,3.72,7.79,5.6l17.89,13.09c7.83,5.74,16.05,7.76,26.14,6.63a111.22,111.22,0,0,1,49.35,5.52c6.69,2.34,13.26,5,19.89,7.55,15.32,5.82,28.58,14.5,39,27.34,2.41,3,2.44,5.4.83,8.34-3.08,5.6-6.38,11.09-9.28,16.79-3.35,6.58-8.7,10.2-15.74,11.69-6.36,1.33-12.7,2.7-19.06,4-1.56.32-3,.58-2.81,2.7s1.67,2.22,3.25,2.22c.6,0,1.2,0,1.8,0,6-.08,12-.1,18-.27,7.89-.22,15.79-.41,23.66-1,1.66-.13,3.52-1.58,4.73-2.92,1.53-1.72,9.58-13,12.16-16.84,4.37-6.43,8.44-13.07,13.23-20.55,10.29,4.88,20.76,9.58,30.95,14.82,4.75,2.44,9.22,5.62,12.35,10.26a3.08,3.08,0,0,0,2.49,1c6.14-.86,12.22-2,18.37-2.82,19.63-2.47,39.29-4.75,58.93-7.23,3.12-.4,5,1.08,6.9,2.94-2.63,1.66-8.5,4.79-11,6.37,3.74,0,9.17-.55,12.75-.82,5.23-.38,8.07.82,11.32,5.16.89,1.17,7.66,7.81,7.31,11.52-.15,1.57-.46,2.32-2.13,2.52-9,1.07-18.06,2.25-27.09,3.34a6.25,6.25,0,0,1-2.63-.34c-5-1.66-10.09-3.22-15-5.13-5.4-2.09-10.2-2.92-16.21-.43-11.27,4.65-23,1.51-34.54-.5-3.84-.67-7.61-.94-8-5.79-.05-.68-.17-2.52-1-2.66C936.69,603.86,935.1,603.56,934.38,604.15Zm43.51,31.5c9.78-.57,19.58-.3,29.32-.86,6.47-.38,12.3,1.22,18.14,3.68Zm-10.08-3.52c5.55-2,11.58-5.07,17.75-5s11.48,1.71,17,3.7c.63.23,1.52.54,2.31.85ZM1183.92,661c-3.21,1.35-6.77,2.12-10.05,3.34a25.21,25.21,0,0,1-14.59,1.24c-14.65-3.06-29.47-5.27-44.13-8.29-14.27-2.93-28.47-6.29-42.64-9.73-25.44-6.17-50.89-12.31-75.69-20.85a33.23,33.23,0,0,0-10.73-1.95c-13,0-26,.59-39,.75-3.4,0-7,.07-10.9-.11,2.68-4.57,3.13-5.45,7.36-5.56,1.4,0,2.8,0,4.2,0,12.61.08,25.19,0,37.41-3.91a10.26,10.26,0,0,1,5.83.18c10.46,3.33,20.78,7.11,31.29,10.31,10.69,3.25,21.52,6.08,32.33,9q36.93,9.85,73.88,19.55a28.74,28.74,0,0,0,2.94.55c2.93.45,5.34-.44,6.64-3.42-.57-1.1-1.5.55-2.71,0s-1.54-5,.36-7.28,3.68-2.62,6.8-2.16a38.69,38.69,0,0,1,7,1.66c5.43,1.85,9.06,3.21,10.22,8.85.62,3.07,2.67,4.69,5.89,5a78.12,78.12,0,0,1,8.87,1.47,15.74,15.74,0,0,0,13.75-3.63C1188.93,657.2,1185.39,660.34,1183.92,661Z"/>
  <path class="cls-5" d="M407,791.88a16.44,16.44,0,0,0,5.23,13.89,3.24,3.24,0,0,0,3.25.78,18.59,18.59,0,0,0,6.09-2.86c1.82-1.24,2.91-1.06,4.42.58a40.75,40.75,0,0,0,9.07,7.79,17.25,17.25,0,0,0,5.68,2c2.57.48,4.8-.78,6.9-2,5.86-3.35,8.05-8.76,8.24-15.25.2-7.22-18.42-74.23-21.07-76.89C430.9,728.61,407.66,783.7,407,791.88Z"/>
</svg>