<?xml version="1.0" encoding="utf-8"?>
<svg id="Layer_1" data-name="Layer 1" viewBox="396.359 209.603 607.262 980.845" xmlns="http://www.w3.org/2000/svg">
  <defs>
    <style>.cls-1{fill:#f2f2f2;}</style>
  </defs>
  <path d="M841,605.69c-29-29.44-59.11-57.91-90.38-88.28l8.77-.41c38.06-7.75,66.52-29.43,86.46-61.85C856.3,438.2,863.07,419,873,401.72c17.73-31,36.87-61.21,54.73-92.14,4.59-8,11.24-19.36,8.57-25.6-2.8-6.54-15.37-11.41-24.18-12.4-30.38-3.42-61-5.59-91.51-6.68-16.89-.61-34.62-.75-50.63,3.71s-34,37.44-64.84,61.93c-6.39-35.14-44.38-42.24-75.27-36.92s-33,6-45.79,14.56C563.81,256,478.18,224.89,435.67,211.81c-19.32-5.94-25.54-.1-27.59,20.05-3.52,34.49-5.67,69.16-10.19,103.52-7.84,59.52,14.79,106.84,59.52,143,24.37,19.68,53.2,34.19,81.1,49l4.78-.22c3.44,4.07,4.05,9,.7,16.94-12.15,28.67-22.37,58.26-35.83,86.29-51.28,106.8-63.32,218.88-43.5,334.34,18.2,106.07,113.19,210.81,248,223.28,85.28,13.29,149.5-29.65,208.45-82.88,34.48-31.11,46-75.32,61.51-117.16,36.77-99,26.31-191.79-39.74-274.73C912.25,674.72,875.69,640.86,841,605.69ZM701.69,372c21.79-22.76,42.58-46.61,65.93-67.64,7.59-6.82,21.87-8.58,33.07-8.56,24.65.05,49.3,2.62,73.94,4.33,13.75,1,13.61,8,7.88,17.95-19.56,34.1-39.92,67.81-58.08,102.65-29,55.61-78.59,76.39-136.5,84-11,1.45-19.35-2.54-21.62-15.29-2.37-13.29-6.13-26.32-8.77-39.56-2.46-12.32,2.11-19.42,15.08-23,28.88-8.07,57.34-17.61,85.94-26.59,3.93-1.23,23.43-9.85,22.13-20.47-1-8-11.55-8.37-17.22-8.22-19.85.52-54.87,16.17-74.69,17.9C688,388,702.46,373.42,701.69,372Zm-134.33,3.3c8.52-18.46,13.84-35.86,36.21-49.71s73.95-12.4,81.66,1.43c4.77,8.56,6.28,14.27-1.42,21.3-31.67,28.9-22.73,26.27-39,44s-19.94,46.76-14.92,65.32c3.77,13.92,4.15,27.64,4.6,42.17a73.71,73.71,0,0,1-35.13,5.41c-10-.86-17.85-11.12-23.76-23-10.53-25.53-14.92-49.25-16-60.08C558.13,407.94,558.84,393.74,567.36,375.28Zm-79.44,88.13c-32.75-25.83-74.42-69.59-67.81-128.83,3.49-31.3,6.91-62.62,10.54-95.65,36.93,11.75,76,16.78,103.33,41.56,10.6,9.58,37.62,34.87,29.83,47.93-4.15,6.95-18.74,37.08-21.3,42.6-14.36-10.32-44.74-52.14-59-60.89-2.59-1.58-10-.89-8.91,6.83,9.05,31.16,32.75,59.91,55.12,82.55-2.63,19.46,18.72,64.56,31.41,95.33,4.53,10.11,5.06,16.24,2.4,21.83C546.37,508.23,520.67,489.24,487.92,463.41ZM956.49,898.3c-5,29.21-18.74,43-49,44-6.58.21-18,.36-23.89.12-7.07,26.79-7.34,51.25-15.68,75.33-11.18,32.28-22.92,65.76-54.14,84.47-12.6,7.55-46,14.72-59.51,12.46-91.21-15.37-160.65-44.66-182.69-137.46-24.05-101.24-19.4-209.6-4-313.63,6.06-40.88,25.42-119.8,26.87-118.69,10.27-4.7,20.31-10.08,30.93-13.71,3.95-1.35,10.52-.08,13.84,2.57,39,31.16,77.31,63.31,116.56,94.23C808,669.1,865.2,704.45,913.62,750.08,960.74,794.48,963.06,860,956.49,898.3Z"/>
  <path class="cls-1" d="M559.55,422.14c1.08,10.83,5.47,34.55,16,60.08,5.91,11.88,13.75,22.14,23.76,23a73.71,73.71,0,0,0,35.13-5.41c-.45-14.53-.83-28.25-4.6-42.17-5-18.56-1.42-47.57,14.92-65.32s7.38-15.12,39-44c7.7-7,6.19-12.74,1.42-21.3-7.71-13.83-59.29-15.27-81.66-1.43s-27.69,31.25-36.21,49.71S558.13,407.94,559.55,422.14Z" style="fill: rgb(255, 255, 255);"/>
  <path class="cls-1" d="M763.47,371.58c5.67-.15,16.24.2,17.22,8.22,1.3,10.62-18.2,19.24-22.13,20.47-28.6,9-57.06,18.52-85.94,26.59-13,3.62-17.54,10.72-15.08,23,2.64,13.24,6.4,26.27,8.77,39.56,2.27,12.75,10.61,16.74,21.62,15.29,57.91-7.65,107.51-28.43,136.5-84,18.16-34.84,38.52-68.55,58.08-102.65,5.73-10,5.87-17-7.88-17.95-24.64-1.71-49.29-4.28-73.94-4.33-11.2,0-25.48,1.74-33.07,8.56-23.35,21-44.14,44.88-65.93,67.64.77,1.44-13.68,16.06-12.91,17.5C708.6,387.75,743.62,372.1,763.47,371.58Z" style="fill: rgb(255, 255, 255);"/>
  <path class="cls-1" d="M561.14,494.84c-12.69-30.77-34-75.87-31.41-95.33-22.37-22.64-46.07-51.39-55.12-82.55-1.07-7.72,6.32-8.41,8.91-6.83,14.25,8.75,44.63,50.57,59,60.89,2.56-5.52,17.15-35.65,21.3-42.6,7.79-13.06-19.23-38.35-29.83-47.93-27.38-24.78-66.4-29.81-103.33-41.56-3.63,33-7,64.35-10.54,95.65-6.61,59.24,35.06,103,67.81,128.83s58.45,44.82,75.62,53.26C566.2,511.08,565.67,505,561.14,494.84Z" style="fill: rgb(255, 255, 255);"/>
  <path class="cls-1" d="M755.76,627.94C716.51,597,678.24,564.87,639.2,533.71c-3.32-2.65-9.89-3.92-13.84-2.57-10.62,3.63-20.66,9-30.93,13.71-1.45-1.11-20.81,77.81-26.87,118.69-15.38,104-20,212.39,4,313.63,22,92.8,91.48,122.09,182.69,137.46,13.47,2.26,46.91-4.91,59.51-12.46,31.22-18.71,43-52.19,54.14-84.47,8.34-24.08,8.61-48.54,15.68-75.33,5.9.24,17.31.09,23.89-.12,30.26-.93,44-14.74,49-44,6.57-38.28,4.25-103.82-42.87-148.22C865.2,704.45,808,669.1,755.76,627.94Zm52.3,236.72c-1.11-.4-7-4.21-7.83-5.22a54.39,54.39,0,0,0-1.3,8.7c-1.23,20.78-3.31,42.24-13.5,60.39s-30.6,32.15-51.1,28.54c-21.3-3.75-35.56-24.62-41.39-45.45-9.87-35.28-15.71-63.33-15.37-99.16.43-46.54,3-86.56,4.6-131.77a209.33,209.33,0,0,0,72.68,61c20.2,10.22,42.13,17.19,61,29.71s34.87,32.59,34.4,55.23S829.38,872.28,808.06,864.66Z" style="fill: rgb(255, 255, 255);"/>
  <path d="M815.84,771.38c-18.86-12.52-40.79-19.49-61-29.71a209.33,209.33,0,0,1-72.68-61c-1.56,45.21-4.17,85.23-4.6,131.77-.34,35.83,5.5,63.88,15.37,99.16,5.83,20.83,20.09,41.7,41.39,45.45,20.5,3.61,40.91-10.39,51.1-28.54s12.27-39.61,13.5-60.39a54.39,54.39,0,0,1,1.3-8.7c.8,1,6.72,4.82,7.83,5.22,21.32,7.62,41.71-15.42,42.18-38S834.7,783.91,815.84,771.38Z"/>
</svg>