<?xml version="1.0" encoding="utf-8"?>
<svg id="Layer_1" data-name="Layer 1" viewBox="141.793 300 3005.341 800" xmlns="http://www.w3.org/2000/svg">
  <defs>
    <style>.cls-1{fill:#373737;stroke:#000;stroke-miterlimit:10;stroke-width:13.21px;}</style>
  </defs>
  <path class="cls-1" d="M1252.66,689.85l.09-.21-.1-.08A2.71,2.71,0,0,1,1252.66,689.85Z"/>
  <path class="cls-1" d="M2004.35,528.52A18.08,18.08,0,0,0,2019,532a40.28,40.28,0,0,0,15.86-6.28,45.58,45.58,0,0,0,12.9-13,37.85,37.85,0,0,0,6.45-16.63,54.09,54.09,0,0,0-.8-18,66.33,66.33,0,0,0-6.37-18.48,41.92,41.92,0,0,0-11.1-13.5,18.63,18.63,0,0,0-15.08-3.85q-8.41,1.39-18.8,10.12a60.66,60.66,0,0,0-16.29,21.47,42.77,42.77,0,0,0-2.85,27.25Q1985.92,515.63,2004.35,528.52Z"/>
  <path class="cls-1" d="M527.86,489.64c24.5-251.27-394.23-190.8-325,49.25,28.19,97,120.72,147.74,174.05,227.41,78.06,73.14,39.73,310.09-85.73,234.51C254,966.47,228.35,900.16,261.91,856.19c-239.17-18.49,13.06,349,170.51,163.74,109-153.41,8.54-330.4-121-432.58-170.13-206.84,250-352.09,123-25.35,29.57,9.61,77.85-9,83.13-29S525.72,502.41,527.86,489.64Z"/>
  <path class="cls-1" d="M2716.63,865.06c-27.75-57.73-73.93-105.37-90.36-169.75C2662.13,655.12,2656,609,2597,617c-31.55,12.4-75.55,56.3-54.49,91.24,16.78,19.7-5.44,34.62-13,55.5-66.35,130.59-230.37,256.37-287.91,97,249-138.54,117.32-332.13-29.7-159.83-31.24,53.45-48.46,113.22-97.4,159-148.65,161.37-102-71.07-82.17-159.82,13-63,13.17-59.27-47.21-47.09-35,14.36-29,71.77-34.33,107.79-34.56,30.87-116.87,217.78-170.55,136.54,2.13-37.16,19.7-90.12-27.88-109.85,165.25-129.34-32.35-239.76-121.56-51.87,12.53-100.95,43.82-206.25,46-309.12,5.51-51.21-61.94-37.21-87.19-19.49,22.78,95.66-.92,224.33-5.9,320.94-18.6,30.94-30.1,54.49-50.3,85.46-25,37.61-103.71,151.18-141.47,78.39-8.35-62.67,76.49-113.67,41.35-176.58-24.58-65.58-59.27-32.4-104.23-48.75,25.73-40.45-14.45-127.92-65.93-87.3-22.49,22.9-46.21,73.38-22.26,100.49-38.28,31.94-84.15,69.63-133.38,87.2,6.08-89.45-88-185.1-174.57-139.27-66,47-48.38,125.34-106.45,197-31.4,38.74-102.63,121.09-128.27,32.83-33.53-115.41,24.86-186.57,42.65-323.87,4.18.08,76.81-10.67,85.76-10.95,10.6-.35,18.24-54.74,5.93-54.74-4,0-63.65,10.6-85.67,10.1,1-51.73,8.9-125.78-58.19-100.76-28.44,19.87-22.5,71.42-31.29,109.7-29.15,4.67-79.39,4.22-90.71,3.73-9.21,7.33-11.93,34.64-8.29,44.94s62.21,5.81,93.48,1.92c-4.34,109-61.1,245.57-27.34,347.76,47.36,143.37,199,29,248.71-64.61,12.94,177.74,225.83,161.14,233.93-10,50.57-17.6,101.33-60.57,136.72-98.06-2.55,28.51-113.11,252.37-54.26,231.35,45-63.35,76.16-162.7,112.62-232.73,18,8.34,38.58,9.89,58.34,7.54,51.35,29.66-38.86,120.88-30.3,169.41,46.72,176.72,208.25,14.51,245.89-81.68,4.36,52.23-57,183.9,39.49,146.56,3-53.82,5.08-107.41,9.22-159,95.47-160.75,184.31-99,94.34-18.18-100.65-32.47-64.07,113.45,2.15,44.52,11.79,12.65,14.22,32.08,8.58,48.16-15.07,41.74,2.2,105.31,55.79,105.42,82.6-4.5,130-97.36,165.07-162.92-.13,202,134.49,186.35,221.28,36.55,8.57,106.22,119.69,159,212.17,121.59,77.82-26.15,162.73-161.61,199.24-231,23.51,58.23,76.59,119.17,83.64,182.09-34.15,65.34-74.16-9.55-91.58-50.41-95.65,19.23-25.89,119.66,38,124.91C2671.56,994.88,2737.27,921.22,2716.63,865.06Zm-1680.49-9.77c-58.91,119-132.48-13.53-107.74-91.74,23.4,42.13,67.44,72.36,116.31,63.45A182,182,0,0,1,1036.14,855.29Zm14.69-75C991.94,792.72,950.47,742.85,956,688.5c47.64-71.8,96.83,1.15,96,59.09C1053.56,757.88,1051.47,768.77,1050.83,780.33Zm201.83-90.48a2.71,2.71,0,0,0,0-.29l.1.08Zm992.5,66.78c62-170,142.78-25.55-7.54,58Q2238.05,781.83,2245.16,756.63Z" style="paint-order: fill;"/>
  <path d="M 2974.646 719.154 C 2980.92 719.154 2985.482 717.9 2988.219 715.504 C 2990.957 713.222 2992.44 709.345 2992.44 703.87 C 2992.44 698.509 2990.957 694.745 2988.219 692.35 C 2985.482 690.069 2980.92 688.928 2974.646 688.928 L 2961.872 688.928 L 2961.872 719.154 L 2974.646 719.154 M 2961.872 740.027 L 2961.872 784.509 L 2931.532 784.509 L 2931.532 666.915 L 2977.841 666.915 C 2993.352 666.915 3004.644 669.538 3011.829 674.785 C 3019.129 679.918 3022.665 688.13 3022.665 699.422 C 3022.665 707.177 3020.839 713.565 3017.076 718.583 C 3013.312 723.488 3007.723 727.252 3000.081 729.533 C 3004.301 730.56 3007.952 732.727 3011.259 736.035 C 3014.567 739.342 3017.874 744.36 3021.183 751.205 L 3037.721 784.509 L 3005.443 784.509 L 2991.07 755.31 C 2988.219 749.494 2985.254 745.387 2982.288 743.334 C 2979.323 741.168 2975.331 740.027 2970.426 740.027 L 2961.872 740.027" style="fill: rgb(55, 55, 55); stroke: rgb(0, 0, 0); stroke-width: 9px;"/>
  <circle cx="2978.904" cy="721.096" r="121.096" style="stroke: rgb(0, 0, 0); stroke-width: 38px;" fill="none"/>
  <circle cx="2978.904" cy="721.096" r="121.096" stroke-width="20" style="stroke: rgb(55, 55, 55);" fill="none"/>
</svg>