<?xml version="1.0" encoding="utf-8"?>
<svg version="1.1" id="Layer_1" x="0px" y="0px" viewBox="168.649 260.779 251.577 170.933" style="enable-background:new 0 0 612 792;" xmlns="http://www.w3.org/2000/svg">
  <style type="text/css">
	.st0{fill:url(#SVGID_1_);}
	.st1{fill:url(#SVGID_2_);}
	.st2{fill:url(#SVGID_3_);}
	.st3{fill:url(#SVGID_4_);}
	.st4{fill:url(#SVGID_5_);}
	.st5{fill:url(#SVGID_6_);}
	.st6{fill:url(#SVGID_7_);}
	.st7{fill:url(#SVGID_8_);}
	.st8{fill:url(#SVGID_9_);}
	.st9{fill:url(#SVGID_10_);}
	.st10{fill:url(#SVGID_11_);}
	.st11{fill:url(#SVGID_12_);}
	.st12{fill:#FFFFFF;}
</style>
  <g id="v4_6_">
    <g>
      <g>
        <radialGradient id="SVGID_1_" cx="247.1972" cy="428.3751" r="3.7037" gradientTransform="matrix(1.4551 0 0 1.6253 -100.2998 -280.1336)" gradientUnits="userSpaceOnUse">
          <stop offset="0" style="stop-color:#6F2F92"/>
          <stop offset="1" style="stop-color:#4E2565"/>
        </radialGradient>
        <path class="st0" d="M257.37,411.56c-2.72,1.37-4.43,3.83-3.14,7c1.17,2.88,3.43,4.03,6.09,2.85c3.34-1.77,5.68-6.87,4.27-9.11 C262.74,409.32,259.85,410.31,257.37,411.56z M259.4,419.54c-0.39,0.16-0.75,0.25-1.08,0.25c-0.83,0-1.49-0.6-1.98-1.79 c-0.03-0.07-0.05-0.14-0.08-0.21c0.39,0.47,0.84,0.7,1.36,0.7c0.33,0,0.69-0.08,1.08-0.25c1.85-1.02,3.07-3.4,3.28-4.66 c0.24,0.11,0.47,0.32,0.7,0.68C262.94,415.13,261.63,418.31,259.4,419.54z"/>
        <radialGradient id="SVGID_2_" cx="350.0482" cy="365.7765" r="3.656" gradientTransform="matrix(1.4551 0 0 1.6253 -100.2998 -280.1336)" gradientUnits="userSpaceOnUse">
          <stop offset="0" style="stop-color:#6F2F92"/>
          <stop offset="1" style="stop-color:#4E2565"/>
        </radialGradient>
        <path class="st1" d="M412.75,318.51c2.22-1.19,2.76-3.87,1.52-6.7c-1.36-3.08-3.99-3.4-6.79-1.72c-2.6,1.56-5.08,3.56-4.01,7.16 C404.2,319.7,408.82,320.51,412.75,318.51z M405.54,315.95c0.42,0.17,1.06,0.32,1.9,0.32c0,0,0,0,0,0c1.21,0,2.49-0.31,3.62-0.88 c0.39-0.22,0.64-0.5,0.75-0.87c0.15-0.49,0.09-1.15-0.15-1.87c0.18,0.19,0.35,0.46,0.52,0.83c0.39,0.9,0.52,1.75,0.33,2.34 c-0.12,0.37-0.36,0.66-0.75,0.87c-1.13,0.57-2.41,0.88-3.62,0.88c0,0,0,0,0,0c-1.46,0-2.3-0.45-2.49-0.67 C405.56,316.58,405.51,316.27,405.54,315.95z"/>
        <radialGradient id="SVGID_3_" cx="271.2661" cy="385.4099" r="71.2448" gradientTransform="matrix(1.4551 0 0 1.6253 -100.2998 -280.1336)" gradientUnits="userSpaceOnUse">
          <stop offset="0" style="stop-color:#6F2F92"/>
          <stop offset="1" style="stop-color:#4E2565"/>
        </radialGradient>
        <path class="st2" d="M419.07,353.9c-1.8-3.9-5.21-4.71-9.09-3.51c-3.68,1.14-6.97,1.41-8.83-2.6c-1.73-3.73-1.91-7.46,1.41-10.89 c2.06-2.14,3.39-4.59,0.88-6.93c-2.48-2.32-4.29-0.36-5.91,1.91c-2.14,3-3.76,1.98-5.08-0.52c-1.89-3.6-0.02-5.66,2.9-7.78 c5.46-3.98,5.29-7.28-0.2-10.37c-0.41-0.23-0.81-0.47-1.21-0.72c-0.64-0.65-1.26-1.31-1.84-2.01c-2.49-3.01-2.19-5.37,0.46-8.09 c4.28-4.39,3.35-8.69-1.92-11.19c-3.82-1.81-6.49-0.59-7.5,3.49c-0.26,1.05-0.36,2.15-0.44,3.24c-0.2,2.56-0.34,5.47-3.44,5.54 c-3.11,0.07-5.39-1.95-6.54-5.16c-0.54-1.5-0.82-3.13-1.54-4.52c-2.34-4.47-6.57-6.13-10.76-4.08c-0.88,0.43-1.77,0.77-2.67,1.02 c1.52-3.56,1.36-7.7-0.52-11.24c-1.7-3.2-4.56-5.17-7.85-5.41c-2.12-0.16-3.91,0.44-5.26,1.09c-0.54-4.05-2.79-7.53-6.29-9.52 c-1.45-0.83-2.99-1.31-4.57-1.42c-2.84-0.21-5.6,0.76-8,2.8c-2.89,2.46-4.41,5.5-5.31,7.57c-1.19,2.76-2.18,5.61-2.96,8.5 c-3.52,0.32-5.89,1.8-7.44,3.36c-4.36,0.39-8.4,2.6-11.82,6.46c-1.68-0.64-3.27-1-4.9-1.12c-1.17-0.09-2.34-0.04-3.48,0.15 c-1.67,0.27-3.17,0.78-4.49,1.54c-0.49-0.35-1-0.66-1.53-0.94c-0.97-0.51-1.99-0.9-3.04-1.15c-0.07-1.33-0.23-2.6-0.47-3.82 c-1.08-5.51-4.18-9.51-8.51-10.98c-0.84-0.28-1.71-0.46-2.58-0.52c-0.74-0.05-1.59-0.04-2.52,0.11 c1.17-3.41,0.81-6.98-1.11-10.08c-1.77-2.86-4.48-4.56-7.63-4.79c-1.55-0.11-2.8,0.16-3.54,0.33l-0.08,0.02 c-4.11,0.91-6.93,3.51-8.68,5.38c-6.5,6.92-12.38,15.28-18.51,26.3c-1.57,2.83-3.03,5.71-4.36,8.65c-0.08-1.3-0.15-2.55-0.2-3.77 c-0.22-4.83-2.48-8.85-6.37-11.33c-2.24-1.43-4.37-2.2-6.51-2.36c-2.89-0.21-8.3,0.57-12.05,8.24 c-4.91,10.01-11.24,16.04-19.35,18.43c-5.15,1.52-7.24,4.92-8.09,7.51c-0.85,2.6-1.22,6.73,1.85,11.64 c3.8,6.07,9.25,9.53,15.78,10.01c1.47,0.11,2.99,0.06,4.53-0.14c2.3-0.3,4.53-0.81,6.65-1.53c0.2,1.5,0.37,2.94,0.49,4.35 c0.77,9.56,2.46,18.48,4.43,28.32c0.84,4.18,2.56,7.4,3.98,9.73c2.82,4.66,7.01,7.33,12.14,7.71l0,0 c2.11,0.16,4.37-0.1,6.71-0.76c2.87-0.81,5.83-2.03,8.01-5.4c1.94-2.99,2.31-6.25,2.55-9.6c0.1-1.43,0.21-2.86,0.31-4.29l0-0.05 c0.27-3.73,0.55-7.56,0.8-11.43c0.98,0.28,2,0.46,3.04,0.54c1.76,0.13,3.56-0.04,5.38-0.49c-0.34,2.07,1.04,3.71,4.2,4.71 c2.83,0.9,3.22,2.42,2.55,5.22c-2.01,8.47-1.72,9.02,5.37,11.84c2.43,0.97,4.12,2.57,3.56,5.56c-0.62,3.27-2.94,4.31-5.8,4.23 c-0.89-0.02-1.78-0.16-2.67-0.24c-3.73-0.34-5.37,1.85-5.42,5.43c-0.05,3.37,1.36,6.05,4.19,7.58c2.6,1.41,4.9,0.11,7.07-1.69 c0.97-0.8,1.99-1.55,2.94-2.38c1.26-1.1,2.67-1.85,4.18-1.24c1.73,0.7,1.37,2.47,1.31,4.05c-0.25,6.82,0.9,8.6,6.75,10.61 c4.36,1.5,5.14,4.74,1.98,8.59c-1.11,1.35-2.56,2.39-3.61,3.78c-2.2,2.89-1.75,5.33,1.16,7.01c3.38,1.95,6.97,0.75,8.97-3.46 c1.94-4.1,4.48-6,8.68-4.88c4.71,1.26,7.83-0.74,9.59-5.66c0.42-1.17,1.18-2.28,1.95-3.28c1.5-1.93,3.32-3.82,5.76-3.28 c2.6,0.58,2.22,3.23,2.24,5.42c0.04,4.15,2.27,5.4,5.88,4.75c5.76-1.03,7.48-4.79,4.65-10.09c-0.93-1.75-2.04-3.55-0.69-5.68 c1.31-2.07,3.3-1.44,4.96-1.13c4.15,0.77,6.96-0.38,9.27-4.79c2.92-5.57,7.27-7.43,10.77-4.82c4.1,3.05,6.52,1.87,9.07-2.41 c1.67-2.8,4.09-3.52,5.3,0c1.49,4.31,4.1,5.47,7.97,3.5c3.8-1.93,2.91-4.97,1.82-8.11c-1.54-4.49,0.18-7.8,4.76-9 c2.32-0.61,4.77-0.5,7.16-0.73c7-0.69,10.01-3.6,11.24-10.86c0.82-4.82,3.37-6.63,7.76-5.28c3.39,1.04,6.65,2.46,10.04,3.48 c2.3,0.69,4.88,1.02,6.6-1.57C419.65,359.83,420.39,356.75,419.07,353.9z M251.22,360.04c-1.3-0.41-2.65-1.14-2.55-1.75 c0.02-0.12,0.03-0.24,0.03-0.36c0.49,0.31,1.16,0.6,1.82,0.81c0.95,0.3,3.23,1.03,4.12,3.49 C253.57,360.79,251.98,360.28,251.22,360.04z M259.29,377.15c-1.88-0.75-4.47-1.78-4.81-2.54c-0.07-0.16-0.1-0.4-0.1-0.71 c0.95,0.65,2.78,1.38,4.22,1.95c2.73,1.09,4.1,2.68,4.73,4.28C262.54,378.99,261.27,377.94,259.29,377.15z M267.35,394.41 c-0.61-0.25-1.25-0.37-1.89-0.37c-1.48,0-2.96,0.66-4.5,2.01c-0.51,0.45-1.05,0.87-1.63,1.32c-0.41,0.33-0.84,0.66-1.26,1.01 c-1.48,1.23-2.55,1.78-3.46,1.78c-0.4,0-0.8-0.11-1.22-0.34c-1.26-0.68-2.09-1.62-2.53-2.83c0.46,0.61,1.07,1.12,1.83,1.53 c0.42,0.23,0.82,0.34,1.22,0.34c0.91,0,1.98-0.55,3.46-1.78c0.42-0.35,0.85-0.69,1.26-1.01c0.57-0.45,1.11-0.88,1.63-1.32 c1.55-1.35,3.02-2.01,4.5-2.01c0.64,0,1.28,0.13,1.89,0.37c1.44,0.58,2.18,1.6,2.55,2.67 C268.77,395.22,268.18,394.74,267.35,394.41z M275.3,409.03c-2.58-0.89-3.87-1.62-4.45-2.53c-0.16-0.25-0.28-0.54-0.39-0.9 c0.68,0.73,1.94,1.38,4.14,2.13c3.12,1.07,4.51,2.84,5.1,4.37C278.91,410.94,277.56,409.8,275.3,409.03z M309.54,407.78 c-0.43-0.1-0.86-0.14-1.29-0.14c-3.35,0-5.68,2.99-6.67,4.27c-0.79,1.02-1.78,2.4-2.36,4.01c-1.4,3.89-3.33,4.39-4.86,4.39 c-0.62,0-1.3-0.1-2.04-0.3c-0.96-0.26-1.89-0.39-2.76-0.39c-3.63,0-6.41,2.15-8.51,6.58c-0.91,1.93-2.25,2.99-3.75,2.99 c-0.68,0-1.39-0.21-2.1-0.62c-0.87-0.5-1.24-0.98-1.28-1.23c-0.02-0.09,0-0.24,0.05-0.42c0.15,0.11,0.33,0.23,0.53,0.35 c0.71,0.41,1.42,0.62,2.1,0.62c1.5,0,2.83-1.06,3.75-2.99c2.1-4.43,4.88-6.58,8.51-6.58c0.87,0,1.8,0.13,2.76,0.39 c0.74,0.2,1.42,0.3,2.04,0.3c1.53,0,3.47-0.5,4.86-4.39c0.58-1.61,1.56-2.99,2.36-4.01c0.99-1.28,3.32-4.27,6.67-4.27 c0.43,0,0.86,0.05,1.29,0.14c2.04,0.45,3.07,1.7,3.59,3.09C311.83,408.75,310.92,408.09,309.54,407.78z M358.22,386.6 c-1.81,0-3.56,1.26-4.92,3.53c-1.58,2.65-2.52,2.96-3.09,2.96c-0.7,0-1.62-0.43-2.76-1.27c-1.4-1.04-2.99-1.59-4.6-1.59 c-3.59,0-7.04,2.65-9.46,7.27c-1.62,3.1-3.2,3.73-5.06,3.73c-0.54,0-1.16-0.06-1.83-0.19c-0.14-0.03-0.29-0.05-0.43-0.08 c-0.67-0.13-1.44-0.29-2.26-0.29c-2.41,0-3.8,1.39-4.54,2.56c-2.16,3.41-0.53,6.44,0.45,8.26l0.14,0.25 c0.92,1.73,1.23,3.17,0.85,4.07c-0.41,0.99-1.82,1.76-3.87,2.13c-0.47,0.08-0.91,0.13-1.29,0.13c-1.08,0-1.67-0.17-1.85-1.48 c0.29,0.15,0.68,0.18,1.15,0.18c0.38,0,0.82-0.04,1.29-0.13c2.05-0.37,3.46-1.14,3.87-2.13c0.37-0.9,0.07-2.34-0.85-4.07 l-0.14-0.25c-0.98-1.81-2.61-4.85-0.45-8.26c0.74-1.17,2.13-2.56,4.54-2.56c0.82,0,1.59,0.15,2.26,0.29 c0.15,0.03,0.29,0.06,0.43,0.08c0.67,0.12,1.28,0.19,1.83,0.19c1.87,0,3.44-0.63,5.06-3.73c2.42-4.62,5.87-7.27,9.46-7.27 c1.61,0,3.2,0.55,4.6,1.59c1.13,0.84,2.06,1.27,2.76,1.27c0.57,0,1.51-0.31,3.09-2.96c1.36-2.28,3.1-3.53,4.92-3.53 c0.87,0,2.94,0.35,4.24,3.39C360.51,386.85,358.95,386.6,358.22,386.6z M400.28,334.22c0.94-0.97,1.29-1.6,1.43-1.95 c0.07,0.06,0.15,0.12,0.24,0.2c0.37,0.34,0.53,0.63,0.54,0.76c0,0.07-0.03,0.76-1.51,2.29c-2.57,2.66-4.98,7.23-1.93,13.9 c-0.24-0.38-0.46-0.78-0.66-1.21C395.28,341.49,397.7,336.89,400.28,334.22z M393.39,320.63c2.21-1.61,2.77-2.63,2.91-3.05 c0.71,0.68,0.74,1.07,0.74,1.08c0,0.01,0.02,1.11-2.95,3.27c-1.83,1.33-6.6,4.8-3.91,10.69c-0.14-0.23-0.28-0.47-0.41-0.72 C386.48,325.66,391.5,322,393.39,320.63z M390.29,299.7c1.38-1.41,2.08-2.81,1.93-3.82c0-0.02-0.01-0.03-0.01-0.05 c0.39,0.44,0.64,0.9,0.71,1.35c0.16,1.01-0.55,2.4-1.93,3.82c-1.88,1.93-2.84,3.85-2.91,5.87c-0.04,1.09,0.17,2.16,0.64,3.24 c-0.96-1.51-1.4-3.01-1.34-4.54C387.46,303.55,388.41,301.63,390.29,299.7z M416.04,361.45c-0.48,0.72-1.03,1.01-1.93,1.01 c0,0,0,0,0,0c-0.58,0-1.28-0.13-2.2-0.4c-1.68-0.51-3.31-1.11-5.04-1.74c-1.62-0.6-3.29-1.21-4.99-1.74 c-1.14-0.35-2.21-0.53-3.19-0.53c-2.29,0-6.31,1.02-7.47,7.82c-1.04,6.13-3.19,8.18-9.17,8.77c-0.73,0.07-1.46,0.11-2.24,0.15 c-1.71,0.09-3.47,0.18-5.25,0.64c-3.81,1-5.52,3.15-6.3,4.78c-0.72,1.53-1.33,4.1-0.1,7.68c1.21,3.53,1,4-0.62,4.82 c-0.91,0.46-1.69,0.7-2.33,0.7c-0.43,0-1.41,0-2.31-2.21c0.67,0.91,1.29,0.91,1.62,0.91c0.63,0,1.41-0.23,2.33-0.7 c1.62-0.82,1.83-1.29,0.62-4.82c-1.23-3.58-0.62-6.15,0.1-7.68c0.77-1.63,2.49-3.78,6.3-4.78c1.78-0.47,3.54-0.56,5.25-0.64 c0.78-0.04,1.51-0.08,2.24-0.15c5.98-0.59,8.13-2.64,9.17-8.77c1.16-6.81,5.18-7.82,7.47-7.82c0.98,0,2.05,0.18,3.19,0.53 c1.7,0.52,3.37,1.14,4.99,1.74c1.73,0.64,3.36,1.24,5.04,1.74c0.92,0.28,1.62,0.4,2.2,0.4c0,0,0,0,0,0 c0.89,0,1.45-0.29,1.93-1.01c0.94-1.42,1.86-3.5,1.1-5.53c0.21,0.29,0.4,0.61,0.57,0.98 C417.99,357.73,417.02,359.96,416.04,361.45z"/>
      </g>
      <g>
        <g>
          <g>
            <radialGradient id="SVGID_4_" cx="218.1623" cy="373.7203" r="31.3486" gradientTransform="matrix(1.4551 0 0 1.6253 -100.2998 -280.1336)" gradientUnits="userSpaceOnUse">
              <stop offset="0" style="stop-color:#FDFEFE"/>
              <stop offset="1" style="stop-color:#DBDED5"/>
            </radialGradient>
            <path class="st3" d="M220.05,382.72L220.05,382.72c-0.23,0-0.45-0.01-0.67-0.02c-2.42-0.18-4.3-1.35-5.59-3.48 c-1.01-1.67-2.23-3.92-2.76-6.56c-1.96-9.76-3.63-18.58-4.37-27.81c-0.2-2.43-0.53-4.87-0.86-7.24 c-0.36-2.59-0.73-5.27-0.91-7.93c-0.07-1.06-0.24-2.19-0.93-2.56c-0.54-0.29-1.27-0.07-2.45,0.81 c-3.53,2.65-7.54,4.24-12.27,4.86c-0.67,0.09-1.34,0.13-1.98,0.13c-4.41,0-7.92-2.03-10.42-6.03 c-0.75-1.21-1.02-2.09-0.82-2.69c0.2-0.6,0.89-1.06,2.13-1.43c10.87-3.2,19.22-11.01,25.53-23.87c0.88-1.8,1.78-2.79,2.81-3.12 c0.26-0.08,0.53-0.12,0.82-0.12c0.85,0,1.83,0.37,3.02,1.13c1.32,0.84,1.92,1.85,1.99,3.38c0.41,9.1,1.4,18.27,2.35,27.15 c0.54,5,1.09,10.17,1.54,15.28c0.3,3.44,0.89,7.03,1.85,11.31c0.09,0.4,0.41,0.68,0.78,0.69c0.37,0,0.7-0.28,0.79-0.68 c0.39-1.7,0.4-3.21,0.41-4.54c0-0.51,0.01-0.99,0.03-1.47c0.79-16.9,5.39-33.03,13.68-47.93 c5.89-10.58,11.47-18.54,17.59-25.06c1.14-1.22,2.56-2.52,4.43-2.93l0.09-0.02c0.38-0.08,0.77-0.17,1.14-0.17 c0.53,0,0.87,0.18,1.14,0.6c0.41,0.66,0.2,1.15-0.47,2.07c-0.09,0.13-0.18,0.25-0.27,0.38c-2.77,4.12-5.34,8.49-7.83,12.71 c-1.25,2.13-2.55,4.33-3.87,6.49c-10.13,16.62-15.69,35.4-16.53,55.82c-0.29,7.15-0.83,14.41-1.34,21.42l-0.01,0.2 c-0.1,1.43-0.21,2.85-0.31,4.28c-0.37,5.09-0.8,5.51-4.06,6.43C222.24,382.55,221.1,382.72,220.05,382.72z M203.47,326.23 c0.29,0,0.56,0.07,0.8,0.2c1.01,0.55,1.23,1.92,1.32,3.2c0.18,2.63,0.55,5.29,0.9,7.87c0.33,2.38,0.67,4.83,0.87,7.29 c0.74,9.17,2.41,17.97,4.36,27.71c0.5,2.52,1.68,4.69,2.66,6.3c1.16,1.92,2.86,2.97,5.06,3.14c1.13,0.08,2.44-0.07,3.84-0.47 c2.89-0.82,3.19-0.9,3.54-5.74c0.1-1.43,0.21-2.85,0.31-4.28l0.01-0.2c0.51-7.01,1.05-14.26,1.34-21.4 c0.84-20.56,6.44-39.47,16.65-56.22c1.31-2.16,2.61-4.35,3.86-6.48c2.49-4.23,5.07-8.61,7.85-12.75 c0.09-0.13,0.19-0.27,0.29-0.4c0.62-0.85,0.56-0.94,0.44-1.14c-0.1-0.16-0.19-0.27-0.56-0.27c-0.3,0-0.66,0.08-1,0.16 l-0.09,0.02c-1.7,0.38-3.02,1.59-4.09,2.73c-6.07,6.47-11.62,14.38-17.48,24.91c-8.23,14.79-12.79,30.79-13.57,47.56 c-0.02,0.47-0.03,0.94-0.03,1.44c-0.01,1.38-0.02,2.94-0.44,4.73c-0.17,0.74-0.77,1.26-1.46,1.26c-0.7,0-1.29-0.53-1.46-1.28 c-0.97-4.32-1.56-7.95-1.86-11.43c-0.45-5.1-1-10.27-1.54-15.26c-0.95-8.89-1.94-18.08-2.35-27.2 c-0.06-1.26-0.52-2.02-1.64-2.74c-1.08-0.69-1.96-1.02-2.68-1.02c-0.22,0-0.43,0.03-0.63,0.09c-0.85,0.27-1.61,1.14-2.39,2.74 c-6.4,13.06-14.89,20.99-25.96,24.25c-1.09,0.32-1.57,0.7-1.65,0.94c-0.08,0.25,0.07,0.9,0.74,1.98 c2.36,3.78,5.68,5.69,9.85,5.69c0.61,0,1.25-0.04,1.9-0.13c4.61-0.61,8.52-2.15,11.96-4.73 C202.11,326.56,202.84,326.23,203.47,326.23z"/>
          </g>
          <g>
            <radialGradient id="SVGID_5_" cx="270.5822" cy="364.844" r="32.9313" gradientTransform="matrix(1.4551 0 0 1.6253 -100.2998 -280.1336)" gradientUnits="userSpaceOnUse">
              <stop offset="0" style="stop-color:#FDFEFE"/>
              <stop offset="1" style="stop-color:#DBDED5"/>
            </radialGradient>
            <path class="st4" d="M242,350.29c-0.19,0-0.38-0.01-0.56-0.02c-1.02-0.07-1.95-0.36-2.78-0.84c-2.09-1.23-3.42-3.75-3.85-7.29 c-1.21-10.11,1.54-19.62,7.97-27.5c1.35-1.66,3.12-2.64,5.27-2.91c0.32-0.04,0.64-0.06,0.94-0.06c1.4,0,2.47,0.43,3.19,1.28 c1.05,1.24,1.04,3.05,0.85,4.35c-0.86,5.74-3.47,10.83-8.22,16.04c-0.34,0.37-0.72,0.68-1.12,1.02 c-0.38,0.32-0.78,0.64-1.14,1.02c-1.44,1.52-1.52,4.42-0.17,6.32c0.58,0.82,1.28,1.24,2.09,1.24c0.81,0,1.69-0.41,2.69-1.25 c1.38-1.16,2.35-2.72,3.28-4.23l0.27-0.43c0.25-0.41,0.49-0.81,0.72-1.21c0.36-0.62,0.74-1.26,1.14-1.85 c3.67-5.37,5.45-10.85,5.59-17.22c0.15-6.86,1.57-14.1,4.22-21.54c0.97-2.72,2.06-4.67,3.42-6.13 c1.15-1.24,2.36-1.74,3.39-1.39c1.05,0.36,1.82,1.54,2.17,3.35c0.57,2.88,0.24,5.82-0.07,8.66c-0.04,0.39-0.12,0.79-0.19,1.18 c-0.1,0.51-0.19,1.04-0.23,1.58c-0.07,1.18,0,1.23,0.42,1.49c0.07,0.05,0.15,0.09,0.24,0.15c0.17,0.11,0.37,0.17,0.59,0.17 c0.26,0,0.5,0.14,0.72,0.27c0.38,0.22,0.56,0.3,0.79,0.15c1.61-1.11,3.12-1.67,4.49-1.67c0.75,0,1.45,0.17,2.09,0.51 c2.03,1.07,3.4,3.83,3.86,7.75c0.62,5.26,0.15,10.76-0.23,15.18c-0.04,0.43-0.1,0.88-0.16,1.32c-0.2,1.4-0.41,2.84,0.1,4.35 c0.08,0.23,0.24,0.42,0.44,0.52c0.2,0.1,0.44,0.1,0.64,0c1.31-0.64,1.59-1.77,1.82-2.69c0.03-0.14,0.07-0.28,0.11-0.41 c1.74-6.31,3.41-13.87,2.53-22.05c-0.27-2.54,0.25-3.29,2.54-3.66c0.35-0.06,0.71-0.09,1.07-0.09c1.99,0,3.83,0.86,5.53,1.79 l0.1,0.06c1.35,0.74,2.09,1.15,2.77,1.15c0.14,0,0.27-0.02,0.4-0.05c0.78-0.22,1.39-1.11,2.51-2.73 c3.5-5.07,6.37-5.72,8.48-5.72c0.58,0,1.19,0.06,1.81,0.19c0.24,0.05,0.46,0.07,0.66,0.07c0.62,0,1.42-0.24,1.7-1.36 c0.44-1.72,1.32-2.36,3.26-2.36c0.22,0,0.44,0.01,0.66,0.02c0.75,0.04,1.42,0.06,1.99,0.06c3.47,0,3.8-1.44,4.79-5.72 c0.71-3.08,1.71-6.13,2.98-9.07c0.53-1.24,1.31-2.8,2.63-3.92c0.56-0.48,1.13-0.72,1.67-0.72c0.37,0,0.73,0.11,1.11,0.32 c1.03,0.59,1.49,1.49,1.37,2.68c-0.26,2.42-0.62,4.88-0.96,7.25l-0.01,0.07c-0.06,0.38-0.15,0.78-0.24,1.17 c-0.22,0.94-0.46,2-0.24,3.15c0.08,0.42,0.41,0.72,0.79,0.72l0.03,0c3.49-0.13,6.61-1.52,9.63-2.85l0.03-0.01 c0.65-0.29,1.33-0.59,1.99-0.87c0.38-0.16,0.78-0.4,1.2-0.65c0.63-0.37,1.41-0.84,1.95-0.84c0.21,0,0.37,0.06,0.53,0.36 c0.68,1.28,0.02,2.07-1.7,3.35c-0.32,0.24-0.59,0.44-0.84,0.66c-3.18,2.75-6.83,4.53-10.92,6.4c-0.36,0.17-0.72,0.34-1.08,0.51 c-0.9,0.43-1.82,0.86-2.75,1.21c-1.57,0.57-2.4,1.8-2.55,3.74c-0.53,6.88-0.62,14.2,2.3,21.09c2.17,5.12,5.26,7.91,9.44,8.54 c0.98,0.15,1.57,0.44,1.74,0.86c0.17,0.43-0.04,1.13-0.62,2.07c-2.05,3.34-4.04,5.1-6.24,5.54c-2.1,0.42-4.37-0.38-7.01-2.45 c-2.98-2.35-4.95-5.95-6.04-11.01c-0.55-2.54-1.08-5.27-1.1-8.24c0-0.32-0.15-0.61-0.4-0.77c-0.24-0.16-0.55-0.17-0.8-0.02 c-1.07,0.64-1.44,1.55-1.81,2.43c-0.09,0.23-0.19,0.45-0.29,0.66c-2.05,4.17-4.52,8.95-7.98,12.83 c-0.95,1.07-1.92,2.07-3.23,2.6c-3.32,1.34-6.08,1.29-8.15-0.14c-2.13-1.48-3.47-4.43-3.89-8.54c-0.29-2.9-0.04-6.11,0.76-9.54 c0.28-1.21,0.51-2.22,0.7-3.16c0.19-0.91,0.04-1.59-0.45-2.04c-0.3-0.28-0.65-0.42-1.04-0.42c-0.35,0-0.73,0.11-1.23,0.37 c-1.27,0.64-2.12,1.89-2.59,3.8c-0.81,3.3-1.44,6.01-1.97,8.55c-0.93,4.4-2.78,8.72-5.64,13.19c-0.05,0.08-0.11,0.17-0.16,0.25 c-0.18,0.29-0.35,0.57-0.56,0.78c-0.29,0.29-0.58,0.6-0.87,0.92c-1.13,1.23-2.3,2.49-3.68,2.49c-0.37,0-0.73-0.08-1.12-0.26 c-1.64-0.73-1.73-2.34-1.68-4.73c0.01-0.54,0.02-1.05,0-1.54c-0.04-0.99,0-2.02,0.04-3.02c0.08-1.96,0.16-3.99-0.35-6.13 c-0.07-0.31-0.29-0.56-0.58-0.64c-0.28-0.08-0.59,0.01-0.79,0.24c-0.9,1.02-1.22,2.26-1.5,3.35c-0.1,0.39-0.2,0.8-0.33,1.18 c-1.02,3.01-2.27,6.48-4.1,9.51c-1.64,2.72-3.34,5.53-6.25,5.53c-0.16,0-0.33-0.01-0.5-0.03c-2.46-0.25-3.35-2.36-4.33-5.31 c-0.19-0.57-0.37-1.1-0.57-1.63c-0.12-0.3-0.19-0.62-0.27-0.97c-0.14-0.62-0.27-1.21-0.64-1.73c-0.18-0.26-0.48-0.38-0.77-0.33 c-1.11,0.21-1.57,1.14-1.95,1.89c-0.12,0.24-0.23,0.46-0.35,0.65c-0.42,0.68-0.83,1.37-1.23,2.04 c-1.25,2.1-2.53,4.28-4.24,6.02c-0.2,0.2-0.39,0.41-0.57,0.62c-0.51,0.57-0.99,1.11-1.56,1.43 C245.77,349.68,243.76,350.29,242,350.29z M248.99,312.44c-0.27,0-0.56,0.02-0.86,0.06c-1.97,0.25-3.6,1.14-4.83,2.66 c-6.28,7.71-8.97,17-7.79,26.88c0.39,3.28,1.6,5.6,3.48,6.71c0.74,0.43,1.58,0.69,2.5,0.76c1.78,0.13,3.86-0.45,5.99-1.66 c0.47-0.27,0.91-0.76,1.38-1.28c0.19-0.22,0.39-0.43,0.6-0.64c1.64-1.68,2.9-3.82,4.13-5.88c0.4-0.67,0.81-1.37,1.24-2.05 c0.1-0.16,0.2-0.37,0.31-0.58c0.4-0.8,1-2.01,2.44-2.28c0.54-0.1,1.09,0.13,1.43,0.61c0.46,0.65,0.63,1.38,0.77,2.02 c0.07,0.31,0.14,0.61,0.23,0.85c0.21,0.55,0.39,1.09,0.58,1.67c0.95,2.85,1.67,4.6,3.74,4.81c0.15,0.02,0.3,0.02,0.44,0.02 c2.54,0,4.14-2.64,5.68-5.19c1.79-2.97,3.02-6.39,4.03-9.36c0.12-0.34,0.22-0.74,0.31-1.11c0.3-1.18,0.64-2.52,1.67-3.68 c0.37-0.42,0.95-0.59,1.46-0.44c0.52,0.16,0.93,0.61,1.07,1.2c0.53,2.25,0.45,4.34,0.37,6.36c-0.04,0.98-0.08,1.99-0.04,2.95 c0.02,0.53,0.01,1.05,0,1.6c-0.05,2.32,0.05,3.46,1.24,3.99c0.31,0.14,0.59,0.2,0.86,0.2c1.1,0,2.16-1.15,3.19-2.26 c0.31-0.33,0.6-0.65,0.9-0.95c0.15-0.15,0.3-0.39,0.45-0.64c0.05-0.09,0.11-0.18,0.17-0.27c2.81-4.4,4.62-8.62,5.53-12.92 c0.54-2.55,1.17-5.27,1.98-8.58c0.53-2.15,1.5-3.56,2.97-4.3c0.59-0.3,1.06-0.44,1.52-0.44c0.55,0,1.05,0.2,1.48,0.59 c0.4,0.36,1.02,1.22,0.69,2.82c-0.2,0.95-0.42,1.96-0.71,3.18c-0.78,3.34-1.03,6.45-0.75,9.26c0.39,3.86,1.62,6.62,3.56,7.96 c1.89,1.31,4.45,1.33,7.55,0.07c1.18-0.48,2.08-1.42,2.97-2.42c3.39-3.81,5.84-8.53,7.86-12.66c0.09-0.19,0.18-0.4,0.27-0.61 c0.38-0.91,0.84-2.04,2.12-2.8c0.46-0.27,1.03-0.26,1.48,0.04c0.45,0.3,0.73,0.85,0.74,1.43c0.02,2.89,0.55,5.57,1.09,8.07 c1.05,4.87,2.93,8.32,5.76,10.56c2.47,1.95,4.57,2.71,6.48,2.32c2.01-0.4,3.85-2.06,5.79-5.21c0.6-0.97,0.55-1.3,0.55-1.32 c0,0,0,0,0,0c-0.01,0-0.2-0.25-1.19-0.4c-4.44-0.66-7.7-3.6-9.98-8.98c-2.99-7.06-2.9-14.5-2.36-21.49 c0.17-2.25,1.19-3.74,3.03-4.41c0.91-0.33,1.82-0.76,2.7-1.18c0.36-0.17,0.73-0.34,1.09-0.51c4.04-1.85,7.65-3.6,10.76-6.29 c0.27-0.23,0.55-0.44,0.87-0.68c1.92-1.43,1.77-1.78,1.5-2.29c-0.39,0.04-1.1,0.46-1.57,0.74c-0.44,0.26-0.86,0.51-1.28,0.69 c-0.66,0.28-1.33,0.58-1.98,0.86l-0.03,0.01c-3.08,1.36-6.26,2.77-9.86,2.91l-0.05,0c-0.71,0-1.33-0.56-1.47-1.33 c-0.25-1.33,0.01-2.48,0.25-3.5c0.09-0.37,0.17-0.75,0.22-1.1l0.01-0.06c0.34-2.38,0.7-4.82,0.96-7.23 c0.09-0.87-0.21-1.45-0.99-1.89c-0.28-0.16-0.54-0.24-0.79-0.24c-0.39,0-0.8,0.19-1.25,0.57c-1.2,1.02-1.93,2.48-2.43,3.64 c-1.25,2.9-2.24,5.9-2.93,8.93c-0.97,4.2-1.45,6.31-5.46,6.31c-0.58,0-1.26-0.03-2.02-0.07c-0.21-0.01-0.42-0.02-0.63-0.02 c-1.63,0-2.24,0.42-2.59,1.79c-0.31,1.22-1.18,1.93-2.37,1.93c-0.24,0-0.51-0.03-0.79-0.09c-0.58-0.12-1.14-0.18-1.68-0.18 c-1.95,0-4.62,0.62-7.93,5.42c-1.21,1.75-1.87,2.72-2.89,3.01c-0.18,0.05-0.37,0.08-0.57,0.08c-0.84,0-1.64-0.44-3.08-1.23 l-0.1-0.05c-1.62-0.89-3.38-1.71-5.22-1.71c-0.33,0-0.65,0.03-0.97,0.08c-1.9,0.31-2.18,0.7-1.95,2.8 c0.89,8.33-0.79,15.98-2.56,22.37c-0.04,0.13-0.07,0.26-0.1,0.39c-0.24,0.96-0.6,2.41-2.21,3.2c-0.38,0.18-0.81,0.19-1.19,0.01 c-0.38-0.18-0.68-0.53-0.82-0.96c-0.57-1.71-0.35-3.25-0.13-4.74c0.06-0.43,0.12-0.86,0.16-1.27 c0.38-4.38,0.84-9.83,0.23-15.01c-0.43-3.66-1.66-6.2-3.47-7.15c-1.6-0.85-3.65-0.45-5.92,1.12c-0.59,0.41-1.12,0.09-1.48-0.12 c-0.15-0.09-0.31-0.18-0.4-0.18c-0.35,0-0.67-0.1-0.94-0.28c-0.08-0.05-0.15-0.1-0.22-0.14c-0.65-0.41-0.87-0.69-0.78-2.22 c0.04-0.59,0.14-1.15,0.24-1.68c0.07-0.37,0.14-0.76,0.18-1.12c0.31-2.77,0.62-5.64,0.08-8.39c-0.3-1.51-0.9-2.5-1.69-2.77 c-0.79-0.27-1.75,0.17-2.71,1.2c-1.29,1.38-2.32,3.25-3.25,5.86c-2.62,7.35-4.02,14.51-4.17,21.28 c-0.15,6.55-1.97,12.16-5.73,17.67c-0.39,0.57-0.75,1.19-1.11,1.8c-0.23,0.4-0.48,0.81-0.74,1.23l-0.26,0.43 c-0.97,1.56-1.97,3.17-3.43,4.41c-1.12,0.95-2.14,1.41-3.11,1.41c-1.03,0-1.92-0.52-2.64-1.54c-1.55-2.21-1.44-5.58,0.24-7.37 c0.39-0.41,0.8-0.75,1.2-1.08c0.38-0.32,0.75-0.61,1.05-0.95c4.64-5.08,7.19-10.04,8.02-15.61c0.17-1.13,0.19-2.68-0.66-3.69 C251.09,312.79,250.19,312.44,248.99,312.44z M267.48,337.34c-0.07,0-0.13,0-0.2-0.01l-0.06-0.01 c-1.08-0.11-2.06-0.83-2.99-2.22c-1.95-2.91-2.29-6.27-0.97-9.44c1.97-4.74,3.74-9.92,5.39-15.84 c0.26-0.95,0.75-2.26,1.88-2.66c0.25-0.09,0.52-0.13,0.81-0.1c0.67,0.05,1.38,0.41,2.23,1.14c2.33,1.99,3.23,4.79,4.03,7.25 c0.12,0.37,0.24,0.74,0.36,1.1c0.03,0.08,0.05,0.16,0.07,0.25l0.09,0.48c0.25,1.32,0.47,2.46,0.12,3.69l-0.66-0.24 c0.3-1.03,0.1-2.08-0.14-3.29l-0.09-0.48c-0.01-0.05-0.02-0.09-0.04-0.13c-0.12-0.36-0.24-0.73-0.36-1.11 c-0.76-2.36-1.63-5.04-3.8-6.89c-0.74-0.63-1.33-0.94-1.86-0.98c-0.2-0.01-0.38,0.01-0.55,0.07c-0.83,0.29-1.21,1.37-1.43,2.15 c-1.66,5.95-3.43,11.16-5.42,15.94c-1.21,2.9-0.89,5.97,0.9,8.65c0.8,1.2,1.62,1.83,2.49,1.91l0.05,0.01 c0.05,0,0.1,0.01,0.15,0.01c0.82,0,1.68-0.47,2.61-1.45l0.48,0.57C269.49,336.79,268.48,337.34,267.48,337.34z M242.75,330.49 c-0.22,0-0.44-0.05-0.64-0.16c-0.02,0.01-0.03,0.01-0.05,0.02l-0.25,0.06l-0.14-0.26c-0.08-0.16-0.06-0.35,0.05-0.48 c0.33-3.94,1.7-7.56,4.17-11.06c0.62-0.88,1.32-1.06,1.8-1.06c0.04,0,0.09,0,0.13,0c0.23,0.02,0.46,0.08,0.68,0.18 c0.78,0.37,1,0.7,0.89,1.3c-0.01,0.06-0.02,0.12-0.02,0.16c0.04,0.64-0.02,1.26-0.17,1.79c-1.01,3.48-2.8,6.45-5.45,9.09 C243.47,330.34,243.11,330.49,242.75,330.49z M241.7,329.77C241.7,329.77,241.7,329.77,241.7,329.77 C241.7,329.77,241.7,329.77,241.7,329.77z M242.41,329.64c0.29,0.14,0.64,0.08,0.87-0.15c2.56-2.54,4.28-5.41,5.25-8.75 c0.13-0.43,0.17-0.95,0.14-1.49c-0.01-0.15,0.01-0.28,0.03-0.37c0.01-0.04,0.02-0.09,0.02-0.11c0,0,0,0,0,0 c0,0-0.08-0.11-0.5-0.32c-0.14-0.07-0.3-0.11-0.45-0.12c-0.03,0-0.06,0-0.09,0c-0.33,0-0.81,0.13-1.26,0.77 C244.06,322.43,242.75,325.89,242.41,329.64z M308.04,330.43c-0.91,0-1.73-0.44-2.45-1.3c-1.78-2.14-2.04-5.05-0.62-6.93 c0.41-0.55,0.9-0.95,1.37-1.34c0.22-0.19,0.45-0.38,0.64-0.56c4.5-4.32,7.47-9.4,8.81-15.09c0.37-1.57,0.93-3.95,3.33-3.95 c0.09,0,0.18,0,0.28,0.01c0.32,0.02,0.67,0.09,1.07,0.19c0.52,0.14,1.27,0.02,2.22-0.15c0.3-0.05,0.61-0.11,0.95-0.16 c0.54-0.08,1.08,0.17,1.41,0.65c0.33,0.48,0.4,1.13,0.18,1.69c-3.65,9.4-7.63,16.99-12.53,23.88c-0.51,0.72-1.2,1.39-2.11,2.05 C309.64,330.11,308.83,330.43,308.04,330.43z M319.11,302.03c-1.86,0-2.3,1.87-2.65,3.37c-1.38,5.85-4.41,11.06-9.03,15.48 c-0.21,0.2-0.45,0.4-0.67,0.59c-0.45,0.37-0.9,0.75-1.26,1.23c-1.19,1.57-0.93,4.05,0.6,5.9c0.58,0.7,1.23,1.05,1.94,1.05 c0.64,0,1.33-0.28,2.17-0.89c0.85-0.62,1.48-1.23,1.94-1.88c4.86-6.83,8.81-14.37,12.43-23.71c0.12-0.3,0.08-0.65-0.1-0.91 c-0.18-0.26-0.47-0.39-0.76-0.35c-0.33,0.05-0.65,0.11-0.94,0.16c-1.03,0.18-1.85,0.31-2.49,0.14 c-0.36-0.1-0.67-0.15-0.96-0.17C319.26,302.03,319.18,302.03,319.11,302.03z M305.49,317.8c-0.03,0-0.06,0-0.09-0.01 c-0.33-0.07-0.41-0.49-0.43-0.63c-0.28-1.53,0.79-4.51,1.73-6.75c0.76-1.81,2.24-4.98,3.54-5.86c0.13-0.09,0.25-0.15,0.33-0.19 l0.06-0.03c0.16-0.09,0.34-0.14,0.52-0.16c0.08-0.01,0.15-0.01,0.21-0.01c0.78,0,1.43,0.42,1.78,1.11c0.01,0,0.02,0,0.03,0 c0.34,0.05,0.34,0.49,0.34,0.66c0,0.16-0.01,0.57-0.28,0.67c-0.97,3.53-2.98,6.59-5.02,9.37c-0.48,0.66-1.18,0.98-1.82,0.86 c-0.05,0.07-0.12,0.19-0.17,0.27C306.01,317.45,305.79,317.8,305.49,317.8z M311.36,304.95c-0.05,0-0.1,0-0.16,0.01 c-0.1,0.01-0.2,0.04-0.28,0.08l-0.06,0.03c-0.07,0.03-0.16,0.08-0.26,0.15c-0.82,0.56-2.04,2.63-3.27,5.53 c-1.14,2.7-1.75,4.84-1.71,5.96c0.01-0.01,0.02-0.03,0.02-0.04c0.23-0.37,0.44-0.73,0.79-0.62l0,0 c0.41,0.13,0.9-0.09,1.24-0.56c2.07-2.82,4.09-5.92,4.99-9.48C312.5,305.35,312.02,304.95,311.36,304.95z M262.48,316.26 c-0.16,0-0.32-0.03-0.47-0.08c-0.72-0.26-1.15-1.08-1.02-1.91c0.61-3.65,1.78-10.38,2.82-14.41c1.15-4.47,2.35-5.04,3.27-5.04 l0.05,0c0.38,0.01,0.68,0.15,0.83,0.24c1.33,0.76,1.17,2.71,1.12,3.35c-0.29,3.56-1.66,7.54-1.72,7.71 c-0.59,1.69-0.88,2.54-1.41,3.93c-0.67,1.77-1.38,3.54-2.12,5.25C263.59,315.88,263.06,316.26,262.48,316.26z M267.08,295.59 c-0.36,0-1.45,0-2.6,4.48c-1.03,3.99-2.2,10.69-2.8,14.33c-0.07,0.45,0.16,0.89,0.55,1.03c0.38,0.14,0.81-0.07,0.98-0.47 c0.73-1.7,1.44-3.46,2.1-5.22c0.53-1.39,0.82-2.23,1.4-3.91c0.06-0.16,1.4-4.05,1.68-7.5c0.05-0.57,0.17-2.07-0.75-2.59 c-0.09-0.05-0.28-0.14-0.53-0.15L267.08,295.59z"/>
          </g>
        </g>
        <g>
          <radialGradient id="SVGID_6_" cx="217.5248" cy="372.2119" r="31.1105" gradientTransform="matrix(1.4551 0 0 1.6253 -100.2998 -280.1336)" gradientUnits="userSpaceOnUse">
            <stop offset="0" style="stop-color:#FDFEFE"/>
            <stop offset="1" style="stop-color:#DBDED5"/>
          </radialGradient>
          <path class="st5" d="M219.13,379.88c-0.22,0-0.43-0.01-0.64-0.02c-2.31-0.17-4.1-1.28-5.32-3.31c-0.99-1.64-2.19-3.85-2.71-6.43 c-1.95-9.74-3.63-18.56-4.37-27.76c-0.2-2.44-0.54-4.89-0.86-7.26c-0.36-2.59-0.73-5.25-0.91-7.89 c-0.08-1.17-0.28-2.42-1.13-2.88c-0.2-0.11-0.42-0.16-0.65-0.16c-0.56,0-1.22,0.31-2.14,1c-3.48,2.62-7.44,4.18-12.11,4.8 c-0.66,0.09-1.31,0.13-1.94,0.13c-4.29,0-7.7-1.97-10.13-5.86c-0.46-0.74-0.98-1.75-0.78-2.34c0.19-0.58,1.13-0.96,1.89-1.18 c10.97-3.23,19.39-11.1,25.74-24.06c0.83-1.7,1.66-2.63,2.6-2.93c0.23-0.07,0.47-0.11,0.72-0.11c0.78,0,1.72,0.35,2.85,1.08 c1.23,0.78,1.75,1.67,1.81,3.06c0.41,9.11,1.4,18.29,2.35,27.18c0.54,5,1.09,10.16,1.54,15.27c0.3,3.46,0.89,7.07,1.86,11.37 c0.13,0.57,0.59,0.98,1.12,0.98c0,0,0,0,0,0c0.53,0,0.99-0.4,1.12-0.97c0.4-1.75,0.42-3.28,0.42-4.63c0-0.5,0.01-0.98,0.03-1.46 c0.78-16.84,5.37-32.9,13.63-47.74c5.87-10.55,11.44-18.49,17.53-24.98c1.1-1.18,2.47-2.43,4.26-2.83l0.09-0.02 c0.36-0.08,0.73-0.16,1.07-0.16c0.48,0,0.68,0.17,0.85,0.43c0.25,0.41,0.22,0.67-0.45,1.6c-0.1,0.13-0.19,0.26-0.28,0.39 c-2.78,4.13-5.35,8.5-7.84,12.73c-1.25,2.13-2.55,4.33-3.86,6.48c-10.17,16.68-15.75,35.53-16.59,56.02 c-0.29,7.14-0.83,14.4-1.34,21.41l-0.01,0.2c-0.1,1.43-0.21,2.85-0.31,4.28c-0.36,4.95-0.71,5.21-3.8,6.08 C221.26,379.71,220.14,379.88,219.13,379.88C219.13,379.88,219.13,379.88,219.13,379.88z"/>
          <radialGradient id="SVGID_7_" cx="269.9447" cy="363.3355" r="32.7008" gradientTransform="matrix(1.4551 0 0 1.6253 -100.2998 -280.1336)" gradientUnits="userSpaceOnUse">
            <stop offset="0" style="stop-color:#FDFEFE"/>
            <stop offset="1" style="stop-color:#DBDED5"/>
          </radialGradient>
          <path class="st6" d="M241.07,347.45c-0.18,0-0.36-0.01-0.54-0.02c-0.97-0.07-1.86-0.34-2.64-0.8c-1.99-1.17-3.25-3.59-3.66-7 c-1.2-9.99,1.53-19.4,7.88-27.19c1.29-1.59,2.99-2.52,5.05-2.79c0.31-0.04,0.61-0.06,0.9-0.06c1.3,0,2.29,0.39,2.94,1.16 c0.95,1.12,0.94,2.8,0.75,4.02c-0.84,5.65-3.42,10.68-8.12,15.82c-0.32,0.35-0.69,0.66-1.09,0.98c-0.39,0.32-0.8,0.65-1.17,1.05 c-1.56,1.66-1.66,4.79-0.21,6.84c0.65,0.92,1.45,1.39,2.37,1.39c0.89,0,1.84-0.44,2.9-1.33c1.42-1.2,2.41-2.79,3.36-4.32 l0.26-0.43c0.25-0.41,0.5-0.82,0.73-1.22c0.36-0.61,0.73-1.24,1.12-1.82c3.72-5.44,5.52-10.99,5.66-17.45 c0.15-6.81,1.56-14.01,4.2-21.41c0.95-2.67,2.01-4.58,3.34-6c0.85-0.91,1.7-1.39,2.48-1.39c0.2,0,0.39,0.03,0.57,0.09 c0.92,0.31,1.61,1.4,1.93,3.06c0.55,2.82,0.23,5.72-0.08,8.53c-0.04,0.38-0.11,0.77-0.19,1.15c-0.1,0.52-0.2,1.07-0.24,1.63 c-0.1,1.62,0.16,2.59,0.83,3.04c0.22,0.15,0.48,0.23,0.77,0.23c0.48,0,1.04-0.22,1.7-0.68c1.55-1.07,3-1.62,4.31-1.62 c0.7,0,1.35,0.16,1.95,0.47c1.91,1.01,3.22,3.66,3.66,7.45c0.62,5.22,0.15,10.7-0.23,15.1c-0.04,0.42-0.1,0.86-0.16,1.29 c-0.21,1.45-0.42,2.93,0.12,4.55c0.11,0.33,0.34,0.6,0.63,0.74c0.15,0.07,0.3,0.1,0.45,0.1c0.16,0,0.32-0.04,0.46-0.11 c1.46-0.71,1.78-2,2.01-2.94c0.03-0.14,0.07-0.27,0.1-0.4c1.76-6.35,3.43-13.96,2.54-22.21c-0.25-2.32,0.15-2.89,2.25-3.23 c0.33-0.05,0.68-0.08,1.02-0.08c1.92,0,3.72,0.84,5.38,1.75l0.1,0.06c1.4,0.77,2.17,1.19,2.92,1.19c0.17,0,0.33-0.02,0.48-0.07 c0.9-0.26,1.54-1.18,2.7-2.87c3.41-4.94,6.18-5.57,8.21-5.57c0.56,0,1.15,0.06,1.75,0.18c0.26,0.05,0.5,0.08,0.72,0.08 c0.61,0,1.68-0.21,2.04-1.64c0.4-1.55,1.13-2.08,2.92-2.08c0.22,0,0.43,0.01,0.65,0.02c0.75,0.04,1.42,0.07,2,0.07 c3.74,0,4.15-1.76,5.12-6.02c0.7-3.05,1.7-6.08,2.95-9c0.52-1.2,1.27-2.71,2.53-3.78c0.5-0.43,0.99-0.64,1.46-0.64 c0.31,0,0.62,0.09,0.95,0.28c0.9,0.52,1.29,1.26,1.18,2.29c-0.26,2.42-0.61,4.87-0.96,7.24l-0.01,0.06 c-0.05,0.37-0.14,0.76-0.23,1.14c-0.23,0.98-0.48,2.08-0.25,3.32c0.11,0.6,0.59,1.03,1.13,1.03c0.01,0,0.03,0,0.04,0 c3.55-0.13,6.7-1.53,9.75-2.88l0.03-0.01c0.65-0.29,1.33-0.59,1.99-0.87c0.4-0.17,0.81-0.41,1.24-0.67 c0.56-0.34,1.33-0.79,1.79-0.79c0.1,0,0.14,0,0.23,0.17c0.46,0.87,0.29,1.43-1.59,2.83c-0.32,0.24-0.6,0.45-0.86,0.67 c-3.15,2.72-6.77,4.49-10.84,6.35c-0.36,0.17-0.72,0.34-1.09,0.51c-0.89,0.42-1.8,0.86-2.72,1.19 c-1.69,0.62-2.63,1.99-2.79,4.07c-0.53,6.94-0.62,14.32,2.33,21.29c2.22,5.25,5.4,8.11,9.71,8.76c1.16,0.17,1.41,0.5,1.47,0.63 c0.05,0.14,0.1,0.57-0.58,1.69c-2,3.25-3.91,4.96-6.01,5.38c-0.34,0.07-0.69,0.1-1.03,0.1c0,0,0,0,0,0 c-1.72,0-3.59-0.81-5.71-2.49c-2.9-2.29-4.83-5.82-5.9-10.79c-0.54-2.52-1.07-5.23-1.09-8.16c0-0.45-0.22-0.87-0.57-1.1 c-0.18-0.12-0.39-0.18-0.59-0.18c-0.19,0-0.38,0.05-0.55,0.15c-1.17,0.7-1.59,1.72-1.96,2.61c-0.09,0.22-0.18,0.44-0.28,0.64 c-2.03,4.15-4.49,8.9-7.92,12.74c-0.92,1.04-1.85,2.01-3.1,2.51c-1.57,0.63-3.01,0.95-4.29,0.95c-1.35,0-2.55-0.36-3.56-1.06 c-2.04-1.41-3.32-4.27-3.73-8.25c-0.29-2.85-0.03-6.01,0.75-9.4c0.28-1.22,0.51-2.23,0.7-3.17c0.27-1.32-0.16-2.05-0.57-2.43 c-0.37-0.33-0.79-0.5-1.26-0.5c-0.4,0-0.83,0.12-1.38,0.4c-1.37,0.69-2.28,2.02-2.78,4.05c-0.81,3.3-1.44,6.02-1.98,8.56 c-0.92,4.35-2.75,8.62-5.58,13.06c-0.06,0.09-0.11,0.17-0.16,0.26c-0.17,0.27-0.33,0.53-0.51,0.71c-0.3,0.3-0.59,0.61-0.89,0.93 c-1.08,1.17-2.2,2.37-3.43,2.37c-0.32,0-0.64-0.08-0.99-0.23c-1.43-0.64-1.51-2.07-1.46-4.36c0.01-0.55,0.02-1.06,0-1.57 c-0.04-0.98,0-2,0.04-2.98c0.08-1.99,0.16-4.05-0.36-6.24c-0.11-0.45-0.42-0.8-0.82-0.92c-0.1-0.03-0.2-0.04-0.3-0.04 c-0.31,0-0.6,0.13-0.82,0.38c-0.97,1.09-1.3,2.38-1.59,3.52c-0.1,0.39-0.2,0.79-0.32,1.15c-1.02,2.99-2.25,6.43-4.07,9.44 c-1.59,2.64-3.23,5.36-5.96,5.36c-0.15,0-0.31-0.01-0.47-0.02c-2.27-0.23-3.07-2.15-4.04-5.06c-0.19-0.57-0.37-1.11-0.58-1.65 c-0.1-0.27-0.17-0.58-0.25-0.91c-0.14-0.63-0.29-1.29-0.71-1.87c-0.22-0.31-0.56-0.49-0.91-0.49c-0.06,0-0.13,0.01-0.19,0.02 c-1.27,0.24-1.8,1.31-2.19,2.09c-0.11,0.23-0.22,0.44-0.33,0.62c-0.42,0.68-0.83,1.37-1.23,2.04c-1.23,2.08-2.51,4.24-4.18,5.95 c-0.2,0.21-0.4,0.43-0.59,0.63c-0.49,0.54-0.95,1.06-1.47,1.35C244.73,346.86,242.78,347.45,241.07,347.45z M270.24,304.99 c-0.19,0-0.37,0.03-0.55,0.09c-0.98,0.35-1.41,1.54-1.66,2.4c-1.66,5.93-3.42,11.13-5.4,15.89c-1.26,3.04-0.93,6.25,0.94,9.04 c0.87,1.3,1.76,1.97,2.74,2.07l0.06,0.01c0.06,0,0.12,0.01,0.18,0.01c0.92,0,1.85-0.51,2.85-1.56 c3.34-3.49,5.67-7.98,7.57-14.55c0.33-1.13,0.11-2.22-0.13-3.49l-0.09-0.48c-0.01-0.06-0.03-0.13-0.05-0.19 c-0.12-0.36-0.24-0.73-0.36-1.1c-0.78-2.41-1.66-5.15-3.91-7.07c-0.8-0.68-1.45-1.02-2.05-1.06 C270.33,304.99,270.28,304.99,270.24,304.99z M246.76,315.48c-0.4,0-0.99,0.16-1.53,0.92c-2.44,3.44-3.78,7-4.1,10.88 c-0.04,0.53,0.21,1.04,0.63,1.28c0.17,0.09,0.35,0.14,0.52,0.14c0.28,0,0.55-0.11,0.77-0.33c2.61-2.59,4.36-5.51,5.35-8.92 c0.14-0.48,0.19-1.05,0.16-1.64c-0.03-0.41-0.11-1.68-1.13-2.16c-0.18-0.09-0.37-0.14-0.56-0.15 C246.83,315.48,246.79,315.48,246.76,315.48z M318.18,299.19c-2.13,0-2.63,2.12-2.99,3.66c-1.36,5.77-4.36,10.91-8.92,15.29 c-0.21,0.2-0.44,0.39-0.66,0.58c-0.46,0.38-0.92,0.77-1.31,1.28c-1.3,1.72-1.04,4.42,0.61,6.42c0.65,0.78,1.39,1.18,2.2,1.18 c0.72,0,1.46-0.3,2.36-0.95c0.88-0.64,1.54-1.28,2.03-1.97c4.88-6.86,8.84-14.42,12.48-23.79c0.17-0.43,0.11-0.93-0.14-1.3 c-0.22-0.33-0.56-0.51-0.92-0.51c-0.05,0-0.11,0-0.16,0.01c-0.34,0.05-0.65,0.11-0.94,0.16c-0.67,0.12-1.23,0.22-1.71,0.22 c-0.24,0-0.45-0.02-0.64-0.08c-0.38-0.1-0.71-0.16-1.01-0.18C318.35,299.19,318.26,299.19,318.18,299.19z M305.4,316.05 c0.11,0.03,0.22,0.05,0.34,0.05c0.46,0,0.92-0.27,1.27-0.74c1.98-2.71,4.23-5.77,5.13-9.68c0.13-0.58,0.12-1.28-0.06-2.14 c-0.18-0.88-0.81-1.43-1.65-1.43c-0.06,0-0.12,0-0.19,0.01c-0.14,0.01-0.28,0.05-0.41,0.12l-0.06,0.03 c-0.08,0.04-0.18,0.09-0.29,0.17c-1.26,0.86-2.8,4.27-3.4,5.7c-0.75,1.79-1.98,5.01-1.71,6.5 C304.56,315.67,305.13,315.97,305.4,316.05L305.4,316.05z M266.15,292.75c-0.47,0-1.71,0-2.94,4.76 c-1.03,4.01-2.2,10.72-2.81,14.37c-0.11,0.64,0.23,1.27,0.78,1.47c0.12,0.04,0.24,0.06,0.36,0.06c0.44,0,0.85-0.28,1.05-0.74 c0.73-1.71,1.44-3.47,2.11-5.24c0.53-1.39,0.82-2.24,1.4-3.92c0.06-0.17,1.41-4.1,1.7-7.61c0.05-0.64,0.19-2.33-0.93-2.97 c-0.12-0.07-0.37-0.18-0.68-0.19C266.18,292.75,266.16,292.75,266.15,292.75z"/>
        </g>
      </g>
      <g>
        <g>
          <radialGradient id="SVGID_8_" cx="265.4756" cy="401.4229" r="13.1909" gradientTransform="matrix(1.4551 0 0 1.6253 -100.2998 -280.1336)" gradientUnits="userSpaceOnUse">
            <stop offset="0" style="stop-color:#E93426"/>
            <stop offset="1" style="stop-color:#D12027"/>
          </radialGradient>
          <path class="st7" d="M283,395.79c-3.24,0-6.12-1.96-8.56-5.85c-1.78-2.83-3.3-6.62-4.51-11.26c-1.5-5.76-1.45-11.29,0.16-16 c1.71-5.02,5.18-9.03,10.05-11.58c2.33-1.19,4.53-1.92,6.56-2.17c2.48-0.31,6.86-0.29,8.3,3.34c0.6,1.51,0.48,3.21-0.33,4.8 c-1.01,1.98-2.91,3.42-4.82,3.67c-0.84,0.1-1.66-0.41-1.95-1.2c-0.12-0.33-0.08-0.69-0.03-1.16c0.06-0.55,0.13-1.24-0.1-1.87 c-0.31-0.85-1.12-1.17-2.63-1.03c-1.16,0.11-2.28,0.44-3.14,0.93l-0.01,0.01c-3.34,1.8-4.73,5.21-5.3,7.76 c-0.72,3.21-0.58,6.95,0.38,10.25c0.91,3.14,1.97,5.48,3.23,7.17c1.68,2.24,3.62,3.2,5.94,2.92c4-0.47,7.1-5.09,9.15-8.14 c0.37-0.55,0.77-1.29,1.19-2.07c1.15-2.12,2.45-4.52,4.21-5.33l0.07-0.03l0.07-0.01c0.93-0.15,1.69,0.3,2.01,1.21 c0.58,1.63-0.08,3.69-0.61,5.35c-0.09,0.28-0.18,0.55-0.26,0.81l0,0.01c-1.43,4.4-3.9,8.91-6.79,12.35 c-3.49,4.16-7.4,6.61-11.29,7.07C283.65,395.77,283.32,395.79,283,395.79z M288.98,359.07 C288.98,359.07,288.98,359.07,288.98,359.07C288.98,359.07,288.98,359.07,288.98,359.07z"/>
        </g>
        <g>
          <radialGradient id="SVGID_9_" cx="285.9217" cy="402.5037" r="8.2656" gradientTransform="matrix(1.4551 0 0 1.6253 -100.2998 -280.1336)" gradientUnits="userSpaceOnUse">
            <stop offset="0" style="stop-color:#E93426"/>
            <stop offset="1" style="stop-color:#D12027"/>
          </radialGradient>
          <path class="st8" d="M322.25,387.64c-3.06,0-6.87-2.82-11.36-8.41c-2.22-2.77-4.35-6.17-6.51-10.4 c-0.66-1.29-0.69-2.91-0.1-4.32c0.59-1.4,1.71-2.38,3.01-2.63c1.71-0.33,3.34,0.51,4.16,2.13c0.73,1.46,1.36,3.01,1.96,4.51 c0.01,0.03,0.02,0.06,0.04,0.09c0.43-3.37,2.09-6.61,5.33-7.73c3.38-1.17,6.64,0.16,8.32,3.38l0.02,0.05 c0.67,1.59,0.69,3.61,0.06,5.55c-0.62,1.91-1.77,3.42-3.16,4.14l-0.02,0.01c-0.73,0.34-1.56,0.21-2.18-0.35 c-0.58-0.53-0.85-1.33-0.71-2.13c0.24-1.36,0-2.56-0.42-3.94c-0.23-0.41-0.66-0.67-0.87-0.59c-0.83,0.31-1.46,1.01-1.87,2.07 c-0.87,2.25-0.55,5.73,0.25,7.67c1.08,2.35,3.04,4.22,4.93,6.03c0.36,0.35,0.74,0.71,1.1,1.06c0.61,0.61,1.22,1.34,1.1,2.13 c-0.11,0.77-0.84,1.11-1.19,1.28C323.55,387.51,322.92,387.64,322.25,387.64z"/>
        </g>
        <g>
          <radialGradient id="SVGID_10_" cx="303.1192" cy="395.9431" r="8.6424" gradientTransform="matrix(1.4551 0 0 1.6253 -100.2998 -280.1336)" gradientUnits="userSpaceOnUse">
            <stop offset="0" style="stop-color:#E93426"/>
            <stop offset="1" style="stop-color:#D12027"/>
          </radialGradient>
          <path class="st9" d="M336.97,377.51c-0.28,0-0.56-0.04-0.84-0.11c-1.64-0.42-3.24-2.06-4.74-4.87 c-2.28-4.25-3.42-10.36-3.04-16.36l0-0.02c0.09-0.92,0.26-1.84,0.45-2.45l0.01-0.02c0.33-0.94,0.96-1.92,1.72-1.83 c0.58,0.07,0.95,0.65,1.12,1.75c0.09,0.61,0.2,1.68,0.24,2.38c0.42,3.53,1.8,7.45,3.7,10.48c1.03,1.66,1.64,1.9,1.73,1.87 c1.63-1.41-0.39-7.49-1.15-9.77c-0.1-0.29-0.18-0.55-0.25-0.77l-0.02-0.05c-0.74-2.32-1.98-6.21,0.86-8.07l0.01-0.01 c1.53-0.94,3.35-0.05,4.35,1.32c0.63,0.86,1.05,1.88,1.45,2.87c0.2,0.49,0.39,0.95,0.6,1.39l0,0c2.07,4.29,4.74,7.4,8.17,9.51 c0.75,0.41,1.44,1.03,1.47,1.06l0.06,0.06c0.46,0.54,0.45,1.05,0.39,1.31c-0.09,0.47-0.43,0.86-0.92,1.08 c-0.64,0.28-1.42,0.14-2.18,0.01l-0.07-0.02c-3.59-1.03-6.28-2.35-8.48-4.18c0.41,1.66,0.73,3.61,0.7,5.56 c-0.05,3.25-1.08,5.63-3.06,7.07C338.51,377.24,337.74,377.51,336.97,377.51z"/>
        </g>
        <g>
          <radialGradient id="SVGID_11_" cx="313.8711" cy="389.9807" r="8.4861" gradientTransform="matrix(1.4551 0 0 1.6253 -100.2998 -280.1336)" gradientUnits="userSpaceOnUse">
            <stop offset="0" style="stop-color:#E93426"/>
            <stop offset="1" style="stop-color:#D12027"/>
          </radialGradient>
          <path class="st10" d="M360.23,369.61c-0.27,0-0.52-0.08-0.73-0.2c-0.99-0.59-1.27-2.23-0.67-3.9l0.15-0.41 c0.98-2.7,3.01-8.27,1.44-10.72c-0.62-0.27-1.7,0.23-2.42,0.57c-0.21,0.1-0.4,0.19-0.58,0.26c-1.71,0.7-3.5,1.05-5.03,0.99 c-1.98-0.08-3.53-0.8-4.61-2.14c-3.11-3.87-0.54-7.65,1.53-10.69l0.01-0.01c0.97-1.35,1.94-2.7,2.9-4.05 c0.4-0.55,1.15-1.56,2.04-1.52c0.3,0.01,0.72,0.16,1.08,0.74c0.91,1.49,0,3.49-0.6,4.81l-0.09,0.2 c-0.08,0.19-0.18,0.43-0.29,0.69c-0.33,0.77-0.77,1.83-1.06,2.77c-0.41,1.36-0.23,1.67-0.23,1.67c0.1,0.1,0.54,0.41,2.24-0.18 c1.17-0.4,2.47-1.06,3.33-1.5l0.19-0.1c2.58-1.31,4.95-1.07,6.34,0.65c2.16,2.67,1.19,8.03,0.73,10.61 c-0.48,2.69-1.47,6.57-3.44,9.77C361.7,369.16,360.89,369.61,360.23,369.61z"/>
        </g>
        <g>
          <radialGradient id="SVGID_12_" cx="321.7" cy="377.5653" r="13.0556" gradientTransform="matrix(1.4551 0 0 1.6253 -100.2998 -280.1336)" gradientUnits="userSpaceOnUse">
            <stop offset="0" style="stop-color:#E93426"/>
            <stop offset="1" style="stop-color:#D12027"/>
          </radialGradient>
          <path class="st11" d="M384.33,354.75c-0.14,0-0.28-0.02-0.41-0.07c-0.8-0.29-1.14-1.31-1.39-2.38 c-0.23-0.97-0.49-1.98-0.74-2.95c-0.12-0.48-0.25-0.96-0.37-1.42c-1.42-5.61-4.3-13.48-8.13-18.76 c-0.07-0.09-0.13-0.16-0.18-0.21c-0.68,1.63-0.23,4.36,0.1,6.4c0.07,0.4,0.13,0.78,0.18,1.12c0.32,2.25,0.76,4.52,1.18,6.71 c0.3,1.54,0.6,3.13,0.87,4.71c0.09,0.49,0.22,1.85-0.26,2.39c-0.46,0.52-1.53,1.06-3.51-1.08c-0.58-0.63-1.1-1.34-1.59-2.03 c-0.23-0.33-0.48-0.66-0.72-0.99c-1.23-1.64-2.44-3.29-3.66-4.93c-1.2-1.61-2.39-3.22-3.59-4.83c-0.71-0.95-1.43-1.96-2.13-2.93 c-2.58-3.59-5.25-7.31-8.46-10.01c-1.3-1.08-2.14-2.26-2.49-3.53c-0.57-2.08,0.1-4.56,1.68-6.19c0.62-0.68,1.58-1.23,2.21-1.42 l0.06-0.01c3.73-0.72,6.59,5.43,8.31,9.1c0.28,0.6,0.52,1.13,0.74,1.54c1.7,3.35,3.64,6.65,5.51,9.84 c0.6,1.02,1.2,2.05,1.81,3.09c-0.53-2.43-1.05-5.25-1.24-7.98c-0.32-4.69,0.43-7.88,2.29-9.74c0.7-0.7,1.51-1.02,2.42-0.97 c2.06,0.13,4.16,2.25,5.56,4.01l0.04,0.06c1,1.61,1.79,3.13,2.49,4.81c3.93,9.35,5.91,17.42,5.89,23.98 c-0.02,1.98-0.42,3.37-1.14,4.03C385.2,354.53,384.75,354.75,384.33,354.75z M374.32,349.44L374.32,349.44L374.32,349.44z"/>
        </g>
      </g>
      <g>
        <path class="st12" d="M309.51,364.23c0.71,1.41,1.32,2.93,1.92,4.4l0.04,0.09c0.19,0.47,0.61,0.76,1.06,0.76 c0.03,0,0.05,0,0.08-0.01c-0.08-0.1-0.15-0.22-0.21-0.35l-0.04-0.09c-0.59-1.47-1.21-3-1.92-4.4c-0.39-0.77-1.05-1.29-1.82-1.46 C308.98,363.44,309.29,363.79,309.51,364.23z"/>
        <path class="st12" d="M293.01,352.37c0.45,1.12,0.35,2.41-0.28,3.63c-0.79,1.55-2.28,2.72-3.76,2.99c0,0.02,0,0.05,0,0.06 c0.08,0.19,0.34,0.39,0.66,0.39c0.03,0,0.06,0,0.08,0c1.53-0.2,3.12-1.41,3.94-3.02c0.62-1.22,0.72-2.51,0.28-3.63 c-0.49-1.23-1.47-1.92-2.58-2.29C292.07,350.91,292.66,351.5,293.01,352.37z"/>
        <path class="st12" d="M279.4,382.42c-1.36-1.82-2.49-4.3-3.44-7.6c-1.02-3.52-1.17-7.52-0.4-10.96c0.63-2.82,2.17-6.6,5.91-8.61 c0.99-0.57,2.27-0.95,3.58-1.07c0.25-0.02,0.49-0.03,0.72-0.03c0.43,0,0.81,0.05,1.16,0.14c-0.53-0.37-1.23-0.55-2.09-0.55 c-0.22,0-0.46,0.01-0.72,0.03c-1.31,0.12-2.59,0.5-3.58,1.07c-3.73,2.01-5.27,5.79-5.91,8.61c-0.77,3.44-0.63,7.44,0.4,10.96 c0.96,3.3,2.08,5.78,3.44,7.6c1.14,1.52,2.43,2.54,3.86,3.05C281.27,384.49,280.29,383.61,279.4,382.42z"/>
        <path class="st12" d="M351.34,349.18c0.25,0.28,0.6,0.45,1.03,0.51c-0.03-0.03-0.07-0.06-0.1-0.1c-0.03-0.03-0.06-0.07-0.09-0.11 c-0.41-0.56-0.4-1.48,0.03-2.9c0.3-1.01,0.77-2.1,1.11-2.91c0.11-0.25,0.2-0.48,0.28-0.66c0.01-0.02,0.01-0.04,0.02-0.05 l0.09-0.2c0.48-1.05,1.2-2.64,0.67-3.5c-0.05-0.08-0.12-0.17-0.18-0.18c-0.13,0-0.32,0.14-0.57,0.4 c0.04,0.87-0.48,2.03-0.85,2.86l-0.09,0.2c-0.01,0.02-0.02,0.04-0.02,0.05c-0.07,0.18-0.17,0.41-0.28,0.66 c-0.34,0.81-0.81,1.9-1.11,2.91c-0.43,1.42-0.44,2.34-0.03,2.9C351.27,349.11,351.3,349.15,351.34,349.18z"/>
        <path class="st12" d="M329.81,355.66c0,0.02,0,0.05,0.01,0.07c0.44,3.73,1.9,7.86,3.9,11.05c0.96,1.55,1.83,2.36,2.58,2.42 c-0.51-0.39-1.06-1.06-1.65-2c-2-3.19-3.46-7.32-3.9-11.05c0-0.02-0.01-0.05-0.01-0.07c-0.05-0.67-0.14-1.7-0.23-2.25 c-0.04-0.28-0.1-0.46-0.14-0.58c-0.13,0.15-0.32,0.44-0.48,0.9c-0.05,0.17-0.11,0.38-0.16,0.61 C329.76,355.07,329.79,355.4,329.81,355.66z"/>
        <path class="st12" d="M301.27,370.19c-0.04,0-0.08,0-0.12,0.01c-0.07,0.03-0.13,0.07-0.2,0.11c0.35,1.18-0.2,2.92-0.65,4.32 c-0.09,0.29-0.18,0.57-0.26,0.84c-1.37,4.23-3.76,8.57-6.55,11.89c-3.3,3.93-6.95,6.24-10.57,6.67 c-0.29,0.03-0.58,0.05-0.86,0.05c0,0,0,0,0,0c-0.78,0-1.54-0.14-2.27-0.41c1.02,0.54,2.09,0.82,3.2,0.82c0,0,0,0,0,0 c0.28,0,0.57-0.02,0.86-0.05c3.61-0.43,7.27-2.73,10.57-6.67c2.79-3.32,5.18-7.66,6.55-11.89c0.08-0.27,0.17-0.55,0.26-0.84 c0.46-1.45,1.04-3.26,0.62-4.43C301.75,370.32,301.57,370.19,301.27,370.19z"/>
        <path class="st12" d="M359.32,321.63c0.29,0.62,0.53,1.15,0.76,1.58c1.72,3.39,3.67,6.7,5.55,9.91l0.01,0.03 c0.59,1.01,1.19,2.03,1.79,3.06c0.22,0.38,0.59,0.59,0.97,0.59c0.02,0,0.05-0.01,0.07-0.01c-0.04-0.05-0.08-0.11-0.12-0.17 c-0.6-1.03-1.2-2.05-1.79-3.06l-0.01-0.03c-1.89-3.21-3.83-6.52-5.55-9.91c-0.22-0.44-0.47-0.97-0.76-1.58 c-1.29-2.77-3.63-7.79-6.18-8.4C356.25,315.04,358.19,319.19,359.32,321.63z"/>
        <path class="st12" d="M350.83,365.91c-0.02-0.01-0.03-0.02-0.05-0.03c-3.63-2.24-6.45-5.52-8.63-10.03 c-0.23-0.48-0.42-0.96-0.63-1.46c-0.39-0.95-0.75-1.85-1.29-2.58c-0.46-0.63-1.11-1.07-1.73-1.19c0.3,0.2,0.57,0.47,0.8,0.78 c0.54,0.73,0.9,1.63,1.29,2.58c0.21,0.51,0.4,0.99,0.63,1.46c2.17,4.51,5,7.8,8.63,10.03c0.02,0.01,0.03,0.02,0.05,0.03 c0.48,0.26,0.99,0.67,1.23,0.88c0.04,0.06,0.06,0.09,0.07,0.11c-0.02,0.03-0.08,0.09-0.2,0.14c-0.11,0.05-0.27,0.07-0.46,0.07 c0,0,0,0,0,0c-0.32,0-0.7-0.07-1.09-0.14l-0.02,0c-1.21-0.35-2.31-0.73-3.32-1.15c1.25,0.59,2.65,1.11,4.25,1.57l0.02,0 c0.4,0.07,0.77,0.14,1.09,0.14c0,0,0,0,0,0c0.19,0,0.35-0.03,0.46-0.07c0.12-0.05,0.18-0.11,0.2-0.14 c-0.01-0.02-0.03-0.06-0.07-0.11C351.82,366.58,351.31,366.17,350.83,365.91z"/>
        <path class="st12" d="M362.8,347.45c0.22,0.15,0.42,0.33,0.59,0.55c1.77,2.18,0.85,7.3,0.45,9.49c-0.46,2.57-1.4,6.27-3.26,9.29 c-0.33,0.54-0.63,0.82-0.85,0.97c0.06,0.25,0.18,0.44,0.32,0.52c0.05,0.03,0.12,0.05,0.19,0.05c0.14,0,0.63-0.08,1.28-1.13 c1.86-3.02,2.8-6.72,3.26-9.29c0.39-2.19,1.31-7.3-0.45-9.49C363.92,347.92,363.41,347.6,362.8,347.45z"/>
        <path class="st12" d="M374.31,348.14c-0.26-1.56-0.57-3.15-0.86-4.69c-0.43-2.21-0.86-4.49-1.19-6.77 c-0.05-0.33-0.11-0.69-0.17-1.09c-0.38-2.31-0.85-5.18-0.01-7.18c0.16-0.37,0.46-0.64,0.83-0.72c0.05-0.01,0.1-0.01,0.16-0.02 c-0.02-0.03-0.05-0.05-0.07-0.08c-0.22-0.22-0.5-0.34-0.78-0.34c-0.08,0-0.15,0.01-0.23,0.02c-0.36,0.08-0.67,0.35-0.83,0.72 c-0.83,2-0.36,4.87,0.01,7.18c0.07,0.4,0.13,0.76,0.17,1.09c0.33,2.28,0.76,4.56,1.19,6.77c0.3,1.54,0.6,3.13,0.86,4.69 c0,0.01,0,0.02,0.01,0.03c0.09,0.45,0.08,1.03,0.01,1.24c-0.03,0.03-0.07,0.04-0.11,0.04c0.5,0.38,0.78,0.42,0.88,0.42 c0.06,0,0.1-0.01,0.15-0.05c0.06-0.21,0.07-0.79-0.01-1.24C374.31,348.16,374.31,348.15,374.31,348.14z"/>
        <path class="st12" d="M379.87,326.65c-0.67-1.59-1.43-3.05-2.38-4.59c-1.51-1.89-2.96-3.08-4.16-3.44 c0.99,0.57,2.09,1.6,3.23,3.02c0.95,1.53,1.71,2.99,2.38,4.59c3.86,9.18,5.8,17.06,5.78,23.42c-0.03,2.23-0.55,2.89-0.72,3.03 c-0.04,0.04-0.08,0.07-0.11,0.1c0.16,0.47,0.3,0.62,0.4,0.66c0.02,0.01,0.03,0.01,0.05,0.01c0.1,0,0.31-0.09,0.6-0.35 c0.16-0.15,0.69-0.8,0.72-3.03C385.67,343.7,383.72,335.82,379.87,326.65z"/>
        <path class="st12" d="M322.86,362.03c0.93,0.53,1.72,1.36,2.29,2.44c0.53,1.27,0.53,2.92,0.01,4.53 c-0.51,1.58-1.44,2.82-2.55,3.4c-0.07,0.03-0.14,0.05-0.22,0.06c0.04,0.07,0.1,0.13,0.16,0.19c0.17,0.16,0.39,0.24,0.61,0.24 c0.13,0,0.25-0.03,0.37-0.08c1.11-0.58,2.03-1.82,2.55-3.4c0.52-1.61,0.52-3.26-0.01-4.53 C325.34,363.46,324.21,362.47,322.86,362.03z"/>
        <path class="st12" d="M323.46,384.8c-0.35-0.35-0.72-0.7-1.08-1.05c-1.98-1.89-4.02-3.85-5.21-6.42 c-0.01-0.02-0.02-0.03-0.02-0.05c-0.92-2.24-1.26-6.11-0.26-8.72c0.54-1.39,1.43-2.36,2.58-2.79c0.14-0.05,0.28-0.07,0.43-0.07 c0.06,0,0.12,0.01,0.17,0.02c-0.34-0.27-0.73-0.43-1.1-0.43c-0.15,0-0.3,0.03-0.43,0.07c-1.16,0.44-2.05,1.4-2.58,2.79 c-1.01,2.61-0.66,6.48,0.26,8.72c0.01,0.02,0.01,0.04,0.02,0.05c1.18,2.57,3.23,4.53,5.21,6.42c0.37,0.35,0.73,0.7,1.08,1.05 c0.59,0.59,0.7,0.86,0.72,0.94c-0.06,0.08-0.23,0.18-0.49,0.31c-0.43,0.19-0.92,0.3-1.44,0.3h0c-0.56,0-1.15-0.12-1.79-0.36 c0.99,0.51,1.9,0.77,2.72,0.77h0c0.51,0,1-0.1,1.44-0.3c0.27-0.13,0.43-0.23,0.49-0.31C324.16,385.66,324.05,385.39,323.46,384.8 z"/>
        <path class="st12" d="M340.96,362.99c0.19-0.14,0.4-0.21,0.62-0.22c-0.07-0.05-0.13-0.11-0.2-0.16 c-0.21-0.17-0.45-0.26-0.69-0.26c-0.23,0-0.46,0.07-0.65,0.22c-0.41,0.31-0.6,0.88-0.47,1.41c0.46,1.89,0.68,3.63,0.66,5.2 c-0.05,2.84-0.87,4.8-2.53,6.01c-0.55,0.4-1.1,0.6-1.64,0.6c-0.18,0-0.37-0.02-0.56-0.07c0.3,0.19,0.61,0.33,0.9,0.41 c0.2,0.05,0.39,0.08,0.59,0.08c0.54,0,1.09-0.2,1.64-0.6c1.66-1.21,2.48-3.18,2.53-6.01c0.03-1.56-0.2-3.31-0.66-5.2 C340.36,363.87,340.55,363.3,340.96,362.99z"/>
        <path class="st12" d="M360.28,353.02c-0.11-0.11-0.23-0.2-0.37-0.26c-0.25-0.11-0.54-0.17-0.85-0.17c-0.85,0-1.77,0.43-2.45,0.75 c-0.19,0.09-0.37,0.17-0.53,0.24c-1.45,0.59-2.98,0.92-4.29,0.92c-0.1,0-0.2,0-0.3-0.01c-0.61-0.02-1.17-0.12-1.68-0.28 c0.72,0.42,1.59,0.66,2.6,0.7c0.1,0,0.2,0.01,0.3,0.01c1.31,0,2.83-0.33,4.29-0.92c0.16-0.07,0.34-0.15,0.53-0.24 c0.67-0.31,1.6-0.75,2.45-0.75C360.09,353.01,360.18,353.01,360.28,353.02z"/>
      </g>
    </g>
  </g>
</svg>