<svg id="Layer_1" data-name="Layer 1" xmlns="http://www.w3.org/2000/svg" viewBox="0 0 2884 1400"><defs><style>.cls-1{fill:#fff;}</style></defs><path class="cls-1" d="M1813.69,824.84c-2.14-13.87-13.41-23.13-26.84-23.7a30,30,0,0,0-5.4.29c-.56-.15-4.94.49-6.63,1.79-7.31,3-13.06,9-15.89,17.66a55.79,55.79,0,0,0-3.15,17.13c.18,44,.18,220.23,0,264.27a55.8,55.8,0,0,0,3.15,17.14c2.83,8.64,8.58,14.69,15.89,17.66,1.69,1.29,10.17,2.16,12,2.08,13.43-.58,24.7-9.83,26.84-23.7a158.63,158.63,0,0,0,1.35-29.08C1814,1051.06,1815.17,834.38,1813.69,824.84Z"/><path class="cls-1" d="M1394.85,466.3c40.74,34.94,51.53,82.62,53.79,133.62q1.35,30.51,2.14,61c.16,6.47.22,13.16-1.23,19.4-3.73,16.12-16.85,26.19-33.52,26.79-15.6.57-29-7.34-33.11-23.19-3.62-14-4.19-28.84-5.14-43.37-1.48-22.72-1.69-45.52-3.35-68.22a127,127,0,0,0-5.82-28.62c-9.92-31.6-35.7-46.33-67.84-39.36-6.25,1.35-12.44,3-21.22,5.14-.41,28.55-.9,56.78-1.2,85-.16,15.47.19,30.94-.06,46.41-.1,6.47-.28,13.16-1.94,19.34-4.37,16.32-18,26.9-33.63,27.09-17.15.21-31.59-10.33-35.11-28-2.35-11.85-2.55-24.29-2.33-36.44,1.5-81.4,3.09-162.79,5.29-244.18.53-19.43,3.6-38.79,5.25-58.21,2.61-30.81,24.74-47.49,49.68-53.29,52.32-12.17,104.11-5.51,149.84,25.1,43.92,29.4,53,85.83,21.31,129C1425.22,436.86,1410.32,449.85,1394.85,466.3Zm-118.4-151.14,4.62,121.6c38.58-1.27,68.29-18.7,94.09-42.92,23.08-21.66,20.36-43.08-7.92-58.69C1340,320.11,1309.9,313.94,1276.45,315.16Z"/><path class="cls-1" d="M879.9,518c-1.69-45.82-1.74-183.26,75-231.82,31.2-22,71.69-12.71,97.28,19.12,16.95,21.09,27.95,45.45,34.43,71.3C1108,462,1107,546.74,1073.66,629.23c-7.25,17.95-18.21,35.24-30.75,50.06-32.05,37.9-79.72,36.77-112.2-1-17.69-20.6-28.82-44.9-34.8-70.91C889.13,577.89,881.6,563.77,879.9,518Zm61.55,47.18a208.22,208.22,0,0,0,10.62,39.52c4.5,12,10.07,24,17.38,34.37,12,17.17,23.39,16.94,35.9-.2a116.34,116.34,0,0,0,14.95-28c25.36-69,28.74-139.54,10.75-210.53-4.92-19.41-14.59-38.09-24.77-55.55-33.71-43.62-67.59,52-68.45,88.68C937.25,457.68,938.29,545.67,941.45,565.14Z"/><path class="cls-1" d="M1658.8,501.19c36.15,35.81,70.13,70.1,104.92,103.54,10.13,9.74,22.57,17.08,34,25.49,5.36,3.95,11.47,7.14,16,11.85,13.06,13.53,14.49,34.08,4.13,48.26-10,13.72-28.92,20.24-44.57,10.18a357,357,0,0,1-60-48.14c-25.79-26-74.36-79.83-79.64-84.76-1.29,6.37-7.29,66.67-9.31,90.78-.63,7.47-1.29,15.07-3.21,22.27-4.57,17.06-19.29,27.79-34.88,26.33-16-1.51-28.76-14.07-29.59-31.92-.66-14.06,8.4-198.91,5.27-277.29a597.23,597.23,0,0,1,2.46-77.4c1.69-18.54,10.48-43.55,29-43.14s19.25,22.19,20.69,37.5c2.35,24.92,4.39,49.88,6.8,74.79.86,8.92,2.4,17.76,4,29.55,6.16-4.06,10.47-6.05,13.72-9.17,31.3-30,97.19-109.62,103.28-115.23,15.57-14.35,32.9-8.61,36.26,12.38a66,66,0,0,1-1.18,27.2c-9.22,33.37-25.1,63.37-48.71,89q-30.5,33.12-60.86,66.34C1664.58,492.63,1662.45,496.2,1658.8,501.19Z"/><path class="cls-1" d="M397,377.11c-15.42,5.05-22.08-7.8-28.14-18.52-4.79-8.47-10-16.93-16.2-24.35-29.51-35.09-77.62-15.31-91,14.89-6.08,13.73-1.92,26.06,13.43,34.45,17.82,9.75,36.5,17.94,54.79,26.82,36.72,17.84,67.92,41.6,86.25,79.46,23,47.44,24.3,96.24,5.09,144.45-22.48,56.39-77.46,82.88-137.67,69.4-73.94-16.55-118.24-82.16-105.6-157a53,53,0,0,1,8-20.14c8.09-12.08,23.56-16.84,36.7-12.77,12.9,4,22.43,16.87,22.47,31.7,0,7.25-1.92,14.48-2.26,21.76C241,605.94,262.38,632.88,300.28,640c28.73,5.39,50-5.63,60.28-33,15.2-40.28,9.91-94.09-34.46-124.31-18.09-12.33-38.29-21.59-56.34-34-15.92-10.93-31.6-22.93-44.86-36.87-24.15-25.38-26-55.3-10.37-85.87,18.66-36.6,48.64-59.73,89.74-63.18,38.57-3.24,69.47,14.26,91.77,45.7,5.54,7.81,9.58,17.09,12.52,26.26C413.59,350.44,412.4,372.06,397,377.11Z"/><path class="cls-1" d="M2672.05,373.19c-15.58,5.53-23.49-3.88-29.55-14.6-4.79-8.47-10-16.93-16.2-24.35-29.51-35.09-77.62-15.31-91,14.89-6.08,13.73-1.91,26.06,13.43,34.45,17.82,9.75,36.5,17.94,54.8,26.82,36.71,17.84,67.91,41.6,86.24,79.46,23,47.44,24.3,96.24,5.09,144.45-22.47,56.39-77.46,82.88-137.67,69.4-73.93-16.55-118.23-82.16-105.6-157a53.13,53.13,0,0,1,8-20.14c8.09-12.08,23.56-16.84,36.71-12.77,12.89,4,22.42,16.87,22.46,31.7,0,7.25-1.92,14.48-2.26,21.76-1.79,38.71,19.59,65.65,57.48,72.76,28.74,5.39,50-5.63,60.29-33,15.2-40.28,9.91-94.09-34.46-124.31-18.1-12.33-38.3-21.59-56.34-34-15.93-10.93-31.61-22.93-44.87-36.87-24.15-25.38-26-55.3-10.37-85.87,18.66-36.6,48.65-59.73,89.74-63.18,38.58-3.24,69.47,14.26,91.77,45.7,5.54,7.81,9.58,17.09,12.52,26.26C2687.26,350.44,2687.64,367.67,2672.05,373.19Z"/><path class="cls-1" d="M2178.49,449.44c30-3,57.8-4.56,85.14-8.93,23.58-3.76,44.9,10.86,45.74,33.59.83,22.31-15.28,37.43-42.3,38.71-24.16,1.13-81.24,2.86-88.56,3.88l4.27,112.22c24-2.69,48.58-5.33,73.08-8.22,12.45-1.48,24.82-3.78,37.29-5.07,21.41-2.2,38.92,9.67,42.65,28.36s-7.79,37.09-28.12,43a90.87,90.87,0,0,1-23.9,3c-26.88.28-53.78.37-80.65-.28-15.16-.37-93.66,12-97.19-17.34-2.14-17.69-1.64-35.82-1-53.71,3.16-91.32,6.2-182.66,10.66-273.92.85-17.31.46-35.09,6.61-51.5,2.07-5.51,20.1-12.34,24.69-10.75,32.24.55,51.17.66,76.52.1,32.18-.72,64.26-5.11,96.43-7.34,23.87-1.66,42.46,11.82,45.87,32.2s-10.35,39.42-34,44.22c-13.91,2.82-28.51,3.26-42.78,3.15-37.43-.29-74.85-1.46-114.09-2.33Z"/><path class="cls-1" d="M635.77,358.68c-22-1.51-42.22-2.83-62.4-4.33-4.86-.37-9.67-1.4-14.51-2-10.93-1.43-19.1-7.35-20-18.2-.93-11.35,4.82-20.85,16.51-24.28,12.44-3.65,25.07-7.7,37.86-8.87,44.56-4.11,89.2-7.34,133.85-10.19,9.47-.6,19.68.18,28.57,3.2,12.8,4.34,20.76,18.51,20,30.67-.83,12.69-9.83,25.54-23.22,28.35-15,3.15-30.61,3.65-46,5.07-6.31.58-12.67.54-20.5.84.78,20.62,1.82,40.65,2.25,60.7.84,39,2.13,78.1,1.78,117.14-.39,42.34-2.27,84.68-3.88,127-.3,8-1.17,16.41-3.86,23.87-4.57,12.65-14.74,19.2-28.23,19.55-13.85.36-25.55-7.53-29.63-21.12A76.87,76.87,0,0,1,621.44,662C624.53,562.72,635.69,362.36,635.77,358.68Z"/><path class="cls-1" d="M1998.31,312.88c-2.69-17.39-16.83-29-33.67-29.72a37.78,37.78,0,0,0-6.77.36c-.7-.19-6.2.62-8.32,2.24-9.16,3.73-16.38,11.32-19.93,22.15-2.25,6.88-4,14.32-3.95,21.5.23,55.24.23,276.23,0,331.47,0,7.18,1.7,14.62,3.95,21.5,3.55,10.83,10.77,18.42,19.93,22.15,2.12,1.62,12.76,2.7,15.09,2.6,16.84-.72,31-12.33,33.67-29.72,1.85-12,2.07-24.33,1.69-36.47C1998.64,596.64,2000.16,324.85,1998.31,312.88Z"/><path class="cls-1" d="M2380.3,939.57c0-20.73-.07-40.62,0-60.5.07-17.47.41-34.94.43-52.4,0-9.79,4.37-17.47,12.66-21.73,8.69-4.47,18.38-4,25.52,3.27a26.29,26.29,0,0,1,7,14.91c1.1,12.1.73,24.36.61,36.56-.7,71.24-1.63,142.48-2.15,213.72-.09,11.88,1.28,23.78,2.23,35.65,1.27,16-4.48,24.23-20.38,26.69-12.1,1.88-26.42-7.6-27-23-.84-23.8-1.82-47.6-2.27-71.41-.37-20.15-.07-40.31-.07-61.43l-109.51-4.72c0,4,0,7.24,0,10.46q-.42,63.63-.82,127.25c-.06,10.62-2.08,19.93-13.52,24.2-10,3.75-19.25,2.63-27-5a20.87,20.87,0,0,1-5.75-9.49,72.67,72.67,0,0,1-1.37-16.5c.28-69.58.84-139.16.94-208.75,0-21.33-1-42.67-1.76-64-.37-10.63,2.6-19.24,13.35-23.28,9.93-3.74,19.51-2.78,26.78,5.32a22.74,22.74,0,0,1,5.59,13q2.38,49.41,3.54,98.87c.16,6.93,2.2,8.75,9,8.92,30.6.79,61.19,2.18,91.78,3.32C2371.25,939.67,2374.3,939.57,2380.3,939.57Z"/><path class="cls-1" d="M1599.85,939.57c0-20.73-.07-40.62,0-60.5.07-17.47.41-34.94.44-52.4,0-9.79,4.36-17.47,12.65-21.73,8.69-4.47,18.38-4,25.52,3.27a26.29,26.29,0,0,1,7,14.91c1.1,12.1.73,24.36.61,36.56-.7,71.24-1.63,142.48-2.15,213.72-.09,11.88,1.28,23.78,2.23,35.65,1.27,16-4.48,24.23-20.38,26.69-12.1,1.88-26.42-7.6-27-23-.84-23.8-1.82-47.6-2.27-71.41-.37-20.15-.07-40.31-.07-61.43L1487,975.17c0,4,0,7.24,0,10.46q-.42,63.63-.82,127.25c-.06,10.62-2.08,19.93-13.52,24.2-10,3.75-19.25,2.63-27-5a20.87,20.87,0,0,1-5.75-9.49,72.67,72.67,0,0,1-1.37-16.5c.28-69.58.84-139.16.94-208.75,0-21.33-1-42.67-1.76-64-.37-10.63,2.6-19.24,13.35-23.28,9.93-3.74,19.51-2.78,26.78,5.32a22.74,22.74,0,0,1,5.59,13q2.38,49.41,3.54,98.87c.16,6.93,2.2,8.75,9,8.92,30.6.79,61.19,2.18,91.78,3.32C1590.8,939.67,1593.85,939.57,1599.85,939.57Z"/><path class="cls-1" d="M2061.84,1009.47c-11-2-20.36-3-29.35-5.51-8.29-2.31-12.57-9.36-12.1-17.71.45-8.14,3.86-15.26,12.41-16.62,21.13-3.37,41.52-4.62,61.51,8,13.19,8.36,15.07,18.39,14.18,31.44-1.39,20.45-1.77,41-4,61.34-2.68,24.06-16.41,41.88-37,53.58a139.87,139.87,0,0,1-35.38,13.81c-18.36,4.49-35-3.3-51-11.16-20.23-9.88-31.49-26.8-37.07-48-5.3-20.15-11.75-40.06-15.82-60.45-2.86-14.3-3.57-29.22-3.47-43.86.19-29.33-.24-58.85,3.13-87.89,2.27-19.56,8.36-39.29,20.08-56.17,24.58-35.38,72-46.44,108-24,12.06,7.5,20.85,19.65,26,33.36,3.6,9.55,1,19.19-5.41,23.37-10.06,6.59-22.3,6.56-30-.88a65.33,65.33,0,0,1-10.32-13.62c-10.33-17.38-33.52-18.55-44.31-1.38a124.08,124.08,0,0,0-12.48,27.53c-10.64,32.75-10.16,66.55-7.06,100.22,2.17,23.58,5.8,47.09,10.21,70.37,2.27,12,7.15,23.67,11.79,35.11,5.78,14.25,28.41,20.72,41.72,13.22s21.13-18.21,22.32-33.39C2059.68,1043.34,2060.69,1026.51,2061.84,1009.47Z"/><path class="cls-1" d="M506.76,988c0,28.26-.11,55.67.05,83.08.08,13.57.17,27.18,1.17,40.7a24.84,24.84,0,0,1-23.9,27.18c-12.29.15-25.31-8.7-25.42-26.76-.23-35.53-1.17-71.05-2-106.57-.48-20.79-1.06-41.58-2-62.35-1.44-32.79-2.84-65.6-5-98.35-1.18-18.09,13-29.13,29.79-28.52,14.2.52,28.52-4.27,42.88-5.43,28.61-2.31,57.28-3.8,85.94-5.45a41.36,41.36,0,0,1,10.34,1.15c9.87,2,17.63,10.07,17.91,18.37.29,8.63-6.4,17.68-16.47,19.41-12.21,2.11-24.71,2.71-37.1,3.69-24,1.88-48,3.39-72,5.4-13.17,1.11-13,1.42-12.45,14.19,1,25.68,1.86,51.36,2.82,78.48,8.34,0,16.64.48,24.85-.1,22.27-1.57,44.5-3.75,66.76-5.37,8.77-.64,17.43-.07,24.13,7,11.34,12,7.53,27.29-8.72,31.84-8.27,2.32-17.1,3-25.73,3.59-24.29,1.62-48.61,2.78-72.92,4.18A11.17,11.17,0,0,0,506.76,988Z"/><path class="cls-1" d="M1082.61,929.57c8.43-14.21,16.1-26.14,22.77-38.6,9.58-17.91,18-36.44,27.77-54.26,5.35-9.79,12.07-18.9,18.7-27.93,7.11-9.7,21.52-11.68,32.31-5,7.5,4.61,10.09,15.61,4.76,26.25-5.49,11-12.48,21.2-18.43,32-4.78,8.65-9.1,17.55-13.44,26.43-5.44,11.11-9.89,22.79-16.24,33.35-8.16,13.56-18.09,26.06-26.62,39.43-3.1,4.84-6.17,10.85-6.16,16.32.07,45.74.91,91.48,1.4,137.23.18,16.17-9.84,25.57-25.52,24.34-12.9-1-21.34-9.52-21.52-22.81q-.9-66.13-1.21-132.25c0-5.9-25.78-43.64-29.91-51.69-9.8-19.06-19.4-38.23-29.52-57.13-5.67-10.59-12.77-20.44-18.2-31.13-6.3-12.42-4.6-23.41,3.1-28.74,10.45-7.24,24.64-5.56,33.54,5.23,6.2,7.51,11.32,16,16.15,24.52,9.64,16.94,18.73,34.19,28.07,51.31C1070.1,906.78,1075.82,917.19,1082.61,929.57Z"/><path class="cls-1" d="M799.75,1095.15c22-1.41,41-3.07,60.06-3.6,6.86-.19,13.62-1.71,20.33.27,7.7,2.27,10.41,12.53,10.41,19.66,0,18.73-19.88,21.09-25.33,21.55-25.24,2.17-50.54,3.72-75.81,5.57-24.36,1.77-38.72-9.25-38.66-35.5.08-38-.76-76-2.25-114-2.08-52.7-4.45-105.41-8.06-158-1.63-23.76,14.39-33.47,29.95-30,13.49,3,19.19,10.38,20,24.51,1.06,18.08,2.49,36.13,3.26,54.22,2.16,51.21,4.29,102.42,6,153.65C800.3,1053.54,799.75,1073.69,799.75,1095.15Z"/></svg>